<svg width="50" height="49" viewBox="0 0 50 49" fill="none" xmlns="http://www.w3.org/2000/svg">
<path d="M5.21484 0.298828C4.99023 0.494141 4.94141 0.630859 4.90234 1.13867C4.87305 1.49023 4.91211 1.85156 4.98047 2.02734C5.29297 2.78906 6.52344 2.78906 6.83594 2.02734C6.9043 1.85156 6.94336 1.49023 6.91406 1.13867C6.85547 0.376953 6.57227 0.0742188 5.9082 0.0742188C5.5957 0.0742188 5.40039 0.142578 5.21484 0.298828Z" fill="#90B956"/>
<path d="M0.302734 3.16016C0.0488281 3.375 0 3.48242 0 3.85352C0 4.41992 0.0976562 4.58594 0.625 4.89844C1.24023 5.25977 1.77734 5.24023 2.1582 4.86914C2.70508 4.32227 2.48047 3.52148 1.65039 3.10156C1.12305 2.82813 0.664062 2.84766 0.302734 3.16016Z" fill="#90B956"/>
<path d="M10.1367 3.10156C9.62891 3.375 9.375 3.73632 9.375 4.19531C9.375 5.07422 10.3516 5.44531 11.1816 4.88867C11.7188 4.52734 11.8066 4.39062 11.8164 3.90234C11.8164 3.04297 10.9961 2.65234 10.1367 3.10156Z" fill="#90B956"/>
<path d="M5.04883 3.19922C4.27734 3.39453 3.53516 3.88281 3.01758 4.53711C2.08008 5.70899 2.09961 7.74024 3.05664 8.95117C4.69727 11.0215 7.98828 10.6602 9.16016 8.27734C9.53125 7.52539 9.58008 6.23633 9.27734 5.41602C8.98437 4.63477 8.19336 3.79492 7.42187 3.45313C6.75781 3.15039 5.68359 3.04297 5.04883 3.19922ZM6.72852 5.41602C7.61719 6.08008 7.66602 7.22266 6.83594 7.91602C5.76172 8.82422 4.04297 7.71094 4.41406 6.34375C4.53125 5.92383 4.90234 5.47461 5.32227 5.28906C5.70312 5.11328 6.39648 5.17188 6.72852 5.41602Z" fill="#90B956"/>
<path d="M36.5039 3.9707C34.2578 4.70313 32.9492 7.10547 33.5449 9.40039C33.8965 10.7285 34.7559 11.7539 36.0059 12.3594L36.7676 12.7207H40.332H43.8965L44.5312 12.418C45.3027 12.0566 45.9961 11.373 46.3672 10.6309C46.6016 10.1328 46.6309 9.98633 46.6309 9.00977C46.6309 8.02344 46.6113 7.88672 46.3477 7.34961C45.9766 6.60742 45.3223 5.95313 44.5801 5.58203C44.1113 5.35742 43.8379 5.28906 43.1836 5.25977C42.7344 5.24023 42.1875 5.2793 41.9531 5.33789C41.5332 5.43555 41.5332 5.43555 41.0645 4.99609C40.8105 4.74219 40.2637 4.38086 39.8535 4.18555C39.1699 3.86328 39.0332 3.83399 38.0859 3.81445C37.2949 3.79492 36.9336 3.82422 36.5039 3.9707ZM38.916 6.02148C39.3652 6.22656 39.873 6.71484 40.1758 7.26172C40.5664 7.95508 41.1328 8.0625 41.9531 7.58398C42.6172 7.21289 43.1738 7.18359 43.7695 7.51563C44.5117 7.92578 44.8633 9.00977 44.4922 9.72266C44.3066 10.0742 43.8574 10.4844 43.5254 10.6113C43.3496 10.6797 42.1484 10.7188 40.293 10.7188H37.3437L36.8262 10.4551C35.7324 9.91797 35.2051 8.63867 35.5957 7.48633C36.0449 6.1582 37.666 5.44531 38.916 6.02148Z" fill="#90B956"/>
<path d="M19.248 5.69922C17.1289 6.26562 15.7129 8.0918 15.6934 10.2793C15.6836 11.4512 16.1523 12.7891 16.7578 13.3652L16.9922 13.5801L16.6797 13.7754L16.3672 13.9609L16.1719 13.6875C15.7031 13.043 15.3809 12.7598 14.7656 12.457C14.1895 12.1738 14.0234 12.1348 13.2812 12.1348C12.5391 12.1348 12.3828 12.1738 11.7969 12.457C11.0547 12.8184 10.5273 13.3555 10.1953 14.0879C9.92187 14.6836 9.80469 15.6699 9.94141 16.2461C10.0195 16.5879 10.0098 16.666 9.85351 16.7539C9.59961 16.9199 9.54101 17.1738 8.7793 21.5586C8.05664 25.7187 8.01758 26.1777 8.34961 26.8418C8.88672 27.9062 9.43359 28.209 11.2695 28.5117L12.6074 28.7266L12.5586 29.2734C12.5293 29.5664 12.4512 30.582 12.3926 31.5195L12.2852 33.2285L11.0254 35.8359C9.50195 38.9902 9.4043 39.332 9.70703 40.4844L9.83398 40.9922H9.17969H8.51562L4.43359 43.5898C2.17773 45.0156 0.263672 46.2754 0.175781 46.3828C0.0585937 46.5098 0 46.7441 0 47.0176C0 47.3691 0.0585937 47.5059 0.283203 47.7402C0.595703 48.0527 1.10352 48.1211 1.49414 47.9062C1.61133 47.8477 3.38867 46.7246 5.43945 45.416L9.16992 43.043H16.5234C22.1094 43.0332 23.9258 43.0039 24.082 42.916C24.1992 42.8477 25.7617 41.4023 27.5488 39.7031L30.8105 36.5977H34.9707C39.043 36.5977 39.1406 36.5977 39.3945 36.3926C39.7656 36.0996 41.3965 33.9805 41.4648 33.6973C41.6309 33.0723 41.1133 32.4473 40.4297 32.4473C39.9707 32.4473 39.7559 32.6328 38.916 33.7559L38.3301 34.5371L36.2109 34.5469H34.0918L33.9355 34.0293C33.8574 33.7559 33.0957 31.1387 32.2461 28.2285L30.7031 22.9355L30.9766 22.8184C31.3281 22.6719 32.0019 21.9297 32.1973 21.4805C32.4512 20.8848 32.4023 19.8496 32.0996 19.2539C31.6406 18.3457 30.918 17.877 29.8047 17.7598L29.1699 17.7012L28.8477 16.5781C28.4082 15.084 28.3398 14.9375 28.0176 14.7715C27.5488 14.5273 27.168 14.5859 26.7969 14.957C26.3867 15.3672 26.377 15.5527 26.748 16.8027L27.0312 17.7598L26.8066 17.7305C26.6602 17.7109 25.8984 17.0566 24.834 16.041L23.0957 14.3809L23.7793 13.6973C24.8242 12.6523 25.1855 11.7734 25.1953 10.25C25.2051 7.19336 22.2168 4.89844 19.248 5.69922ZM21.2598 7.74023C22.3535 8.0625 23.1445 9.15625 23.1445 10.3281C23.1348 12.6719 20.4102 13.8926 18.6719 12.3301C17.4707 11.2559 17.4316 9.51758 18.5937 8.38477C19.3262 7.67188 20.2539 7.44727 21.2598 7.74023ZM13.8672 14.3223C14.2676 14.5273 14.6484 15.1328 14.6484 15.5527C14.6484 16.2656 13.9648 16.9687 13.2812 16.9687C12.627 16.9687 11.9141 16.2559 11.9141 15.6016C11.9141 15.1816 12.3242 14.5078 12.6953 14.3125C13.125 14.0879 13.4375 14.0879 13.8672 14.3223ZM20.8301 15.2891C21.0352 15.377 22.168 16.373 23.3496 17.5059C24.541 18.6289 25.6055 19.6055 25.7227 19.6738C25.8594 19.7617 26.5332 19.791 27.8906 19.8008C29.6191 19.8008 29.8828 19.8203 30.0586 19.9668C30.3613 20.2402 30.4004 20.5137 30.166 20.8066L29.9707 21.0703H26.3672H22.7734L21.6992 20.1523C21.1133 19.6543 20.5078 19.2148 20.3613 19.1758C20 19.0879 19.4824 19.2734 19.2969 19.5566C19.1211 19.8203 19.0918 20.4062 19.2383 20.6797C19.2871 20.7773 19.6777 21.1582 20.0879 21.5195C20.5078 21.8809 20.8594 22.2129 20.8789 22.252C20.9375 22.3887 19.707 23.2383 18.8965 23.6191C18.4668 23.8242 17.7637 24.0781 17.334 24.1855C16.5234 24.4004 15.3125 24.5957 15.2441 24.5273C15.1758 24.459 16.4062 17.3398 16.5625 16.9102C16.8457 16.1094 17.666 15.4258 18.5937 15.2012C19.1895 15.0645 20.4395 15.1133 20.8301 15.2891ZM12.832 19.0195C13.418 19.127 13.916 19.2344 13.9453 19.2637C13.9844 19.3027 12.9883 25.4355 12.8223 26.1289C12.7246 26.5586 12.4414 26.6367 11.5723 26.4805C11.1426 26.4121 10.6934 26.3242 10.5762 26.2949C10.0977 26.1777 10.0977 26.0605 10.752 22.2812C11.3379 18.8926 11.377 18.7363 11.5625 18.7754C11.6797 18.8047 12.2461 18.9121 12.832 19.0195ZM28.6914 23.4336C28.9453 24.3223 31.8652 34.3223 31.9043 34.4199C31.9434 34.5078 31.8262 34.5469 31.5137 34.5469H31.0742L30.9668 34.0977C30.7715 33.3262 30.5469 32.9941 28.2324 30.084L25.9961 27.2617L24.4238 26.5098C23.291 25.9629 22.8516 25.709 22.8516 25.582C22.8516 25.4941 22.9395 24.9082 23.0469 24.293C23.1543 23.6777 23.2422 23.1602 23.2422 23.1406C23.2422 23.1309 24.4531 23.1211 25.9277 23.1211H28.6035L28.6914 23.4336ZM20.7031 25.7383C20.5176 26.8711 20.5762 26.9395 22.4219 27.8477C23.2812 28.2676 24.1309 28.6777 24.3164 28.7559C24.5801 28.8633 25.1367 29.498 26.748 31.5488C28.0664 33.2187 28.877 34.332 28.9453 34.5566C29.0625 35.0156 28.9648 35.3672 28.584 35.7773C28.1836 36.2168 27.5098 36.334 27.0117 36.0703C26.8262 35.9727 25.9375 34.9473 24.8242 33.5312L22.9395 31.1582L21.3281 30.3672L19.7168 29.5664L17.7539 29.2246C15.6641 28.8633 15.332 28.7363 14.9707 28.1992C14.7461 27.877 14.6582 27.0176 14.8242 26.7734C14.8633 26.7148 15.332 26.6074 15.8691 26.5488C17.5098 26.3633 19.4238 25.7871 20.4102 25.1816C20.5957 25.0742 20.7617 25.0059 20.7812 25.0254C20.8008 25.0449 20.7715 25.3672 20.7031 25.7383ZM15.3613 30.875C15.6445 30.9531 16.1914 31.0703 16.582 31.1289L17.2852 31.2461V31.6465C17.2852 31.8711 17.2363 32.5645 17.1973 33.1894L17.1094 34.332L15.7227 37.1934C14.0918 40.5723 14.0625 40.6309 13.6328 40.8359C12.7441 41.2559 11.7773 40.7285 11.6504 39.7519C11.6113 39.4297 11.7773 39.0391 12.9395 36.6465L14.2773 33.9121L14.375 32.4961C14.4922 30.748 14.5117 30.6016 14.707 30.6797C14.7852 30.709 15.0781 30.7969 15.3613 30.875ZM21.1719 32.584C21.4746 32.7402 22.0117 33.3457 23.4277 35.123C24.9512 37.0469 25.3809 37.5254 25.7812 37.75L26.2695 38.0332L24.7168 39.5078L23.1641 40.9922H19.6875C17.7734 40.9922 16.2109 40.9727 16.2109 40.9531C16.2109 40.9434 16.8652 39.5762 17.666 37.9355L19.1211 34.9473L19.1797 34.0879C19.2187 33.6191 19.2676 32.8965 19.3066 32.4863L19.3555 31.7344L20.0684 32.0566C20.459 32.2422 20.957 32.4766 21.1719 32.584Z" fill="#90B956"/>
<path d="M0.830078 8.48242C0.224609 8.79492 0 9.09766 0 9.5957C0 10.4648 0.742188 10.8457 1.61133 10.416C2.1875 10.1328 2.44141 9.81055 2.44141 9.39062C2.44141 8.92187 2.26562 8.59961 1.9043 8.42383C1.48438 8.22852 1.29883 8.23828 0.830078 8.48242Z" fill="#90B956"/>
<path d="M9.91211 8.41406C9.36523 8.64844 9.18945 9.52734 9.59961 9.97656C9.87305 10.2793 10.5176 10.6211 10.8203 10.6211C11.123 10.6211 11.5918 10.3672 11.7187 10.1426C11.7676 10.0352 11.8164 9.77148 11.8164 9.55664C11.8164 9.09766 11.5723 8.78516 10.9863 8.48242C10.5371 8.24805 10.3223 8.23828 9.91211 8.41406Z" fill="#90B956"/>
<path d="M5.38086 11.0508C5.0293 11.2461 4.89258 11.5879 4.88281 12.2617C4.88281 12.8184 4.91211 12.916 5.16602 13.1699C5.54687 13.541 6.20117 13.5703 6.60156 13.2285C6.82617 13.0332 6.875 12.8965 6.91406 12.3887C6.94336 12.0371 6.9043 11.6758 6.83594 11.5C6.62109 10.9824 5.89844 10.7578 5.38086 11.0508Z" fill="#90B956"/>
<path d="M46.1719 24.6934C45.9277 24.791 44.4434 26.5586 44.1602 27.0957C43.9551 27.4668 44.0234 27.877 44.3262 28.2187C44.5703 28.4922 44.6777 28.541 45.0488 28.541C45.5664 28.541 45.7422 28.4043 46.5527 27.3398L47.0996 26.6367H48.252C49.3457 26.6367 49.4141 26.627 49.6973 26.3828C49.9512 26.168 50 26.0605 50 25.6895C50 24.752 49.668 24.5859 47.7832 24.5957C47.041 24.5957 46.3184 24.6445 46.1719 24.6934Z" fill="#90B956"/>
<path d="M42.168 29.5273C41.8164 29.7129 41.6992 29.9473 41.6992 30.4453C41.6992 30.7676 41.7578 30.9141 41.9824 31.1387C42.6172 31.7637 43.6523 31.334 43.6523 30.4453C43.6523 29.9375 43.5254 29.7031 43.1641 29.5176C42.8125 29.332 42.5098 29.332 42.168 29.5273Z" fill="#90B956"/>
</svg>
