<svg width="150" height="150" viewBox="0 0 150 150" fill="none" xmlns="http://www.w3.org/2000/svg">
<g clip-path="url(#clip0_1_5)">
<path d="M108.783 54.9656C109.034 55.9031 108.478 56.8664 107.541 57.1195C106.603 57.3703 105.64 56.8148 105.387 55.8773C105.136 54.9398 105.692 53.9766 106.629 53.7234C107.567 53.4703 108.53 54.0281 108.783 54.9656ZM96.3447 56.4773C95.4072 56.7281 94.8494 57.6937 95.1025 58.6312C95.3533 59.5687 96.3189 60.1266 97.2564 59.8734C98.1939 59.6227 98.7517 58.657 98.4986 57.7195C98.2454 56.782 97.2822 56.2266 96.3447 56.4773ZM86.0603 59.2336C85.1228 59.4844 84.565 60.45 84.8181 61.3875C85.0689 62.325 86.0345 62.8828 86.972 62.6297C87.9095 62.3789 88.4673 61.4156 88.2142 60.4758C87.9611 59.5383 86.9978 58.9828 86.0603 59.2336ZM75.7759 61.9898C74.8384 62.2406 74.2806 63.2062 74.5337 64.1437C74.7845 65.0812 75.7478 65.6391 76.6876 65.3859C77.6251 65.1352 78.1829 64.1719 77.9298 63.232C77.6767 62.2945 76.7134 61.7367 75.7759 61.9898ZM65.4915 64.7437C64.554 64.9945 63.9962 65.9601 64.2493 66.8976C64.5001 67.8351 65.4634 68.393 66.4033 68.1398C67.3408 67.8891 67.8986 66.9258 67.6454 65.9859C67.3923 65.0508 66.429 64.493 65.4915 64.7437ZM147.059 64.282C144.469 67.0266 140.4 69.2039 135.288 70.5727L99.0681 80.2758L89.004 97.0711C85.6056 102.745 80.3439 107.208 74.1892 109.636L60.5322 115.022C60.1431 115.174 59.7423 115.247 59.3486 115.247C58.4462 115.247 57.5814 114.86 56.9579 114.136C56.065 113.098 55.929 111.661 56.6111 110.47L69.6986 87.8039C60.5415 89.7563 52.6009 90.7922 45.8509 90.7922C39.1478 90.7922 33.5837 89.7797 28.8751 87.8578L25.5611 93.6C24.1853 95.9836 21.9658 97.6828 19.315 98.393L15.2861 99.4711C15.0118 99.5461 14.7329 99.5836 14.4587 99.5836C13.5751 99.5836 12.7243 99.2156 12.1103 98.5383C11.3087 97.657 11.065 96.4125 11.4822 95.2945L17.3579 79.4836C17.2689 79.3758 17.1751 79.275 17.0884 79.1672C8.28997 68.2992 2.29935 60.6797 0.67513 58.6031C0.01888 57.7687 -0.173307 56.6695 0.161849 55.6641C0.497005 54.6562 1.31263 53.8922 2.34388 53.618L12.5204 50.8898C14.5197 50.3508 16.6384 50.8734 18.1689 52.2867L31.8095 64.9125L62.1822 56.7727L38.5736 43.1414C37.3853 42.457 36.7829 41.1445 37.0384 39.7969C37.2939 38.4492 38.3368 37.4461 39.6915 37.2445L54.2134 35.0789C60.7501 34.0992 67.5423 35.3367 73.329 38.55L82.7064 43.7625C83.5572 44.2336 83.8619 45.3047 83.3908 46.1531C82.9197 47.0016 81.8462 47.3062 81.0025 46.8352L71.6228 41.6227C66.5134 38.782 60.5181 37.6969 54.7337 38.5547L41.1681 40.5773L66.9868 55.4836L115.013 42.6141C124.397 40.1016 131.163 44.1398 135.202 46.5562C135.924 46.9875 136.549 47.3672 137.084 47.6297C142.357 48.3914 148.5 51.3445 149.785 56.1422C150.478 58.7414 149.485 61.7086 147.059 64.282ZM72.0634 83.7094L75.4384 77.8641L41.0509 87.0773C49.1697 87.757 59.3439 86.6344 72.0634 83.7094ZM146.386 57.0562C145.545 53.9156 140.585 51.6352 136.348 51.0797C136.177 51.0586 136.008 51.0117 135.851 50.9391C135.356 50.7164 134.759 50.3766 134.112 49.9969L122.632 53.0719C121.727 53.3133 120.736 52.7906 120.478 51.8297C120.227 50.8945 120.816 49.9195 121.72 49.6758L129.696 47.5383C126.169 45.825 121.622 44.4844 115.92 46.0125L31.7814 68.5594C31.1954 68.7164 30.5743 68.5641 30.1314 68.1516L15.7829 54.8672C15.1454 54.2789 14.2665 54.0586 13.4322 54.2859L3.78529 56.8711C5.80091 59.4398 11.5736 66.7664 19.8236 76.9547C20.1025 77.2992 20.3861 77.6367 20.679 77.9625C21.1243 78.4617 21.2064 79.1391 20.9954 79.725C21.0025 79.732 21.0072 79.732 21.0142 79.7391L15.0072 95.9016L18.4079 94.9922C20.154 94.5258 21.6118 93.4031 22.5189 91.8352L30.5345 77.9531L25.8048 79.2211C24.8743 79.4625 23.904 78.9141 23.6509 77.9789C23.4001 77.0414 23.9556 76.0781 24.8931 75.825L30.4056 74.3461C31.6525 74.018 32.965 74.4586 33.7501 75.4828C34.5353 76.5047 34.6267 77.8898 33.9822 79.0055L30.6517 84.7734C31.4017 85.0641 32.1376 85.3687 32.9415 85.6078L77.9251 73.5516L79.0876 71.5383C79.5751 70.6969 80.6415 70.4062 81.4876 70.8937C82.329 71.3789 82.6173 72.4547 82.1322 73.2937L60.1408 111.396L72.9025 106.364C78.34 104.222 82.9853 100.282 85.99 95.2664L104.257 64.7836C104.754 63.9516 105.837 63.6797 106.669 64.1789C107.203 64.5 107.473 65.0602 107.489 65.6414L139.484 57.068C140.433 56.8219 141.387 57.3773 141.635 58.3102C141.886 59.2477 141.333 60.2109 140.393 60.4641L105.31 69.8648L101.665 75.9469L134.377 67.1812C140.039 65.6648 143.006 63.4594 144.499 61.875C146.049 60.2297 146.754 58.4297 146.386 57.0562ZM55.2072 67.5C54.2697 67.7508 53.7118 68.7164 53.965 69.6539C54.2158 70.5914 55.179 71.1492 56.1189 70.8961C57.0564 70.6453 57.6142 69.6797 57.3611 68.7422C57.1079 67.8047 56.1447 67.2492 55.2072 67.5Z" fill="#90B956"/>
</g>
<defs>
<clipPath id="clip0_1_5">
<rect width="150" height="150" fill="white"/>
</clipPath>
</defs>
</svg>
