<svg width="16" height="16" viewBox="0 0 16 16" fill="none" xmlns="http://www.w3.org/2000/svg">
<path d="M10.4664 7.26202C10.5067 7.30215 10.5386 7.34984 10.5604 7.40233C10.5822 7.45483 10.5934 7.51111 10.5934 7.56794C10.5934 7.62478 10.5822 7.68106 10.5604 7.73355C10.5386 7.78605 10.5067 7.83373 10.4664 7.87387L7.87383 10.4665C7.83369 10.5067 7.786 10.5386 7.73351 10.5604C7.68101 10.5822 7.62474 10.5934 7.5679 10.5934C7.51106 10.5934 7.45479 10.5822 7.40229 10.5604C7.34979 10.5386 7.30211 10.5067 7.26197 10.4665L5.96568 9.17016C5.9255 9.12999 5.89363 9.0823 5.87189 9.0298C5.85015 8.97731 5.83896 8.92105 5.83896 8.86424C5.83896 8.80742 5.85015 8.75116 5.87189 8.69867C5.89363 8.64618 5.9255 8.59849 5.96568 8.55831C6.04681 8.47718 6.15686 8.43159 6.2716 8.43159C6.32842 8.43159 6.38468 8.44278 6.43717 8.46453C6.48966 8.48627 6.53735 8.51814 6.57753 8.55831L7.5679 9.54955L9.85457 7.26202C9.8947 7.22178 9.94239 7.18985 9.99488 7.16807C10.0474 7.14628 10.1037 7.13507 10.1605 7.13507C10.2173 7.13507 10.2736 7.14628 10.3261 7.16807C10.3786 7.18985 10.4263 7.22178 10.4664 7.26202Z" fill="#09100D"/>
<path d="M4.11112 1.08643C4.22572 1.08643 4.33562 1.13195 4.41666 1.21298C4.49769 1.29402 4.54322 1.40392 4.54322 1.51852V1.95062H11.4568V1.51852C11.4568 1.40392 11.5023 1.29402 11.5834 1.21298C11.6644 1.13195 11.7743 1.08643 11.8889 1.08643C12.0035 1.08643 12.1134 1.13195 12.1944 1.21298C12.2755 1.29402 12.321 1.40392 12.321 1.51852V1.95062H13.1852C13.6436 1.95062 14.0832 2.13272 14.4074 2.45686C14.7315 2.781 14.9136 3.22062 14.9136 3.67902V13.1852C14.9136 13.6436 14.7315 14.0832 14.4074 14.4074C14.0832 14.7315 13.6436 14.9136 13.1852 14.9136H2.81482C2.35642 14.9136 1.9168 14.7315 1.59266 14.4074C1.26852 14.0832 1.08643 13.6436 1.08643 13.1852V3.67902C1.08643 3.22062 1.26852 2.781 1.59266 2.45686C1.9168 2.13272 2.35642 1.95062 2.81482 1.95062H3.67902V1.51852C3.67902 1.40392 3.72454 1.29402 3.80558 1.21298C3.88661 1.13195 3.99652 1.08643 4.11112 1.08643V1.08643ZM1.95062 4.54322V13.1852C1.95062 13.4144 2.04167 13.6342 2.20374 13.7963C2.36581 13.9583 2.58562 14.0494 2.81482 14.0494H13.1852C13.4144 14.0494 13.6342 13.9583 13.7963 13.7963C13.9583 13.6342 14.0494 13.4144 14.0494 13.1852V4.54322H1.95062Z" fill="#09100D"/>
</svg>
