<svg width="50" height="50" viewBox="0 0 50 50" fill="none" xmlns="http://www.w3.org/2000/svg">
<g clip-path="url(#clip0_1_2)">
<path d="M9.27734 0.185548C8.4668 0.439454 7.89062 0.820313 7.22656 1.52344C6.9043 1.875 6.60156 2.12891 6.54297 2.09961C6.37695 1.99219 5.15625 2.25586 4.67773 2.49024C1.95313 3.87695 2.01172 7.74414 4.76562 9.10156L5.41992 9.42383L11.8945 9.45313L18.3691 9.48242L18.7109 9.14063C19.1699 8.68164 19.1699 8.21289 18.7109 7.75391L18.3789 7.42188H16.5332H14.6777L15 6.79688C16.2793 4.24805 14.9219 1.03516 12.1973 0.185548C11.4258 -0.0585928 10.0293 -0.0585928 9.27734 0.185548ZM11.9727 2.32422C13.5937 3.1543 13.9062 5.36133 12.5977 6.63086C11.8555 7.35352 11.5039 7.42188 8.58398 7.42188C5.78125 7.42188 5.60547 7.39258 5.12695 6.81641C4.56055 6.14258 4.58984 5.25391 5.21484 4.62891C5.64453 4.19922 6.10352 4.0918 6.8457 4.21875C7.57812 4.36523 7.98828 4.19922 8.24219 3.66211C8.92578 2.22656 10.6152 1.62109 11.9727 2.32422Z" fill="#90B956"/>
<path d="M33.2813 4.28711L32.959 4.57031L32.9297 22.1094L32.9102 39.6484H31.7383H30.5664V27.8223V15.9961L30.2344 15.6641L29.9023 15.332H28.3789H26.8555V14.1016C26.8555 12.8809 26.8555 12.8711 26.5723 12.5879L26.2891 12.3047H22.4609H18.6328L18.3496 12.5879C18.0664 12.8711 18.0664 12.8809 18.0664 14.1016V15.332H16.6016C14.9902 15.332 14.6777 15.4102 14.4727 15.8691C14.3945 16.0449 14.3555 16.8652 14.3555 18.4961V20.8691L13.5742 20.5957C12.2754 20.1367 11.2695 19.9902 9.76563 20.0488C8.33984 20.1074 7.40234 20.3027 6.2207 20.8008C3.96484 21.748 1.86523 23.8379 0.908203 26.1035C-0.0390628 28.3496 -0.146485 31.0254 0.615234 33.3008L0.839844 33.9648L0.615234 34.2871C0.15625 34.9609 -0.0195315 35.6152 0.019531 36.5723C0.0488279 37.334 0.097656 37.5488 0.361328 38.0957C0.976562 39.3457 2.08008 40.0586 3.48633 40.1172C4.39453 40.166 5.12695 39.9902 5.70313 39.5996L6.07422 39.3555L7.01172 39.6582C7.5293 39.8242 8.36914 40.0098 8.86719 40.0684L9.76563 40.1758V42.041V43.9062L8.85742 44.2871C5.80078 45.5664 2.19727 47.6074 1.57227 48.3984C1.2793 48.7695 1.29883 49.3164 1.62109 49.6973L1.875 50H15.5371H29.209L29.4434 49.7656C29.8828 49.3262 29.8828 48.7207 29.4434 48.2812L29.209 48.0469L17.5098 48.0371H5.81055L6.88477 47.4902C8.62305 46.6016 9.70703 46.1523 9.75586 46.3086C9.77539 46.377 9.92188 46.5527 10.0684 46.6992C10.4395 47.0801 11.0156 47.0801 11.4258 46.6992C11.6797 46.4844 11.7383 46.3379 11.7871 45.8789L11.8457 45.3223L13.3203 44.834C22.8613 41.6797 34.0137 40.8594 46.8262 42.373C48.0664 42.5195 49.1699 42.6172 49.2871 42.5977C49.4043 42.5781 49.6191 42.4414 49.7559 42.3145L50 42.0605V23.3203V4.57031L49.7168 4.28711L49.4336 4.00391H41.5137H33.5938L33.2813 4.28711ZM48.0469 19.9707V33.8867H41.5039H34.9609V19.9707V6.05469H41.5039H48.0469V19.9707ZM24.8242 15.5762C24.8535 16.7578 24.8633 16.7969 25.127 17.0605C25.3906 17.334 25.4004 17.334 26.9531 17.3633L28.5156 17.3926V28.6035V39.8047L26.8359 39.9707C23.7695 40.2734 19.043 41.0645 16.9238 41.6406L16.4063 41.7773V40.7324V39.6875H17.4121C18.9551 39.6875 20.1367 39.248 21.1426 38.2812L21.5332 37.9004L23.6816 37.8711C26.0938 37.8418 26.2793 37.793 26.4453 37.168C26.5723 36.7285 26.4941 36.3867 26.2012 36.084C25.957 35.8398 25.9375 35.8398 24.3066 35.8398H22.6563L22.7246 35.4199C22.8809 34.5605 22.7832 33.2617 22.5098 32.5879C22.4414 32.4316 22.5586 32.4219 24.1992 32.4219C25.9375 32.4219 25.9473 32.4219 26.2012 32.1777C26.4941 31.875 26.5723 31.5332 26.4453 31.0938C26.2793 30.459 26.123 30.4297 23.3887 30.3711C20.9863 30.3223 20.9375 30.3223 20.5859 30.0781C20.2441 29.8535 20.2148 29.7949 20.2148 29.375C20.2148 28.9648 20 27.6562 19.873 27.2266C19.8145 27.0605 19.9414 27.0508 22.8418 27.0508H25.8594L26.1523 26.8066C26.6699 26.377 26.6113 25.5371 26.0449 25.1855C25.752 25.0098 25.5469 25 22.3242 25L18.916 25.0098L18.4766 24.3457C18.2324 23.9844 17.666 23.3203 17.2266 22.8711L16.4063 22.0605V19.7266V17.3828H17.8516C19.9609 17.3828 20.1172 17.2363 20.1172 15.3027V14.3555H22.4512H24.7852L24.8242 15.5762ZM12.1582 22.3047C12.8711 22.5 14.0039 23.0273 14.6191 23.4473C16.6992 24.8633 18.1543 27.4609 18.1738 29.7754C18.1836 30.8984 18.2715 31.0938 19.0039 31.5527C20.2051 32.3145 20.752 33.2227 20.7422 34.4727C20.7324 36.1719 19.2773 37.6172 17.5879 37.627C16.8555 37.6367 16.3574 37.4902 15.7129 37.0898C15.1367 36.7383 14.7266 36.7383 14.0527 37.1094C13.3984 37.4609 12.2754 37.8906 12.0117 37.8906C11.8164 37.8906 11.8164 37.8125 11.8164 34.8145C11.8164 31.25 11.7676 31.4844 12.8027 30.4102C13.457 29.7266 13.5254 29.5996 13.4863 29.0039C13.457 28.6133 12.959 28.2227 12.4902 28.2227C12.1191 28.2227 12.0215 28.2812 11.2598 29.0234C10.127 30.1367 9.83398 30.7324 9.78516 32.0605L9.74609 33.0273L8.99414 32.2852C8.57422 31.8652 8.11523 31.5039 7.94922 31.4551C7.61719 31.3672 7.17773 31.4648 6.92383 31.6992C6.70898 31.8945 6.5918 32.4121 6.68945 32.7344C6.72852 32.8516 7.32422 33.5254 8.01758 34.2285C9.47266 35.7031 9.64844 36.0156 9.73633 37.2559L9.79492 38.0859H9.51172C8.97461 38.0762 7.90039 37.8027 6.91406 37.4023C6.25 37.1387 5.83984 37.0215 5.66406 37.0605C5.52734 37.0898 5.20508 37.3145 4.95117 37.5488C4.6582 37.8125 4.35547 38.0078 4.14063 38.0469C3.00781 38.2617 2.05078 37.5293 2.05078 36.4453C2.05078 35.8984 2.16797 35.6445 2.67578 35.0684C3.22266 34.4629 3.24219 34.2285 2.8418 33.3203C2.32422 32.1289 2.19727 31.5234 2.20703 30.0781C2.20703 28.5938 2.34375 27.959 2.89063 26.7773C4.01367 24.3262 6.20117 22.666 8.98438 22.1289C9.49219 22.0312 11.582 22.1484 12.1582 22.3047ZM48.0469 38.1836C48.0469 39.4141 48.0274 40.4297 48.0078 40.4297C47.9883 40.4297 47.2266 40.3418 46.3184 40.2344C43.2813 39.8828 38.125 39.5508 35.5762 39.5508H34.9609V37.7441V35.9375H41.5039H48.0469V38.1836ZM14.3555 40.8008V42.334L13.0859 42.7344L11.8164 43.1348V41.6016V40.0684L12.666 39.8535C13.125 39.7363 13.6914 39.5605 13.9063 39.4629C14.1309 39.3555 14.3164 39.2676 14.3359 39.2676C14.3457 39.2578 14.3555 39.9512 14.3555 40.8008Z" fill="#90B956"/>
<path d="M37.2754 9.18945C36.8945 9.41406 36.8164 9.85352 36.8164 11.9238C36.8164 14.0625 36.8848 14.4141 37.3633 14.6387C37.5293 14.7168 38.8379 14.7461 41.6602 14.7461H45.7227L46.0059 14.4629L46.2891 14.1797V11.8945V9.60938L46.0156 9.3457L45.7422 9.08203H41.5918C38.8281 9.0918 37.3926 9.12109 37.2754 9.18945ZM44.2383 11.8652V12.6953H41.5527H38.8672V11.8652V11.0352H41.5527H44.2383V11.8652Z" fill="#90B956"/>
<path d="M37.5195 17.2949C37.3242 17.3535 37.1191 17.5098 37.002 17.7051C36.8262 17.998 36.8164 18.1641 36.8359 20.1953L36.8652 22.3828L37.1875 22.666L37.5 22.9492H41.6113H45.7227L46.0059 22.666L46.2891 22.3828V20.0879V17.8027L46.0449 17.5586C45.9082 17.4219 45.6641 17.2852 45.498 17.2461C45.0098 17.1484 37.8711 17.1973 37.5195 17.2949ZM44.2383 20.0684V20.8984H41.5527H38.8672V20.0684V19.2383H41.5527H44.2383V20.0684Z" fill="#90B956"/>
<path d="M37.4316 25.5371C36.8555 25.791 36.8066 26.0254 36.8359 28.4277L36.8652 30.5859L37.1875 30.8691L37.5 31.1523H41.6113H45.7227L46.0059 30.8691L46.2891 30.5859V28.3203C46.2891 25.8301 46.2598 25.6934 45.6836 25.498C45.1953 25.3223 37.832 25.3613 37.4316 25.5371ZM44.2383 28.2715V29.1016H41.5527H38.8672V28.2715V27.4414H41.5527H44.2383V28.2715Z" fill="#90B956"/>
<path d="M18.7598 19.7656C18.1055 20.127 18.0957 21.1914 18.7402 21.5332C18.9844 21.6602 19.5508 21.6797 22.4316 21.6797C26.2012 21.6797 26.1523 21.6895 26.4258 21.0449C26.582 20.6641 26.4648 20.1367 26.1621 19.8633C25.9668 19.6875 25.7422 19.6777 22.4707 19.6582C19.707 19.6387 18.9453 19.6582 18.7598 19.7656Z" fill="#90B956"/>
<path d="M21.8555 7.60743C21.1621 8.16407 21.3867 9.27735 22.2363 9.4336C22.627 9.50196 23.0957 9.33594 23.291 9.04297C23.5156 8.73047 23.4766 8.06641 23.2129 7.76368C22.9004 7.39258 22.2266 7.32422 21.8555 7.60743Z" fill="#90B956"/>
<path d="M32.2852 48.3496C31.7188 49.0234 32.1387 50 33.0078 50C33.5059 50 33.8477 49.7852 33.9844 49.3652C34.1211 48.9551 34.0332 48.6133 33.7207 48.291C33.5254 48.0957 33.3691 48.0469 33.0078 48.0469C32.5977 48.0469 32.5 48.0859 32.2852 48.3496Z" fill="#90B956"/>
<path d="M36.582 48.3496C36.2207 48.7793 36.2305 49.3359 36.6113 49.7168L36.8945 50H43.1934H49.4824L49.7461 49.7461C49.9512 49.541 50 49.3945 50 49.0234C50 48.6523 49.9512 48.5059 49.7461 48.3008L49.4824 48.0469H43.1641H36.8359L36.582 48.3496Z" fill="#90B956"/>
</g>
<defs>
<clipPath id="clip0_1_2">
<rect width="50" height="50" fill="white"/>
</clipPath>
</defs>
</svg>
