<svg width="69" height="16" viewBox="0 0 69 16" fill="none" xmlns="http://www.w3.org/2000/svg">
<path d="M0.164019 15.4717C0.014849 15.2792 -0.0359606 15.0284 0.0255719 14.793C0.986318 11.1159 4.20931 8.41596 7.96372 8.0752C10.0335 3.48964 14.5552 0.553332 19.619 0.553332C22.9907 0.553332 26.2486 1.90425 28.6363 4.27651C29.8576 3.89613 31.1251 3.70408 32.4108 3.70408C34.0386 3.70408 35.6188 4.00707 37.1166 4.60561C39.6581 1.67117 43.2983 0 47.1977 0C52.2657 0 56.8923 2.88411 59.1415 7.39509C59.3564 7.37784 59.5578 7.36991 59.7563 7.36991C64.1596 7.36991 67.9066 10.5183 68.6641 14.8564C68.7042 15.0848 68.6408 15.3193 68.4916 15.4969C68.342 15.6745 68.122 15.777 67.8898 15.777H0.785862C0.542529 15.7775 0.312722 15.6647 0.164019 15.4717ZM59.7559 8.94132C59.4613 8.94132 59.1485 8.96463 58.7718 9.01404C58.4264 9.05646 58.0931 8.87281 57.9514 8.55489C56.0588 4.31241 51.8373 1.57094 47.1967 1.57094C43.5789 1.57094 40.2133 3.20203 37.9627 6.04558C37.7384 6.32853 37.3511 6.42315 37.0215 6.27305C35.5662 5.61111 34.0153 5.27502 32.4098 5.27502C31.1335 5.27502 29.8777 5.49131 28.6778 5.91784C28.3827 6.02319 28.0522 5.94255 27.8392 5.71273C25.7214 3.4323 22.725 2.12474 19.6185 2.12474C15.0311 2.12474 10.9504 4.87272 9.2228 9.12452C9.10626 9.41214 8.83124 9.60373 8.52125 9.61445C5.59333 9.71281 2.99171 11.5523 1.879 14.2056H66.8951C65.9413 11.1057 63.0745 8.94132 59.7559 8.94132Z" fill="#90B956"/>
</svg>
