<svg width="60" height="21" viewBox="0 0 60 21" fill="none" xmlns="http://www.w3.org/2000/svg">
<path d="M15.854 13.9987H0.702623C0.31464 13.9987 0 13.684 0 13.296C0 12.9081 0.31464 12.5934 0.702623 12.5934H15.854C16.242 12.5934 16.5566 12.9081 16.5566 13.296C16.5566 13.684 16.2416 13.9987 15.854 13.9987Z" fill="#E9DCD1"/>
<path d="M20.4168 8.98073H6.34813C5.96014 8.98073 5.64551 8.66609 5.64551 8.27811C5.64551 7.89012 5.96014 7.57549 6.34813 7.57549H20.4168C20.8048 7.57549 21.1194 7.89012 21.1194 8.27811C21.1194 8.66609 20.8048 8.98073 20.4168 8.98073Z" fill="#E9DCD1"/>
<path d="M24.8363 20.6748H9.60455C9.21656 20.6748 8.90234 20.3602 8.90234 19.9722C8.90234 19.5842 9.21698 19.2696 9.60455 19.2696H24.8363C25.2243 19.2696 25.539 19.5842 25.539 19.9722C25.539 20.3602 25.2243 20.6748 24.8363 20.6748Z" fill="#E9DCD1"/>
<path d="M58.707 16.5562H20.4558C20.0937 16.5562 19.7903 16.2803 19.7565 15.9194C19.7286 15.6223 19.7148 15.3522 19.7148 15.0939C19.7148 10.4297 23.4042 6.61072 28.0184 6.4036C29.0402 2.66046 32.4808 0 36.4102 0C39.5024 0 42.3092 1.61236 43.8765 4.2474C45.0742 3.85067 46.3203 3.6498 47.5888 3.6498C54.112 3.6498 59.4188 8.95655 59.4188 15.4798C59.4188 15.5906 59.415 15.7006 59.4113 15.8106L59.4088 15.8769C59.3963 16.2561 59.0858 16.5562 58.707 16.5562ZM21.1197 15.1514H58.0085C57.8343 9.55415 53.2273 5.05462 47.5888 5.05462C46.2886 5.05462 45.0155 5.29383 43.8048 5.766C43.4677 5.89768 43.0851 5.75099 42.9222 5.4276C41.6728 2.94634 39.1778 1.40482 36.4102 1.40482C32.953 1.40482 29.9462 3.86066 29.2619 7.24458C29.1948 7.57714 28.9043 7.83302 28.5605 7.8076C28.523 7.80718 28.4859 7.80468 28.4493 7.80218C28.448 7.80218 28.4463 7.80218 28.4451 7.80218C24.389 7.80218 21.1197 11.0732 21.1197 15.0939C21.1197 15.113 21.1197 15.1322 21.1197 15.1514Z" fill="#90B956"/>
<path d="M30.2622 14.0708C30.2147 14.0708 30.1664 14.0658 30.1181 14.0558C29.7384 13.9766 29.4946 13.6044 29.5734 13.2248C30.0601 10.8906 32.1459 9.19659 34.5326 9.19659C36.9196 9.19659 39.005 10.8906 39.4918 13.2248C39.5714 13.6044 39.3271 13.9766 38.9479 14.0558C38.5687 14.1362 38.1957 13.8916 38.1165 13.5119C37.7648 11.8258 36.2574 10.6018 34.5326 10.6018C32.8077 10.6018 31.2999 11.8258 30.9486 13.5119C30.8799 13.8428 30.5877 14.0708 30.2622 14.0708Z" fill="#90B956"/>
<path d="M47.8463 10.8669C47.5425 10.8669 47.2625 10.6685 47.1729 10.3622C46.5694 8.30895 44.6541 6.87537 42.5145 6.87537C40.375 6.87537 38.4597 8.30936 37.8562 10.3622C37.7471 10.7344 37.3562 10.9469 36.984 10.8381C36.6119 10.7289 36.3989 10.3385 36.5081 9.9659C37.2861 7.31919 39.7557 5.47012 42.5141 5.47012C45.2725 5.47012 47.7425 7.31878 48.5206 9.9659C48.6298 10.3385 48.4168 10.7285 48.0447 10.8381C47.9788 10.8577 47.9121 10.8669 47.8463 10.8669Z" fill="#90B956"/>
</svg>
