<svg width="60" height="37" viewBox="0 0 60 37" fill="none" xmlns="http://www.w3.org/2000/svg">
<path fill-rule="evenodd" clip-rule="evenodd" d="M56.291 2.59241C56.1456 2.54721 56.1019 2.51675 56.0709 2.52707C52.0917 3.83645 48.166 5.31337 44.114 6.39969C44.0811 6.40903 44.058 6.45718 44.0305 6.48764C44.3597 7.06151 45.5526 8.19942 47.5965 9.88369C48.3256 9.33831 49.1029 8.81309 49.8173 8.21367C51.8976 6.46996 53.9533 4.69676 56.0154 2.93192C56.1048 2.85527 56.1677 2.7462 56.291 2.59241Z" fill="white"/>
<path fill-rule="evenodd" clip-rule="evenodd" d="M38.5023 1.19558C39.3312 2.03083 39.9424 2.63565 40.5389 3.25472C40.7973 3.522 41.0921 3.57163 41.44 3.52151C42.6226 3.35102 43.8086 3.20412 44.9908 3.02429C47.7604 2.60322 50.529 2.17135 53.2976 1.73603C53.5615 1.69476 53.8951 1.75765 54.0459 1.3248C48.9302 1.19558 43.8504 0.728818 38.5023 1.19558Z" fill="white"/>
<path fill-rule="evenodd" clip-rule="evenodd" d="M53.0098 2.58652C49.1946 3.12648 45.5048 3.64827 41.751 4.1789C41.7329 5.67351 42.0788 7.11654 42.1073 8.74724C42.3264 8.55268 42.464 8.47653 42.5337 8.35959C42.7863 7.93607 43.1194 7.52335 43.2304 7.05954C43.3906 6.38987 43.8254 6.12946 44.389 5.92212C46.8225 5.02349 49.2541 4.11847 51.6827 3.20558C52.0974 3.05033 52.5617 2.9899 53.0098 2.58652Z" fill="white"/>
<path fill-rule="evenodd" clip-rule="evenodd" d="M42.7539 9.18845C43.5218 9.11623 44.0829 8.75609 44.6533 8.30505C44.5094 8.11491 44.4037 7.94687 44.2696 7.80586C44.1365 7.66682 43.9733 7.55529 43.7842 7.39905C43.4692 7.68205 43.3901 8.04612 43.2152 8.34534C43.0531 8.62147 42.9067 8.90692 42.7539 9.18845Z" fill="white"/>
<path fill-rule="evenodd" clip-rule="evenodd" d="M59.8848 0.58438C59.2411 0.381463 58.6771 0.370656 58.0993 0.375569C56.4086 0.390309 54.7165 0.40554 53.0273 0.355425C50.0583 0.267969 47.0902 0.131379 44.1211 0.0169C41.8841 -0.0695733 39.6731 0.186407 37.47 0.542618C37.4061 0.552936 37.3521 0.625654 37.2204 0.723919C37.3934 0.895883 37.5491 1.06539 37.7201 1.21819C38.5519 1.95911 39.3862 2.69659 40.2219 3.43309C40.6081 3.77308 40.7958 4.16369 40.8469 4.70906C41.0125 6.47439 41.2006 8.2412 41.6988 9.95445C41.7426 10.1063 41.7937 10.2556 41.858 10.4566C43.1433 10.2217 44.2287 9.69159 45.173 8.82637C46.0707 9.3172 46.5512 10.1775 47.2887 10.8339C48.09 10.6241 48.7946 10.1977 49.4367 9.71075C50.751 8.71434 52.0304 7.66979 53.3 6.61638C55.0157 5.194 56.7083 3.74557 58.4093 2.30598C58.8186 1.9596 59.2411 1.62501 59.616 1.24374C59.7605 1.09782 59.7875 0.837413 59.8848 0.58438ZM56.2907 2.59243C56.1674 2.74621 56.1045 2.85529 56.0146 2.93242C53.9525 4.69677 51.8968 6.47046 49.8165 8.21417C49.1021 8.81408 48.3249 9.33882 47.5957 9.88419C45.5518 8.19993 44.3594 7.06152 44.0297 6.48815C44.0577 6.45768 44.0803 6.40904 44.1132 6.4002C48.1657 5.31388 52.0909 3.83696 56.0701 2.52757C56.1011 2.51676 56.1453 2.54722 56.2907 2.59243ZM38.5023 1.19559C43.8504 0.728832 48.9302 1.19559 54.0454 1.32432C53.894 1.75718 53.5609 1.69429 53.2971 1.73556C50.5289 2.17136 47.7598 2.60324 44.9902 3.02381C43.8086 3.20315 42.6225 3.35055 41.4394 3.52103C41.0916 3.57164 40.7968 3.52152 40.5383 3.25424C39.9424 2.63566 39.3311 2.03084 38.5023 1.19559ZM53.0096 2.58653C52.5616 2.98991 52.0973 3.05034 51.6821 3.20609C49.254 4.11898 46.8219 5.024 44.3884 5.92263C43.8248 6.12997 43.39 6.39037 43.2298 7.06005C43.1188 7.52337 42.7857 7.93658 42.5331 8.3601C42.4633 8.47703 42.3258 8.55319 42.1066 8.74775C42.0781 7.11655 41.7327 5.67402 41.7504 4.17941C45.5047 3.64829 49.1945 3.1265 53.0096 2.58653ZM42.7547 9.18847C42.9075 8.90694 43.0539 8.62148 43.2156 8.34585C43.3905 8.04663 43.4696 7.68207 43.7845 7.39956C43.9737 7.5558 44.1363 7.66733 44.2699 7.80638C44.4041 7.9469 44.5097 8.11542 44.6537 8.30556C44.0837 8.75611 43.5226 9.11625 42.7547 9.18847Z" fill="#90B956"/>
<path fill-rule="evenodd" clip-rule="evenodd" d="M28.3585 11.2624C28.4769 10.9745 28.5741 10.8104 28.6066 10.6345C28.6297 10.5067 28.6135 10.3185 28.5339 10.235C28.3457 10.039 28.1998 9.88077 28.2572 9.56288C28.327 9.17817 28.0386 8.96051 27.7109 8.76644C27.5301 8.86323 27.3394 8.96543 27.1056 9.09023C26.8737 8.95265 26.6231 8.80378 26.3725 8.65442C25.9996 8.73057 25.8065 9.10546 25.7829 9.88126C25.2577 9.96872 24.7153 10.0586 24.2161 10.1412C24.1419 10.2542 24.0697 10.3131 24.0687 10.3741C24.0633 10.5897 24.082 10.8064 24.0938 11.0771C25.1683 11.3297 26.0984 10.9091 27.0992 10.6178C27.4608 10.804 27.8504 11.003 28.3585 11.2624Z" fill="#90B956"/>
<path fill-rule="evenodd" clip-rule="evenodd" d="M1.63516 25.5535C1.33152 25.6027 1.04802 25.6479 0.75912 25.6945C0.737501 25.8552 0.683949 25.9746 0.71392 26.0655C1.049 27.0639 1.5079 28.0013 2.12108 28.9068C2.55148 28.8223 2.72 28.4833 2.99121 28.1551C2.54902 27.3061 2.10437 26.4527 1.63516 25.5535Z" fill="#90B956"/>
<path fill-rule="evenodd" clip-rule="evenodd" d="M5.47461 31.3192C5.16311 30.9625 4.83982 30.6009 4.52734 30.231C4.24139 29.892 3.96723 29.5436 3.69307 29.2056C3.24203 29.323 3.08382 29.6758 2.81261 29.9598C3.32359 30.8235 3.92988 31.5566 4.70224 32.1324C5.23238 31.7988 5.22649 31.7934 5.47461 31.3192Z" fill="#90B956"/>
<path fill-rule="evenodd" clip-rule="evenodd" d="M1.6665 13.0218C1.14864 14.0162 0.904943 14.9419 0.667141 15.8887C0.840088 16.0086 0.952112 16.1058 1.08035 16.1687C1.21006 16.2321 1.35647 16.2616 1.4734 16.2994C1.56577 16.2385 1.66306 16.2105 1.68075 16.1564C1.96817 15.3143 2.2443 14.4678 2.53418 13.5883C2.24626 13.4001 2.00453 13.2419 1.6665 13.0218Z" fill="#90B956"/>
<path fill-rule="evenodd" clip-rule="evenodd" d="M1.35938 17.5936C1.08276 17.4526 0.828738 17.3239 0.597324 17.2059C0.494637 17.2806 0.39785 17.3135 0.386058 17.3656C0.184123 18.2682 0.00576711 19.1752 0.0740613 20.1716C0.342325 20.2693 0.605675 20.3652 0.839546 20.4497C0.943215 20.3597 1.03608 20.3195 1.04541 20.2654C1.19723 19.3938 1.33432 18.5192 1.35938 17.5936Z" fill="#90B956"/>
<path fill-rule="evenodd" clip-rule="evenodd" d="M0.0446421 21.5458C-0.0860505 22.5545 0.0868975 23.5352 0.32863 24.5901C0.663222 24.5237 0.940325 24.4692 1.27246 24.4038C1.18157 23.4949 1.09706 22.6439 1.01452 21.8219C0.742815 21.5168 0.44802 21.4176 0.0446421 21.5458Z" fill="#90B956"/>
<path fill-rule="evenodd" clip-rule="evenodd" d="M10.8898 4.56412C10.9227 5.00091 10.9414 5.24706 10.9615 5.51139C11.8139 5.63373 12.6153 5.7492 13.425 5.86564C13.6987 5.55119 13.6987 5.55119 13.7861 5.08689C12.9214 4.62013 11.983 4.59458 10.8898 4.56412Z" fill="#90B956"/>
<path fill-rule="evenodd" clip-rule="evenodd" d="M6.78027 7.41134C6.53658 7.14848 6.3651 6.96325 6.20149 6.78735C5.32103 7.29342 4.78107 7.81619 4.15856 8.76641C4.34969 8.92167 4.54425 9.08037 4.77812 9.271C5.19574 9.02288 5.42864 8.62246 5.75832 8.33208C6.09242 8.03729 6.42111 7.73561 6.78027 7.41134Z" fill="#90B956"/>
<path fill-rule="evenodd" clip-rule="evenodd" d="M18.0606 7.41675C17.8719 7.75429 17.7481 7.97637 17.6031 8.23628C18.1873 8.89417 18.8914 9.33341 19.6878 9.7476C19.9782 9.4017 19.9428 9.0509 19.8819 8.67208C19.3331 8.23087 18.7681 7.8275 18.0606 7.41675Z" fill="#90B956"/>
<path fill-rule="evenodd" clip-rule="evenodd" d="M31.7578 11.68C31.0434 11.3975 30.4199 11.1508 29.7955 10.9047C29.4235 11.0639 29.3734 11.3867 29.3174 11.705C30.1812 12.2745 30.7344 12.4799 31.7573 12.5997C31.7578 12.3118 31.7578 12.0323 31.7578 11.68Z" fill="#90B956"/>
<path fill-rule="evenodd" clip-rule="evenodd" d="M26.8185 2.24161C26.6637 2.41013 26.5723 2.4799 26.5212 2.57276C26.45 2.70002 26.4097 2.84447 26.3473 3.00316C26.7654 3.62469 27.1781 4.23836 27.5913 4.85202C28.0748 4.72673 28.0748 4.72673 28.4561 4.40983C28.0998 3.58981 27.5677 2.89556 26.8185 2.24161Z" fill="#90B956"/>
<path fill-rule="evenodd" clip-rule="evenodd" d="M9.75781 5.70546C9.73963 5.41018 9.72195 5.12815 9.7023 4.80142C8.69115 5.00139 7.87014 5.40821 7.10564 6.02089C7.227 6.27589 7.33755 6.50583 7.46382 6.77115C7.91977 6.71219 8.22095 6.39921 8.58748 6.23953C8.96236 6.0774 9.33183 5.90101 9.75781 5.70546Z" fill="#90B956"/>
<path fill-rule="evenodd" clip-rule="evenodd" d="M5.72 33.0846C6.35774 33.5793 6.97337 34.0574 7.6514 34.5831C7.86415 34.3055 8.03266 34.0844 8.27734 33.7651C7.9737 33.513 7.71478 33.3017 7.45929 33.086C7.14681 32.8232 6.83678 32.5559 6.53167 32.2955C6.11551 32.4375 5.84136 32.6434 5.72 33.0846Z" fill="#90B956"/>
<path fill-rule="evenodd" clip-rule="evenodd" d="M2.99976 12.4052C3.36825 11.7296 3.73724 11.0531 4.1416 10.3122C3.93918 10.12 3.73871 9.92892 3.53334 9.73337C3.39282 9.81689 3.26606 9.84932 3.21693 9.92941C2.83222 10.5598 2.46225 11.199 2.11439 11.7901C2.30257 12.2244 2.60473 12.3276 2.99976 12.4052Z" fill="#90B956"/>
<path fill-rule="evenodd" clip-rule="evenodd" d="M17.1357 6.82029C16.4543 6.242 15.7669 5.89463 15.0049 5.51926C14.8683 5.82535 14.7553 6.08084 14.6167 6.39136C15.2908 6.81243 15.9128 7.20155 16.5093 7.57398C16.6238 7.53074 16.7191 7.52436 16.7515 7.47621C16.8734 7.2954 16.9746 7.10034 17.1357 6.82029Z" fill="#90B956"/>
<path fill-rule="evenodd" clip-rule="evenodd" d="M23.0649 10.9892C23.1288 10.3971 22.9259 10.0006 22.3137 9.82964C21.9206 9.71909 21.5443 9.55057 21.1591 9.40759C20.7901 9.60265 20.8658 9.97458 20.7709 10.2674C21.6234 10.8811 22.1466 11.0452 23.0649 10.9892Z" fill="#90B956"/>
<path fill-rule="evenodd" clip-rule="evenodd" d="M28.8894 8.3704C29.2235 7.33419 29.1503 6.48125 28.8388 5.56689C28.5243 5.68039 28.2551 5.77767 27.9515 5.88675C27.9854 6.4783 28.0168 7.02761 28.0512 7.63145C28.2752 7.82847 28.5204 8.04465 28.8894 8.3704Z" fill="#90B956"/>
<path fill-rule="evenodd" clip-rule="evenodd" d="M35.1094 12.9972C34.9752 12.4032 34.7768 12.0568 34.2289 12.0333C33.8255 12.0161 33.4222 11.9935 32.9505 11.9699C32.9259 12.2897 32.9073 12.5315 32.8861 12.8115C33.5877 13.1569 34.2766 13.0857 35.1094 12.9972Z" fill="#90B956"/>
<path fill-rule="evenodd" clip-rule="evenodd" d="M35.9405 12.049C36.1208 12.3978 36.2368 12.6218 36.3601 12.8606C37.1084 12.7963 37.7545 12.5688 38.375 12.2416C38.0276 11.4633 37.9913 11.4333 37.4272 11.5906C36.9659 11.7188 36.5109 11.8721 35.9405 12.049Z" fill="#90B956"/>
<path fill-rule="evenodd" clip-rule="evenodd" d="M23.5673 1.80777C24.2148 1.96008 24.7931 2.09618 25.4427 2.24898C25.54 2.06867 25.6544 1.85593 25.79 1.60388C25.2304 1.12827 24.6089 1.05064 23.9761 1.02657C23.5014 1.00937 23.4356 1.13761 23.5673 1.80777Z" fill="#90B956"/>
<path fill-rule="evenodd" clip-rule="evenodd" d="M24.5251 6.88708C24.2908 7.09983 24.0785 7.29145 23.8166 7.52974C24.1684 8.04219 24.5698 8.43574 25.0125 8.74233C25.1123 8.7212 25.1668 8.72562 25.1811 8.70351C25.3201 8.49126 25.4523 8.27557 25.5908 8.05202C25.3604 7.53416 24.9629 7.22463 24.5251 6.88708Z" fill="#90B956"/>
<path fill-rule="evenodd" clip-rule="evenodd" d="M23.1265 6.70726C23.3937 6.39232 23.5573 6.19972 23.7588 5.96241C23.4438 5.48927 23.1402 5.03184 22.8115 4.53708C22.5477 4.56754 22.301 4.59653 22.0711 4.62306C22.0436 4.74147 21.9944 4.8245 22.0161 4.87757C22.2784 5.4932 22.6617 6.03218 23.1265 6.70726Z" fill="#90B956"/>
<path fill-rule="evenodd" clip-rule="evenodd" d="M22.253 1.62354C21.6634 2.15908 21.3966 2.72263 21.5366 3.41491C21.8452 3.6876 22.0599 3.46404 22.3174 3.40459C22.3468 2.82679 22.8952 2.28388 22.253 1.62354Z" fill="#90B956"/>
<path fill-rule="evenodd" clip-rule="evenodd" d="M9.03852 34.6062C8.85968 34.8268 8.72752 34.9894 8.56587 35.1889C9.03361 35.6984 9.46302 36.1745 10.2295 36.12C10.0506 35.4587 10.0507 35.4587 9.03852 34.6062Z" fill="#90B956"/>
<path fill-rule="evenodd" clip-rule="evenodd" d="M38.8922 10.998C39.0961 11.2383 39.2351 11.4019 39.3786 11.5704C39.8169 11.4309 40.0448 11.1464 40.208 10.8074C40.2689 10.6801 40.3003 10.5092 40.2689 10.376C40.2394 10.2512 40.1289 10.1205 40.0173 10.0498C39.9549 10.0105 39.7869 10.0557 39.7206 10.1195C39.4543 10.3775 39.2096 10.6566 38.8922 10.998Z" fill="#90B956"/>
</svg>
