<svg width="113" height="84" viewBox="0 0 113 84" fill="none" xmlns="http://www.w3.org/2000/svg">
<path d="M110.797 52.652C111.456 48.5937 112.981 39.4928 112.954 38.9825C112.931 38.5592 112.857 38.5023 112.439 38.6126C111.741 38.7975 111.104 39.1363 110.432 39.3897C101.859 42.6285 93.2863 45.8686 84.7141 49.1098C84.4689 49.2026 84.2175 49.2893 83.9905 49.4174C83.6196 49.6266 83.5597 49.9608 83.8271 50.2958C83.9621 50.465 84.135 50.605 84.2963 50.7523C86.4275 52.6965 88.5533 54.6466 90.6985 56.5754C91.0109 56.8562 91.1171 57.1282 91.0828 57.5398C90.9215 59.4789 90.789 61.4204 90.6492 63.3612C90.6335 63.579 90.6232 63.7989 90.6335 64.0167C90.6742 64.8801 91.2321 65.1626 91.9763 64.6996C92.1058 64.6191 92.2308 64.5277 92.3455 64.4273C93.7637 63.1869 95.3202 62.1235 96.7843 60.9416C97.0025 60.7656 97.1994 60.6981 97.4936 60.7485C100.425 61.2488 103.359 61.7293 106.293 62.2136C107.004 62.331 107.715 62.4619 108.431 62.5495C108.992 62.6184 109.196 62.4451 109.269 62.0786C109.796 58.8255 110.296 55.7384 110.797 52.652ZM91.316 55.6237C89.3602 53.8466 87.4091 52.0643 85.4576 50.2824C85.4138 50.2424 85.3823 50.1893 85.3029 50.0886C93.0356 47.1652 100.738 44.2532 108.451 41.3373C108.522 41.5695 108.329 41.6161 108.232 41.6997C102.869 46.3255 97.5015 50.9475 92.1332 55.5682C91.6958 55.9446 91.6756 55.9504 91.316 55.6237ZM92.3856 61.9632C92.2332 62.1413 92.1058 62.3492 91.8195 62.5108C91.8979 61.5098 91.9722 60.5752 92.0438 59.6402C92.1006 58.8994 92.1811 58.1594 92.1979 57.4176C92.2068 57.0234 92.3726 56.8086 92.6715 56.5775C93.3277 56.0703 93.9394 55.5048 94.5688 54.963C99.0416 51.1123 103.514 47.2615 107.987 43.4107C108.138 43.1761 108.346 43.0103 108.687 42.8425C108.525 43.2028 108.343 43.4179 108.094 43.5816C104.817 47.4183 101.541 51.2558 98.2642 55.0918C96.3062 57.3833 94.3466 59.6738 92.3856 61.9632ZM96.0545 60.0885C95.1867 60.7505 94.3144 61.4067 93.4435 62.0646C93.2794 62.2821 93.065 62.4324 92.7335 62.6043C92.8979 62.243 93.0921 62.0386 93.3257 61.8646C95.2582 59.5957 97.1888 57.3247 99.1241 55.0582C99.9717 54.0658 100.829 53.0822 101.682 52.0945C102.229 51.2921 102.926 50.6136 103.535 49.8629C103.589 49.7965 103.641 49.7287 103.694 49.6612C103.724 49.705 103.753 49.7485 103.782 49.792C103.113 50.6646 102.498 51.5804 101.752 52.3934C100.139 54.5106 96.1723 59.9988 96.0545 60.0885ZM107.765 61.3009C105.498 60.9324 103.232 60.5563 100.966 60.1824C100.124 60.0433 99.2823 59.9032 98.4409 59.7621C98.209 59.7231 97.9638 59.7327 97.7097 59.557C102.23 53.6555 106.744 47.7611 111.296 41.8178C111.413 42.0288 111.357 42.187 111.332 42.3422C110.815 45.4933 110.293 48.644 109.782 51.7962C109.291 54.8189 108.811 57.8432 108.328 60.867C108.248 61.3659 108.25 61.3796 107.765 61.3009Z" fill="#90B956"/>
<path d="M60.7071 83.2045C60.2016 83.2045 59.6947 83.1891 59.2005 83.1586C58.8824 83.1391 58.6402 82.8651 58.6598 82.5469C58.6793 82.2291 58.9529 81.9894 59.2714 82.0062C59.742 82.0353 60.2249 82.05 60.7071 82.05L60.8811 82.0493C60.8821 82.0493 60.8835 82.0493 60.8841 82.0493C61.2016 82.0493 61.4595 82.3058 61.4616 82.6233C61.4633 82.9422 61.2064 83.2021 60.8876 83.2038L60.7071 83.2045ZM64.1722 82.9747C63.8866 82.9747 63.6383 82.7627 63.6007 82.4716C63.5596 82.1555 63.7825 81.8661 64.099 81.825C64.625 81.7569 65.163 81.6719 65.6976 81.5733C66.011 81.5144 66.3124 81.7226 66.3702 82.0363C66.4281 82.3497 66.2209 82.6507 65.9076 82.7086C65.3524 82.811 64.7942 82.899 64.2476 82.9699C64.2219 82.9733 64.1969 82.9747 64.1722 82.9747ZM55.9724 82.7076C55.9316 82.7076 55.8898 82.7035 55.848 82.6939C55.2847 82.5706 54.7336 82.4295 54.2107 82.2754C53.9048 82.1853 53.7302 81.8641 53.8203 81.5582C53.9103 81.2524 54.2312 81.0781 54.5374 81.1678C55.034 81.3144 55.5587 81.4483 56.0957 81.5664C56.407 81.6346 56.6042 81.9425 56.5357 82.2538C56.4765 82.5233 56.2378 82.7076 55.9724 82.7076ZM69.0107 81.9562C68.7604 81.9562 68.5295 81.7918 68.4566 81.5394C68.3679 81.2329 68.5446 80.913 68.8508 80.8246C69.3638 80.676 69.8847 80.5126 70.3995 80.3383C70.7015 80.2352 71.0293 80.3976 71.1313 80.6996C71.2337 81.0014 71.0721 81.3294 70.77 81.4315C70.2388 81.6116 69.7012 81.7805 69.1713 81.9332C69.1179 81.949 69.0638 81.9562 69.0107 81.9562ZM51.3085 81.0921C51.2195 81.0921 51.1294 81.0716 51.0448 81.0281C50.5222 80.7589 50.0246 80.4633 49.5664 80.1496C49.3034 79.9695 49.2359 79.6102 49.416 79.3472C49.5962 79.0842 49.9554 79.0164 50.2184 79.1969C50.6373 79.4835 51.0935 79.7544 51.5736 80.0017C51.8572 80.1476 51.9685 80.4959 51.8226 80.7791C51.7195 80.9784 51.5178 81.0921 51.3085 81.0921ZM73.6588 80.2688C73.4362 80.2688 73.2245 80.1397 73.1297 79.9229C73.0019 79.6311 73.1351 79.2907 73.4269 79.1626C73.9191 78.9475 74.415 78.7181 74.902 78.4807C75.1869 78.3414 75.5335 78.4598 75.6739 78.7468C75.8133 79.0331 75.6945 79.3787 75.4078 79.5188C74.9071 79.763 74.3968 79.9989 73.89 80.2205C73.8146 80.2534 73.7362 80.2688 73.6588 80.2688ZM40.9733 79.8965C40.6415 79.8965 40.31 79.8921 39.9784 79.8828C39.6596 79.8743 39.4086 79.6088 39.4171 79.2897C39.426 78.9712 39.6908 78.7201 40.0103 78.7287C40.5504 78.7431 41.0912 78.7458 41.6329 78.7355C41.6367 78.7355 41.6405 78.7355 41.6439 78.7355C41.958 78.7355 42.2152 78.9869 42.221 79.302C42.2268 79.6208 41.9734 79.8842 41.6549 79.89C41.4275 79.8941 41.2004 79.8965 40.9733 79.8965ZM44.933 79.6712C44.6436 79.6712 44.3943 79.4544 44.3604 79.1602C44.3238 78.8434 44.5508 78.5568 44.8676 78.5205C45.3741 78.4619 45.8817 78.3913 46.3766 78.3109L46.4704 78.2955C46.7875 78.2427 47.0827 78.454 47.1358 78.7684C47.1889 79.0828 46.9773 79.3808 46.6629 79.4339L46.5594 79.451C46.0495 79.5342 45.5241 79.6068 44.9998 79.6674C44.9776 79.6698 44.955 79.6712 44.933 79.6712ZM36.7065 79.6434C36.6838 79.6434 36.6609 79.6421 36.638 79.6397C36.0879 79.5746 35.53 79.4962 34.9793 79.4064C34.6646 79.3547 34.4512 79.0582 34.5026 78.7434C34.554 78.4287 34.8513 78.2146 35.1653 78.2667C35.6992 78.354 36.24 78.4301 36.7732 78.4927C37.09 78.5301 37.3161 78.8171 37.2787 79.1338C37.2445 79.4273 36.9948 79.6434 36.7065 79.6434ZM31.8443 78.7438C31.7978 78.7438 31.7502 78.7383 31.7029 78.7263C31.1638 78.5903 30.621 78.441 30.0892 78.2831C29.7837 78.192 29.6097 77.8704 29.7004 77.5653C29.7912 77.2598 30.1118 77.0858 30.4183 77.1766C30.9347 77.3304 31.4618 77.4752 31.9851 77.6071C32.294 77.6852 32.4817 77.9989 32.4036 78.3081C32.3378 78.5694 32.1026 78.7438 31.8443 78.7438ZM49.7684 78.6629C49.5284 78.6629 49.3044 78.5122 49.2222 78.2725C49.1191 77.9711 49.2797 77.6427 49.5814 77.5393C50.1 77.3622 50.5904 77.1605 51.039 76.9406C51.3257 76.8009 51.6709 76.9187 51.8113 77.2047C51.9517 77.491 51.8332 77.8369 51.5469 77.9773C51.0551 78.2184 50.5195 78.4386 49.9551 78.6318C49.8934 78.653 49.8304 78.6629 49.7684 78.6629ZM78.0606 78.0116C77.8634 78.0116 77.6712 77.9105 77.5633 77.7283C77.401 77.4543 77.4914 77.1002 77.7661 76.9376C78.2305 76.6625 78.6959 76.3738 79.149 76.08C79.4161 75.9064 79.774 75.9831 79.9477 76.2505C80.1209 76.5184 80.0446 76.8756 79.7771 77.0492C79.311 77.3513 78.8322 77.6482 78.3545 77.9311C78.262 77.9855 78.1606 78.0116 78.0606 78.0116ZM47.4906 78.0109C47.3163 78.0109 47.1441 77.9324 47.0303 77.7824C46.6783 77.3187 46.367 76.817 46.1053 76.2913C45.9632 76.0064 46.0793 75.6594 46.3646 75.5173C46.6502 75.3748 46.9964 75.4913 47.1389 75.7766C47.3687 76.2379 47.6417 76.678 47.9502 77.0848C48.1431 77.3386 48.0934 77.7006 47.8393 77.8937C47.7348 77.9725 47.6122 78.0109 47.4906 78.0109ZM27.1339 77.2365C27.0641 77.2365 26.9932 77.2239 26.9243 77.1972C26.4058 76.9948 25.8856 76.7797 25.3788 76.5581C25.0866 76.4304 24.9534 76.0896 25.0811 75.7978C25.2089 75.5057 25.5496 75.3724 25.8414 75.5002C26.3343 75.7159 26.8398 75.9249 27.3439 76.1214C27.6408 76.2375 27.7877 76.5721 27.672 76.8691C27.5829 77.0968 27.3648 77.2365 27.1339 77.2365ZM53.9518 76.1163C53.8103 76.1163 53.6685 76.0646 53.5572 75.9605C53.3243 75.7423 53.3127 75.3772 53.5305 75.1443L53.6223 75.0443C53.9203 74.7145 54.1829 74.3399 54.4038 73.9299C54.5552 73.6495 54.9056 73.5447 55.1861 73.696C55.4665 73.8471 55.5713 74.1974 55.4203 74.4782C55.1552 74.9694 54.8391 75.4197 54.4802 75.8173L54.373 75.9338C54.2596 76.0553 54.1059 76.1163 53.9518 76.1163ZM82.1549 75.2344C81.9826 75.2344 81.8117 75.1574 81.698 75.0101C81.5028 74.758 81.5491 74.3954 81.8015 74.2005C82.2302 73.8683 82.6553 73.5251 83.0642 73.1789C83.307 72.9727 83.6717 73.0032 83.8776 73.2467C84.0834 73.4899 84.0532 73.8542 83.8097 74.0601C83.3882 74.4169 82.9501 74.7714 82.5077 75.1132C82.4025 75.195 82.2782 75.2344 82.1549 75.2344ZM22.6451 75.1618C22.5527 75.1618 22.4588 75.1396 22.3718 75.093C21.9201 74.8495 21.466 74.5937 21.0225 74.3324L20.941 74.2844L21.2101 73.7727L21.5269 73.2895L21.6108 73.3392C22.0393 73.5912 22.4804 73.8399 22.9194 74.0762C23.2003 74.2275 23.3051 74.5779 23.1537 74.8584C23.0496 75.0522 22.8509 75.1618 22.6451 75.1618ZM45.7468 73.4529C45.4454 73.4529 45.1916 73.2186 45.1714 72.9138C45.1601 72.7402 45.1539 72.5659 45.1539 72.3922C45.1539 71.9645 45.1899 71.5412 45.2608 71.134C45.3152 70.8196 45.6149 70.6093 45.9279 70.6638C46.242 70.7182 46.4526 71.0172 46.3981 71.3312C46.3386 71.6741 46.3084 72.0309 46.3084 72.3926C46.3084 72.5409 46.3135 72.6892 46.3231 72.8378C46.3444 73.1559 46.1033 73.431 45.7851 73.4518C45.7724 73.4525 45.7594 73.4529 45.7468 73.4529ZM18.446 72.5525C18.3303 72.5525 18.2132 72.5176 18.1118 72.4457C17.6594 72.1234 17.2083 71.7884 16.7713 71.4497C16.5196 71.2545 16.4734 70.8918 16.6689 70.6398C16.8645 70.3874 17.2272 70.3422 17.4789 70.5374C17.9036 70.8665 18.3419 71.1922 18.7813 71.5052C19.0409 71.6902 19.1019 72.0504 18.9169 72.31C18.8039 72.4679 18.6262 72.5525 18.446 72.5525ZM85.8543 71.9532C85.7088 71.9532 85.5629 71.8984 85.4505 71.7884C85.2228 71.5651 85.219 71.1997 85.442 70.972C85.8242 70.5816 86.1954 70.1829 86.5454 69.7863C86.7564 69.5476 87.1211 69.5247 87.3602 69.7356C87.5992 69.9463 87.6218 70.3114 87.4109 70.5504C87.0482 70.9614 86.6632 71.3754 86.2673 71.7799C86.1536 71.8953 86.004 71.9532 85.8543 71.9532ZM55.7056 71.6151C55.3905 71.6151 55.133 71.3621 55.1285 71.046C55.1213 70.5353 55.0401 70.0507 54.8874 69.6059C54.784 69.3045 54.9443 68.976 55.2456 68.8723C55.548 68.7695 55.8758 68.9295 55.9792 69.2308C56.1717 69.7915 56.2741 70.3966 56.283 71.0299C56.2874 71.3484 56.0326 71.6107 55.7141 71.6151C55.7114 71.6151 55.7083 71.6151 55.7056 71.6151ZM14.6048 69.4463C14.4655 69.4463 14.3261 69.3963 14.2151 69.2949C13.8052 68.9192 13.3983 68.5319 13.0058 68.1425C12.7794 67.9178 12.7777 67.5524 13.0024 67.326C13.2267 67.1 13.5925 67.0986 13.8185 67.3226C14.2004 67.701 14.5963 68.0784 14.9949 68.4431C15.2299 68.6586 15.246 69.0236 15.0305 69.2589C14.9168 69.3829 14.761 69.4463 14.6048 69.4463ZM47.2533 68.8891C47.1088 68.8891 46.9639 68.8353 46.8519 68.7267C46.6228 68.5051 46.6166 68.1394 46.8382 67.9106C47.253 67.4818 47.7382 67.1119 48.2804 66.8116C48.5592 66.6568 48.9105 66.7578 49.065 67.0363C49.2194 67.3154 49.1191 67.6664 48.84 67.8209C48.3975 68.0664 48.003 68.3664 47.6677 68.713C47.555 68.8298 47.4043 68.8891 47.2533 68.8891ZM89.0174 68.1551C88.9037 68.1551 88.789 68.1216 88.6886 68.0517C88.4266 67.8698 88.3623 67.5099 88.5445 67.2483C88.8558 66.8006 89.1503 66.3462 89.4205 65.8965C89.5849 65.6229 89.9394 65.5349 90.2127 65.6989C90.4863 65.8633 90.5743 66.2177 90.4103 66.491C90.1267 66.9626 89.8178 67.439 89.4921 67.9072C89.3798 68.0688 89.2 68.1551 89.0174 68.1551ZM53.3199 67.5787C53.2367 67.5787 53.1524 67.5609 53.0726 67.5229C52.6545 67.3243 52.189 67.2044 51.6894 67.1671C51.3716 67.1431 51.1332 66.8664 51.1568 66.5482C51.1808 66.2304 51.4589 65.9931 51.7757 66.0157C52.4178 66.064 53.0206 66.2201 53.5679 66.4797C53.8559 66.6167 53.9785 66.9609 53.8415 67.2489C53.7429 67.4572 53.5357 67.5787 53.3199 67.5787ZM11.166 65.8969C11.0037 65.8969 10.8421 65.8287 10.7277 65.6958C10.3643 65.2729 10.0064 64.8393 9.66361 64.4074C9.46566 64.1578 9.50744 63.7944 9.75711 63.5964C10.0068 63.3985 10.3698 63.4399 10.5681 63.6899C10.9013 64.1102 11.25 64.5321 11.6034 64.9437C11.8109 65.1855 11.7835 65.5499 11.5414 65.7578C11.4332 65.8513 11.2993 65.8969 11.166 65.8969ZM8.16803 61.9656C7.98275 61.9656 7.80055 61.8765 7.6889 61.7115C7.37965 61.2536 7.07416 60.7817 6.781 60.3087C6.61285 60.0378 6.69607 59.682 6.96697 59.5138C7.23752 59.346 7.59335 59.4289 7.76185 59.7001C8.04747 60.1604 8.34508 60.6197 8.64612 61.0656C8.82455 61.3299 8.75468 61.6889 8.49063 61.867C8.39166 61.9337 8.27899 61.9656 8.16803 61.9656ZM5.63919 57.7168C5.43062 57.7168 5.22959 57.6038 5.12651 57.4059C4.86965 56.912 4.61896 56.4089 4.38231 55.9103C4.24566 55.6223 4.36827 55.2784 4.65629 55.1414C4.94465 55.0041 5.2885 55.1277 5.42549 55.4154C5.65597 55.901 5.89981 56.3915 6.1505 56.873C6.29777 57.1559 6.18783 57.5045 5.90495 57.6514C5.82002 57.696 5.72892 57.7168 5.63919 57.7168ZM3.60146 53.2106C3.36995 53.2106 3.15145 53.0705 3.06275 52.8414C2.86206 52.3218 2.66891 51.7941 2.48842 51.2725C2.38431 50.9715 2.54425 50.6423 2.84562 50.5382C3.147 50.4338 3.47578 50.5944 3.57989 50.8954C3.75558 51.4037 3.9436 51.9181 4.13949 52.4249C4.25456 52.7222 4.10662 53.0564 3.80901 53.1712C3.74085 53.1986 3.67064 53.2106 3.60146 53.2106ZM2.07232 48.5067C1.81683 48.5067 1.58326 48.3358 1.51477 48.0772C1.3723 47.5402 1.23839 46.9946 1.11647 46.4552C1.04592 46.1439 1.24079 45.835 1.55175 45.7645C1.86443 45.6949 2.17198 45.8891 2.24252 46.2001C2.36136 46.7258 2.49219 47.258 2.63089 47.7813C2.7124 48.0895 2.52883 48.4056 2.22095 48.4871C2.17095 48.5005 2.12129 48.5067 2.07232 48.5067ZM1.06886 43.6641C0.787693 43.6641 0.541453 43.4586 0.498644 43.1726C0.416107 42.6223 0.342817 42.0651 0.281172 41.5161C0.245554 41.1993 0.473301 40.9137 0.790433 40.878C1.10825 40.8465 1.39285 41.0705 1.42881 41.3873C1.48874 41.9222 1.56032 42.4654 1.64045 43.0014C1.68772 43.3168 1.47059 43.6106 1.15517 43.6579C1.12606 43.6624 1.09729 43.6641 1.06886 43.6641ZM0.607893 38.74C0.298981 38.74 0.0431515 38.4954 0.0315074 38.1845C0.0106164 37.6314 0 37.0697 0 36.5149C0 36.1961 0.258569 35.9371 0.577413 35.9371C0.896257 35.9371 1.15483 36.195 1.15483 36.5139V36.5149C1.15483 37.055 1.1651 37.6023 1.18531 38.1413C1.19729 38.4598 0.948998 38.728 0.630154 38.74C0.622619 38.74 0.615085 38.74 0.607893 38.74ZM0.703101 33.7957C0.688375 33.7957 0.673648 33.795 0.658579 33.7939C0.340763 33.7693 0.102743 33.4922 0.127059 33.1741C0.169526 32.6189 0.222951 32.059 0.285966 31.5103C0.322268 31.1935 0.609263 30.9654 0.925367 31.0031C1.24216 31.0394 1.46922 31.3254 1.43292 31.6425C1.37161 32.1764 1.31921 32.7213 1.27812 33.2624C1.25483 33.5652 1.00174 33.7957 0.703101 33.7957ZM1.36374 28.8945C1.32709 28.8945 1.28976 28.8911 1.25243 28.8839C0.939751 28.8226 0.735293 28.5195 0.796596 28.2068C0.903449 27.6592 1.02194 27.1095 1.14866 26.5725C1.22161 26.2626 1.53326 26.0694 1.84286 26.1434C2.15314 26.2167 2.34527 26.5273 2.27198 26.8379C2.14869 27.3602 2.03327 27.8952 1.9295 28.428C1.87573 28.7034 1.63429 28.8945 1.36374 28.8945ZM2.59459 24.105C2.53603 24.105 2.47644 24.0964 2.41753 24.0772C2.1141 23.9796 1.94731 23.6543 2.04492 23.3509C2.21341 22.8279 2.39561 22.2957 2.58705 21.7697C2.69596 21.4697 3.02748 21.3145 3.3268 21.4244C3.62647 21.5334 3.78092 21.8645 3.67201 22.1642C3.48537 22.6769 3.30796 23.1954 3.14392 23.705C3.06515 23.9492 2.83843 24.105 2.59459 24.105ZM4.36964 19.4867C4.29087 19.4867 4.21038 19.4706 4.13401 19.436C3.84325 19.3056 3.71311 18.9638 3.84325 18.673C4.06963 18.1678 4.30902 17.6593 4.55457 17.1606C4.69533 16.8747 5.04123 16.7569 5.32754 16.898C5.6135 17.0387 5.73097 17.385 5.59022 17.6709C5.35083 18.1565 5.1176 18.6525 4.89705 19.1453C4.80081 19.3597 4.59019 19.4867 4.36964 19.4867ZM6.63853 15.0897C6.53887 15.0897 6.43818 15.0637 6.34606 15.0095C6.07139 14.8476 5.97995 14.4938 6.14194 14.2191C6.42722 13.7352 6.72244 13.2557 7.02005 12.7941C7.193 12.5259 7.5502 12.4489 7.81767 12.6211C8.08583 12.7937 8.16323 13.1509 7.99062 13.4188C7.70157 13.8681 7.41424 14.3345 7.13683 14.8051C7.02861 14.988 6.83614 15.0897 6.63853 15.0897ZM9.40539 10.9868C9.28209 10.9868 9.15812 10.9475 9.05298 10.8666C8.80092 10.6718 8.75434 10.3091 8.94921 10.0567C9.29374 9.61043 9.64854 9.1724 10.0033 8.75493C10.2095 8.51211 10.5739 8.48232 10.8171 8.68883C11.0599 8.89534 11.0897 9.25973 10.8832 9.50255C10.5397 9.90667 10.1965 10.3307 9.86259 10.7625C9.74889 10.9098 9.57799 10.9868 9.40539 10.9868ZM12.7034 7.30763C12.551 7.30763 12.3986 7.24736 12.2853 7.12852C12.0654 6.89769 12.0743 6.53227 12.3051 6.3124C12.7157 5.92129 13.137 5.54286 13.5575 5.18737C13.801 4.9812 14.1651 5.01168 14.3709 5.25552C14.5768 5.49902 14.5463 5.86307 14.3028 6.0689C13.8997 6.40966 13.4956 6.77268 13.1014 7.14804C12.9897 7.25454 12.8462 7.30763 12.7034 7.30763ZM16.5806 4.24625C16.3898 4.24625 16.2035 4.15173 16.0932 3.97912C15.922 3.71028 16.0011 3.35342 16.27 3.18218C16.7498 2.87635 17.2402 2.58901 17.7279 2.3277C18.0084 2.17701 18.3587 2.28284 18.5094 2.56367C18.6601 2.8445 18.5543 3.19451 18.2734 3.3452C17.8114 3.59281 17.346 3.86576 16.8905 4.15583C16.7943 4.21714 16.6867 4.24625 16.5806 4.24625ZM21.0184 2.10133C20.7776 2.10133 20.5526 1.94927 20.4714 1.70817C20.3694 1.40611 20.532 1.0787 20.8341 0.976643C21.3721 0.795132 21.9222 0.636906 22.4687 0.50608C22.7794 0.431421 23.0903 0.62321 23.1647 0.933149C23.239 1.24309 23.0479 1.55474 22.7376 1.62906C22.2249 1.75201 21.7085 1.90064 21.2033 2.07085C21.1417 2.0914 21.0797 2.10133 21.0184 2.10133ZM25.8592 1.17699C25.5538 1.17699 25.2986 0.937259 25.2832 0.629032C25.2671 0.31053 25.512 0.0396307 25.8305 0.0235344C26.3887 -0.00489101 26.9579 -0.0076291 27.5309 0.0156592C27.8494 0.0286732 28.0973 0.29717 28.0843 0.616014C28.0713 0.934516 27.8062 1.18315 27.4839 1.16911C26.9466 1.14754 26.412 1.14993 25.8887 1.1763C25.8788 1.17665 25.8692 1.17699 25.8592 1.17699Z" fill="#90B956"/>
</svg>
