<svg width="127" height="78" viewBox="0 0 127 78" fill="none" xmlns="http://www.w3.org/2000/svg">
<path d="M126.729 58.3964C126.515 57.9354 126.288 57.5157 126.055 57.1181L126.43 56.866C126.525 56.8022 126.43 56.651 126.328 56.6961C126.192 56.7562 126.052 56.8158 125.915 56.8759C121.413 49.5546 113.569 53.2326 106.483 55.1807C103.047 56.1252 99.946 56.8975 96.4844 55.6605C93.4421 54.5738 91.5808 52.5524 89.2505 50.4015C87.5183 48.8026 85.6199 47.2267 83.5567 45.9738C82.8141 45.1861 82.0076 44.4697 81.1472 43.8088C86.739 40.2782 92.3112 36.7198 97.8176 33.0536C101.578 30.5496 107.266 28.0241 109.083 23.5443C110.301 20.5399 108.985 17.6679 106.219 15.9954C102.461 13.7238 97.7266 15.056 93.82 16.0968C87.7502 17.7125 81.5753 19.0542 75.5651 20.8831C70.0272 22.5679 64.1091 24.0935 58.7609 26.2266C57.43 25.231 56.0569 24.3287 54.8064 23.4889C54.5904 23.3439 54.3365 23.311 54.1013 23.3565C53.806 23.2603 53.469 23.2162 53.0897 23.2317C53.0469 23.1561 53.0019 23.081 52.9286 23.0148C47.087 17.7266 40.8013 13.0267 34.0166 9.01114C29.0392 6.06545 23.483 2.4067 17.5677 2.05275C16.3101 1.97717 15.0563 2.09406 13.7987 2.07904C11.2675 2.04946 9.09493 1.17866 6.61961 0.855693C5.20709 0.671206 3.77672 0.50268 2.41114 1.09651C1.28122 1.58754 0.555494 2.41797 0.26116 3.35495C0.0973285 3.43523 -0.0289518 3.59389 0.00578623 3.80232C0.0334827 3.96803 0.0776176 4.12717 0.108131 4.29147C0.110947 4.66983 0.199192 5.05007 0.345655 5.4275C2.73178 15.5414 11.1341 23.2298 18.8469 29.6394C23.4887 33.4963 28.3506 37.0884 33.3195 40.5354C33.0449 40.9598 32.7628 41.379 32.4816 41.7991C31.4986 42.8938 30.7118 44.2721 29.91 45.4198C28.3327 43.5628 26.5461 41.8911 25.0537 40.6396C24.9378 39.8392 24.5843 39.1079 23.9154 38.5042C22.7554 37.4573 21.5293 37.4339 20.3604 37.9282C15.8562 37.5184 7.45522 47.5004 12.6129 50.7559C12.9213 50.9507 13.255 51.0896 13.6076 51.1784C15.8824 53.7077 19.5882 55.6572 22.1545 57.0082C22.1743 57.019 22.1959 57.0294 22.2156 57.0397C18.9249 59.7418 19.6802 64.6717 24.781 64.6459C28.1393 64.629 31.4498 62.0035 34.3227 60.5445C39.3311 58.0006 44.4197 55.6178 49.6281 53.5124C49.6581 53.5058 49.6844 53.511 49.7168 53.496C49.7511 53.48 49.7806 53.4584 49.8149 53.442C49.9149 53.488 50.0308 53.4969 50.1506 53.4392C50.2989 53.3673 50.4378 53.281 50.581 53.2021C50.9965 53.0045 51.4354 52.8852 51.8447 52.6707C52.5066 53.0894 53.169 53.5096 53.8309 53.9274C65.4897 61.2923 77.6044 68.307 90.8128 72.5009C93.7538 73.4351 96.7445 74.2284 99.7681 74.8486C102 75.3063 105.141 76.4507 107.446 75.7912C108.662 75.4433 109.402 74.7176 109.576 73.828C111.519 75.1523 113.529 76.508 115.533 77.2478C118.695 78.4144 119.782 76.1052 118.218 73.2346C117.19 71.348 115.267 69.7871 113.362 68.4319C115.074 67.3325 116.748 66.1659 118.408 64.9778C118.684 65.2538 118.963 65.527 119.249 65.7895C119.357 65.888 119.525 65.7148 119.428 65.6064C119.181 65.3299 118.924 65.0618 118.665 64.7947C121.285 62.9142 123.876 60.9857 126.531 59.1822C126.768 59.0221 126.845 58.6489 126.729 58.3964ZM92.7745 35.6106C88.6252 38.1929 84.4388 40.8527 80.0586 43.0295C78.6559 43.7266 77.2884 44.2955 75.9299 44.7237C74.9661 43.9726 73.0251 42.622 72.7504 42.0216C71.8731 40.1035 74.0953 37.8925 75.3553 36.8889C78.1193 34.6867 81.5039 33.1484 84.6609 31.5946C84.7533 31.5491 84.8731 31.4885 85.0059 31.4214C84.9951 31.4364 84.9932 31.4599 85.0106 31.4763C86.8972 33.2409 88.7806 35.0463 90.7687 36.6964C90.8992 36.8048 91.0414 36.6011 90.9235 36.4898C89.0482 34.7201 87.0324 33.0714 85.0561 31.4157C85.0369 31.3998 85.0172 31.4068 85.0059 31.4218C88.3811 29.7117 104.287 21.3436 105.448 26.6533C105.457 26.6918 105.475 26.7191 105.489 26.751C105.265 27.0106 105.035 27.2697 104.774 27.5251C101.484 30.7506 96.6713 33.185 92.7745 35.6106ZM80.7115 20.231C85.012 18.8101 89.481 17.637 93.912 16.6864C96.3798 16.1568 99.003 15.517 101.546 15.8564C107.177 16.6075 109.301 21.361 106.174 25.8647C105.038 20.9718 94.9959 26.7163 92.8074 27.6387C85.2979 30.8022 75.7698 34.0793 71.0215 41.1339C70.9154 41.2917 70.9365 41.5001 71.091 41.6198C72.5373 42.745 73.9761 43.8458 75.4985 44.8546C71.8839 45.9137 68.3162 45.9343 64.3096 44.5096C62.3563 43.8149 60.4255 42.9788 58.5149 42.0949C60.2851 42.4333 61.7971 42.4174 62.6464 41.8691C65.3756 40.1068 65.8244 36.287 64.8344 33.439C64.0021 31.0444 62.2337 29.0695 60.2034 27.3669C61.1461 27.0167 62.1211 26.6665 63.0862 26.2848C69.0959 25.3821 75.306 22.0172 80.7115 20.231ZM51.6194 24.7273C52.0536 24.6099 52.5235 24.8061 53.0324 25.3394C52.6165 25.407 52.1438 25.6427 51.7274 26.0022C50.6575 26.9261 46.4786 30.5262 46.8312 32.6827C46.6284 32.4076 46.611 32.0307 46.7082 31.6124C46.7711 31.4744 46.8476 31.3308 46.9448 31.1777C47.1466 30.6717 47.3912 30.1868 47.678 29.7234C48.7033 27.8847 50.0825 26.4351 51.5171 24.9132C51.5739 24.8526 51.603 24.7902 51.6194 24.7273ZM54.0548 26.8806C54.1355 26.5144 54.144 26.2201 54.0975 25.9896C55.403 26.413 55.6561 27.2641 54.851 28.5447C54.666 29.0836 54.4168 29.5906 54.1027 30.0657C53.4544 31.2017 52.6658 32.1368 51.6847 33.0174C50.3721 34.1957 50.2604 34.4882 48.9117 33.8183C49.2248 33.6944 49.5361 33.4869 49.8426 33.2113C49.9726 33.1559 50.0947 33.0822 50.1876 32.9658C50.3796 32.725 50.5566 32.4771 50.7392 32.2325C52.3677 30.6919 53.6863 28.5484 54.0548 26.8806ZM49.3234 35.8491C52.1996 34.4717 54.9636 30.9853 55.6992 27.902C55.8312 27.3486 55.8889 26.7651 55.8612 26.2046C57.408 27.3303 59.3993 29.131 59.8204 29.5056C62.2619 31.6777 64.8325 35.1135 63.4449 38.5995C61.8497 42.6075 58.0351 40.3411 55.2866 39.1872C53.4976 38.4356 50.9734 37.3883 49.0952 35.9284C49.1718 35.8974 49.2464 35.8857 49.3234 35.8491ZM59.573 26.4928C59.4805 26.5397 59.3838 26.5811 59.2927 26.6294C59.2233 26.5754 59.1533 26.5219 59.0834 26.4679C59.2458 26.4797 59.4091 26.4867 59.573 26.4928ZM13.3508 45.3048C13.9277 44.0421 15.5478 41.6808 17.4114 40.2026C16.5711 41.1194 15.8627 42.0995 15.3712 42.8159C15.2126 43.0469 15.0459 43.3126 14.8826 43.5994C13.3104 45.8334 12.042 48.6791 15.2262 48.9847C16.2378 49.0819 17.1804 48.5369 18.0156 47.8083C18.9521 47.2412 19.7417 46.3348 20.4228 45.5513C21.2509 44.5983 23.0075 42.7985 23.7947 41.1696C23.9877 41.3592 24.182 41.5475 24.3773 41.7343C24.1036 44.1003 21.9377 46.5934 20.3566 47.8905C19.0089 48.996 17.1715 50.1372 15.3393 50.0456C12.5547 49.9067 12.4467 47.2835 13.3508 45.3048ZM19.3844 53.7917C18.1019 52.9876 16.7124 52.1628 15.4093 51.2375C19.291 50.677 24.1604 46.1489 24.9786 42.3042C26.0213 43.2811 27.0789 44.243 28.0877 45.2602C29.0758 46.2568 30.1264 47.2976 30.9714 48.4237C31.4366 49.1631 31.9018 49.9025 32.3666 50.6413C33.8988 53.2918 33.227 55.0164 30.3518 55.8164C27.3671 57.8584 27.1338 57.6786 24.0961 56.398C22.44 55.6995 20.9026 54.7437 19.3844 53.7917ZM28.4707 59.2784C28.4764 59.3179 28.5041 59.3793 28.5402 59.4484C28.5379 59.4746 28.5416 59.5042 28.5421 59.5319C28.4567 59.3484 28.3806 59.17 28.3243 59.0123C28.345 59.0123 28.3656 59.0104 28.3862 59.0104C28.4229 59.093 28.4562 59.1784 28.4707 59.2784ZM27.3235 63.055C22.6362 61.2482 21.1241 59.3371 22.7672 57.3232C24.382 58.1386 26.2545 58.9174 28.0661 59.0015C28.1816 60.2985 28.7158 61.2547 29.7284 61.9772C28.9439 62.3753 28.1445 62.7396 27.3235 63.055ZM49.3765 52.5627C49.3084 52.5989 49.2581 52.6435 49.2211 52.6928C44.9689 54.6343 40.707 56.552 36.5018 58.5963C34.5757 59.5333 32.6773 60.5337 30.7531 61.4754C30.7465 61.4613 30.7503 61.4467 30.7419 61.4331C30.5752 61.1585 30.2945 60.9811 30.0767 60.7477C29.8241 60.4778 29.6265 60.1797 29.435 59.8652C29.4101 59.8248 29.3688 59.7427 29.3162 59.6469C29.2801 59.4639 29.2599 59.2747 29.2571 59.0789C29.2326 59.0348 29.2186 58.9954 29.1984 58.9526C30.1241 58.8273 31.0151 58.4804 31.8234 57.7997C32.682 57.0768 33.236 56.2783 33.5519 55.431C34.0992 55.17 34.6325 54.9179 35.1038 54.6681C35.2165 54.6085 35.3414 54.539 35.462 54.4728C36.3135 55.838 37.7988 56.981 39.4484 56.9979C39.6559 57.0003 39.6817 56.7257 39.4818 56.6806C37.8829 56.3201 36.5863 55.7168 35.6728 54.3574C38.8321 52.5975 44.3221 49.0659 47.203 51.6558C47.3551 51.7924 47.5499 51.5342 47.394 51.4004C46.1651 50.3442 44.838 50.17 43.2602 50.5536C40.6121 51.1971 37.9528 52.6524 35.4601 54.0405C35.3846 53.9264 35.1888 54.0072 35.2573 54.1358C35.2597 54.14 35.263 54.1447 35.2653 54.1489C34.7301 54.447 34.2025 54.7395 33.6852 55.0202C34.4325 52.3243 32.8834 49.1842 30.6785 46.3587C30.7221 46.323 30.7672 46.2906 30.8038 46.2352C31.6544 44.9537 32.7891 43.5928 33.474 42.1315C33.711 41.7982 33.9481 41.4653 34.1852 41.132C39.5841 44.849 45.1023 48.3998 50.6279 51.8989C50.2106 52.121 49.7933 52.3421 49.3765 52.5627ZM105.307 74.4622C104.4 74.3449 103.495 74.2064 102.595 74.0463C101.397 73.843 100.203 73.6158 99.0166 73.3534C95.8207 72.6465 92.6666 71.7639 89.566 70.7133C84.3773 68.9558 79.3403 66.7593 74.446 64.3037C64.0767 59.1015 54.3271 52.7542 44.6197 46.4296C28.9082 36.1931 8.57481 24.4311 1.66195 5.95185C2.83647 2.68789 4.77803 1.65561 7.5059 2.91509C8.08659 3.11272 8.67478 3.28266 9.27048 3.42443C9.73335 3.51644 10.176 3.59296 10.6131 3.66055C11.1473 4.11074 11.6993 4.53933 12.3101 4.92286C13.4973 5.66925 14.7765 6.23304 15.9843 6.93578C16.673 7.33668 17.4415 7.17707 17.7949 6.42128C18.132 5.69977 18.0677 4.9022 17.7621 4.19195C21.2016 4.6581 24.1576 5.75704 27.6079 7.49441C36.2399 11.8399 44.0991 17.3501 51.3326 23.7335C50.3735 24.2433 49.4614 25.0915 48.67 26.068C46.6829 28.0269 44.9056 30.7285 45.0971 33.2212C45.1994 34.5483 45.9003 35.535 46.8711 35.9547C48.139 37.6841 51.089 39.5069 54.1576 40.7579C61.0329 44.4838 67.7388 48.489 74.9582 46.723C74.93 47.0891 75.0168 47.4741 75.2032 47.7679C75.3849 48.3064 75.8092 48.7378 76.3655 49.0364C76.9138 49.3302 77.5795 49.0932 78.0503 48.7876C78.9685 48.1914 78.9159 47.1211 78.6446 46.2118C78.5601 45.9282 78.4019 45.71 78.2048 45.5428C78.3916 45.4518 78.5789 45.3494 78.7662 45.2494C80.2341 46.3484 81.8278 47.2262 83.384 48.2937C85.9926 50.0837 88.1009 52.4026 90.5968 54.3217C94.5513 57.3617 98.618 58.2856 103.492 57.3063C106.124 56.7773 108.696 55.8868 111.284 55.1807C112.657 54.8066 114.249 54.2222 115.671 54.0583C118.049 53.7847 123.178 54.8822 124.083 57.657C118.972 59.791 113.269 61.9354 109.224 65.5745C106.348 63.647 103.31 61.9265 100.038 60.8008C99.9986 60.7445 99.9456 60.6947 99.863 60.6642C96.9337 59.6019 95.8803 62.1828 97.067 64.5487C98.7204 67.8451 103.537 70.0491 106.53 71.8325C106.966 72.0925 107.41 72.3775 107.856 72.6709C107.006 73.2689 106.157 73.8656 105.307 74.4622ZM114.805 73.3764C109.709 70.6767 105.107 67.2264 100.315 64C100.266 63.9676 100.212 64.038 100.26 64.0727C104.951 67.4911 109.65 71.2616 114.87 73.8933C114.866 73.989 114.857 74.0834 114.834 74.174C114.281 76.3526 113.032 74.4228 111.657 73.5769C110.838 73.0732 110.023 72.561 109.207 72.0531C109.149 71.9531 109.107 71.854 109.038 71.7536C108.854 71.4902 108.593 71.4471 108.365 71.5297C108 71.3011 107.632 71.0771 107.268 70.8476C105.767 69.9012 104.236 68.9835 102.815 67.9169C102.347 67.5573 101.878 67.1973 101.409 66.8377C98.7772 65.673 98.1951 63.8803 99.648 61.4641C101.949 63.0297 106.998 65.9641 110.653 68.7929C110.185 69.1698 110.714 70.058 111.26 69.7341C111.368 69.6698 111.473 69.6003 111.581 69.5355C113.273 70.9372 114.518 72.2784 114.805 73.3764ZM112.368 67.7362C111.775 67.3292 111.196 66.9372 110.667 66.5654C110.222 66.2523 109.773 65.9434 109.321 65.6392C111.237 64.1291 113.357 62.9982 115.537 61.9443C116.334 62.779 117.116 63.6465 117.923 64.483C115.939 65.7256 113.877 66.8659 112.368 67.7362ZM118.191 64.3159C117.361 63.4916 116.498 62.6945 115.668 61.8819C116.264 61.5946 116.863 61.3111 117.463 61.0271C118.783 60.4022 120.103 59.7756 121.427 59.1587C122.153 58.8207 123.238 58.4992 124.194 58.1006C124.427 59.9173 121.463 62.2443 118.191 64.3159Z" fill="#E7E5E1"/>
<path d="M23.2296 7.06452C22.9657 6.97439 22.6902 6.89552 22.4113 6.88332C21.48 6.84341 20.8697 7.29172 20.4449 8.07802C20.497 7.98366 20.5491 7.88931 20.6012 7.79448C20.4623 7.96677 20.3763 8.16017 20.343 8.37423C20.2576 8.72161 20.2839 9.04552 20.4163 9.38398C20.4364 9.43233 20.4547 9.48115 20.4716 9.53091C20.6946 10.152 21.3748 10.5989 22.0128 10.6608C22.286 10.6871 22.5672 10.6852 22.8366 10.6336C23.6183 10.4839 24.3482 9.82712 24.3994 8.99107C24.4482 8.19726 24.0229 7.33538 23.2296 7.06452Z" fill="#E7E5E1"/>
<path d="M28.6708 11.1086C28.5126 11.1218 28.3783 11.1335 28.223 11.1673C27.5536 11.3128 27.1071 11.7842 26.9959 12.4568C26.8982 13.0465 27.0808 13.4816 27.3925 13.9614C27.9981 14.8955 29.5993 14.8167 30.1936 13.9271C30.2237 13.882 30.2537 13.837 30.2842 13.7914C31.1306 12.5249 30.1565 10.9842 28.6708 11.1086Z" fill="#E7E5E1"/>
<path d="M34.1153 14.3506C33.1177 14.4332 32.3751 15.2585 32.4769 16.2683C32.5173 16.6682 32.6872 17.0109 32.9557 17.3048C33.7134 18.1347 35.1626 18.314 35.87 17.2691C36.0779 16.9616 36.1704 16.7269 36.2272 16.3598C36.4192 15.1125 35.2349 14.2581 34.1153 14.3506Z" fill="#E7E5E1"/>
<path d="M40.5535 18.1368C39.6442 18.0316 39.0128 18.709 38.8307 19.531C38.7537 19.8784 38.7917 20.3647 38.8823 20.7196C39.1072 21.6017 39.7583 22.2589 40.7155 22.2349C41.5576 22.2138 42.443 21.5359 42.4716 20.6304C42.5082 19.4409 41.8228 18.2832 40.5535 18.1368Z" fill="#E7E5E1"/>
<path d="M47.0758 23.7629C46.5472 23.3672 45.9111 23.4493 45.3984 23.7925C45.3323 23.8122 45.2637 23.8267 45.198 23.8526C44.8117 24.0056 44.746 24.3727 44.8746 24.6792C44.807 25.1754 44.9595 25.6744 45.3975 26.0026C46.0017 26.4551 46.9039 26.3265 47.3565 25.7218C47.8104 25.1144 47.6827 24.2168 47.0758 23.7629Z" fill="#E7E5E1"/>
<path d="M84.2539 50.3225C83.3558 49.97 82.1855 50.422 81.8635 51.3651C81.5401 52.3115 81.9438 53.378 82.9061 53.7559C83.8041 54.1085 84.9744 53.6569 85.2969 52.7133C85.6204 51.7665 85.2162 50.7004 84.2539 50.3225Z" fill="#E7E5E1"/>
<path d="M90.4213 58.3156C90.9396 58.0898 91.2574 57.5124 91.1696 56.9538C91.055 56.2215 90.4706 55.96 89.8322 55.8755C89.8078 55.8469 89.7843 55.8178 89.7598 55.7887C89.4923 55.4652 88.9642 55.6948 89.0191 56.1116C89.0238 56.1483 89.0289 56.1849 89.0336 56.2215C88.6863 56.7022 88.4839 57.2195 88.8304 57.7978C89.1524 58.3353 89.8383 58.5701 90.4213 58.3156Z" fill="#E7E5E1"/>
<path d="M88.03 65.8321C88.0764 65.6377 88.1619 65.4871 88.1506 65.2819C88.1459 65.1946 88.0699 65.1195 87.9948 65.0876C87.7014 64.9622 87.2639 65.1495 87.0212 65.3354C86.6358 65.6302 86.4208 66.0818 86.3264 66.5409C86.1133 67.5774 87.9507 67.7746 87.9568 66.7128C87.9586 66.4034 87.9591 66.1292 88.03 65.8321Z" fill="#E7E5E1"/>
<path d="M85.5597 64.2603C84.9598 64.3171 84.2218 64.8395 84.4828 65.5141C84.5711 65.7427 84.8499 65.7742 85.0311 65.6516C85.2851 65.4798 85.3612 65.1475 85.6865 65.0705C86.1977 64.9494 86.0897 64.21 85.5597 64.2603Z" fill="#E7E5E1"/>
<path d="M83.4057 63.6758C83.1432 63.696 82.9907 63.5734 82.7606 63.4936C82.6024 63.4387 82.4363 63.595 82.5076 63.7561C82.6804 64.1485 83.0935 64.2363 83.4897 64.2156C83.8385 64.1978 83.7577 63.649 83.4057 63.6758Z" fill="#E7E5E1"/>
<path d="M50.0534 46.3413C49.729 46.0977 49.3638 46.3333 49.2816 46.6779C49.2478 46.768 49.238 46.861 49.2521 46.9563C49.2563 47.1459 49.3797 47.2942 49.5835 47.2717C49.729 47.2558 49.8187 47.2262 49.9567 47.1727C50.3003 47.0384 50.3355 46.553 50.0534 46.3413Z" fill="#E7E5E1"/>
<path d="M48.891 44.3016C48.7295 44.2561 48.6629 44.2406 48.4934 44.227C48.0597 44.1913 48.1334 44.8898 48.507 44.7842C48.6793 44.7354 48.7394 44.7189 48.8971 44.6386C49.0239 44.5734 49.0549 44.3476 48.891 44.3016Z" fill="#E7E5E1"/>
<path d="M54.7275 34.5761C54.2195 34.4878 53.7548 34.7709 53.3318 35.0192C53.0971 35.1567 53.1582 35.606 53.4793 35.5252C53.9754 35.4008 54.5303 35.2802 54.8439 34.8427C54.9209 34.7343 54.8523 34.5977 54.7275 34.5761Z" fill="#E7E5E1"/>
<path d="M55.6485 35.8691C55.3002 35.8048 55.0073 35.8499 54.6599 35.9137C54.3421 35.9719 54.4163 36.4475 54.7374 36.409C55.0847 36.3672 55.38 36.324 55.6931 36.1597C55.8302 36.0874 55.7997 35.8973 55.6485 35.8691Z" fill="#E7E5E1"/>
<path d="M56.3264 37.1342C56.7846 37.0224 57.2831 36.9544 57.7141 36.7614C57.892 36.6816 57.8075 36.4258 57.6216 36.4432C57.1681 36.4849 56.7109 36.6661 56.2724 36.7891C56.0607 36.8483 56.1049 37.1882 56.3264 37.1342Z" fill="#E7E5E1"/>
<path d="M20.5594 51.6505C20.0186 51.4923 19.4065 51.5848 18.8464 51.4843C18.5563 51.4322 18.507 51.835 18.7324 51.9523C19.3004 52.2486 20.0407 52.4453 20.6251 52.0941C20.7885 51.9951 20.7354 51.7021 20.5594 51.6505Z" fill="#E7E5E1"/>
<path d="M21.6578 52.9177C21.4691 52.8618 21.3029 52.8482 21.1053 52.8346C20.8222 52.8153 20.7762 53.2627 21.0588 53.2726C21.256 53.2796 21.4269 53.289 21.6203 53.2529C21.779 53.2238 21.8325 52.9698 21.6578 52.9177Z" fill="#E7E5E1"/>
<path d="M23.4755 53.5221C23.1778 53.4573 22.9272 53.6183 22.7596 53.8582C22.6812 53.9708 22.8436 54.0924 22.9295 53.9859C23.0952 53.7803 23.2488 53.7648 23.4807 53.7328C23.6079 53.7155 23.5867 53.5465 23.4755 53.5221Z" fill="#E7E5E1"/>
<path d="M11.7087 16.5942C11.7735 16.9195 11.8744 17.1322 12.0524 17.4115C12.1049 17.4937 12.2523 17.4486 12.2552 17.3528C12.2655 17.005 12.2434 16.7961 12.1284 16.4717C12.0444 16.237 11.6599 16.3497 11.7087 16.5942Z" fill="#E7E5E1"/>
<path d="M13.8062 18.7605C13.6884 18.7488 13.5705 18.737 13.4527 18.7248C13.1842 18.698 13.2274 19.1379 13.4611 19.0712C13.578 19.0379 13.6949 19.0041 13.8113 18.9713C13.9193 18.9407 13.9358 18.7736 13.8062 18.7605Z" fill="#E7E5E1"/>
<path d="M15.3341 19.8226C15.143 19.7475 15.0261 20.0442 15.2176 20.1193C15.4087 20.1944 15.5256 19.8977 15.3341 19.8226Z" fill="#E7E5E1"/>
<path d="M31.5015 32.5802C31.1527 32.5069 30.8555 32.6309 30.5626 32.8135C30.3453 32.9487 30.572 33.3327 30.7945 33.2012C31.0208 33.0679 31.2583 33.0172 31.5108 32.9562C31.7249 32.905 31.7137 32.6252 31.5015 32.5802Z" fill="#E7E5E1"/>
<path d="M32.3901 34.1505C32.0291 34.1951 31.6831 34.336 31.3391 34.4486C31.0959 34.528 31.2161 34.9542 31.4653 34.8824C31.8132 34.7829 32.1803 34.7064 32.5037 34.5411C32.7088 34.4364 32.6276 34.1214 32.3901 34.1505Z" fill="#E7E5E1"/>
<path d="M33.373 34.9772C33.2007 34.9434 33.0392 34.934 32.8641 34.9232C32.6697 34.9114 32.6364 35.2133 32.8322 35.225C33.019 35.2363 33.1932 35.2462 33.3795 35.2325C33.5344 35.2217 33.5072 35.0035 33.373 34.9772Z" fill="#E7E5E1"/>
<path d="M38.9606 35.7744C38.9437 36.2499 38.9081 36.7259 38.9977 37.1967C39.0264 37.346 39.2249 37.331 39.2536 37.1902C39.3465 36.7343 39.3179 36.2734 39.3075 35.811C39.3033 35.5927 38.9691 35.5443 38.9606 35.7744Z" fill="#E7E5E1"/>
<path d="M41.1972 36.9996C41.3333 36.7569 40.9883 36.4894 40.8446 36.7354C40.5719 37.2024 40.4109 37.6437 40.5695 38.1737C40.5982 38.269 40.7503 38.2577 40.7798 38.1699C40.9132 37.7794 40.9949 37.3606 41.1972 36.9996Z" fill="#E7E5E1"/>
<path d="M73.8241 33.7221C73.9489 33.87 74.1733 33.7297 74.1085 33.5522C73.9903 33.2278 73.7917 32.9387 73.6166 32.6425C73.4893 32.4275 73.1284 32.5777 73.2546 32.8002C73.4321 33.1124 73.5917 33.4461 73.8241 33.7221Z" fill="#E7E5E1"/>
<path d="M76.6308 31.6927C76.8129 31.7641 76.9242 31.4815 76.742 31.4101C76.5599 31.3383 76.4486 31.6209 76.6308 31.6927Z" fill="#E7E5E1"/>
<path d="M81.4644 29.4248C81.5316 29.161 81.5992 28.8971 81.6663 28.6338C81.7268 28.3953 81.3691 28.3169 81.3447 28.5554C81.3166 28.8286 81.2884 29.1018 81.2597 29.375C81.248 29.4896 81.4339 29.5445 81.4644 29.4248Z" fill="#E7E5E1"/>
<path d="M69.8028 56.985C69.823 57.2281 69.8371 57.4647 69.8958 57.7022C69.9362 57.8656 70.2028 57.8877 70.2122 57.6943C70.2244 57.4351 70.192 57.1859 70.1629 56.9282C70.1366 56.6944 69.7836 56.7531 69.8028 56.985Z" fill="#E7E5E1"/>
<path d="M72.9931 56.9636C72.9307 56.6899 72.5007 56.7514 72.558 57.0316C72.6561 57.5095 72.8222 57.8024 73.1926 58.1193C73.2691 58.1845 73.3813 58.0874 73.3424 58.0005C73.2034 57.6907 73.0692 57.2954 72.9931 56.9636Z" fill="#E7E5E1"/>
</svg>
