<svg width="163" height="53" viewBox="0 0 163 53" fill="none" xmlns="http://www.w3.org/2000/svg">
<path d="M62.4116 34.2585H76.2614L76.0743 28.787H62.6361L62.4116 34.2585ZM69.2616 22.7797L72.7428 30.8149L72.331 32.728L75.3256 38.5822H83.5607L69.2616 10L55 38.5822H63.2351L66.2671 32.4602L65.8179 30.8149L69.2616 22.7797Z" fill="white"/>
<path d="M86.4742 31.8862L84.116 36.4012C85.0144 36.9879 85.9502 37.5109 86.9234 37.97C87.8966 38.4292 88.9323 38.7863 90.0303 39.0414C91.1532 39.2964 92.3511 39.424 93.6238 39.424C95.7449 39.424 97.3794 38.9521 98.5274 38.0083C99.7002 37.0645 100.287 35.5977 100.287 33.6081C100.287 32.5112 100.05 31.6312 99.5755 30.9679C99.1263 30.3047 98.5274 29.769 97.7787 29.3609C97.055 28.9273 96.2565 28.5446 95.3831 28.213C94.4597 27.8559 93.6986 27.5753 93.0997 27.3713C92.5008 27.1672 92.0516 26.9631 91.7522 26.759C91.4527 26.5295 91.303 26.2361 91.303 25.879C91.303 25.6239 91.4028 25.4071 91.6024 25.2285C91.827 25.05 92.1764 24.9607 92.6505 24.9607C93.3992 24.9607 94.2601 25.1903 95.2333 25.6494C96.2315 26.0831 97.1299 26.657 97.9284 27.3713L99.8375 22.971C99.0639 22.5119 98.2778 22.1165 97.4793 21.7849C96.6807 21.4278 95.8322 21.1472 94.9339 20.9431C94.0605 20.7135 93.1122 20.5988 92.089 20.5988C90.7664 20.5988 89.606 20.8028 88.6079 21.211C87.6097 21.5936 86.8236 22.1675 86.2496 22.9328C85.6757 23.6725 85.3887 24.5908 85.3887 25.6877C85.3887 26.8356 85.6133 27.7794 86.0625 28.5191C86.5366 29.2334 87.148 29.8073 87.8966 30.241C88.6453 30.6491 89.4314 30.9934 90.2549 31.274C91.2531 31.6057 92.0017 31.8862 92.5008 32.1158C93.0248 32.3454 93.3742 32.575 93.5489 32.8045C93.7485 33.0086 93.8484 33.2637 93.8484 33.5698C93.8484 33.9269 93.7361 34.2075 93.5115 34.4116C93.2869 34.6156 92.9375 34.7177 92.4634 34.7177C92.1639 34.7177 91.7397 34.6539 91.1907 34.5264C90.6417 34.3988 89.9804 34.131 89.2068 33.7229C88.4332 33.3147 87.5223 32.7025 86.4742 31.8862Z" fill="white"/>
<path d="M101.285 20.9814V26.3382H113.675V20.9814H101.285ZM104.392 14.8594V38.5822H110.568V14.8594H104.392Z" fill="white"/>
<path d="M122.241 20.9814H115.915V38.5822H122.241V20.9814ZM127.144 27.7539L129.839 22.0527C129.565 21.6191 129.141 21.262 128.567 20.9814C127.993 20.6753 127.394 20.5222 126.77 20.5222C125.772 20.5222 124.811 20.8538 123.888 21.5171C122.989 22.1548 122.266 23.0221 121.717 24.1189C121.168 25.2158 120.893 26.4657 120.893 27.8687L122.241 30.5088C122.241 29.667 122.353 28.9655 122.577 28.4043C122.827 27.8432 123.164 27.4223 123.588 27.1417C124.012 26.8611 124.474 26.7208 124.973 26.7208C125.472 26.7208 125.884 26.8228 126.208 27.0269C126.558 27.2054 126.87 27.4478 127.144 27.7539Z" fill="white"/>
<path d="M131.623 14.5915C131.623 15.5863 131.972 16.4026 132.671 17.0403C133.394 17.678 134.255 17.9969 135.253 17.9969C136.277 17.9969 137.138 17.678 137.836 17.0403C138.56 16.4026 138.922 15.5863 138.922 14.5915C138.922 13.5712 138.56 12.7422 137.836 12.1044C137.138 11.4667 136.277 11.1479 135.253 11.1479C134.255 11.1479 133.394 11.4667 132.671 12.1044C131.972 12.7422 131.623 13.5712 131.623 14.5915ZM132.147 20.9814V38.5822H138.36V20.9814H132.147Z" fill="white"/>
<path d="M149.038 47V20.9814H142.562V47H149.038ZM163 29.7818C163 27.6646 162.601 25.9173 161.802 24.5398C161.029 23.1368 160.03 22.0782 158.808 21.364C157.585 20.6498 156.287 20.2927 154.915 20.2927C153.392 20.2927 152.082 20.688 150.984 21.4788C149.911 22.2696 149.088 23.3792 148.514 24.8077C147.965 26.2106 147.69 27.8687 147.69 29.7818C147.69 31.6694 147.965 33.3275 148.514 34.7559C149.088 36.1844 149.911 37.294 150.984 38.0848C152.082 38.8756 153.392 39.2709 154.915 39.2709C156.287 39.2709 157.585 38.9138 158.808 38.1996C160.03 37.4853 161.029 36.4267 161.802 35.0238C162.601 33.6208 163 31.8735 163 29.7818ZM156.187 29.7818C156.187 30.5471 156.025 31.2103 155.701 31.7715C155.376 32.3326 154.94 32.7535 154.391 33.0341C153.842 33.3147 153.23 33.455 152.556 33.455C151.983 33.455 151.421 33.3275 150.872 33.0724C150.348 32.7918 149.911 32.3837 149.562 31.848C149.213 31.3123 149.038 30.6236 149.038 29.7818C149.038 28.94 149.213 28.2513 149.562 27.7156C149.911 27.1799 150.348 26.7846 150.872 26.5295C151.421 26.2489 151.983 26.1086 152.556 26.1086C153.23 26.1086 153.842 26.2489 154.391 26.5295C154.94 26.8101 155.376 27.231 155.701 27.7921C156.025 28.3278 156.187 28.991 156.187 29.7818Z" fill="white"/>
<path d="M33.5221 13.743H31.7338V5.79993C31.7338 3.86445 30.1972 2.29042 28.3092 2.29042H27.2188V0.458008H28.3092C31.1839 0.458008 33.5221 2.8548 33.5221 5.79993V13.743Z" fill="white"/>
<path d="M12.7818 0.459961V2.29237H11.6909C9.80428 2.29237 8.26634 3.86366 8.26634 5.80143V13.7449H6.47803V5.80143C6.47803 2.85583 8.81624 0.459961 11.6909 0.459961H12.7818V0.459961Z" fill="white"/>
<path d="M24.5618 2.74861H15.4396C14.6988 2.74861 14.0984 2.13338 14.0984 1.37431C14.0984 0.615231 14.6988 0 15.4396 0H24.5618C25.3026 0 25.903 0.615231 25.903 1.37431C25.903 2.13338 25.3026 2.74861 24.5618 2.74861Z" fill="white"/>
<path d="M21.1915 52.9887H5.58399C5.29786 52.9887 5.02067 52.9658 4.74795 52.92C4.19358 52.833 3.66603 52.6589 3.17871 52.4207L14.7267 40.5879L21.1557 52.92L21.1915 52.9887Z" fill="white"/>
<path d="M9.46016 35.1977L0 44.8912V30.0166L9.46016 35.1977Z" fill="white"/>
<path d="M40 17.7064V47.2677C40 50.1217 37.9613 52.49 35.2967 52.9207C35.0106 52.9665 34.72 52.9894 34.4205 52.9894H25.7293L25.7204 52.9207L25.0766 47.9777L26.6995 46.3148C27.2717 45.7239 27.2717 44.771 26.6995 44.1847C26.1272 43.5983 25.1928 43.5983 24.6205 44.1847L24.5848 44.2213L23.0066 32.1045L27.4014 27.6014C28.2508 26.7356 28.9885 25.769 29.5965 24.7382C30.209 23.7075 30.6919 22.6081 31.0272 21.472C31.3222 20.4916 31.0719 19.5983 30.513 19.0211C29.9497 18.4485 29.0779 18.192 28.1167 18.4897C27.0124 18.8379 25.9394 19.3326 24.9335 19.9556C23.9276 20.5832 22.9842 21.3391 22.1348 22.2095L17.74 26.7127L5.9193 25.091L5.95507 25.0589C6.52733 24.468 6.52733 23.5151 5.95507 22.9287C5.37834 22.3378 4.44842 22.3378 3.87616 22.9287L2.25327 24.5916L0 24.2801V17.7064C0 14.5455 2.49916 11.9893 5.58399 11.9893H34.4205C37.5008 11.9893 40 14.5455 40 17.7064Z" fill="white"/>
</svg>
