<svg width="18" height="18" viewBox="0 0 18 18" fill="none" xmlns="http://www.w3.org/2000/svg">
<path d="M8.6526 16.4916C8.3124 16.029 7.9794 15.5772 7.659 15.12C6.5574 13.554 5.5386 11.9376 4.716 10.2042C4.3128 9.35278 3.942 8.48518 3.762 7.55818C3.4218 5.81938 3.825 4.25698 5.0022 2.92678C6.138 1.64698 7.5924 1.06018 9.2988 1.13038C11.6802 1.22938 13.7592 3.02038 14.2434 5.36218C14.4414 6.32338 14.3766 7.26298 14.0814 8.19898C13.4892 10.0602 12.5622 11.754 11.502 13.3776C10.7442 14.5368 9.9198 15.6528 9.1242 16.7868C9.1044 16.8138 9.0846 16.839 9.0576 16.8696C9.018 16.9128 8.838 16.7436 8.6526 16.4916ZM11.619 6.55918C11.6892 5.20378 10.5642 3.94018 9.2196 3.86638C7.668 3.77998 6.4656 4.85998 6.3828 6.42058C6.3108 7.77598 7.461 9.03418 8.8344 9.09898C10.3446 9.17098 11.5416 8.07658 11.619 6.55918Z" fill="#5E5E5E"/>
</svg>
