<svg width="125" height="37" viewBox="0 0 125 37" fill="none" xmlns="http://www.w3.org/2000/svg">
<mask id="path-1-outside-1_2085_1992" maskUnits="userSpaceOnUse" x="37.9697" y="3.68" width="87" height="33" fill="black">
<rect fill="white" x="37.9697" y="3.68" width="87" height="33"/>
<path d="M45.5197 24.95H56.6197L56.2897 21.08H45.8797L45.5197 24.95ZM51.0097 15.71L53.9797 22.52L53.7997 23.81L56.3197 29H62.0797L51.0097 6.68L39.9697 29H45.6997L48.3097 23.6L48.0697 22.49L51.0097 15.71ZM64.5803 23.99L62.6903 26.99C63.3103 27.47 63.9803 27.91 64.7003 28.31C65.4203 28.69 66.2003 28.99 67.0403 29.21C67.9003 29.45 68.8303 29.57 69.8303 29.57C71.4703 29.57 72.7403 29.2 73.6403 28.46C74.5603 27.7 75.0203 26.58 75.0203 25.1C75.0203 24.24 74.8303 23.55 74.4503 23.03C74.0903 22.51 73.6003 22.08 72.9803 21.74C72.3803 21.4 71.7203 21.1 71.0003 20.84C70.3203 20.58 69.7403 20.37 69.2603 20.21C68.8003 20.03 68.4403 19.84 68.1803 19.64C67.9403 19.44 67.8203 19.19 67.8203 18.89C67.8203 18.63 67.9203 18.42 68.1203 18.26C68.3403 18.1 68.6603 18.02 69.0803 18.02C69.7003 18.02 70.3803 18.2 71.1203 18.56C71.8603 18.9 72.5203 19.34 73.1003 19.88L74.7203 16.94C74.1803 16.54 73.6003 16.19 72.9803 15.89C72.3803 15.59 71.7303 15.35 71.0303 15.17C70.3503 14.99 69.6103 14.9 68.8103 14.9C67.8103 14.9 66.9203 15.05 66.1403 15.35C65.3803 15.65 64.7703 16.09 64.3103 16.67C63.8703 17.25 63.6503 17.96 63.6503 18.8C63.6503 19.68 63.8403 20.4 64.2203 20.96C64.6003 21.52 65.0803 21.97 65.6603 22.31C66.2603 22.63 66.8903 22.91 67.5503 23.15C68.2903 23.37 68.8703 23.58 69.2903 23.78C69.7303 23.98 70.0403 24.19 70.2203 24.41C70.4003 24.61 70.4903 24.86 70.4903 25.16C70.4903 25.48 70.3803 25.74 70.1603 25.94C69.9403 26.14 69.6003 26.24 69.1403 26.24C68.8203 26.24 68.4403 26.18 68.0003 26.06C67.5603 25.92 67.0503 25.69 66.4703 25.37C65.9103 25.03 65.2803 24.57 64.5803 23.99ZM75.8919 15.2V18.95H85.1319V15.2H75.8919ZM78.3219 10.4V29H82.6719V10.4H78.3219ZM91.5327 15.2H87.0627V29H91.5327V15.2ZM95.5227 19.88L97.4727 16.01C97.2327 15.65 96.8827 15.37 96.4227 15.17C95.9627 14.97 95.4827 14.87 94.9827 14.87C94.2227 14.87 93.4927 15.12 92.7927 15.62C92.0927 16.12 91.5227 16.8 91.0827 17.66C90.6627 18.52 90.4527 19.5 90.4527 20.6L91.5327 22.19C91.5327 21.53 91.6227 20.97 91.8027 20.51C91.9827 20.05 92.2427 19.7 92.5827 19.46C92.9227 19.22 93.3127 19.1 93.7527 19.1C94.1527 19.1 94.4827 19.17 94.7427 19.31C95.0227 19.45 95.2827 19.64 95.5227 19.88ZM99.1267 10.01C99.1267 10.73 99.3867 11.32 99.9067 11.78C100.427 12.24 101.047 12.47 101.767 12.47C102.507 12.47 103.127 12.24 103.627 11.78C104.147 11.32 104.407 10.73 104.407 10.01C104.407 9.29 104.147 8.71 103.627 8.27C103.127 7.81 102.507 7.58 101.767 7.58C101.047 7.58 100.427 7.81 99.9067 8.27C99.3867 8.71 99.1267 9.29 99.1267 10.01ZM99.5767 15.2V29H103.957V15.2H99.5767ZM112.188 35.6V15.2H107.658V35.6H112.188ZM123.468 22.1C123.468 20.48 123.148 19.13 122.508 18.05C121.888 16.95 121.078 16.12 120.078 15.56C119.098 15 118.038 14.72 116.898 14.72C115.698 14.72 114.658 15.03 113.778 15.65C112.918 16.25 112.258 17.1 111.798 18.2C111.338 19.3 111.108 20.6 111.108 22.1C111.108 23.58 111.338 24.88 111.798 26C112.258 27.1 112.918 27.96 113.778 28.58C114.658 29.18 115.698 29.48 116.898 29.48C118.038 29.48 119.098 29.2 120.078 28.64C121.078 28.08 121.888 27.25 122.508 26.15C123.148 25.05 123.468 23.7 123.468 22.1ZM118.698 22.1C118.698 22.82 118.548 23.43 118.248 23.93C117.948 24.43 117.548 24.81 117.048 25.07C116.548 25.33 115.998 25.46 115.398 25.46C114.878 25.46 114.368 25.34 113.868 25.1C113.388 24.84 112.988 24.46 112.668 23.96C112.348 23.46 112.188 22.84 112.188 22.1C112.188 21.36 112.348 20.74 112.668 20.24C112.988 19.74 113.388 19.37 113.868 19.13C114.368 18.87 114.878 18.74 115.398 18.74C115.998 18.74 116.548 18.87 117.048 19.13C117.548 19.39 117.948 19.77 118.248 20.27C118.548 20.77 118.698 21.38 118.698 22.1Z"/>
</mask>
<path d="M45.5197 24.95H56.6197L56.2897 21.08H45.8797L45.5197 24.95ZM51.0097 15.71L53.9797 22.52L53.7997 23.81L56.3197 29H62.0797L51.0097 6.68L39.9697 29H45.6997L48.3097 23.6L48.0697 22.49L51.0097 15.71ZM64.5803 23.99L62.6903 26.99C63.3103 27.47 63.9803 27.91 64.7003 28.31C65.4203 28.69 66.2003 28.99 67.0403 29.21C67.9003 29.45 68.8303 29.57 69.8303 29.57C71.4703 29.57 72.7403 29.2 73.6403 28.46C74.5603 27.7 75.0203 26.58 75.0203 25.1C75.0203 24.24 74.8303 23.55 74.4503 23.03C74.0903 22.51 73.6003 22.08 72.9803 21.74C72.3803 21.4 71.7203 21.1 71.0003 20.84C70.3203 20.58 69.7403 20.37 69.2603 20.21C68.8003 20.03 68.4403 19.84 68.1803 19.64C67.9403 19.44 67.8203 19.19 67.8203 18.89C67.8203 18.63 67.9203 18.42 68.1203 18.26C68.3403 18.1 68.6603 18.02 69.0803 18.02C69.7003 18.02 70.3803 18.2 71.1203 18.56C71.8603 18.9 72.5203 19.34 73.1003 19.88L74.7203 16.94C74.1803 16.54 73.6003 16.19 72.9803 15.89C72.3803 15.59 71.7303 15.35 71.0303 15.17C70.3503 14.99 69.6103 14.9 68.8103 14.9C67.8103 14.9 66.9203 15.05 66.1403 15.35C65.3803 15.65 64.7703 16.09 64.3103 16.67C63.8703 17.25 63.6503 17.96 63.6503 18.8C63.6503 19.68 63.8403 20.4 64.2203 20.96C64.6003 21.52 65.0803 21.97 65.6603 22.31C66.2603 22.63 66.8903 22.91 67.5503 23.15C68.2903 23.37 68.8703 23.58 69.2903 23.78C69.7303 23.98 70.0403 24.19 70.2203 24.41C70.4003 24.61 70.4903 24.86 70.4903 25.16C70.4903 25.48 70.3803 25.74 70.1603 25.94C69.9403 26.14 69.6003 26.24 69.1403 26.24C68.8203 26.24 68.4403 26.18 68.0003 26.06C67.5603 25.92 67.0503 25.69 66.4703 25.37C65.9103 25.03 65.2803 24.57 64.5803 23.99ZM75.8919 15.2V18.95H85.1319V15.2H75.8919ZM78.3219 10.4V29H82.6719V10.4H78.3219ZM91.5327 15.2H87.0627V29H91.5327V15.2ZM95.5227 19.88L97.4727 16.01C97.2327 15.65 96.8827 15.37 96.4227 15.17C95.9627 14.97 95.4827 14.87 94.9827 14.87C94.2227 14.87 93.4927 15.12 92.7927 15.62C92.0927 16.12 91.5227 16.8 91.0827 17.66C90.6627 18.52 90.4527 19.5 90.4527 20.6L91.5327 22.19C91.5327 21.53 91.6227 20.97 91.8027 20.51C91.9827 20.05 92.2427 19.7 92.5827 19.46C92.9227 19.22 93.3127 19.1 93.7527 19.1C94.1527 19.1 94.4827 19.17 94.7427 19.31C95.0227 19.45 95.2827 19.64 95.5227 19.88ZM99.1267 10.01C99.1267 10.73 99.3867 11.32 99.9067 11.78C100.427 12.24 101.047 12.47 101.767 12.47C102.507 12.47 103.127 12.24 103.627 11.78C104.147 11.32 104.407 10.73 104.407 10.01C104.407 9.29 104.147 8.71 103.627 8.27C103.127 7.81 102.507 7.58 101.767 7.58C101.047 7.58 100.427 7.81 99.9067 8.27C99.3867 8.71 99.1267 9.29 99.1267 10.01ZM99.5767 15.2V29H103.957V15.2H99.5767ZM112.188 35.6V15.2H107.658V35.6H112.188ZM123.468 22.1C123.468 20.48 123.148 19.13 122.508 18.05C121.888 16.95 121.078 16.12 120.078 15.56C119.098 15 118.038 14.72 116.898 14.72C115.698 14.72 114.658 15.03 113.778 15.65C112.918 16.25 112.258 17.1 111.798 18.2C111.338 19.3 111.108 20.6 111.108 22.1C111.108 23.58 111.338 24.88 111.798 26C112.258 27.1 112.918 27.96 113.778 28.58C114.658 29.18 115.698 29.48 116.898 29.48C118.038 29.48 119.098 29.2 120.078 28.64C121.078 28.08 121.888 27.25 122.508 26.15C123.148 25.05 123.468 23.7 123.468 22.1ZM118.698 22.1C118.698 22.82 118.548 23.43 118.248 23.93C117.948 24.43 117.548 24.81 117.048 25.07C116.548 25.33 115.998 25.46 115.398 25.46C114.878 25.46 114.368 25.34 113.868 25.1C113.388 24.84 112.988 24.46 112.668 23.96C112.348 23.46 112.188 22.84 112.188 22.1C112.188 21.36 112.348 20.74 112.668 20.24C112.988 19.74 113.388 19.37 113.868 19.13C114.368 18.87 114.878 18.74 115.398 18.74C115.998 18.74 116.548 18.87 117.048 19.13C117.548 19.39 117.948 19.77 118.248 20.27C118.548 20.77 118.698 21.38 118.698 22.1Z" stroke="#90B956" stroke-width="2" mask="url(#path-1-outside-1_2085_1992)"/>
<g clip-path="url(#clip0_2085_1992)">
<path d="M23.0184 9.33491H21.8113V3.93964C21.8113 2.62498 20.7741 1.55582 19.4997 1.55582H18.7637V0.311165H19.4997C21.4401 0.311165 23.0184 1.93917 23.0184 3.93964V9.33491Z" fill="#90B956"/>
<path d="M9.01873 0.312096V1.55675H8.28239C7.00889 1.55675 5.97078 2.62404 5.97078 3.94026V9.33584H4.76367V3.94026C4.76367 1.93948 6.34197 0.312096 8.28239 0.312096H9.01873V0.312096Z" fill="#90B956"/>
<path d="M16.97 1.86698H10.8126C10.3125 1.86698 9.90723 1.44909 9.90723 0.933491C9.90723 0.417893 10.3125 0 10.8126 0H16.97C17.4701 0 17.8753 0.417893 17.8753 0.933491C17.8753 1.44909 17.4701 1.86698 16.97 1.86698Z" fill="#90B956"/>
<path d="M14.6947 35.9932H4.15969C3.96656 35.9932 3.77945 35.9777 3.59537 35.9466C3.22117 35.8874 2.86507 35.7692 2.53613 35.6074L10.331 27.57L14.6706 35.9466L14.6947 35.9932Z" fill="#90B956"/>
<path d="M6.77623 23.9076L0.390625 30.4919V20.3884L6.77623 23.9076Z" fill="#90B956"/>
<path d="M27.3906 12.0274V32.1068C27.3906 34.0453 26.0145 35.6541 24.2159 35.9466C24.0228 35.9777 23.8266 35.9932 23.6244 35.9932H17.7579L17.7519 35.9466L17.3173 32.5891L18.4128 31.4596C18.799 31.0582 18.799 30.411 18.4128 30.0127C18.0265 29.6144 17.3958 29.6144 17.0095 30.0127L16.9853 30.0376L15.9201 21.8073L18.8865 18.7485C19.4599 18.1604 19.9579 17.5039 20.3683 16.8038C20.7817 16.1037 21.1076 15.3569 21.334 14.5852C21.5331 13.9193 21.3641 13.3125 20.9869 12.9204C20.6067 12.5315 20.0182 12.3572 19.3694 12.5595C18.624 12.796 17.8997 13.132 17.2207 13.5552C16.5417 13.9815 15.905 14.4949 15.3316 15.0861L12.3651 18.1449L4.38615 17.0434L4.4103 17.0216C4.79657 16.6202 4.79657 15.973 4.4103 15.5747C4.021 15.1733 3.39331 15.1733 3.00703 15.5747L1.91158 16.7042L0.390625 16.4926V12.0274C0.390625 9.88038 2.07756 8.14409 4.15982 8.14409H23.6244C25.7037 8.14409 27.3906 9.88038 27.3906 12.0274Z" fill="#90B956"/>
</g>
<defs>
<clipPath id="clip0_2085_1992">
<rect width="26.9719" height="36" fill="white"/>
</clipPath>
</defs>
</svg>
