<svg width="27" height="36" viewBox="0 0 27 36" fill="none" xmlns="http://www.w3.org/2000/svg">
<g clip-path="url(#clip0_2085_1994)">
<path d="M23.0184 9.33491H21.8113V3.93964C21.8113 2.62498 20.7741 1.55582 19.4997 1.55582H18.7637V0.311165H19.4997C21.4401 0.311165 23.0184 1.93917 23.0184 3.93964V9.33491Z" fill="#90B956"/>
<path d="M9.01873 0.312096V1.55675H8.28239C7.00889 1.55675 5.97078 2.62404 5.97078 3.94026V9.33584H4.76367V3.94026C4.76367 1.93948 6.34197 0.312096 8.28239 0.312096H9.01873V0.312096Z" fill="#90B956"/>
<path d="M16.97 1.86698H10.8126C10.3125 1.86698 9.90723 1.44909 9.90723 0.933491C9.90723 0.417893 10.3125 0 10.8126 0H16.97C17.4701 0 17.8753 0.417893 17.8753 0.933491C17.8753 1.44909 17.4701 1.86698 16.97 1.86698Z" fill="#90B956"/>
<path d="M14.6947 35.9932H4.15969C3.96656 35.9932 3.77945 35.9777 3.59537 35.9466C3.22117 35.8874 2.86507 35.7692 2.53613 35.6074L10.331 27.57L14.6706 35.9466L14.6947 35.9932Z" fill="#90B956"/>
<path d="M6.77623 23.9076L0.390625 30.4919V20.3884L6.77623 23.9076Z" fill="#90B956"/>
<path d="M27.3906 12.0274V32.1068C27.3906 34.0453 26.0145 35.6541 24.2159 35.9466C24.0228 35.9777 23.8266 35.9932 23.6244 35.9932H17.7579L17.7519 35.9466L17.3173 32.5891L18.4128 31.4596C18.799 31.0582 18.799 30.411 18.4128 30.0127C18.0265 29.6144 17.3958 29.6144 17.0095 30.0127L16.9853 30.0376L15.9201 21.8073L18.8865 18.7485C19.4599 18.1604 19.9579 17.5039 20.3683 16.8038C20.7817 16.1037 21.1076 15.3569 21.334 14.5852C21.5331 13.9193 21.3641 13.3125 20.9869 12.9204C20.6067 12.5315 20.0182 12.3572 19.3694 12.5595C18.624 12.796 17.8997 13.132 17.2207 13.5552C16.5417 13.9815 15.905 14.4949 15.3316 15.0861L12.3651 18.1449L4.38615 17.0434L4.4103 17.0216C4.79657 16.6202 4.79657 15.973 4.4103 15.5747C4.021 15.1733 3.39331 15.1733 3.00703 15.5747L1.91158 16.7042L0.390625 16.4926V12.0274C0.390625 9.88038 2.07756 8.14409 4.15982 8.14409H23.6244C25.7037 8.14409 27.3906 9.88038 27.3906 12.0274Z" fill="#90B956"/>
</g>
<defs>
<clipPath id="clip0_2085_1994">
<rect width="26.9719" height="36" fill="white"/>
</clipPath>
</defs>
</svg>
