<svg width="120" height="110" viewBox="0 0 120 110" fill="none" xmlns="http://www.w3.org/2000/svg">
<g clip-path="url(#clip0_522_384)">
<path d="M30.1706 82.158C31.4903 79.8229 32.5543 76.6721 31.3645 74.0247C30.2232 71.4862 27.9201 69.7866 25.6963 68.6311C23.316 67.3946 20.7932 66.3729 18.2488 65.6631C15.6139 64.9279 12.9102 64.5068 10.212 64.2061C9.51723 64.1288 8.79524 64.1263 8.11003 63.9814C8.06406 63.9718 7.95997 63.9282 7.86765 63.895C7.92246 63.7999 7.96402 63.6748 8.01367 63.5884C8.71984 62.3665 9.8751 61.3942 10.8983 60.5378C13.6737 58.2148 16.6286 56.1601 19.6096 54.1938C21.0503 53.2435 22.509 52.3327 23.9776 51.4385C25.0133 50.808 26.3952 49.8859 27.2871 49.4776C27.7134 49.2824 28.0672 48.8986 28.0558 48.3375C27.9664 43.8747 23.231 45.6677 21.0327 46.7854C17.5448 48.5589 14.2909 51.0784 11.29 53.7361C9.37232 55.4345 7.2869 56.9455 5.24598 58.5387C4.41181 59.19 3.55447 59.8429 2.85492 60.679C1.77359 61.9715 0.467902 63.5972 0.0923791 65.3773C-0.0646712 66.1212 -0.0606254 67.0827 0.423031 67.6833C0.880573 68.2515 1.68237 68.5887 2.29623 68.8695C3.40147 69.3746 4.46882 69.5798 5.65056 69.6479C7.95556 69.7804 10.2845 69.7347 12.5854 69.5378C14.0813 69.4099 15.6933 69.2043 17.1763 69.5162C18.9638 69.8925 20.8318 70.6239 22.5123 71.4027C23.9022 72.0469 25.5779 72.9237 26.2403 74.5605C26.891 76.1683 26.2091 78.0062 25.4738 79.4097C23.3586 83.4455 19.8528 86.4858 16.0659 88.2984C14.061 89.2578 11.9565 89.9224 9.83244 90.4461C8.94714 90.6642 7.83198 91.1393 6.94117 90.876C5.96907 90.589 5.03634 90.0935 4.16097 89.5415C3.73212 89.2707 3.2492 89.3712 2.89207 89.7263C1.56983 91.0405 2.09247 92.5943 3.41287 93.5857C4.57438 94.4579 6.06985 94.8712 7.42593 95.1519C13.2986 96.3236 19.446 93.1085 23.9364 89.0327C25.1189 87.9595 26.2517 86.7965 27.3857 85.6585C28.4295 84.6097 29.4152 83.495 30.1706 82.158ZM7.75548 64.0528C7.67235 64.1633 7.71171 64.1101 7.75695 64.0491C7.75621 64.0503 7.75621 64.0511 7.75548 64.0528Z" fill="#293729"/>
<path d="M34.3436 78.8034C34.9008 76.9398 35.7497 74.5931 36.8616 71.8398C36.8755 71.8082 36.9175 71.7177 36.9877 71.5669C37.0616 71.4082 37.1061 71.3119 37.1212 71.2782L37.1466 71.2205L37.1547 71.157C37.169 71.0411 37.1838 70.9165 37.1988 70.7827C37.2158 70.6278 37.2198 70.4721 37.2117 70.3176C37.2014 70.1385 37.1654 69.9724 37.1043 69.8229C37.0271 69.6339 36.8928 69.4848 36.703 69.3776C36.3805 69.1986 36.1907 69.5305 35.8766 70.0804C35.6475 70.4808 35.3738 71.0091 35.0402 71.6957C34.7103 72.3743 34.3506 73.1622 33.9707 74.0369C33.5852 74.9237 33.2167 75.8678 32.8757 76.8438C32.5329 77.8236 32.2335 78.8333 31.986 79.8455C31.7352 80.8693 31.5781 81.8632 31.5193 82.7986C31.4586 83.7543 31.5285 84.6398 31.7267 85.4306C31.9334 86.258 32.3303 86.9429 32.9059 87.4666L32.9085 87.4691C33.1519 87.6867 33.4469 87.7951 33.7901 87.7951C34.0788 87.7951 34.4014 87.7183 34.7566 87.5642C35.4385 87.2685 36.2198 86.7622 37.0797 86.059C37.9282 85.365 38.8304 84.5011 39.7613 83.4905C40.6881 82.4846 41.6029 81.4018 42.4804 80.2721C43.3576 79.1423 44.1811 77.9798 44.9281 76.8168C45.6795 75.6468 46.2941 74.5424 46.7546 73.5356C47.225 72.5077 47.5174 71.5897 47.6241 70.8081C47.7767 69.6842 47.3799 69.1193 47.0202 68.8435L46.9315 68.7754H46.8241C46.6093 68.7754 46.4784 68.9664 46.4299 69.0366C46.3905 69.0935 46.3607 69.1351 46.3386 69.1604L46.2813 69.2256L46.2552 69.3124C45.93 70.3969 45.4751 71.554 44.9024 72.7519C44.3264 73.9564 43.6625 75.1708 42.9288 76.3612C42.1928 77.5553 41.4079 78.7149 40.5962 79.809C39.7852 80.9017 38.9738 81.8873 38.1842 82.7388C37.4004 83.5844 36.6497 84.2826 35.9535 84.8142C35.2844 85.3259 34.7125 85.6258 34.2531 85.7056C33.8769 85.7712 33.6297 85.6607 33.4524 85.345C33.3105 85.0929 33.1722 84.5247 33.32 83.2455C33.4451 82.1494 33.7897 80.6554 34.3436 78.8034Z" fill="#293729"/>
<path d="M61.2677 76.9801C60.9014 77.9482 60.5314 78.8981 60.1676 79.8032C59.8006 80.7165 59.4155 81.6581 59.0238 82.6017C58.631 83.5475 58.1705 84.6382 57.6585 85.8356C57.6401 85.8763 57.6026 85.9644 57.5463 86.1002C57.4948 86.2239 57.4364 86.3531 57.3724 86.4873C57.3032 86.6318 57.2385 86.7755 57.18 86.9155C57.1403 87.0106 57.1138 87.0729 57.1057 87.0895C57.0575 87.1672 57.027 87.2619 57.0104 87.3877C56.9976 87.4862 56.991 87.6095 57.0413 87.7271C57.0616 87.7819 57.0925 87.8438 57.1392 87.9239C57.1859 88.0053 57.2525 88.12 57.3679 88.1765C57.4974 88.25 57.6298 88.2869 57.7611 88.2869C57.8873 88.2869 58.0131 88.2529 58.1348 88.1848C58.332 88.0739 58.5159 87.9023 58.6814 87.6747C58.8329 87.4671 58.969 87.227 59.0859 86.9612C59.1411 86.8353 59.2526 86.506 59.4133 86.0175L59.4762 86.037L59.5836 85.6616C59.602 85.5968 59.6163 85.5465 59.6273 85.5071C59.6354 85.4788 59.6439 85.4485 59.6527 85.4169C59.7105 85.2857 59.8072 85.056 59.9477 84.7167C60.1007 84.3474 60.2839 83.9134 60.4968 83.4154C60.7065 82.9249 60.9301 82.3878 61.1622 81.8184C61.3869 81.266 61.6087 80.7331 61.8216 80.2351C62.0361 79.7334 62.2203 79.2969 62.3744 78.9243C62.5594 78.4774 62.6418 78.2863 62.6775 78.2066C63.063 77.358 63.3907 76.5469 63.6518 75.7955C63.9192 75.0255 64.0873 74.3393 64.1513 73.7554C64.2208 73.1199 64.1538 72.5912 63.9519 72.1829C63.7952 71.8668 63.4547 71.483 62.7249 71.449C62.2133 71.4245 61.5564 71.586 60.7149 71.9416C59.9113 72.2809 58.9035 72.8441 57.7196 73.6146L57.685 73.637L57.6559 73.6673C57.5982 73.728 57.4901 73.843 57.3315 74.0121C57.1771 74.1769 56.9891 74.3701 56.7729 74.5869C56.5511 74.8091 56.3183 75.0463 56.0748 75.2992L55.3896 76.0086C55.2307 76.1731 55.0854 76.3226 54.9545 76.4572C55.0236 76.262 55.0994 76.0481 55.1821 75.8159C55.3395 75.3735 55.5069 74.8859 55.6798 74.3668C55.8556 73.8389 56.0108 73.3097 56.1413 72.7947C56.2734 72.2722 56.3708 71.7759 56.4312 71.3198C56.4981 70.8118 56.483 70.3994 56.3845 70.058C56.2679 69.6572 56.0174 69.3818 55.6603 69.2618C55.3292 69.1505 54.8982 69.2252 54.3479 69.4886C54.1107 69.5966 53.89 69.7187 53.6922 69.8516C53.5278 69.9616 53.3608 70.0547 53.1953 70.1274C53.0526 70.1905 52.9025 70.2229 52.7488 70.2237C52.6134 70.2283 52.4519 70.1664 52.268 70.0497L52.0043 69.8823L51.8201 70.1531C51.6674 70.3778 51.4269 70.7304 51.0992 71.2106C50.77 71.6915 50.3908 72.2514 49.9616 72.8902C49.5316 73.529 49.07 74.2343 48.5904 74.9856C48.1064 75.7436 47.6283 76.5087 47.1692 77.2592C46.7055 78.0172 46.2656 78.7665 45.8625 79.4863C45.74 79.7047 45.4829 80.1512 45.1772 80.6816C44.4383 81.9638 43.5188 83.5599 43.3224 83.9728C43.0344 84.5775 42.845 85.0763 42.7428 85.4967C42.5545 86.2709 42.8333 86.5575 43.0256 86.6605C43.4559 86.9097 43.8833 86.3552 44.0665 86.1172C44.3622 85.7338 44.7208 85.2063 45.132 84.5493C45.5417 83.8947 47.5253 80.5944 48.0108 79.7708C48.5147 78.9156 49.0355 78.05 49.5577 77.1981C50.083 76.3409 50.6269 75.4969 51.1746 74.6895C51.7141 73.8933 52.243 73.1955 52.7466 72.6144C53.2357 72.05 53.6981 71.6334 54.1207 71.375C54.3741 71.2201 54.594 71.1562 54.7856 71.1852C54.765 71.368 54.7279 71.5424 54.6749 71.7065C54.5819 71.9956 54.4844 72.2909 54.3873 72.5812C54.3274 72.7444 54.245 72.9845 54.1427 73.2943C54.0405 73.6038 53.9231 73.956 53.7915 74.3506C53.6594 74.7447 53.5193 75.1584 53.37 75.5912C53.2199 76.0265 53.0783 76.4422 52.9459 76.8389C52.8139 77.2326 52.6936 77.5869 52.5851 77.9009C52.4766 78.2132 52.3949 78.44 52.3423 78.575L52.3236 78.6232L52.1338 80.064C52.1003 80.3161 52.2327 80.5321 52.5273 80.7053C52.7366 80.8286 52.9257 80.8822 53.1077 80.8664C53.3417 80.8453 53.6182 80.6953 53.9776 80.3946C54.2854 80.1371 54.64 79.7998 55.0313 79.392C55.4179 78.9899 55.8405 78.5447 56.3002 78.0571C56.753 77.5765 57.2275 77.0823 57.71 76.588C58.1852 76.1012 58.6755 75.6365 59.1676 75.207C59.6538 74.7829 60.1294 74.4232 60.5818 74.1379C61.018 73.8629 61.4358 73.6789 61.8235 73.5921C62.0758 73.5357 62.3009 73.5394 62.5054 73.6042L62.4932 73.6976C62.0397 74.925 61.6274 76.0285 61.2677 76.9801Z" fill="#293729"/>
<path d="M80.0078 80.7839C79.5668 81.8916 79.12 82.9823 78.6797 84.0256C78.2376 85.0727 77.7738 86.1534 77.3016 87.2374C76.8293 88.3211 76.275 89.5721 75.6582 90.9485C75.6362 90.995 75.5917 91.0955 75.5236 91.2505C75.4637 91.3879 75.3927 91.5391 75.3132 91.6978C75.229 91.8652 75.1521 92.0292 75.0841 92.185C75.0046 92.3669 74.9877 92.3985 74.9903 92.3931C74.9377 92.4741 74.9039 92.575 74.8836 92.7104C74.8682 92.8142 74.8586 92.9438 74.9087 93.0668C74.9296 93.1282 74.9631 93.1984 75.0153 93.2919C75.0672 93.3853 75.1345 93.507 75.2529 93.5668C75.3989 93.6541 75.549 93.6977 75.6987 93.6977C75.8311 93.6977 75.9631 93.6636 76.0922 93.5947C76.3155 93.4755 76.5255 93.2865 76.7168 93.0335C76.8933 92.7997 77.0533 92.5293 77.1916 92.2294C77.3203 91.9499 77.438 91.6804 77.541 91.4291C77.6454 91.1741 77.7289 90.9444 77.7896 90.7458C77.8356 90.5951 77.8595 90.5141 77.8727 90.4667C77.9412 90.3193 78.0589 90.0522 78.2321 89.6547C78.4164 89.2307 78.6367 88.7327 78.893 88.1607C79.1442 87.6004 79.4135 86.9845 79.6933 86.3299C79.9626 85.6994 80.23 85.0876 80.4874 84.5128C80.7453 83.938 80.9667 83.4371 81.1524 83.0101C81.3749 82.4971 81.4746 82.277 81.518 82.1848C81.9796 81.2133 82.3739 80.2846 82.6898 79.4236C83.012 78.5439 83.2187 77.7589 83.3037 77.0894C83.3945 76.3688 83.3294 75.7678 83.1091 75.303C82.8634 74.7855 82.4055 74.5006 81.7479 74.4557C81.1642 74.4154 80.4069 74.5853 79.4337 74.9732C78.4984 75.3462 77.324 75.9713 75.9429 76.8319L75.9083 76.8531L75.8789 76.8825C75.8109 76.9511 75.6836 77.0815 75.4968 77.2734C75.3151 77.4603 75.0933 77.68 74.838 77.9263C74.5773 78.1776 74.3036 78.4463 74.0164 78.7329L73.2102 79.5374C72.9586 79.7879 72.7364 80.0076 72.5444 80.1966C72.5356 80.2053 72.5268 80.214 72.518 80.2227C72.625 79.9349 72.7478 79.6068 72.8861 79.2388C73.0766 78.7308 73.2797 78.1709 73.4893 77.5749C73.7019 76.971 73.8913 76.3642 74.0524 75.7715C74.2146 75.1734 74.3364 74.604 74.4143 74.0794C74.5 73.5029 74.4908 73.0344 74.386 72.6465C74.2643 72.1996 73.9921 71.8889 73.5989 71.7477C73.2311 71.6152 72.7431 71.6912 72.1119 71.9769C71.8379 72.0953 71.583 72.2295 71.3531 72.3769C71.1582 72.5024 70.9603 72.6074 70.7647 72.6884C70.5922 72.7603 70.4105 72.7985 70.2262 72.7927C70.0603 72.7906 69.865 72.7158 69.6458 72.5709L69.385 72.3981L69.1964 72.6647C69.015 72.9214 68.73 73.3235 68.3412 73.8713C67.9514 74.4204 67.5015 75.0588 66.9925 75.7869C66.4805 76.5187 65.9333 77.3228 65.3665 78.1776C64.7942 79.039 64.2263 79.9125 63.6786 80.7731C63.1273 81.6386 62.6043 82.4942 62.1243 83.3162C61.6421 84.1415 61.2306 84.8957 60.9014 85.5586C60.5582 86.2481 60.3309 86.8163 60.2059 87.2952C59.9944 88.1047 60.2371 88.4386 60.4836 88.5765C60.9393 88.8523 61.4244 88.2467 61.6322 87.9867C61.9801 87.5523 62.4042 86.9521 62.8919 86.2032C63.3745 85.4619 63.9203 84.5959 64.5135 83.6285C65.1138 82.6508 65.7332 81.6615 66.3544 80.6879C66.9796 79.7073 67.6262 78.7433 68.2754 77.8216C68.9165 76.912 69.5436 76.115 70.1394 75.4534C70.7202 74.8079 71.2678 74.3328 71.7673 74.0416C72.0983 73.8481 72.3822 73.7824 72.6276 73.8422C72.6007 74.0794 72.5511 74.3053 72.479 74.5159C72.3653 74.8482 72.2469 75.188 72.1285 75.5236C72.0571 75.7084 71.9574 75.9833 71.8324 76.3409C71.7077 76.6969 71.5654 77.1014 71.405 77.555C71.2446 78.0081 71.0743 78.4837 70.893 78.9813C70.711 79.4813 70.5392 79.959 70.3785 80.4146C70.2181 80.8673 70.0721 81.2744 69.9401 81.6357C69.8091 81.9937 69.7098 82.255 69.6454 82.4124L69.626 82.4602L69.3795 84.1153C69.3207 84.5107 69.6774 84.73 69.7944 84.8023C70.0254 84.9443 70.2336 85.0075 70.4329 84.9958C70.6933 84.9784 71.007 84.8152 71.4204 84.4829C71.7798 84.1942 72.195 83.8138 72.6551 83.3523C73.1101 82.8967 73.6077 82.3921 74.1488 81.8392C74.6887 81.2872 75.2474 80.7265 75.8094 80.1725C76.3688 79.6205 76.9466 79.0938 77.5263 78.607C78.0989 78.1261 78.6587 77.7199 79.1909 77.3988C79.7062 77.0881 80.1987 76.8838 80.6548 76.7916C80.9759 76.7264 81.2598 76.7422 81.5158 76.8402L81.4908 77.0088C80.9457 78.4127 80.4466 79.6828 80.0078 80.7839Z" fill="#293729"/>
<path d="M86.7381 82.6317C87.0725 82.2587 87.4083 81.9622 87.7356 81.7512C88.0427 81.5526 88.3752 81.4401 88.7243 81.416C89.2804 81.3774 89.8317 81.3998 90.3628 81.4824C90.9079 81.5676 91.457 81.6772 91.9944 81.8089C92.5218 81.9381 93.0709 82.0793 93.627 82.2292C94.1806 82.3792 94.7621 82.5 95.3601 82.5885C95.4436 82.5993 95.5319 82.6288 95.6212 82.6757C95.7433 82.7405 95.8526 82.8028 95.9545 82.8668C96.0791 82.9444 96.2049 83.0113 96.3285 83.0657C96.4789 83.1313 96.6264 83.1642 96.7894 83.1629L96.9133 83.1621L97.0089 83.0732C97.2498 82.8497 97.3815 82.608 97.4003 82.3559C97.4113 82.2085 97.3881 81.985 97.2142 81.7586C96.9927 81.47 96.6183 81.2216 96.0692 80.9994C95.5679 80.7975 94.9426 80.6148 94.21 80.4565C93.4884 80.3012 92.7134 80.1654 91.9068 80.0528C91.1021 79.9407 90.2808 79.8543 89.4654 79.7961C88.647 79.738 87.8949 79.7118 87.2288 79.7189C86.555 79.726 85.9805 79.7683 85.5204 79.8447C84.9414 79.9419 84.6347 80.0902 84.4905 80.3494C84.2971 80.7182 84.2757 81.0293 84.4269 81.2739C84.5255 81.4343 84.6638 81.5676 84.8374 81.6693C84.8995 81.7059 84.9576 81.7424 85.0106 81.7786C84.8561 82.1175 84.6998 82.4116 84.5457 82.6537C84.3765 82.9191 84.1933 83.172 84.0014 83.4046C83.8046 83.643 83.5927 83.8823 83.3728 84.1153C83.1444 84.357 82.8965 84.6399 82.6361 84.9559C82.6221 84.9684 82.5776 85.0066 82.4592 85.093C82.3749 85.1541 82.3264 85.1869 82.3003 85.2031C82.2826 85.2039 82.2613 85.2043 82.2359 85.2047C82.1587 85.2064 82.0733 85.2052 81.9796 85.2022C81.8688 85.1993 81.7637 85.2014 81.6666 85.2106C81.5316 85.2238 81.4437 85.2417 81.362 85.2994C80.9957 85.5657 80.9696 85.8996 80.9865 86.0745C81.006 86.2792 81.0667 86.484 81.1667 86.6825C81.2348 86.8183 81.2932 86.9529 81.34 87.0813L81.3319 87.095C81.0575 87.5493 80.7967 87.9821 80.5492 88.3937C80.3006 88.8074 80.0593 89.2215 79.8323 89.6236C79.6032 90.0298 79.38 90.4463 79.1685 90.8621C78.9721 91.2475 78.7742 91.6533 78.5789 92.0699C78.4531 92.163 78.4005 92.278 78.3788 92.3673C78.3626 92.4342 78.3486 92.5513 78.3983 92.6838C78.4104 92.7851 78.4406 92.8786 78.4884 92.9621C78.5325 93.0393 78.5866 93.1091 78.6495 93.1697C78.8694 93.4243 79.1666 93.5718 79.5322 93.6075C79.8412 93.6383 80.1711 93.6349 80.512 93.6C80.842 93.5664 81.1759 93.5161 81.504 93.4513C81.8034 93.392 82.0527 93.36 82.2396 93.3562C82.2414 93.3562 82.2436 93.3562 82.2455 93.3562C83.5497 93.3562 84.8697 93.4189 86.1688 93.5419C87.4587 93.6644 88.7493 93.9248 90.0053 94.3148L90.2639 94.395L90.3992 94.1338C90.4305 94.0735 90.4621 93.9925 90.4996 93.8787C90.5405 93.7545 90.5662 93.6208 90.5765 93.4808C90.5868 93.3342 90.5772 93.1934 90.5478 93.0618C90.5033 92.8649 90.3926 92.7079 90.2278 92.6074L90.1557 92.5746C89.1424 92.2552 88.1384 92.028 87.1718 91.8984C86.2188 91.7705 85.2026 91.6683 84.1341 91.5939C84.0723 91.5931 83.8785 91.5873 83.5523 91.5773C83.2165 91.5669 82.8222 91.5645 82.3819 91.5686C81.9376 91.5728 81.4676 91.5827 80.9847 91.5981C80.7647 91.6052 80.5551 91.616 80.3565 91.6301C80.7162 90.9551 81.1005 90.2894 81.5033 89.6431C82.0163 88.8195 82.5754 88.0216 83.1657 87.2702C83.7432 87.0601 84.3456 86.9222 84.9573 86.8611C85.6134 86.7955 86.2857 86.7756 86.9559 86.8021C87.6323 86.8291 88.3197 86.8815 88.999 86.9575C89.6908 87.0351 90.3724 87.0983 91.0245 87.1448L91.1396 87.1531L91.2363 87.0825C91.379 86.9782 91.4136 86.7984 91.425 86.7386C91.4467 86.6252 91.4478 86.5264 91.4254 86.4238C91.3242 86.0134 91.0495 85.7085 90.6085 85.5167C90.2469 85.3592 89.8104 85.2521 89.3109 85.1968C88.8272 85.1437 88.2976 85.1237 87.7375 85.1366C87.1835 85.1495 86.651 85.1694 86.1552 85.1956C85.6484 85.2222 85.221 85.2371 84.848 85.2421C84.8179 85.2425 84.7888 85.2425 84.762 85.2425C85.0834 84.801 85.3821 84.3865 85.6535 84.0052C86.0272 83.4798 86.3924 83.0171 86.7381 82.6317Z" fill="#293729"/>
<path d="M106.608 88.119C105.999 87.6799 105.174 87.3232 104.155 87.059C103.152 86.7986 101.95 86.652 100.582 86.6225C99.2153 86.5942 97.6856 86.745 96.0324 87.0731L96.011 87.0781C95.9478 87.0956 95.8713 87.118 95.7837 87.1466C95.6738 87.1819 95.5653 87.2339 95.4619 87.3007C95.3409 87.3788 95.2405 87.4781 95.1625 87.5977C95.0868 87.714 95.0084 87.913 95.0614 88.1858C95.1405 88.6764 95.3847 88.8674 95.5756 88.9413C95.7694 89.0169 95.9857 89.046 96.2166 89.0273L96.6216 88.9949C96.5499 89.0755 96.4564 89.1739 96.3347 89.2931C95.9272 89.6923 95.4093 90.1762 94.7955 90.7315C94.1787 91.2893 93.5004 91.8907 92.7799 92.5195C92.0484 93.1579 91.3595 93.7938 90.732 94.4101C90.0979 95.0327 89.5576 95.6163 89.1262 96.1446C88.6429 96.7365 88.3939 97.2328 88.3652 97.6619C88.3461 97.9131 88.3483 98.2678 88.5819 98.4597C88.6646 98.5278 88.8415 98.6242 89.0957 98.5033C89.3303 98.392 89.6205 98.1553 89.9832 97.7798C90.3157 97.4355 90.6963 97.0164 91.1153 96.5338C91.5224 96.0636 91.9285 95.618 92.322 95.2084C92.6986 94.8163 93.0495 94.5111 93.3658 94.3009C93.4258 94.261 93.6089 94.1468 93.7068 94.1717C94.1158 95.041 94.5663 95.8746 95.047 96.6505C95.5292 97.4289 96.0169 98.2263 96.4969 99.0209C96.5175 99.0711 96.5587 99.1629 96.6517 99.3602L96.9813 100.06C97.1085 100.332 97.2428 100.621 97.3829 100.928C97.5245 101.238 97.6584 101.526 97.7842 101.792C97.9151 102.068 98.0214 102.285 98.1086 102.454C98.2028 102.637 98.3374 102.898 98.5573 102.898C98.5871 102.898 98.6187 102.894 98.6518 102.883C99.2907 102.74 99.3746 102.218 99.3808 101.998C99.3907 101.651 99.2984 101.25 99.0994 100.773C98.9189 100.342 98.6647 99.8528 98.344 99.3191C98.0262 98.7912 97.6893 98.2462 97.3417 97.6997C96.9894 97.1456 96.6418 96.5978 96.2983 96.0549C95.9643 95.5278 95.6833 95.0332 95.4626 94.5838C95.2504 94.1526 95.1081 93.7801 95.0389 93.4756C95.0139 93.3668 95.0128 93.2979 95.0209 93.2534C97.2954 93.4266 99.2661 93.4553 100.88 93.3382C102.542 93.2177 103.904 92.9918 104.928 92.6661C105.998 92.326 106.744 91.9185 107.208 91.4201C107.721 90.8685 107.913 90.2804 107.779 89.6732C107.653 89.1054 107.27 88.5966 106.608 88.119ZM105.292 90.6081C104.956 90.8025 104.513 90.9852 103.975 91.1514C103.423 91.3221 102.823 91.4716 102.191 91.5958C101.56 91.72 100.898 91.8184 100.223 91.8886C99.5515 91.9584 98.9148 91.9908 98.3311 91.9808C97.7548 91.9729 97.2417 91.9193 96.8062 91.8205C96.537 91.7598 96.3435 91.6855 96.2049 91.6124C96.9026 90.7261 97.5771 90.027 98.2123 89.5332C98.8644 89.0261 99.557 88.7054 100.27 88.5804C100.988 88.4541 101.79 88.5135 102.651 88.7561C103.53 89.0041 104.565 89.4314 105.726 90.0254C105.793 90.0798 105.822 90.1184 105.834 90.1379C105.792 90.2227 105.666 90.3909 105.292 90.6081Z" fill="#293729"/>
<path d="M50.8666 5.17491L50.1527 6.24982C50.7894 7.12162 51.5298 8.07732 52.3794 9.09408C53.2864 9.26977 54.186 9.50361 55.0713 9.8039L55.1485 9.75572L55.161 9.83547C55.602 9.98748 56.0393 10.1574 56.4722 10.3438C57.0732 10.1175 57.9659 9.81927 57.9659 9.81927C57.9659 9.81927 58.0939 10.5544 58.7195 11.5035C61.6891 13.3131 64.3431 16.1271 66.3502 20.3291L66.6128 21.6183C68.1591 21.2574 69.0962 -1.82983 52.1907 0.116464L46.951 1.16645C46.951 1.16645 47.5943 2.51257 49.0416 4.66612C49.825 4.85385 50.8666 5.17491 50.8666 5.17491Z" fill="#293729"/>
<path d="M68.9226 20.5143C68.927 20.5127 68.9314 20.5114 68.9358 20.5097C69.7523 20.2389 70.5019 19.8136 71.1422 19.2737C71.275 19.1615 71.4081 19.0506 71.5413 18.941L72.2695 17.4051L72.8209 17.9234C74.5201 16.6176 76.2546 15.4679 77.9991 14.4561L78.9991 12.7819L80.4553 13.1225C84.5599 11.0399 86.7638 10.1366 90.5102 9.24193C90.5186 9.22075 90.5175 9.22283 90.526 9.20206L89.6984 8.31738C89.6984 8.31738 92.3047 7.93153 93.1127 8.24719C96.5847 6.91934 99.4499 5.08768 99.4499 5.08768L94.0392 3.24772C91.8923 2.54579 89.5344 2.36927 87.2187 2.78253C72.6506 5.38216 66.8982 21.1847 68.9226 20.5143Z" fill="#293729"/>
<path d="M70.9124 45.7395C70.993 43.8788 71.0309 41.9615 71.0106 40.0215C69.9977 40.3006 68.7369 40.4858 67.4834 40.2454C67.5787 40.9294 67.653 41.6442 67.7001 42.3856C67.7247 42.4139 67.7391 42.4309 67.7391 42.4309C67.7391 42.4309 68.489 44.5932 70.9124 45.7395Z" fill="#293729"/>
<path d="M64.647 57.1675C65.6037 57.3353 67.8903 57.6502 69.8896 57.2593C69.9941 56.4673 70.0967 55.6353 70.1953 54.7685C69.1382 54.2473 67.5155 53.3368 66.5743 52.2715C66.1035 53.8589 65.4724 55.4958 64.647 57.1675Z" fill="#293729"/>
<path d="M66.9019 51.0723C67.2572 51.7871 68.2271 53.333 70.2636 54.1554C70.421 52.7138 70.5656 51.1828 70.6847 49.5871C69.6435 49.8055 68.4235 49.8824 67.2429 49.5352C67.145 50.0415 67.0318 50.554 66.9019 51.0723Z" fill="#293729"/>
<path d="M70.7321 48.9296C70.7909 48.0852 70.8421 47.2238 70.8847 46.3491C69.9104 45.8482 68.6176 45.086 67.757 44.2021C67.7559 45.6592 67.6415 47.203 67.3726 48.8158C68.1921 48.9852 69.5408 49.1746 70.7321 48.9296Z" fill="#293729"/>
<path d="M64.3059 57.8379C64.1095 58.2142 63.9028 58.5922 63.6858 58.9714C64.0923 59.6571 65.7992 62.2874 68.8711 63.7806C69.1296 62.3639 69.4695 60.3482 69.802 57.911C68.2296 58.2051 66.3465 58.3488 64.6377 57.9226C64.5207 57.8931 64.4104 57.8653 64.3059 57.8379Z" fill="#293729"/>
<path d="M18.3992 84.6213L18.5139 84.7958L18.5161 84.7925C18.6239 84.9515 18.7316 85.1106 18.8405 85.2668L21.0333 83.3147C20.7387 82.8927 20.4474 82.4578 20.1672 82.0226C17.9666 78.6026 16.2556 74.8421 15.0816 70.8457L12.4312 71.8388C13.6957 76.143 15.5388 80.193 17.9081 83.8758L17.9085 83.8754L17.9081 83.8758C18.0692 84.1263 18.2333 84.3746 18.3992 84.6213Z" fill="#293729"/>
<path d="M87.2614 70.223C88.2843 66.6345 88.8029 62.9035 88.8029 59.133C88.8029 55.4838 88.3166 51.8674 87.3574 48.3848L84.6909 49.3214C85.5666 52.5004 86.0105 55.8015 86.0105 59.133C86.0105 62.5749 85.5372 65.9811 84.6033 69.2569L87.2614 70.223Z" fill="#293729"/>
<path d="M30.1832 68.3846C64.4521 60.2809 97.696 79.2998 97.696 79.2998C86.4421 71.9267 76.8433 67.311 68.7211 64.5847C68.7307 64.5352 68.7399 64.4858 68.7498 64.4343C67.0995 63.462 64.387 61.6881 63.1424 59.8896C62.6091 60.7602 62.021 61.6374 61.3725 62.5196C38.7554 57.4753 30.1832 68.3846 30.1832 68.3846Z" fill="#293729"/>
<path d="M31.1304 92.2975C42.2994 92.359 53.1337 94.2272 62.6854 96.7284C58.7463 98.2266 54.6207 98.9875 50.3741 98.9875C41.6197 98.9875 33.0978 95.6215 26.3777 89.5098L24.6263 91.9657C31.8407 98.5273 40.9849 102.141 50.3741 102.141C56.2761 102.141 61.9645 100.775 67.2814 98.0816L67.2476 97.9964C84.8611 103.171 97.0989 110 97.0989 110C50.0154 80.8486 31.1304 92.2975 31.1304 92.2975Z" fill="#293729"/>
<path d="M44.9487 52.6284C48.9776 48.4953 51.4577 51.5659 51.4577 51.5659L51.4691 51.5447C51.753 46.9236 55.6429 46.5249 55.6429 46.5249C51.7824 45.2029 51.0601 50.1608 51.0601 50.1608C46.9985 47.307 44.9487 52.6284 44.9487 52.6284Z" fill="#293729"/>
<path d="M38.197 57.3216C36.1874 53.1329 32.5598 56.2006 32.5598 56.2006C37.2452 55.0194 37.9587 58.5951 37.9587 58.5951L37.9756 58.5843C39.9798 55.183 43.1149 56.7945 43.1149 56.7945C40.6676 53.8784 38.197 57.3216 38.197 57.3216Z" fill="#293729"/>
<path d="M104.632 24.3509L101.239 23.6522L99.0325 26.1082L96.2217 25.4017L94.0999 27.7147L90.9269 26.7632L89.0386 29.0953L89.135 29.195L90.9699 26.9289L94.1378 27.8792L96.2622 25.5632L99.0733 26.2697L101.282 23.8117L104.684 24.5116L106.496 22.0399L109.316 22.7792L109.346 22.6355L106.447 21.875L104.632 24.3509Z" fill="#293729"/>
<path d="M48.5815 6.15366L49.2751 8.33711L49.3984 8.28727L48.6775 6.01784L46.6605 5.74496L45.7329 3.21387L45.6119 3.27035L46.5685 5.88161L48.5815 6.15366Z" fill="#293729"/>
<path d="M79.7407 43.945L80.9037 46.9205L83.9994 47.4775L84.02 47.3317L80.9945 46.7872L79.8319 43.8125L76.9245 43.2539L75.7221 39.8041L72.9394 39.4697L72.9257 39.6168L75.6294 39.9416L76.8299 43.3856L79.7407 43.945Z" fill="#293729"/>
<path d="M55.3255 41.753L55.3611 41.7638L57.4815 39.4429L60.2941 40.1423L62.5218 37.652L62.4299 37.5469L60.2529 39.9808L57.441 39.2818L55.3233 41.5994L52.1867 40.6669L52.1484 40.6553L50.2645 42.9928L50.3613 43.0921L52.1918 40.8214L55.3255 41.753Z" fill="#293729"/>
<path d="M38.2996 26.6326L41.1766 25.8825L43.2649 28.1221L46.3118 27.2893L46.2809 27.1456L43.3032 27.9597L41.2156 25.7206L38.3423 26.4698L36.0553 23.8096L33.3733 24.7117L33.4109 24.8533L36.0167 23.9765L38.2996 26.6326Z" fill="#293729"/>
<path d="M66.7085 23.3488L66.6132 24.1043L66.1814 21.984C55.9386 0.541942 28.8652 15.2197 28.8652 15.2197C29.5034 16.288 30.3019 17.2698 31.2254 18.172L33.537 17.5195L33.5179 17.5564C21.8543 23.4962 13.3883 35.5881 11.0792 49.939L13.8267 50.5026C15.9467 37.3267 23.6554 26.2005 34.2984 20.6192C37.2069 22.5451 40.7029 23.9955 44.1922 25.0816L46.9543 24.4179L47.6521 26.0497C49.4767 26.5075 51.2407 26.8717 52.8561 27.1612C42.7574 30.6945 34.0567 40.5672 34.0567 40.5672C34.8846 40.9742 35.8262 41.2529 36.8524 41.4249L39.5991 39.3403L38.3203 41.5952C41.7128 41.8336 45.7906 41.1358 49.7161 40.1016L51.8534 36.9546L52.9142 39.1808C59.3966 37.1651 64.7521 34.6444 64.7521 34.6444L64.3608 32.755L65.704 34.2494L65.9372 34.1419C66.4587 35.5287 67.0053 37.3284 67.3621 39.4499C68.3356 39.6277 69.8175 39.7747 71.0022 39.3581C70.9735 37.7051 70.8999 36.0383 70.7741 34.3774L71.8076 35.3812L73.3417 34.8567L72.5156 36.0142C72.5156 36.0142 76.4003 39.8532 81.4381 43.5448L82.5507 42.3465L83.9472 45.2984C87.0584 47.3622 90.412 49.1585 93.4673 49.8974L92.8605 47.1703L94.8113 50.1554C95.7675 50.287 96.6845 50.2957 97.5433 50.1545C97.5433 50.1545 90.3146 31.3175 78.2607 29.017L79.1393 27.55L79.829 28.6652C79.829 28.6652 79.2144 29.4647 89.5164 25.8716L90.3131 23.8057L94.5406 23.9959C100.632 21.5587 110.708 19.148 115.08 15.4535L113.367 13.4873L116.919 13.761C118.164 12.5038 119.209 11.1801 120.001 9.78911C120 9.79036 90.3039 3.00658 66.7085 23.3488ZM46.6542 16.9716C55.8713 14.0073 63.6006 22.3906 63.6006 22.3906C54.6671 15.1337 46.6542 16.9716 46.6542 16.9716ZM52.2999 34.0135C55.79 27.7975 63.0735 28.1015 63.0735 28.1015C55.6304 28.985 52.2999 34.0135 52.2999 34.0135ZM52.6854 29.1374C57.896 24.7161 64.6139 27.908 64.6139 27.908C57.3748 25.7628 52.6854 29.1374 52.6854 29.1374ZM51.3032 12.0465C60.8531 12.9532 65.4591 23.8808 65.4591 23.8808C59.3742 13.5255 51.3032 12.0465 51.3032 12.0465ZM68.2065 29.0676L68.1782 29.0315C69.3404 28.416 73.6889 26.4476 77.5567 29.0805C77.5567 29.0805 73.6952 26.8941 68.2065 29.0676ZM69.129 29.2126C69.129 29.2126 74.9626 28.2913 78.2217 32.9648C78.2217 32.9652 75.1778 29.2313 69.129 29.2126ZM71.3159 23.7454C71.3159 23.7454 80.9037 17.7097 89.7713 22.9297C89.7713 22.9297 81.9159 19.0994 71.3159 23.7454ZM68.6979 24.1429C68.6979 24.1429 78.3387 13.8279 90.3513 17.2279C90.3513 17.2279 79.9375 15.167 68.6979 24.1429Z" fill="#293729"/>
<path d="M7.83086 45.9264L7.99747 45.2913L9.8784 45.9197L10.0858 45.1289L10.5132 45.2718L10.1395 46.6977L7.83086 45.9264Z" fill="#293729"/>
<path d="M10.6125 44.9461L8.32812 44.0884L8.51313 43.46L10.7975 44.3176L10.6125 44.9461Z" fill="#293729"/>
<path d="M10.9546 43.7878L8.69707 42.8433L9.24141 41.1836L9.6596 41.3585L9.31902 42.3972L9.80451 42.6003L10.0594 41.8232L10.4776 41.9981L10.2227 42.7752L11.1588 43.1664L10.9546 43.7878Z" fill="#293729"/>
<path d="M9.97587 39.1582L10.3874 39.3522L10.0516 40.2597L10.5294 40.4852L10.8255 39.6849L11.2367 39.8788L10.9406 40.6792L11.4566 40.9226L11.7924 40.0151L12.2036 40.209L11.6416 41.7279L9.41387 40.6767L9.97587 39.1582Z" fill="#293729"/>
<path d="M12.829 38.6679L10.659 37.4904L10.9131 36.8936L13.0831 38.071L12.829 38.6679Z" fill="#293729"/>
<path d="M11.9208 35.7149C11.8869 35.788 11.8763 35.8586 11.8892 35.9255C11.902 35.9928 11.9406 36.0455 12.0054 36.0837C12.0701 36.1219 12.1326 36.1311 12.1919 36.1107C12.2514 36.0908 12.3081 36.0517 12.3618 35.9948C12.4155 35.9375 12.4717 35.8719 12.5306 35.7976C12.5894 35.7232 12.6523 35.6518 12.7189 35.5832C12.7855 35.5147 12.855 35.4578 12.9278 35.4117C13.0006 35.366 13.0841 35.3432 13.1783 35.3432C13.2724 35.3436 13.371 35.3739 13.4744 35.435C13.6546 35.5413 13.7708 35.7157 13.8227 35.9575C13.8745 36.1992 13.8378 36.4559 13.712 36.7271C13.5865 36.9983 13.4277 37.1827 13.2353 37.2803C13.0429 37.3779 12.8407 37.3638 12.6277 37.2384L12.9168 36.6137C13.0944 36.698 13.225 36.6503 13.3089 36.4692C13.3478 36.3844 13.3592 36.3063 13.3416 36.2353C13.3243 36.1639 13.2853 36.1103 13.2246 36.0746C13.1639 36.0389 13.104 36.031 13.0455 36.0517C12.987 36.0725 12.9304 36.1111 12.8756 36.1676C12.8212 36.2245 12.7641 36.2897 12.7053 36.3641C12.6465 36.4384 12.5832 36.5099 12.5155 36.5776C12.4478 36.6457 12.3783 36.7026 12.3066 36.7491C12.2349 36.7956 12.1518 36.8189 12.0576 36.8185C11.9635 36.8185 11.866 36.7881 11.7645 36.7283C11.5659 36.6112 11.4456 36.4334 11.4033 36.1959C11.361 35.9583 11.4004 35.7095 11.5203 35.4499C11.6405 35.1903 11.7899 35.0113 11.9682 34.9125C12.1466 34.814 12.35 34.8277 12.578 34.9536L12.2823 35.592C12.201 35.5558 12.129 35.5488 12.0657 35.5712C12.0032 35.594 11.9546 35.6418 11.9208 35.7149Z" fill="#293729"/>
<path d="M15.6264 32.9131L15.2115 32.8022L14.7584 33.6333L15.0327 34.0017L14.7054 34.6019L13.0882 32.3678L13.4622 31.6816L15.9552 32.3096L15.6264 32.9131ZM14.4564 33.2275L14.7551 32.6801L13.8756 32.4463L14.4564 33.2275Z" fill="#293729"/>
<path d="M16.5478 29.8306L15.2164 28.7508L15.5584 28.2129L16.8898 29.2928C17.0921 29.4568 17.2065 29.6537 17.2323 29.883C17.258 30.1122 17.2032 30.3336 17.0671 30.5475C16.931 30.7614 16.7637 30.891 16.5643 30.9363C16.3654 30.9816 16.1638 30.9213 15.9593 30.7556L16.2995 30.2211C16.3753 30.2792 16.4419 30.305 16.5 30.2979C16.5581 30.2908 16.6048 30.2593 16.6408 30.2024C16.6769 30.1459 16.689 30.0848 16.6769 30.0196C16.6651 29.9536 16.6221 29.8909 16.5478 29.8306Z" fill="#293729"/>
<path d="M17.7302 28.8584C17.3988 28.9041 17.0939 28.8011 16.8158 28.549C16.5378 28.2969 16.3826 27.9837 16.3513 27.6095C16.3197 27.2353 16.4124 26.8955 16.629 26.5902C16.8456 26.285 17.1189 26.1105 17.4477 26.0657C17.7769 26.0212 18.0803 26.125 18.3587 26.3772C18.6372 26.6293 18.7927 26.9424 18.8258 27.3167C18.859 27.6909 18.7674 28.0302 18.5515 28.3343C18.3356 28.6383 18.0616 28.8127 17.7302 28.8584ZM18.2701 27.4109C18.2444 27.2203 18.1495 27.0508 17.9851 26.9022C17.821 26.7535 17.6537 26.6858 17.4834 26.6982C17.3131 26.7111 17.1674 26.8025 17.0464 26.9728C16.9254 27.1431 16.878 27.3233 16.9037 27.514C16.9295 27.7046 17.0244 27.8741 17.1884 28.0227C17.3524 28.1714 17.5198 28.2391 17.6901 28.2263C17.8604 28.2134 18.006 28.122 18.127 27.9517C18.248 27.7814 18.2958 27.6016 18.2701 27.4109Z" fill="#293729"/>
<path d="M18.8066 26.2121L17.7422 25.1218L18.1362 24.6313L19.2006 25.7216C19.3072 25.8308 19.4131 25.8857 19.5183 25.8852C19.6235 25.8848 19.7221 25.8275 19.8144 25.7129C19.9064 25.5982 19.9483 25.4807 19.9402 25.3607C19.9317 25.2406 19.8744 25.1256 19.7677 25.0163L18.7033 23.9261L19.0972 23.4355L20.1616 24.5258C20.319 24.687 20.4217 24.8681 20.4691 25.0683C20.5165 25.2685 20.5154 25.4591 20.4658 25.6402C20.4161 25.8213 20.3315 25.9862 20.2116 26.1353C20.0241 26.3687 19.8015 26.4995 19.5437 26.5286C19.2859 26.5568 19.0402 26.4513 18.8066 26.2121Z" fill="#293729"/>
<path d="M20.9675 23.6676L21.6237 24.4219L21.2051 24.8858L19.518 22.9462L20.1959 22.1944C20.3949 21.9738 20.6001 21.8596 20.812 21.853C21.0238 21.8459 21.2011 21.9244 21.3438 22.0885C21.4416 22.201 21.5067 22.3439 21.5391 22.5175C21.5718 22.6911 21.5387 22.8764 21.4402 23.0724L22.5483 23.3956L22.0592 23.9384L21.0165 23.6128L20.9675 23.6676ZM20.2489 22.8415L20.6549 23.3083L20.9142 23.0205C20.9778 22.9499 21.0095 22.8731 21.0095 22.79C21.0095 22.7069 20.9793 22.6309 20.919 22.562C20.859 22.493 20.791 22.4569 20.7149 22.4544C20.6387 22.4519 20.57 22.4847 20.5078 22.5537L20.2489 22.8415Z" fill="#293729"/>
<path d="M22.4215 19.8876L22.864 19.4531L24.4477 21.5111L24.0053 21.9456L22.2685 21.377L23.2649 22.672L22.8221 23.1065L21.2383 21.0485L21.6808 20.614L23.4183 21.1826L22.4215 19.8876Z" fill="#293729"/>
<path d="M24.5047 18.0117L24.7772 18.4104L24.0876 19.0114L24.4039 19.4746L25.0119 18.9446L25.2844 19.3433L24.6764 19.8733L25.0177 20.3729L25.7074 19.7719L25.9799 20.1707L24.8261 21.1762L23.3509 19.0177L24.5047 18.0117Z" fill="#293729"/>
<path d="M27.3595 19.0736L26.8762 19.4491L26.4371 18.728L24.8254 17.7424L25.3734 17.3167L26.3709 18.0319L26.1333 16.7265L26.6813 16.3008L26.9196 18.353L27.3595 19.0736Z" fill="#293729"/>
</g>
<defs>
<clipPath id="clip0_522_384">
<rect width="120" height="110" fill="white"/>
</clipPath>
</defs>
</svg>
