<svg width="120" height="110" viewBox="0 0 120 110" fill="none" xmlns="http://www.w3.org/2000/svg">
<path d="M25.2579 72.9068C23.5583 73.1223 21.7799 73.374 19.9969 73.4969C21.5523 75.1595 23.237 76.7142 25.0315 78.1543C26.4737 77.7753 27.899 77.3649 29.3107 76.9273C30.9806 75.9654 32.7818 75.1922 34.5467 74.404C36.6095 73.4827 38.5948 72.42 40.5996 71.3923C39.5092 71.3675 38.4197 71.3549 37.3349 71.4187C33.2711 71.6566 29.3365 72.3904 25.2579 72.9068Z" fill="#324633"/>
<path d="M59.5189 3.38235L61.0145 10.2321L53.7619 8.74008C52.4248 8.46514 51.0745 8.86101 50.1495 9.79926C49.2249 10.7375 48.9184 12.022 49.3309 13.2352L63.8188 55.889C64.0647 56.6126 64.5365 57.2196 65.1601 57.6509L63.9002 62.9385C63.9909 62.9346 64.0392 62.935 63.9952 62.9456C64.2181 62.909 64.4399 62.8664 64.6595 62.8168C65.2428 62.6848 65.8134 62.5056 66.3721 62.302C66.3874 62.2921 66.8215 62.1212 66.8872 62.0932C67.0415 62.027 67.1946 61.9593 67.3472 61.8908L68.2082 58.278C68.9696 58.1314 69.6729 57.7667 70.2244 57.207L102.737 24.222C103.661 23.2838 103.968 21.9993 103.556 20.7861C103.144 19.5729 102.099 18.6843 100.762 18.409L100.738 18.4038C101.065 14.1466 97.9894 10.1841 93.3732 9.23442C88.757 8.28474 84.1684 10.6705 82.5312 14.6583L64.3491 10.9179L61.9654 0L61.7708 0.036632L61.7699 0.0319053L42.9482 3.36108L43.5319 6.21011L59.5189 3.38235ZM92.6988 12.0665C95.5667 12.6566 97.5464 14.9856 97.6372 17.596L85.7094 15.1424C86.9782 12.8117 89.8309 11.4765 92.6988 12.0665ZM63.3504 20.9307C63.2982 20.9811 63.2439 21.0295 63.1876 21.076C63.302 21.3167 63.4216 21.5562 63.5394 21.7964L63.5967 22.0596L58.1135 20.9314L68.3032 50.9307L82.7342 36.2897C81.3738 36.0053 80.5162 34.752 80.8176 33.486C81.1199 32.2173 82.4718 31.4169 83.8369 31.6977C84.7488 31.8852 85.4355 32.5083 85.7013 33.2792L91.1692 27.7316L66.9309 22.7453L65.0274 14.0285L100.086 21.241C100.413 21.3084 100.534 21.5317 100.578 21.659C100.621 21.7862 100.659 22.034 100.433 22.2632L67.9212 55.2481C67.6952 55.4774 67.426 55.4632 67.2857 55.4345C67.1454 55.4057 66.8953 55.3127 66.7944 55.0165L52.3078 12.3627C52.2069 12.0661 52.3548 11.8566 52.4519 11.7585C52.549 11.66 52.7605 11.5052 53.0874 11.5722L61.6936 13.3427L63.3504 20.9307ZM65.5891 34.7839C65.9898 33.1023 67.7817 32.0412 69.5915 32.4134C71.4013 32.7856 72.5433 34.4506 72.1427 36.1322C71.7421 37.8137 69.9501 38.8748 68.1404 38.5026C66.3306 38.1304 65.1885 36.4654 65.5891 34.7839ZM73.3641 28.0964C73.5044 27.5083 74.131 27.1372 74.7635 27.2676C75.3964 27.3976 75.7957 27.9802 75.6558 28.5678C75.5155 29.1559 74.8889 29.527 74.256 29.397C73.6231 29.2666 73.2237 28.6844 73.3641 28.0964Z" fill="#324633"/>
<path d="M92.4688 13.1482C92.2107 13.095 91.9635 13.2718 91.9529 13.5172L91.855 15.7246L92.769 13.685C92.8707 13.4585 92.7266 13.2013 92.4688 13.1482Z" fill="#324633"/>
<path d="M88.584 13.6029C88.3611 13.7349 88.3208 14.022 88.5001 14.2028L90.1111 15.828L89.2055 13.7853C89.1042 13.5584 88.807 13.471 88.584 13.6029Z" fill="#324633"/>
<path d="M95.9226 14.9471C95.7806 14.74 95.4716 14.7025 95.277 14.8692L93.5278 16.3659L95.7263 15.5246C95.9705 15.4305 96.0646 15.1543 95.9226 14.9471Z" fill="#324633"/>
<path d="M5.01003 69.9846L38.4358 69.5572C40.8535 69.5261 43.1877 68.7238 45.0424 67.318L47.8319 69.675C48.7861 69.4178 49.7603 68.8837 50.6608 68.3303L46.8954 65.5041C48.4156 63.5736 49.1473 61.1713 48.9188 58.7705L46.014 28.2304L38.6444 35.7353C38.5613 35.6396 38.4697 35.5482 38.3689 35.4627C37.9801 35.1334 37.5129 34.9341 37.0296 34.8616L36.8762 33.7757C37.2001 33.6437 37.5002 33.4487 37.7537 33.1907C38.7237 32.2028 38.6482 30.6714 37.585 29.7702C37.1903 29.4354 36.7151 29.2353 36.2238 29.1655L35.696 25.4326L34.3618 25.5953L34.8858 29.3014C34.5221 29.4322 34.1842 29.6406 33.9036 29.9265C32.9336 30.9144 33.0091 32.4455 34.0723 33.3471C34.4971 33.7071 35.0147 33.9115 35.5455 33.9651L35.69 34.9865C35.3187 35.1169 34.9732 35.3276 34.6874 35.6187C33.7175 36.6066 33.7929 38.138 34.8557 39.0392C34.9566 39.1247 35.0626 39.2011 35.1728 39.2693L17.572 57.193L9.75935 54.7918C9.75426 54.7847 9.75129 54.7812 9.75129 54.7812L3.30201 52.7002C3.30201 52.7002 5.85027 55.9668 2.24854 57.4356C-1.35319 58.9044 0.452337 62.2419 0.452337 62.2419L6.90162 64.3228C6.90162 64.3228 5.09609 60.9854 8.69782 59.5165C10.6555 58.7181 10.7959 57.3887 10.5165 56.3414L16.5787 58.2045L5.01003 69.9846ZM34.617 32.7354C33.9239 32.1481 33.8747 31.15 34.5073 30.506C35.1398 29.8623 36.2136 29.8166 36.9067 30.4039C37.5998 30.9916 37.649 31.9897 37.0165 32.6334C36.3844 33.2774 35.3098 33.3231 34.617 32.7354ZM35.339 36.1575C35.9711 35.5139 37.0458 35.4678 37.7385 36.0555C37.8504 36.1504 37.9432 36.2564 38.0212 36.3694L35.8108 38.6201C35.6828 38.5583 35.5603 38.4819 35.4488 38.387C34.7557 37.7997 34.7065 36.8015 35.339 36.1575ZM38.4329 42.0825C39.126 42.6701 39.1752 43.6683 38.5427 44.3119C37.9106 44.9559 36.8363 45.0016 36.1432 44.4139C35.4505 43.8262 35.4013 42.8281 36.0334 42.1845C36.6659 41.5408 37.7402 41.4952 38.4329 42.0825ZM34.7896 43.3697C34.7947 44.0208 35.08 44.6676 35.6383 45.141C36.0902 45.5243 36.6481 45.7311 37.2145 45.7673L37.613 48.5852C37.5231 48.6368 37.4349 48.6888 37.3489 48.7416C35.8749 49.7039 35.1881 51.2113 34.7841 52.8349C34.1011 55.8198 31.2845 57.6105 28.9673 59.7013C28.6587 59.9498 28.3407 60.183 28.0109 60.4012L20.37 58.0528L34.7896 43.3697ZM33.7798 61.6305C33.1685 62.2529 32.1298 62.2974 31.46 61.7294C30.7902 61.1614 30.7423 60.1964 31.3536 59.574C31.9649 58.9517 33.0036 58.9072 33.6734 59.4752C34.3436 60.0428 34.3911 61.0078 33.7798 61.6305ZM19.3771 59.0643L26.4856 61.2489C25.8768 61.5281 25.2248 61.7625 24.5139 61.9472C23.1963 62.2281 22.1886 63.431 22.0042 64.6726L38.2154 64.4654C41.3703 64.4252 43.8227 61.9015 43.5451 58.9812L43.4285 57.7539C42.3178 58.6007 40.6772 58.5842 39.5847 57.6581C38.3854 56.6411 38.3002 54.9135 39.3943 53.7988C40.3334 52.8424 41.8353 52.6494 43.0007 53.2556L42.3029 45.9186C41.4089 46.758 40.0964 47.3468 38.8788 47.9341L38.5388 45.5286C38.8258 45.3986 39.0925 45.2174 39.3206 44.9847C40.2905 43.9968 40.2151 42.4657 39.1519 41.5641C38.7851 41.2533 38.3489 41.0579 37.8949 40.976L37.7999 40.3052L43.8736 34.1203L46.2392 58.9907C46.3248 59.8899 46.2379 60.7742 45.9903 61.6132C45.9806 61.5912 45.9712 61.5703 45.9632 61.5522C45.9522 61.5293 45.9407 61.5057 45.9293 61.4824C45.8983 61.6991 45.8585 61.9138 45.8144 62.1276C45.4684 63.0312 44.9313 63.8734 44.2132 64.6123C44.2034 64.6222 44.1937 64.6324 44.1839 64.6423C42.6824 66.1713 40.6297 67.0288 38.3998 67.0572L11.1867 67.4054L19.3771 59.0643Z" fill="#324633"/>
<path d="M43.8804 22.633C46.2358 22.633 48.152 20.8526 48.152 18.6642C48.152 16.4757 46.2358 14.6953 43.8804 14.6953C41.5251 14.6953 39.6089 16.4757 39.6089 18.6642C39.6089 20.8526 41.5255 22.633 43.8804 22.633ZM43.8804 15.4295C45.8 15.4295 47.3613 16.8806 47.3613 18.6642C47.3613 20.4477 45.7996 21.8984 43.8804 21.8984C41.9609 21.8984 40.3995 20.4473 40.3995 18.6642C40.3995 16.8806 41.9613 15.4295 43.8804 15.4295Z" fill="#324633"/>
<path d="M44.3099 16.0244H43.4717L43.891 18.2054L44.3099 16.0244Z" fill="#324633"/>
<path d="M42.1817 16.5283L41.5886 17.079L43.5446 18.3457L42.1817 16.5283Z" fill="#324633"/>
<path d="M46.7119 19.0447V18.2656L44.365 18.6552L46.7119 19.0447Z" fill="#324633"/>
<path d="M41.0464 18.2344V19.0135L43.3937 18.6239L41.0464 18.2344Z" fill="#324633"/>
<path d="M43.4648 21.3222H44.3034L43.8841 19.1416L43.4648 21.3222Z" fill="#324633"/>
<path d="M45.5995 20.7832L46.1921 20.2326L44.2361 18.9658L45.5995 20.7832Z" fill="#324633"/>
<path d="M46.1921 17.0341L45.5995 16.4834L44.2361 18.3008L46.1921 17.0341Z" fill="#324633"/>
<path d="M41.634 20.2355L42.2271 20.7862L43.59 18.9688L41.634 20.2355Z" fill="#324633"/>
<path d="M19.1935 77.8726C19.1935 74.9704 16.6524 72.6094 13.5289 72.6094C10.4053 72.6094 7.86429 74.9704 7.86429 77.8726C7.86429 80.7748 10.4053 83.1358 13.5289 83.1358C16.6524 83.1358 19.1935 80.7748 19.1935 77.8726ZM13.5289 82.1617C10.9836 82.1617 8.91267 80.2375 8.91267 77.8726C8.91267 75.5076 10.9836 73.5835 13.5289 73.5835C16.0742 73.5835 18.1451 75.5076 18.1451 77.8726C18.1451 80.2375 16.0742 82.1617 13.5289 82.1617Z" fill="#324633"/>
<path d="M14.0983 74.3721H12.9868L13.5425 77.264L14.0983 74.3721Z" fill="#324633"/>
<path d="M11.2757 75.04L10.4898 75.7703L13.0838 77.4503L11.2757 75.04Z" fill="#324633"/>
<path d="M14.1712 77.8601L17.2837 78.3765V77.3438L14.1712 77.8601Z" fill="#324633"/>
<path d="M9.77078 77.3037V78.3365L12.8833 77.8201L9.77078 77.3037Z" fill="#324633"/>
<path d="M12.9778 81.3968H14.0898L13.5336 78.5049L12.9778 81.3968Z" fill="#324633"/>
<path d="M15.8084 80.6827L16.5944 79.952L14.0004 78.2725L15.8084 80.6827Z" fill="#324633"/>
<path d="M16.5943 75.7121L15.8083 74.9814L14.0003 77.3917L16.5943 75.7121Z" fill="#324633"/>
<path d="M10.55 79.9563L11.336 80.6866L13.144 78.2764L10.55 79.9563Z" fill="#324633"/>
<path d="M21.894 33.0592C22.4964 34.7459 23.2378 36.3746 24.0128 37.9912C23.9891 37.6934 24.0026 37.3968 24.0666 37.1049C24.09 36.702 24.137 36.3006 24.2078 35.9C24.3422 35.139 24.46 34.4075 24.5181 33.6371C24.5847 32.7528 24.7589 31.9721 25.0362 31.1284C25.2515 30.4722 25.455 29.8065 25.7641 29.181C26.0133 28.6756 26.3262 28.1899 26.62 27.7062C27.138 26.8535 27.7214 26.0413 28.2046 25.1704C28.4704 24.6914 28.7943 24.2447 29.075 23.7736C29.4137 23.2056 29.6884 22.6081 29.9474 22.0058C30.3557 21.0569 30.6762 20.0651 31.006 19.0902C31.2981 18.2268 31.6508 17.3579 31.8471 16.4709C32.1807 14.9646 32.2952 13.4115 31.6478 11.9624C31.0518 10.6286 29.8105 9.09482 28.0681 9.13658C25.8921 9.18896 24.0374 10.5495 22.7613 12.0699C20.6497 14.5861 19.5984 17.7289 19.581 20.9084C19.5717 22.5904 19.8176 24.301 20.0978 25.9589C20.5043 28.3648 21.0686 30.7483 21.894 33.0592Z" fill="#324633"/>
<path d="M6.89017 35.1662C8.33662 35.5408 9.89797 35.6361 11.3843 35.7941C12.6239 35.9256 13.8969 35.9563 15.1272 36.1415C16.3451 36.325 17.6072 36.5381 18.7899 36.867C19.3199 37.0143 19.8243 37.142 20.4 37.5709C20.5806 37.7056 20.8354 37.8372 20.9923 37.9979C21.2021 38.2133 21.3908 38.3626 21.6172 38.5631C21.9177 38.8298 22.0996 39.1926 22.418 39.4372C22.6092 39.5841 22.7533 39.8228 22.978 39.924C23.2044 39.7373 23.0458 39.2339 22.9928 38.9992C22.9199 38.6754 22.8813 38.3351 22.7686 38.0211C22.5778 37.4909 22.4519 36.8481 22.1683 36.4125L22.156 36.401C21.6379 35.4041 20.7913 34.6427 20.049 33.8884C19.4347 33.2641 18.7688 32.7008 18.0269 32.2088C17.0111 31.5353 15.766 31.0748 14.5833 30.7215C12.701 30.1598 10.6784 29.892 8.70799 30.1141C7.41457 30.2599 6.16609 30.6506 5.25336 31.5514C4.64756 32.149 4.32665 32.9943 4.72557 33.7832C5.12067 34.5663 6.04696 34.9476 6.89017 35.1662Z" fill="#324633"/>
<path d="M29.7036 102.663C27.2795 100.777 24.351 100.114 21.1012 100.342C19.0858 100.489 18.0226 99.8706 17.4723 98.1812C17.1827 97.343 16.8957 96.4418 16.8627 95.5516C16.7796 93.5306 17.3845 91.608 18.9387 90.0131C20.1643 88.8133 20.4864 88.8889 21.2784 90.2211C21.3568 90.3731 21.4034 90.6016 21.5293 90.639C22.0325 90.7899 22.5904 90.9785 23.0881 90.9127C23.2878 90.8871 23.5714 90.199 23.5299 89.8429C23.4006 88.9027 22.838 88.1551 21.8036 87.866C19.4143 87.1503 16.2632 88.0519 15.0542 90.5228C13.8926 92.8787 13.7633 95.244 14.3365 97.7342C15.0656 100.872 17.8076 102.273 20.9104 102.173C22.2284 102.117 23.6299 102.43 24.9136 102.858C25.7224 103.121 26.4291 103.805 27.0099 104.452C27.698 105.237 27.6178 106.459 27.1006 106.969C25.878 108.105 23.9987 108.379 22.4323 107.609C21.5738 107.18 20.8943 107.513 20.8561 108.403C20.8455 108.657 21.1435 108.962 21.3767 109.139C23.4684 110.517 25.6131 110.001 27.9519 109.242C28.8621 108.463 30.0347 107.849 30.6121 106.906C31.5265 105.377 31.4833 104.055 29.7036 102.663Z" fill="#324633"/>
<path d="M48.4627 93.11C47.7437 92.0571 47.059 90.8648 46.3396 89.8123C44.326 86.9333 42.1029 81.9951 40.0027 79.1551C39.6708 78.6478 37.9487 78.8833 37.323 78.6312C36.8775 78.4548 36.5684 78.7482 36.6485 79.1799C36.7812 79.7137 36.9275 80.2722 37.2175 80.7673C38.2031 82.5434 40.4177 86.0191 41.4157 87.8204C41.8731 88.7086 42.01 89.8016 42.6408 90.6131C44.1789 92.7058 44.5057 94.9928 44.075 97.4613C43.7503 99.1022 42.1639 99.8073 40.7081 98.7702C39.6377 97.9985 38.6457 97.0359 37.8974 95.996C37.0971 94.8549 36.6303 93.5342 36.0029 92.3159C35.0724 90.5772 33.2609 87.2654 32.1994 85.6165C31.5486 84.6271 30.6376 83.7534 29.7558 82.8664C29.5125 82.6005 29.0674 82.4244 28.6455 82.3622C27.6633 82.1751 27.1906 82.6344 27.5955 83.4214C28.3899 85.0328 29.5417 87.5462 30.365 89.145C30.7567 89.9068 31.12 90.6804 31.4257 91.4808C31.8458 92.5723 32.8917 94.2597 33.2541 95.3776L33.2121 95.365C33.4975 95.6439 34.0655 95.9212 34.0808 96.226C34.0897 97.3447 34.8697 97.9651 35.618 98.6615C36.2857 99.2696 36.568 99.6119 37.2196 100.258L37.5854 100.625C37.5778 100.473 38.8165 101.295 39.4295 101.521C41.8939 102.453 45.371 101.22 46.53 98.9273C46.8717 98.2132 46.781 97.3494 46.8577 96.5356C46.8874 96.1799 46.7123 95.6336 47.4559 96.1142C48.0896 96.5183 48.7633 96.3127 49.1363 95.866C49.4038 95.5604 49.4153 94.9624 49.2898 94.5815C49.1295 94.0612 48.7819 93.5921 48.4627 93.11Z" fill="#324633"/>
<path d="M70.2337 88.2373C68.2171 83.7693 66.2738 79.2368 64.1418 74.8205C63.2851 73.0184 62.0663 71.4082 60.9208 69.7342C60.3481 68.8971 59.0093 68.7746 57.9813 69.3253C56.982 69.863 56.8315 70.3979 57.3042 71.591C57.3797 71.8068 57.3844 72.0231 57.4183 72.2259C57.6052 75.1368 57.7926 78.0477 57.9507 80.9711C57.9715 81.1492 57.8638 81.3532 57.7845 81.5442C57.6328 81.4556 57.4361 81.4178 57.3136 81.317C56.0413 80.2917 54.7534 79.305 53.5677 78.2407C52.2196 76.9999 51.0033 75.6693 49.6845 74.4156C48.8417 73.6045 47.9116 73.5195 46.7161 74.0197C46.1256 74.2505 45.9157 74.531 46.2163 75.1147C46.864 76.5111 47.4966 77.9452 48.0862 79.3668C50.0529 84.0132 51.9907 88.6721 54.0438 93.2795C54.3681 93.9778 55.182 94.458 55.7942 95.0276C55.9595 95.1418 56.3521 95.2166 56.5543 95.1268C58.0097 94.5112 59.092 92.6894 58.5828 91.3565C57.9745 89.6931 57.1643 88.1195 56.4407 86.5073C56.4119 86.5199 56.4119 86.5199 56.383 86.5325C55.7039 85.2126 55.037 83.9182 54.3579 82.5987C54.2795 82.4462 54.2748 82.23 54.254 82.0524C54.4346 82.128 54.686 82.2032 54.8509 82.3171C55.89 83.1651 56.929 84.0132 57.9974 84.8486C58.5599 85.2531 59.1912 85.3784 59.8733 84.9817C60.4977 84.6107 60.6219 84.0254 60.5363 83.377C60.2408 81.3567 60.0026 79.3109 59.7355 77.2772C59.7016 77.074 59.7257 76.8455 59.7626 76.6418C59.9118 76.7943 60.103 76.9589 60.2077 77.1618C61.8225 80.4354 63.0044 83.9025 65.0071 87.0351C65.8147 88.329 66.5523 89.6234 67.3887 90.9043C67.5481 91.1454 67.9619 91.3979 68.2739 91.3845C69.9773 91.2509 70.8675 89.9507 70.3507 88.4653C70.3117 88.3897 70.2723 88.3133 70.2337 88.2373Z" fill="#324633"/>
<path d="M90.5982 79.1865C88.5815 74.7186 86.6382 70.1864 84.5063 65.7697C83.6495 63.9677 82.4307 62.3574 81.2852 60.6834C80.7125 59.8464 79.3737 59.7239 78.3457 60.2745C77.3465 60.8122 77.196 61.3471 77.6687 62.5402C77.7441 62.756 77.7488 62.9723 77.7831 63.1751C77.9701 66.086 78.1575 68.9969 78.3152 71.9207C78.3364 72.0984 78.2287 72.3024 78.1494 72.4935C77.9976 72.4048 77.8009 72.3674 77.678 72.2662C76.4062 71.2413 75.1183 70.2542 73.9326 69.1899C72.5845 67.9495 71.3682 66.6189 70.0493 65.3648C69.2066 64.5542 68.2765 64.4687 67.081 64.9689C66.4904 65.1997 66.2806 65.4802 66.5811 66.0639C67.2289 67.4603 67.8614 68.8945 68.4511 70.316C70.4177 74.9624 72.3555 79.6213 74.4086 84.2287C74.7329 84.9267 75.5465 85.4072 76.159 85.9768C76.3244 86.091 76.7169 86.1655 76.9192 86.076C78.3745 85.4604 79.4564 83.6386 78.9477 82.3057C78.3393 80.6423 77.5292 79.0687 76.8055 77.4565C76.7767 77.4691 76.7767 77.4691 76.7479 77.4825C76.0687 76.1626 75.4019 74.8682 74.7228 73.5487C74.6443 73.3963 74.6397 73.18 74.6189 73.002C74.7995 73.078 75.0509 73.1532 75.2158 73.2671C76.2549 74.1147 77.2939 74.9632 78.3622 75.7986C78.9248 76.2027 79.556 76.328 80.2381 75.9313C80.8626 75.5603 80.9868 74.9754 80.9007 74.3266C80.6053 72.3064 80.367 70.2605 80.0999 68.2272C80.066 68.0236 80.0902 67.7951 80.1266 67.5915C80.2763 67.7439 80.467 67.9085 80.5718 68.1114C82.1865 71.3854 83.3684 74.8521 85.3711 77.9847C86.1787 79.2786 86.9163 80.573 87.7527 81.8539C87.9121 82.095 88.3259 82.3475 88.6379 82.3341C90.3417 82.2009 91.2315 80.9003 90.7148 79.4149C90.6762 79.3385 90.6372 79.2625 90.5982 79.1865Z" fill="#324633"/>
<path d="M103.4 71.9687C102.4 72.506 101.428 73.0945 100.399 73.6447C99.3554 74.234 99.2299 74.1962 98.7623 73.2185C98.1404 71.8738 97.5892 70.5278 96.9517 69.2209C96.6379 68.6116 96.7121 68.2047 97.3362 67.8336C98.0628 67.3862 98.7763 66.9131 99.4897 66.4396C99.6368 66.3124 99.8047 66.0194 99.7394 65.8921C99.661 65.7397 99.3833 65.6136 99.1582 65.5888C98.9039 65.5774 98.602 65.6798 98.3718 65.7826C97.7088 66.0773 97.0449 66.3723 96.4624 66.7559C95.8804 67.1396 95.5972 67.1408 95.2546 66.544C94.8731 65.8716 94.4051 65.2383 93.9655 64.5911C92.5741 62.7138 91.1989 60.7995 89.7363 58.9234C89.0928 58.0868 89.0063 58.1254 90.0343 57.5739C90.8445 57.1521 91.6262 56.7424 92.3817 56.2819C92.586 56.1283 92.5733 55.7596 92.6844 55.4922C92.4274 55.5442 92.1311 55.5194 91.8874 55.597C90.3769 56.1752 88.8639 56.8161 87.3538 57.3935C86.8794 57.5735 86.3656 57.6771 85.8781 57.8311C86.1477 58.1482 86.4301 58.4905 86.6997 58.8076C86.7942 58.9218 86.8303 59.0612 86.8828 59.1625C88.0215 61.6503 89.1187 64.1259 90.2446 66.5881C90.3023 66.5629 90.3731 66.5625 90.4019 66.5495C91.0552 67.8187 91.6508 69.113 92.3906 70.3435C93.2872 71.8785 94.2126 73.4013 95.2691 74.8339C96.3416 76.2283 98.1103 76.5654 99.8772 75.936C101.773 75.2806 102.977 73.9031 104.047 72.3988C104.152 72.2586 104.091 72.0038 104.1 71.8135C103.871 71.8525 103.588 71.8533 103.4 71.9687Z" fill="#324633"/>
<path d="M119.015 64.7785C118.837 64.6395 118.586 64.5642 118.364 64.4756C116.237 63.5811 114.126 62.6475 111.984 61.7912C111.399 61.5517 111.25 61.3997 111.39 60.7762C111.815 58.7787 112.268 56.7683 112.397 54.7461C112.529 52.6604 112.18 50.5385 109.776 49.5175C107.246 48.4588 104.589 48.3926 102.027 49.7495C101.303 50.1336 100.666 50.4794 99.798 50.5838C98.9149 50.7268 98.8043 50.9942 99.1964 51.7556C99.4605 52.1999 99.8684 52.5797 100.091 53.0114C101.3 55.1553 102.469 57.2871 103.579 59.4444C104.862 61.868 106.101 64.3429 107.355 66.7791C107.384 66.7665 107.413 66.7539 107.413 66.7539C107.635 67.1856 107.8 67.6421 108.095 68.0096C108.969 69.0873 109.9 70.1394 110.819 71.1655C111.211 71.5842 111.665 71.5692 112.229 71.2884C114.046 70.4805 114.353 69.9074 113.485 68.359C112.686 66.8744 111.799 65.4284 110.942 63.9691C110.837 63.7658 110.848 63.5117 110.801 63.2833C111.011 63.3455 111.249 63.3955 111.443 63.4968C113.248 64.3165 115.052 65.1366 116.857 65.9562C117.272 66.1453 117.726 66.4746 118.137 66.4474C118.748 66.3946 119.577 66.2131 119.863 65.8054C120.357 65.1807 119.385 65.0826 119.015 64.7785ZM109.232 59.9577C109.24 60.1105 109.051 60.2255 108.975 60.3531C108.852 60.2519 108.7 60.1633 108.634 60.0364C108.331 59.5165 108.044 58.958 107.77 58.425C107.827 58.3994 107.856 58.3864 107.914 58.3608C106.303 55.9892 104.737 53.5664 103.097 51.2077C102.83 50.8268 102.836 50.7 103.326 50.4818C105.949 49.3789 109.392 50.9044 109.837 53.4202C110.224 55.6189 109.678 57.7948 109.232 59.9577Z" fill="#324633"/>
</svg>
