<svg width="120" height="110" viewBox="0 0 120 110" fill="none" xmlns="http://www.w3.org/2000/svg">
<path d="M63.3135 43.5976L70.0701 14.6484L82.9006 17.4267L82.6163 18.56L71.1595 16.1254L64.5002 43.5976H63.3135Z" fill="#324633"/>
<path d="M48.9692 22.2691C44.065 19.3539 37.5159 20.6458 34.3455 25.1508C31.1737 29.6556 32.5779 35.6705 37.4837 38.5842C42.3869 41.497 48.9358 40.2077 52.1076 35.7025C55.2797 31.1971 53.8739 25.1819 48.9692 22.2691ZM48.1561 23.4229C50.4785 24.8013 51.8795 26.9955 52.2169 29.3328L44.0773 29.9568L48.5068 23.668L48.1378 23.4492L47.7705 23.2315L47.6056 23.4666L43.2038 29.7195L38.4323 23.7722L38.2569 23.5508L37.5493 24.0291L42.4238 30.1022L34.3384 32.0854C33.882 30.0215 34.2629 27.8009 35.6025 25.897C38.3217 22.0357 43.953 20.9261 48.1561 23.4229ZM42.5983 30.8916L41.6341 38.6373C40.4776 38.449 39.3421 38.0512 38.2962 37.4298C36.4289 36.3209 35.1557 34.682 34.5528 32.8649L42.5983 30.8916ZM42.5018 38.7381L43.4904 30.8098L52.2921 30.1347C52.3558 31.7847 51.8988 33.4671 50.8503 34.9559C48.9781 37.616 45.722 38.97 42.5018 38.7381Z" fill="#324633"/>
<path d="M64.8315 48.1556C65.6329 47.1224 76.3302 33.5309 78.0961 31.3902C79.8681 29.2475 77.5337 29.5431 77.5337 29.5431H61.0172H60.9705H44.4521C44.4521 29.5431 42.1208 29.2475 43.8897 31.3902C45.6586 33.5309 56.3533 47.1226 57.1574 48.1556C57.9603 49.1911 59.407 50.7423 59.812 53.919C60.2114 57.0946 60.2114 71.3506 59.2468 73.8614C58.2822 76.373 57.7202 76.8902 55.7092 77.629C53.6997 78.3658 50.0005 78.588 50.0005 79.2525C50.0005 79.9169 52.0914 80.4337 54.9047 80.4337C57.5264 80.4337 60.5652 80.4337 60.9707 80.4337C60.9707 80.4337 60.9888 80.4337 61.0174 80.4337C61.4212 80.4337 64.4596 80.4337 67.0813 80.4337C69.8946 80.4337 71.9855 79.9171 71.9855 79.2525C71.9855 78.588 68.2893 78.3658 66.2768 77.629C64.2688 76.8902 63.7038 76.373 62.7392 73.8614C61.7746 71.3506 61.7746 57.0946 62.1772 53.919C62.5788 50.7423 64.0237 49.1911 64.8315 48.1556Z" fill="#324633"/>
<g opacity="0.5">
<path d="M30.5541 27.2295C30.137 26.8392 29.7159 26.446 29.2967 26.0559C28.5144 25.3289 27.7351 24.5993 26.9513 23.8711C26.8743 23.9408 26.797 24.0142 26.7207 24.0815C27.9233 25.2006 29.1231 26.3226 30.3257 27.4427C30.4032 27.3714 30.4795 27.2992 30.5541 27.2295Z" fill="#324633"/>
<path d="M21.3607 18.6655C20.9109 18.2488 20.4641 17.8334 20.0182 17.415C19.9402 17.4875 19.8648 17.5552 19.7898 17.6288C20.2325 18.0434 20.6819 18.462 21.1289 18.8753C21.2051 18.8088 21.2832 18.7351 21.3607 18.6655Z" fill="#324633"/>
<path d="M23.0283 20.646C23.1064 20.5744 23.1828 20.5065 23.2591 20.4358C22.8508 20.0532 22.4403 19.6735 22.0307 19.291C21.9527 19.3591 21.8768 19.4298 21.8005 19.4996C22.2084 19.8813 22.6202 20.263 23.0283 20.646Z" fill="#324633"/>
<path d="M36.7184 32.9678C35.0012 31.3713 33.2848 29.7679 31.5664 28.168C31.4864 28.2394 31.4123 28.3119 31.3375 28.3808C33.0538 29.9793 34.7702 31.5831 36.4921 33.184C36.5686 33.1109 36.6412 33.0397 36.7184 32.9678Z" fill="#324633"/>
<path d="M19.3458 16.795C18.5418 16.044 17.7358 15.2905 16.9304 14.5403C16.8411 14.4587 16.3806 14.4555 16.5097 14.572C17.3774 15.3823 18.246 16.1923 19.1172 17.0004C19.1909 16.9317 19.2687 16.8623 19.3458 16.795Z" fill="#324633"/>
<path d="M26.2792 23.2446C25.4953 22.5182 24.7139 21.7898 23.9322 21.0596C23.8553 21.1316 23.776 21.1983 23.7014 21.2698C24.4831 22 25.2671 22.7266 26.0495 23.4584C26.1238 23.3867 26.2014 23.3171 26.2792 23.2446Z" fill="#324633"/>
<path d="M43.7368 28.0622L40.0354 22.2383C39.8972 22.3097 39.7579 22.383 39.6238 22.4559L43.3233 28.279C43.4593 28.2075 43.5988 28.1324 43.7368 28.0622Z" fill="#324633"/>
<path d="M39.3102 21.0914L37.7256 18.6016L37.3123 18.8235L38.8999 21.3152C39.036 21.2413 39.17 21.1631 39.3102 21.0914Z" fill="#324633"/>
<path d="M31.4411 39.2304L25.0661 35.8857C24.9859 36.0139 24.9077 36.1405 24.8281 36.2674L31.2036 39.6124C31.2796 39.4825 31.3614 39.3557 31.4411 39.2304Z" fill="#324633"/>
<path d="M23.8145 35.2321L20.8954 33.6992L20.6589 34.0791L23.5759 35.609C23.6522 35.484 23.7356 35.3553 23.8145 35.2321Z" fill="#324633"/>
<path d="M21.8002 19.4996C21.8765 19.4298 21.9523 19.3591 22.0303 19.291C21.8056 19.083 21.5842 18.8696 21.3608 18.665C21.2832 18.7347 21.2052 18.8084 21.1292 18.8748C21.3536 19.0848 21.5768 19.2928 21.8002 19.4996Z" fill="#324633"/>
<path d="M49.1883 17.318C49.3319 17.2797 49.4732 17.2466 49.617 17.2114C49.4803 16.7266 49.3426 16.2433 49.203 15.7576C48.9095 14.7184 48.6154 13.6802 48.3214 12.6436C48.1756 12.6779 48.0346 12.7132 47.8914 12.75C48.3236 14.2697 48.7565 15.7947 49.1883 17.318Z" fill="#324633"/>
<path d="M51.4052 25.1277C51.5491 25.0925 51.6866 25.0526 51.832 25.0145C51.2131 22.84 50.5979 20.6626 49.9777 18.4863C49.838 18.5211 49.6945 18.563 49.5529 18.5995C50.1685 20.7764 50.7874 22.9496 51.4052 25.1277Z" fill="#324633"/>
<path d="M47.6504 11.8983C47.794 11.8634 47.9368 11.8282 48.0783 11.7951C47.8008 10.8014 47.5161 9.80967 47.2369 8.81836C47.093 8.8515 46.9498 8.89162 46.8062 8.92655C47.0884 9.91666 47.3709 10.907 47.6504 11.8983Z" fill="#324633"/>
<path d="M45.5891 3.01441C45.3151 2.04446 45.0372 1.07431 44.7634 0.104159C44.731 -0.014814 44.2625 -0.0461542 44.3029 0.0859938C44.5876 1.09786 44.874 2.10894 45.1593 3.12101C45.304 3.08587 45.4462 3.04755 45.5891 3.01441Z" fill="#324633"/>
<path d="M45.8848 5.66808C46.028 5.63335 46.1678 5.59662 46.3129 5.56149C46.1515 4.99517 45.9907 4.43024 45.8312 3.86133C45.6853 3.89686 45.5441 3.93199 45.4009 3.96832C45.5623 4.53504 45.7236 5.10136 45.8848 5.66808Z" fill="#324633"/>
<path d="M75.6121 4.08193C75.4613 4.04181 75.3129 4.00708 75.156 3.96875C74.9861 4.53168 74.8176 5.0968 74.6527 5.66032C74.8011 5.70065 74.9552 5.73658 75.108 5.7757C75.2766 5.21018 75.4472 4.64746 75.6121 4.08193Z" fill="#324633"/>
<path d="M71.245 18.661C71.0948 18.6213 70.9447 18.5813 70.7902 18.541C70.1409 20.7073 69.4909 22.8777 68.8416 25.047C68.9954 25.0823 69.1443 25.1255 69.2988 25.1642C69.9438 22.9943 70.5959 20.8295 71.245 18.661Z" fill="#324633"/>
<path d="M74.8515 6.62217C74.7016 6.58385 74.5468 6.54672 74.3982 6.50879C74.2417 7.0256 74.0861 7.54042 73.9316 8.06083C74.0825 8.09916 74.237 8.13589 74.3891 8.17421C74.5429 7.6576 74.6996 7.14058 74.8515 6.62217Z" fill="#324633"/>
<path d="M72.0486 15.9754C72.3659 14.9288 72.6802 13.8808 72.9926 12.8308C72.8394 12.7939 72.6895 12.7555 72.5369 12.7158C72.0812 14.2337 71.6282 15.7506 71.1742 17.2685C71.325 17.3051 71.4791 17.3454 71.6295 17.3835C71.7679 16.9148 71.9109 16.4439 72.0486 15.9754Z" fill="#324633"/>
<path d="M76.7241 0.377355C76.7569 0.269361 76.2899 0.184124 76.2532 0.312679C75.9731 1.2473 75.6925 2.18591 75.4128 3.12292C75.563 3.16105 75.7158 3.19758 75.8681 3.2361C76.155 2.28372 76.439 1.33054 76.7241 0.377355Z" fill="#324633"/>
<path d="M74.1366 9.02041C73.9847 8.98228 73.8322 8.94575 73.6762 8.90723C73.3784 9.89355 73.0848 10.8839 72.7893 11.8688C72.9416 11.9087 73.0938 11.9472 73.2463 11.9838C73.5421 10.9974 73.8391 10.0089 74.1366 9.02041Z" fill="#324633"/>
<path d="M60.2815 15.9565C60.3665 15.9565 60.4492 15.9603 60.5336 15.9603L60.521 13.2568L60.0431 13.2622L60.0561 15.9603C60.1304 15.9603 60.2069 15.9565 60.2815 15.9565Z" fill="#324633"/>
<path d="M60.0638 17.28L60.098 24.0261C60.1592 24.0247 60.2212 24.0211 60.2818 24.0211C60.3792 24.0211 60.4776 24.0281 60.5756 24.0281L60.5408 17.28C60.4539 17.28 60.3692 17.2764 60.2818 17.2764C60.207 17.2766 60.1362 17.28 60.0638 17.28Z" fill="#324633"/>
<path d="M47.2368 8.81889C47.1568 8.53602 47.0751 8.25237 46.9956 7.9707C46.8519 8.00424 46.7104 8.04097 46.567 8.0757C46.6468 8.36076 46.7248 8.64422 46.8061 8.92708C46.9495 8.89195 47.0929 8.85202 47.2368 8.81889Z" fill="#324633"/>
<path d="M101.174 45.1204C101.194 45.1965 101.212 45.2731 101.233 45.3516C101.785 45.2182 102.337 45.0883 102.883 44.9565C103.993 44.6896 105.102 44.4245 106.207 44.1598C106.187 44.0818 106.167 44.0083 106.147 43.9307C104.491 44.3271 102.83 44.7236 101.174 45.1204Z" fill="#324633"/>
<path d="M111.234 42.7137C111.256 42.7885 111.275 42.865 111.296 42.942C111.86 42.8073 112.426 42.6716 112.988 42.5352C112.972 42.4606 112.952 42.3825 112.93 42.3057C112.364 42.4418 111.8 42.5751 111.234 42.7137Z" fill="#324633"/>
<path d="M119.613 40.7077C118.62 40.9443 117.624 41.1826 116.628 41.4191C116.652 41.4974 116.67 41.5745 116.691 41.6493C117.769 41.3946 118.85 41.1325 119.928 40.876C120.171 40.8175 119.731 40.676 119.613 40.7077Z" fill="#324633"/>
<path d="M99.8411 45.6861C99.8222 45.609 99.8044 45.531 99.784 45.4541C97.4148 46.0226 95.0438 46.5891 92.6753 47.1587C92.6977 47.2307 92.7138 47.309 92.7338 47.3854C95.1031 46.8221 97.4724 46.2506 99.8411 45.6861Z" fill="#324633"/>
<path d="M113.855 42.0891C113.876 42.1612 113.893 42.2372 113.916 42.3157C114.532 42.1672 115.149 42.0193 115.765 41.8725C115.743 41.7943 115.728 41.719 115.705 41.6426C115.09 41.7891 114.471 41.9372 113.855 42.0891Z" fill="#324633"/>
<path d="M107.074 43.7089C107.094 43.7874 107.112 43.8618 107.133 43.9369C108.211 43.6808 109.291 43.4197 110.369 43.162C110.35 43.0867 110.331 43.0104 110.308 42.9336C109.229 43.1923 108.15 43.4522 107.074 43.7089Z" fill="#324633"/>
<path d="M89.5116 28.6524C89.4168 28.5695 89.3262 28.4775 89.2341 28.3877C87.4938 29.9681 85.7503 31.5445 84.009 33.1261C84.1055 33.2123 84.1937 33.3039 84.2861 33.389C86.0265 31.8106 87.7696 30.2326 89.5116 28.6524Z" fill="#324633"/>
<path d="M101.221 18.0445C101.125 17.9565 101.036 17.8727 100.941 17.7812C100.488 18.1931 100.034 18.6043 99.583 19.0125C99.6715 19.1013 99.766 19.1916 99.8603 19.2782C100.313 18.8654 100.767 18.4548 101.221 18.0445Z" fill="#324633"/>
<path d="M97.2511 21.6396C97.1603 21.5526 97.0699 21.4632 96.9721 21.3779C96.1809 22.0978 95.3855 22.8168 94.5945 23.5348C94.6873 23.6199 94.7796 23.7069 94.8711 23.7945C95.6639 23.0763 96.4586 22.3567 97.2511 21.6396Z" fill="#324633"/>
<path d="M91.7138 26.6576C92.5387 25.9082 93.3686 25.161 94.194 24.4111C94.0977 24.3228 94.0069 24.2382 93.9152 24.1514C92.6919 25.2547 91.4745 26.3576 90.257 27.4625C90.3497 27.5495 90.4441 27.6395 90.5371 27.7283C90.9282 27.3698 91.3222 27.0133 91.7138 26.6576Z" fill="#324633"/>
<path d="M104.252 15.2971C104.341 15.2151 103.906 15.0971 103.803 15.1883C103.078 15.8481 102.349 16.5054 101.62 17.1649C101.713 17.2518 101.809 17.3396 101.899 17.4284C102.681 16.7166 103.467 16.0064 104.252 15.2971Z" fill="#324633"/>
<path d="M101.04 55.0771L93.695 55.1121C93.6917 55.257 93.6878 55.4025 93.6841 55.5504L101.028 55.5169C101.03 55.3702 101.04 55.2255 101.04 55.0771Z" fill="#324633"/>
<path d="M102.48 55.0694C102.48 55.2157 102.477 55.3623 102.473 55.5098L105.423 55.4976L105.421 55.0566L102.48 55.0694Z" fill="#324633"/>
<path d="M89.3262 39.5608C89.4064 39.691 89.49 39.8139 89.5659 39.9429L95.9068 36.5448C95.829 36.4146 95.7473 36.2894 95.6656 36.1631L89.3262 39.5608Z" fill="#324633"/>
<path d="M97.1479 35.8723L99.6039 34.5572L99.3627 34.1797L96.9138 35.491C96.9938 35.6191 97.0698 35.7461 97.1479 35.8723Z" fill="#324633"/>
<path d="M83.1707 19.0947L82.7515 18.8799L81.3485 21.1394C81.4848 21.2164 81.6208 21.2915 81.757 21.3661L83.1707 19.0947Z" fill="#324633"/>
<path d="M81.046 22.5127C80.9095 22.4392 80.7679 22.3662 80.6318 22.2949L76.9932 28.1514C77.1288 28.2248 77.2705 28.2927 77.4082 28.3691L81.046 22.5127Z" fill="#324633"/>
<path d="M97.9312 21.0234C97.8414 20.9369 97.7486 20.8467 97.6539 20.7637C97.4275 20.9671 97.2023 21.1717 96.9724 21.3783C97.0702 21.4635 97.1606 21.553 97.2514 21.64C97.4796 21.4336 97.7052 21.2302 97.9312 21.0234Z" fill="#324633"/>
<path d="M74.0064 103.945C73.8615 103.977 73.7196 104.008 73.5759 104.042C73.7354 104.608 73.8958 105.175 74.0571 105.742C74.2003 105.709 74.3459 105.676 74.4906 105.645C74.3267 105.078 74.1661 104.51 74.0064 103.945Z" fill="#324633"/>
<path d="M74.2983 106.591C74.6126 107.693 74.9244 108.792 75.2386 109.895C75.2712 110.014 75.7395 110.047 75.6993 109.914C75.376 108.773 75.0555 107.632 74.7284 106.494C74.5889 106.527 74.4422 106.558 74.2983 106.591Z" fill="#324633"/>
<path d="M70.7009 92.293C70.5577 92.3281 70.4138 92.3594 70.2695 92.3934C70.4449 93.0076 70.6172 93.626 70.7969 94.2401C71.051 95.1495 71.3094 96.0526 71.5645 96.9593C71.7114 96.9257 71.8526 96.8946 71.9963 96.8613C71.5645 95.3418 71.1307 93.8175 70.7009 92.293Z" fill="#324633"/>
<path d="M68.4875 84.4883C68.3423 84.522 68.1954 84.5482 68.054 84.5795C68.6707 86.756 69.2878 88.933 69.9063 91.1095C70.0513 91.0763 70.1969 91.0524 70.3361 91.0196C69.7214 88.8416 69.1049 86.6649 68.4875 84.4883Z" fill="#324633"/>
<path d="M72.2396 97.7109C72.096 97.7463 71.9491 97.7778 71.8057 97.8109C72.0864 98.8017 72.3678 99.7928 72.651 100.784C72.7946 100.751 72.9418 100.718 73.0811 100.689C72.8018 99.6959 72.5204 98.7026 72.2396 97.7109Z" fill="#324633"/>
<path d="M73.3248 101.537C73.1809 101.569 73.0371 101.603 72.8904 101.634C73.0395 102.152 73.1861 102.671 73.3335 103.189C73.4767 103.156 73.6216 103.126 73.7635 103.096C73.6168 102.574 73.471 102.054 73.3248 101.537Z" fill="#324633"/>
<path d="M89.4166 82.7454C89.8454 83.1448 90.2733 83.5435 90.7014 83.9451C91.4746 84.6649 92.2508 85.3866 93.0218 86.1048C93.1018 86.0371 93.1759 85.9651 93.2559 85.8954C92.0511 84.7771 90.8483 83.6549 89.6478 82.5332C89.5687 82.6069 89.4938 82.6773 89.4166 82.7454Z" fill="#324633"/>
<path d="M93.6918 86.7283C94.4787 87.4569 95.2616 88.1851 96.0433 88.9151C96.1194 88.8451 96.1932 88.7766 96.2736 88.7051C95.4913 87.9763 94.7099 87.2507 93.9276 86.5205C93.8476 86.5902 93.7735 86.6588 93.6918 86.7283Z" fill="#324633"/>
<path d="M96.7139 89.5404C97.1222 89.9217 97.5325 90.3018 97.9421 90.6852C98.0188 90.6168 98.096 90.5469 98.1729 90.4772C97.767 90.0981 97.3541 89.7151 96.9466 89.333C96.8649 89.4017 96.7906 89.4721 96.7139 89.5404Z" fill="#324633"/>
<path d="M83.2471 77.0013C84.9647 78.6031 86.6858 80.2022 88.4012 81.7996C88.479 81.7331 88.559 81.6642 88.6351 81.5961C86.9172 79.9962 85.199 78.3958 83.4807 76.7959C83.4064 76.8646 83.3249 76.9326 83.2471 77.0013Z" fill="#324633"/>
<path d="M100.626 93.1812C101.441 93.9443 102.257 94.6991 103.07 95.4596C103.158 95.5447 103.618 95.5447 103.494 95.4275C102.615 94.6108 101.737 93.791 100.858 92.9766C100.781 93.0448 100.704 93.1163 100.626 93.1812Z" fill="#324633"/>
<path d="M98.6133 91.3108C99.059 91.727 99.5088 92.1452 99.9528 92.56C100.033 92.4917 100.111 92.4187 100.189 92.352C99.7403 91.9338 99.2943 91.5186 98.8484 91.1016C98.7693 91.1718 98.6937 91.2407 98.6133 91.3108Z" fill="#324633"/>
<path d="M100.818 65.5166C101.359 65.6531 101.899 65.7935 102.444 65.9316C103.55 66.2119 104.664 66.4893 105.773 66.7734C105.791 66.7135 105.811 66.6564 105.829 66.5951C104.18 66.1779 102.528 65.7599 100.874 65.3447C100.856 65.4014 100.838 65.4599 100.818 65.5166Z" fill="#324633"/>
<path d="M113.454 68.7122C114.068 68.8693 114.684 69.0244 115.298 69.1793C115.316 69.1222 115.334 69.0609 115.35 69.0038C114.739 68.8473 114.124 68.694 113.51 68.5371C113.489 68.596 113.473 68.6543 113.454 68.7122Z" fill="#324633"/>
<path d="M106.695 67.0041C107.771 67.274 108.846 67.5489 109.923 67.8172C109.941 67.7605 109.961 67.7042 109.977 67.6441C108.903 67.3728 107.829 67.1011 106.752 66.8311C106.733 66.8873 106.714 66.9458 106.695 67.0041Z" fill="#324633"/>
<path d="M110.843 68.0526C111.406 68.1941 111.97 68.3373 112.533 68.4808C112.549 68.4189 112.569 68.3624 112.587 68.3039C112.023 68.161 111.459 68.0229 110.9 67.8779C110.881 67.9344 110.86 67.9939 110.843 68.0526Z" fill="#324633"/>
<path d="M116.272 69.2373C116.256 69.2936 116.239 69.3537 116.22 69.4102C117.287 69.6841 118.357 69.9545 119.422 70.222C119.62 70.2719 119.888 70.1508 119.573 70.0723C118.475 69.7926 117.372 69.5158 116.272 69.2373Z" fill="#324633"/>
<path d="M99.4806 64.991C97.1187 64.3943 94.758 63.7977 92.3978 63.1992C92.3813 63.2561 92.3654 63.319 92.3474 63.3743C94.7074 63.9705 97.0678 64.569 99.4248 65.1655C99.4426 65.1094 99.4626 65.0491 99.4806 64.991Z" fill="#324633"/>
<path d="M76.1094 81.7591L79.8102 87.5866C79.9519 87.5168 80.0877 87.4441 80.2237 87.369L76.5231 81.5439C76.3867 81.617 76.2476 81.6889 76.1094 81.7591Z" fill="#324633"/>
<path d="M80.5342 88.7247L82.2344 91.398L82.6477 91.1814L80.9553 88.5117C80.8136 88.5832 80.6774 88.6566 80.5342 88.7247Z" fill="#324633"/>
<path d="M99.3033 75.9207L96.5726 74.4893C96.4906 74.6158 96.4111 74.7406 96.3259 74.8657L99.0651 76.3024L99.3033 75.9207Z" fill="#324633"/>
<path d="M95.3228 73.8309L88.9506 70.4893C88.865 70.6146 88.7818 70.7434 88.699 70.8645L95.0796 74.211C95.1631 74.088 95.2429 73.9592 95.3228 73.8309Z" fill="#324633"/>
<path d="M20.8823 45.1017C23.2421 45.6984 25.6008 46.2948 27.9614 46.8915C27.9795 46.8334 27.9992 46.7767 28.0177 46.7148C25.6569 46.119 23.2971 45.5199 20.9364 44.9229C20.9201 44.9833 20.8982 45.043 20.8823 45.1017Z" fill="#324633"/>
<path d="M0.580129 39.7774C0.379117 39.7273 0.110086 39.8488 0.425404 39.9289C1.6506 40.2401 2.87363 40.5491 4.096 40.8565C4.11447 40.7968 4.13251 40.7405 4.15033 40.6798C2.96077 40.382 1.76969 40.0772 0.580129 39.7774Z" fill="#324633"/>
<path d="M19.547 44.5762C18.8844 44.4072 18.2203 44.2409 17.5582 44.0732C16.5713 43.8227 15.5821 43.5709 14.5936 43.3242C14.5756 43.3827 14.5573 43.4412 14.541 43.4989C16.1939 43.9161 17.845 44.3361 19.4977 44.7529C19.5137 44.6904 19.5307 44.6339 19.547 44.5762Z" fill="#324633"/>
<path d="M7.78461 41.7866C8.34701 41.9315 8.90984 42.0752 9.47224 42.2167C9.49006 42.1546 9.50658 42.1 9.52613 42.0403C8.96069 41.8965 8.39786 41.755 7.83763 41.6133C7.81699 41.6718 7.7996 41.7301 7.78461 41.7866Z" fill="#324633"/>
<path d="M10.3936 42.4491C11.4692 42.7226 12.5432 42.9923 13.6197 43.2672C13.6352 43.2051 13.6521 43.1472 13.6721 43.0885C12.5943 42.8174 11.5205 42.5465 10.4483 42.2725C10.4281 42.3307 10.4131 42.389 10.3936 42.4491Z" fill="#324633"/>
<path d="M4.90558 67.9679C4.92753 68.0446 4.94861 68.1176 4.97077 68.1947C5.58946 68.0481 6.20423 67.903 6.81922 67.7533C6.7977 67.6763 6.77597 67.6 6.75402 67.5273C6.13947 67.6731 5.51796 67.8216 4.90558 67.9679Z" fill="#324633"/>
<path d="M27.9305 62.4561C25.5622 63.021 23.1931 63.5893 20.822 64.1556C20.8442 64.2323 20.8709 64.3071 20.8926 64.3842C23.2626 63.8159 25.6337 63.2475 27.9994 62.681C27.9796 62.6062 27.9509 62.5303 27.9305 62.4561Z" fill="#324633"/>
<path d="M0.0719529 69.1243C-0.170348 69.1822 0.268402 69.3209 0.385749 69.294C1.60486 69.0041 2.82593 68.7095 4.04765 68.4174C4.02505 68.3426 4.0018 68.2677 3.97985 68.1895C2.67685 68.5011 1.37669 68.8127 0.0719529 69.1243Z" fill="#324633"/>
<path d="M7.67737 67.3043C7.70127 67.3807 7.723 67.4578 7.74604 67.5312C8.31061 67.3943 8.87671 67.2604 9.44302 67.1238C9.42107 67.0492 9.39521 66.9743 9.37391 66.8975C8.80782 67.034 8.24564 67.1695 7.67737 67.3043Z" fill="#324633"/>
<path d="M10.2975 66.6765C10.3208 66.7533 10.3464 66.8302 10.3643 66.9068C11.4436 66.6445 12.5239 66.3878 13.6033 66.1301C13.5828 66.0533 13.5581 65.9786 13.5376 65.9014C12.4583 66.1599 11.3787 66.4178 10.2975 66.6765Z" fill="#324633"/>
<path d="M19.4339 64.4902C18.6597 64.6735 17.8843 64.8619 17.1157 65.0428C16.2297 65.2568 15.3446 65.4684 14.4595 65.6784C14.4832 65.755 14.5086 65.8309 14.5286 65.9083C16.1864 65.5085 17.845 65.113 19.5035 64.7184C19.4796 64.6411 19.4576 64.5669 19.4339 64.4902Z" fill="#324633"/>
<path d="M31.0752 80.8133C31.1676 80.9037 31.2538 80.9971 31.3484 81.0808C33.0901 79.5024 34.8321 77.9238 36.5758 76.3472C36.4812 76.2592 36.3919 76.1676 36.2996 76.0781C34.5567 77.6593 32.815 79.2385 31.0752 80.8133Z" fill="#324633"/>
<path d="M19.3636 91.4248C19.4601 91.5146 19.5497 91.5995 19.6446 91.6867C20.0969 91.2785 20.5515 90.8649 21.0035 90.4569C20.9109 90.3666 20.8183 90.28 20.7238 90.1934C20.272 90.6034 19.8167 91.0136 19.3636 91.4248Z" fill="#324633"/>
<path d="M15.7459 94.7028C15.6588 94.7864 16.0958 94.9048 16.1938 94.8112C17.1171 93.9762 18.0409 93.1366 18.9643 92.303C18.8717 92.2175 18.7757 92.1279 18.6866 92.0381C17.703 92.93 16.7253 93.8177 15.7459 94.7028Z" fill="#324633"/>
<path d="M23.3335 87.8296C23.4276 87.918 23.5167 88.0066 23.6108 88.0935C24.4033 87.3742 25.1967 86.6564 25.9888 85.9346C25.8984 85.8499 25.8061 85.7615 25.7102 85.6719C24.919 86.3949 24.1245 87.1097 23.3335 87.8296Z" fill="#324633"/>
<path d="M28.2858 83.3438C27.653 83.9164 27.0234 84.4861 26.3923 85.0574C26.4869 85.1462 26.5768 85.234 26.6716 85.3191C27.8905 84.2162 29.1102 83.1143 30.3259 82.0076C30.2353 81.9198 30.144 81.8309 30.0479 81.7461C29.4586 82.2759 28.8718 82.8097 28.2858 83.3438Z" fill="#324633"/>
<path d="M45.3401 102.733C45.4911 102.771 45.6437 102.808 45.7956 102.846C45.952 102.331 46.1061 101.814 46.2624 101.295C46.1115 101.257 45.9555 101.219 45.801 101.18C45.6493 101.696 45.4948 102.215 45.3401 102.733Z" fill="#324633"/>
<path d="M44.5784 105.271C44.7314 105.312 44.8815 105.347 45.0347 105.386C45.2027 104.821 45.3713 104.258 45.5441 103.694C45.3918 103.654 45.2379 103.615 45.0869 103.577C44.9167 104.143 44.745 104.706 44.5784 105.271Z" fill="#324633"/>
<path d="M48.9478 90.6933C49.0999 90.7318 49.2496 90.7719 49.4043 90.81C50.0536 88.6414 50.7036 86.4751 51.3529 84.3084C51.1991 84.2671 51.047 84.227 50.8959 84.1885C50.2464 86.3549 49.5956 88.5232 48.9478 90.6933Z" fill="#324633"/>
<path d="M43.2761 109.623C43.2394 109.733 43.707 109.818 43.7455 109.685C44.0921 108.535 44.437 107.385 44.7816 106.232C44.6291 106.195 44.4752 106.16 44.3242 106.118C43.9726 107.286 43.6262 108.455 43.2761 109.623Z" fill="#324633"/>
<path d="M46.0574 100.333C46.2093 100.372 46.362 100.41 46.5161 100.448C46.8121 99.4614 47.1081 98.4717 47.4019 97.4865C47.2498 97.4482 47.0968 97.4083 46.9483 97.3682C46.6506 98.3567 46.3531 99.3448 46.0574 100.333Z" fill="#324633"/>
<path d="M47.9482 94.0246C47.6992 94.8561 47.4486 95.6897 47.1987 96.5215C47.353 96.5594 47.5027 96.6017 47.6575 96.6379C48.111 95.1247 48.5663 93.605 49.022 92.0877C48.8694 92.0476 48.7147 92.0093 48.5626 91.9678C48.3596 92.6553 48.1547 93.34 47.9482 94.0246Z" fill="#324633"/>
<path d="M18.0806 54.9254C18.0806 54.8591 18.0793 54.7901 18.0793 54.7238C18.0793 54.6451 18.0806 54.5689 18.083 54.4902L14.5371 54.5056L14.5388 54.9442L18.0806 54.9254Z" fill="#324633"/>
<path d="M19.5176 54.4831C19.5176 54.5626 19.5117 54.6444 19.5117 54.7231C19.5117 54.7893 19.5176 54.8566 19.5176 54.9213L26.862 54.8897C26.862 54.8328 26.8546 54.7781 26.8546 54.7231C26.8546 54.6306 26.862 54.54 26.8653 54.4512L19.5176 54.4831Z" fill="#324633"/>
<path d="M31.3411 70.061C31.2636 69.934 31.1816 69.8071 31.1041 69.6787L24.7649 73.0774C24.8449 73.2074 24.9211 73.3321 25.002 73.4605L31.3411 70.061Z" fill="#324633"/>
<path d="M20.5922 75.8207L23.756 74.1287C23.6761 73.9992 23.5985 73.8728 23.5189 73.748L20.3542 75.4426L20.5922 75.8207Z" fill="#324633"/>
<path d="M36.7898 90.905L37.2057 91.122L39.0201 88.2021C38.8818 88.1291 38.7456 88.052 38.6093 87.9766L36.7898 90.905Z" fill="#324633"/>
<path d="M42.9599 80.9775L39.3228 86.8318C39.4588 86.9072 39.5985 86.9757 39.7365 87.0524L43.3758 81.1943C43.2372 81.1197 43.1003 81.0526 42.9599 80.9775Z" fill="#324633"/>
<path d="M59.4248 93.4824L59.4376 96.7428H59.9166L59.9001 93.4862C59.7403 93.4862 59.5791 93.4824 59.4248 93.4824Z" fill="#324633"/>
<path d="M59.8604 85.4172C59.6987 85.4132 59.5425 85.4104 59.3795 85.4072L59.4158 92.1565C59.5779 92.1565 59.7333 92.1615 59.8935 92.1669L59.8604 85.4172Z" fill="#324633"/>
<path d="M22.6508 88.4451C22.7455 88.5351 22.8379 88.6236 22.9307 88.7084C23.159 88.5034 23.3829 88.3 23.6108 88.094C23.5167 88.0069 23.4276 87.9185 23.3335 87.8301C23.1062 88.0353 22.8796 88.2421 22.6508 88.4451Z" fill="#324633"/>
<path d="M5.07033 40.912C4.76349 40.8368 4.45534 40.7597 4.15046 40.6797C4.13264 40.7404 4.1146 40.7967 4.09613 40.8563C4.40493 40.9334 4.71155 41.0166 5.01948 41.0889C5.03752 41.0304 5.05469 40.9715 5.07033 40.912Z" fill="#324633"/>
<path d="M31.8406 34.9488C31.4392 34.6676 31.0402 34.3857 30.6376 34.1038C29.8915 33.5775 29.1444 33.056 28.3951 32.5312C28.3406 32.5961 28.2858 32.666 28.23 32.7307C29.3782 33.5393 30.5289 34.346 31.677 35.1509C31.73 35.0838 31.7824 35.0175 31.8406 34.9488Z" fill="#324633"/>
<path d="M23.0588 28.7776C22.6307 28.4795 22.2043 28.1795 21.7762 27.8799C21.7204 27.9464 21.6639 28.0112 21.613 28.0795C22.0359 28.3781 22.4623 28.6812 22.8923 28.9798C22.9447 28.9161 23.0008 28.8454 23.0588 28.7776Z" fill="#324633"/>
<path d="M24.705 30.2562C24.7611 30.1879 24.8152 30.1206 24.8713 30.0558C24.4823 29.7793 24.0918 29.5038 23.6993 29.2275C23.6419 29.296 23.5867 29.3625 23.5309 29.4296C23.9229 29.7042 24.3149 29.9789 24.705 30.2562Z" fill="#324633"/>
<path d="M37.7253 39.0862C36.084 37.9324 34.4437 36.7794 32.8 35.626C32.7476 35.6944 32.6929 35.7607 32.6383 35.827C34.2801 36.9824 35.9208 38.1344 37.5604 39.2888C37.6171 39.2223 37.6682 39.1505 37.7253 39.0862Z" fill="#324633"/>
<path d="M21.1354 27.4278C20.3668 26.8877 19.5955 26.3455 18.8278 25.8059C18.743 25.746 18.3584 25.7943 18.4779 25.8796C19.3074 26.4611 20.1379 27.0456 20.9705 27.629C21.0254 27.561 21.0813 27.4957 21.1354 27.4278Z" fill="#324633"/>
<path d="M27.7543 32.0805C27.0089 31.5555 26.2614 31.0303 25.5138 30.5059C25.4573 30.5703 25.403 30.639 25.3469 30.7053C26.0945 31.2287 26.842 31.7539 27.5913 32.2807C27.6437 32.2142 27.6997 32.1451 27.7543 32.0805Z" fill="#324633"/>
<path d="M42.9674 34.2268L39.1284 29.7539C39.023 29.8308 38.9163 29.9072 38.8115 29.9843L42.6462 34.4553C42.7514 34.3789 42.8609 34.3018 42.9674 34.2268Z" fill="#324633"/>
<path d="M38.375 28.8759L36.7328 26.9619L36.4175 27.1945L38.0597 29.1076C38.1668 29.031 38.2698 28.9527 38.375 28.8759Z" fill="#324633"/>
<path d="M34.1081 44.8901L28.3517 42.7793C28.3039 42.8925 28.2537 43.0087 28.2026 43.1242L33.9594 45.2318C34.0081 45.1186 34.0592 45.0033 34.1081 44.8901Z" fill="#324633"/>
<path d="M27.2246 42.3632L24.5847 41.3984L24.4365 41.7434L27.0701 42.7085C27.119 42.5952 27.1722 42.4782 27.2246 42.3632Z" fill="#324633"/>
<path d="M23.5309 29.4295C23.5868 29.3626 23.642 29.296 23.6993 29.2275C23.4827 29.0808 23.2719 28.9273 23.0589 28.7773C23.0009 28.8452 22.9448 28.9159 22.8925 28.9794C23.1063 29.1307 23.3186 29.281 23.5309 29.4295Z" fill="#324633"/>
<path d="M46.1531 24.6565C46.2711 24.6134 46.3836 24.5665 46.4977 24.5216C46.3202 24.1319 46.1444 23.7431 45.9679 23.3532C45.5889 22.5132 45.2115 21.677 44.8323 20.8418C44.718 20.8869 44.6002 20.9322 44.4861 20.9789C45.0409 22.2046 45.6 23.4307 46.1531 24.6565Z" fill="#324633"/>
<path d="M49.0033 30.9477C49.118 30.9026 49.2282 30.8541 49.3464 30.8078C48.5526 29.0559 47.7568 27.3023 46.9623 25.5498C46.85 25.5947 46.7372 25.645 46.6216 25.6899C47.4143 27.443 48.2084 29.1974 49.0033 30.9477Z" fill="#324633"/>
<path d="M44.1774 20.2943C44.2923 20.2464 44.4064 20.2014 44.5242 20.1575C44.1615 19.3573 43.7999 18.561 43.4355 17.7627C43.3236 17.806 43.2058 17.8529 43.0928 17.896C43.4552 18.6941 43.8169 19.493 44.1774 20.2943Z" fill="#324633"/>
<path d="M41.3206 13.0858C40.9632 12.3047 40.6113 11.5222 40.261 10.7404C40.2158 10.6476 39.8197 10.6692 39.8707 10.7736C40.2387 11.5922 40.6057 12.4071 40.9758 13.2209C41.0881 13.1776 41.2042 13.1289 41.3206 13.0858Z" fill="#324633"/>
<path d="M41.9041 15.272C42.0188 15.2301 42.1327 15.1818 42.2492 15.1371C42.0399 14.6822 41.8389 14.2252 41.6303 13.7705C41.5145 13.8136 41.3995 13.8605 41.2834 13.9074C41.4903 14.3606 41.6981 14.8187 41.9041 15.272Z" fill="#324633"/>
<path d="M66.5612 10.7487C66.4261 10.7307 66.2996 10.7169 66.1653 10.7021C66.0947 11.1904 66.0232 11.6821 65.9586 12.1723C66.0875 12.1867 66.2218 12.2019 66.3535 12.2171C66.423 11.7266 66.4921 11.2371 66.5612 10.7487Z" fill="#324633"/>
<path d="M64.766 23.4068C64.6371 23.3892 64.5052 23.3714 64.3727 23.3555C64.1041 25.2369 63.8387 27.1197 63.5706 29.0029C63.7049 29.0179 63.8357 29.036 63.9674 29.0548C64.2344 27.1696 64.5017 25.2882 64.766 23.4068Z" fill="#324633"/>
<path d="M66.2487 12.9516C66.1179 12.9366 65.9853 12.921 65.8528 12.9062C65.7878 13.3564 65.722 13.8051 65.6589 14.2547C65.7915 14.2697 65.9243 14.2844 66.0577 14.2992C66.1198 13.8497 66.1848 13.4015 66.2487 12.9516Z" fill="#324633"/>
<path d="M65.0947 21.0754C65.2255 20.1637 65.3561 19.255 65.4849 18.3454C65.3506 18.3264 65.2216 18.3136 65.0899 18.2969C64.9008 19.6134 64.7152 20.9322 64.5305 22.2515C64.6613 22.2635 64.7919 22.2821 64.9256 22.2968C64.9821 21.89 65.0414 21.4832 65.0947 21.0754Z" fill="#324633"/>
<path d="M67.0157 7.53051C67.0301 7.43349 66.6281 7.41513 66.6133 7.52692C66.5009 8.33996 66.3868 9.15162 66.2662 9.96486C66.3992 9.98203 66.5311 9.9968 66.6622 10.0132C66.7819 9.18515 66.9012 8.35653 67.0157 7.53051Z" fill="#324633"/>
<path d="M65.9528 15.0347C65.8239 15.0186 65.6898 15.005 65.5551 14.9902C65.4358 15.8448 65.3126 16.7036 65.1926 17.5611C65.325 17.5767 65.4575 17.5937 65.5901 17.608C65.7085 16.7493 65.8348 15.8931 65.9528 15.0347Z" fill="#324633"/>
<path d="M55.256 22.3264C55.3247 22.3171 55.3949 22.3103 55.4666 22.3003L55.1104 20.042L54.7134 20.0949L55.0665 22.3524C55.1287 22.3436 55.1919 22.335 55.256 22.3264Z" fill="#324633"/>
<path d="M55.2388 23.454L56.1319 29.0923C56.181 29.0823 56.2321 29.0755 56.2808 29.0691C56.3662 29.0554 56.4481 29.0524 56.5326 29.0424L55.6406 23.4023C55.5676 23.4125 55.4969 23.4195 55.4226 23.4259C55.3613 23.4345 55.3031 23.4425 55.2388 23.454Z" fill="#324633"/>
<path d="M43.4354 17.7629C43.3339 17.5309 43.229 17.3043 43.1266 17.0762C43.0149 17.1215 42.8989 17.168 42.7817 17.2133C42.8874 17.4397 42.9895 17.6696 43.0927 17.8962C43.2057 17.8531 43.3235 17.8062 43.4354 17.7629Z" fill="#324633"/>
<path d="M93.165 42.3104C93.1926 42.3701 93.2176 42.4352 93.2433 42.4954C93.6877 42.3254 94.1319 42.1549 94.5767 41.9868C95.4692 41.6437 96.3586 41.3037 97.2509 40.9654C97.2251 40.9003 97.2018 40.8404 97.1714 40.7783C95.8364 41.2871 94.5011 41.7986 93.165 42.3104Z" fill="#324633"/>
<path d="M101.272 39.212C101.299 39.2739 101.322 39.3374 101.348 39.3979C101.807 39.224 102.261 39.0509 102.716 38.8739C102.688 38.8154 102.663 38.7489 102.636 38.6904C102.179 38.8663 101.724 39.0394 101.272 39.212Z" fill="#324633"/>
<path d="M108.019 36.6325C107.219 36.9391 106.418 37.2459 105.619 37.5525C105.642 37.6124 105.668 37.6745 105.696 37.7382C106.562 37.408 107.436 37.0728 108.306 36.7393C108.502 36.6666 108.114 36.5973 108.019 36.6325Z" fill="#324633"/>
<path d="M92.124 42.9222C92.099 42.8601 92.0753 42.7986 92.0475 42.7373C90.1373 43.4647 88.2304 44.1935 86.3198 44.9231C86.3459 44.985 86.3709 45.0483 86.3965 45.1114C88.3069 44.384 90.2134 43.6524 92.124 42.9222Z" fill="#324633"/>
<path d="M103.382 38.4067C103.407 38.469 103.432 38.527 103.461 38.5917C103.958 38.3989 104.454 38.21 104.953 38.0216C104.924 37.9583 104.902 37.8982 104.871 37.835C104.376 38.0264 103.879 38.217 103.382 38.4067Z" fill="#324633"/>
<path d="M97.9169 40.4934C97.9443 40.5557 97.9697 40.6154 98.0008 40.6799C98.8676 40.3457 99.7349 40.0135 100.606 39.682C100.58 39.6191 100.552 39.5584 100.524 39.4951C99.6549 39.8287 98.7863 40.1642 97.9169 40.4934Z" fill="#324633"/>
<path d="M81.3146 29.7977C81.2233 29.7322 81.1379 29.666 81.0501 29.6045C79.794 31.1126 78.5384 32.6169 77.2834 34.1275C77.3738 34.186 77.4588 34.2554 77.5479 34.3159C78.8031 32.8124 80.057 31.3041 81.3146 29.7977Z" fill="#324633"/>
<path d="M89.7509 19.6671C89.6601 19.6 89.5755 19.5401 89.4865 19.4736C89.1598 19.8681 88.8313 20.2615 88.5027 20.6536C88.594 20.7129 88.6844 20.7805 88.7693 20.8418C89.0977 20.45 89.4226 20.0565 89.7509 19.6671Z" fill="#324633"/>
<path d="M86.8881 23.0966C86.8064 23.037 86.7154 22.9705 86.6248 22.9082C86.0537 23.5967 85.4824 24.2806 84.9104 24.9663C85.001 25.0288 85.0882 25.0952 85.1792 25.1571C85.7466 24.4696 86.3223 23.7851 86.8881 23.0966Z" fill="#324633"/>
<path d="M82.9036 27.8892C83.4949 27.173 84.0923 26.4579 84.6888 25.7463C84.5984 25.6828 84.5093 25.6181 84.4206 25.5557C83.5445 26.6115 82.6641 27.6624 81.7847 28.7208C81.8772 28.7839 81.9633 28.8446 82.0504 28.9075C82.3375 28.5693 82.6172 28.2274 82.9036 27.8892Z" fill="#324633"/>
<path d="M91.9373 17.0431C91.9992 16.9631 91.6192 16.9094 91.547 16.9978C91.0226 17.6282 90.4985 18.256 89.9741 18.8864C90.0634 18.9479 90.1519 19.0124 90.2412 19.0778C90.8066 18.3963 91.369 17.7194 91.9373 17.0431Z" fill="#324633"/>
<path d="M94.3248 50.6484L88.1866 51.4667C88.2032 51.5884 88.2177 51.7104 88.2342 51.8334L94.3724 51.0167C94.352 50.8938 94.3424 50.7716 94.3248 50.6484Z" fill="#324633"/>
<path d="M95.5272 50.4865C95.5442 50.6105 95.562 50.7336 95.5752 50.8538L98.0402 50.5266L97.9846 50.1621L95.5272 50.4865Z" fill="#324633"/>
<path d="M82.5493 38.9371C82.6354 39.0323 82.7199 39.1293 82.7984 39.2257L87.6659 35.7042C87.5866 35.6048 87.5014 35.509 87.4195 35.4092L82.5493 38.9371Z" fill="#324633"/>
<path d="M88.6202 35.0074L90.5076 33.6454L90.257 33.3525L88.3757 34.7149C88.4587 34.814 88.5396 34.9126 88.6202 35.0074Z" fill="#324633"/>
<path d="M74.7938 22.4875L74.4163 22.3516L73.5308 24.3933C73.654 24.439 73.7796 24.4897 73.9032 24.536L74.7938 22.4875Z" fill="#324633"/>
<path d="M73.4548 25.573C73.3294 25.5244 73.2029 25.4795 73.0795 25.4326L70.7827 30.7211C70.9057 30.7688 71.0326 30.8126 71.155 30.8589L73.4548 25.573Z" fill="#324633"/>
<path d="M87.3835 22.5077C87.2922 22.4463 87.2051 22.3808 87.1164 22.3213C86.953 22.5155 86.7878 22.7107 86.6246 22.9074C86.7155 22.9697 86.8063 23.0361 86.888 23.0958C87.0549 22.8992 87.2181 22.7044 87.3835 22.5077Z" fill="#324633"/>
<path d="M77.95 94.417C77.8361 94.4601 77.7223 94.5 77.6045 94.5422C77.8131 95.0003 78.0213 95.4566 78.2247 95.9115C78.3403 95.87 78.4605 95.8281 78.5754 95.7832C78.3659 95.3287 78.1578 94.8701 77.95 94.417Z" fill="#324633"/>
<path d="M78.5371 96.5961C78.9376 97.4848 79.3418 98.3701 79.7399 99.2624C79.7849 99.3545 80.1791 99.3313 80.1311 99.2247C79.7143 98.3065 79.2983 97.3862 78.8815 96.4678C78.769 96.5131 78.6532 96.555 78.5371 96.5961Z" fill="#324633"/>
<path d="M73.7042 85.0303C73.5893 85.073 73.4713 85.1151 73.3533 85.16C73.5804 85.6533 73.8072 86.1513 74.0304 86.6484C74.3627 87.3798 74.6926 88.1082 75.0207 88.8398C75.1407 88.7943 75.2545 88.753 75.3695 88.7117C74.8143 87.4864 74.2605 86.2571 73.7042 85.0303Z" fill="#324633"/>
<path d="M70.8572 78.7422C70.739 78.7853 70.6223 78.8236 70.5048 78.8653C71.3016 80.6204 72.0942 82.3731 72.8884 84.1253C73.0047 84.0836 73.1229 84.0483 73.2372 84.0036C72.443 82.2503 71.6463 80.4956 70.8572 78.7422Z" fill="#324633"/>
<path d="M75.6809 89.3945C75.565 89.438 75.447 89.481 75.3306 89.5229C75.6959 90.3214 76.0549 91.1194 76.4176 91.9177C76.534 91.8764 76.6483 91.8327 76.7663 91.7914C76.4032 90.9945 76.0401 90.1928 75.6809 89.3945Z" fill="#324633"/>
<path d="M77.0764 92.4766C76.9582 92.5197 76.8439 92.5598 76.7261 92.6049C76.9162 93.0215 77.1055 93.4397 77.2963 93.8569C77.4123 93.8152 77.5279 93.7749 77.642 93.73C77.4538 93.3126 77.2648 92.892 77.0764 92.4766Z" fill="#324633"/>
<path d="M88.1326 75.032C88.5459 75.3203 88.9542 75.6071 89.3625 75.8956C90.1029 76.4156 90.8394 76.9352 91.5819 77.4538C91.6356 77.3873 91.6925 77.32 91.7462 77.2524C90.5962 76.4469 89.4477 75.6371 88.3012 74.834C88.243 74.8975 88.1908 74.9689 88.1326 75.032Z" fill="#324633"/>
<path d="M92.2186 77.9025C92.9657 78.4271 93.712 78.9529 94.4632 79.4773C94.5189 79.4093 94.5736 79.346 94.6295 79.2775C93.8802 78.7525 93.1365 78.2309 92.3849 77.7041C92.3305 77.7708 92.2745 77.8375 92.2186 77.9025Z" fill="#324633"/>
<path d="M95.1016 79.9299C95.4955 80.2034 95.8847 80.4748 96.275 80.7517C96.3315 80.689 96.3874 80.62 96.4461 80.5533C96.0538 80.2784 95.6622 80.0029 95.2702 79.7305C95.2115 79.7951 95.1572 79.8602 95.1016 79.9299Z" fill="#324633"/>
<path d="M82.2432 70.8931C83.8839 72.0479 85.5267 73.1993 87.1635 74.3531C87.2237 74.2892 87.2782 74.2194 87.3356 74.1547C85.6936 73.0011 84.054 71.8497 82.414 70.6963C82.3577 70.761 82.3018 70.8266 82.2432 70.8931Z" fill="#324633"/>
<path d="M98.8368 82.5519C99.6152 83.102 100.395 83.647 101.174 84.195C101.257 84.2536 101.64 84.2055 101.521 84.1205C100.683 83.5336 99.8455 82.9439 99.0037 82.3555C98.9513 82.4199 98.8948 82.4884 98.8368 82.5519Z" fill="#324633"/>
<path d="M96.916 81.204C97.3424 81.5036 97.7718 81.8036 98.1966 82.1038C98.2564 82.0376 98.309 81.9701 98.3655 81.9054C97.9389 81.6058 97.5101 81.304 97.0862 81.002C97.0297 81.0702 96.9753 81.1375 96.916 81.204Z" fill="#324633"/>
<path d="M95.4692 59.4007C95.9395 59.457 96.4111 59.5133 96.8794 59.5704C97.8418 59.6866 98.8078 59.802 99.7729 59.9165C99.7798 59.8648 99.7911 59.8157 99.7987 59.7616C98.3612 59.5916 96.9276 59.4199 95.4951 59.25C95.4875 59.2999 95.4771 59.3514 95.4692 59.4007Z" fill="#324633"/>
<path d="M106.441 60.7111C106.974 60.778 107.509 60.8398 108.042 60.9045C108.05 60.8516 108.061 60.8031 108.068 60.751C107.534 60.6885 106.999 60.6232 106.464 60.5596C106.459 60.6095 106.451 60.6612 106.441 60.7111Z" fill="#324633"/>
<path d="M100.573 60.0137C101.506 60.1213 102.441 60.2337 103.374 60.3453C103.382 60.2952 103.393 60.2455 103.4 60.1938C102.467 60.0832 101.529 59.9722 100.596 59.8584C100.59 59.9083 100.583 59.962 100.573 60.0137Z" fill="#324633"/>
<path d="M104.177 60.443C104.664 60.5001 105.154 60.5576 105.641 60.6163C105.647 60.5682 105.657 60.5145 105.666 60.465C105.175 60.4063 104.686 60.3466 104.198 60.2881C104.193 60.3398 104.183 60.3895 104.177 60.443Z" fill="#324633"/>
<path d="M108.869 60.8457C108.861 60.8976 108.852 60.9479 108.844 60.9998C109.77 61.1098 110.697 61.2198 111.626 61.333C111.796 61.3527 112.005 61.2212 111.733 61.1895C110.779 61.0749 109.825 60.9611 108.869 60.8457Z" fill="#324633"/>
<path d="M94.2865 59.105C92.2351 58.8616 90.1828 58.6151 88.1362 58.3682C88.129 58.4201 88.1197 58.4714 88.1129 58.5199C90.1622 58.7664 92.2114 59.0111 94.2593 59.2549C94.2682 59.2066 94.2756 59.1553 94.2865 59.105Z" fill="#324633"/>
<path d="M76.8818 75.6386L80.7172 80.1113C80.828 80.0422 80.9349 79.965 81.0405 79.8863L77.2017 75.415C77.0939 75.4903 76.9911 75.5673 76.8818 75.6386Z" fill="#324633"/>
<path d="M81.4719 80.9906L83.2339 83.0439L83.5479 82.8123L81.7914 80.7656C81.686 80.8413 81.5819 80.9143 81.4719 80.9906Z" fill="#324633"/>
<path d="M95.5271 68.2605L93.0635 67.3594C93.0109 67.4726 92.9598 67.5859 92.9083 67.7009L95.3805 68.6072L95.5271 68.2605Z" fill="#324633"/>
<path d="M91.9371 66.9459L86.1786 64.8359C86.1277 64.9493 86.0732 65.0645 86.0193 65.1743L91.7811 67.2893C91.835 67.1777 91.8828 67.0611 91.9371 66.9459Z" fill="#324633"/>
<path d="M26.0326 50.9318C28.0797 51.1779 30.1298 51.423 32.1799 51.6684C32.1853 51.6187 32.1942 51.5686 32.1994 51.5171C30.1532 51.2719 28.101 51.0268 26.0548 50.7803C26.0454 50.8322 26.0363 50.8833 26.0326 50.9318Z" fill="#324633"/>
<path d="M8.37605 48.666C8.20351 48.6467 7.99163 48.7764 8.26501 48.8115C9.32852 48.9365 10.392 49.0649 11.4551 49.1928C11.4603 49.1419 11.4682 49.0914 11.4734 49.0395C10.4442 48.9161 9.40849 48.7896 8.37605 48.666Z" fill="#324633"/>
<path d="M24.8482 50.6371C24.2713 50.5664 23.6961 50.5002 23.1187 50.4337C22.2629 50.3285 21.4045 50.2249 20.5446 50.1221C20.5375 50.1754 20.5299 50.2249 20.5205 50.2766C21.9598 50.4465 23.3929 50.6185 24.8263 50.7912C24.8339 50.7387 24.8406 50.6886 24.8482 50.6371Z" fill="#324633"/>
<path d="M14.6575 49.5736C15.1451 49.6343 15.633 49.6936 16.1237 49.7505C16.1302 49.7005 16.1356 49.6486 16.1428 49.5973C15.6551 49.5395 15.1668 49.479 14.6792 49.4219C14.6696 49.4722 14.6649 49.5241 14.6575 49.5736Z" fill="#324633"/>
<path d="M16.9202 49.8459C17.8574 49.9589 18.7908 50.0684 19.7224 50.1798C19.73 50.1303 19.7374 50.0782 19.7482 50.0289C18.8121 49.9149 17.8763 49.8049 16.9417 49.6934C16.9362 49.7439 16.9284 49.7952 16.9202 49.8459Z" fill="#324633"/>
<path d="M15.5894 71.7732C15.6152 71.8343 15.6417 71.8964 15.6713 71.9578C16.1681 71.768 16.6657 71.578 17.1646 71.3863C17.1355 71.3266 17.1081 71.2644 17.0773 71.2051C16.5788 71.3951 16.0833 71.5864 15.5894 71.7732Z" fill="#324633"/>
<path d="M34.1369 64.6846C32.2302 65.4128 30.3201 66.1428 28.411 66.8728C28.4403 66.9343 28.471 66.9928 28.4982 67.0562C30.4092 66.326 32.3174 65.596 34.228 64.8664C34.1954 64.8057 34.1647 64.7445 34.1369 64.6846Z" fill="#324633"/>
<path d="M11.6927 73.2603C11.4986 73.3342 11.885 73.402 11.9815 73.3673C12.9642 72.9924 13.9449 72.6158 14.9295 72.2427C14.8987 72.1772 14.8708 72.1207 14.8422 72.0576C13.7915 72.4573 12.7429 72.8589 11.6927 73.2603Z" fill="#324633"/>
<path d="M17.8213 70.9193C17.8504 70.98 17.8795 71.0413 17.9084 71.1007C18.3624 70.9281 18.8172 70.754 19.2725 70.5795C19.2458 70.5196 19.2171 70.4592 19.1895 70.3965C18.7318 70.5714 18.277 70.7444 17.8213 70.9193Z" fill="#324633"/>
<path d="M19.9312 70.1119C19.9624 70.174 19.9909 70.2339 20.0183 70.2954C20.8854 69.9656 21.7603 69.6305 22.6295 69.2969C22.5989 69.2372 22.5676 69.1765 22.5404 69.1152C21.6714 69.4474 20.8004 69.779 19.9312 70.1119Z" fill="#324633"/>
<path d="M27.2935 67.2979C26.6696 67.5396 26.0451 67.7781 25.4251 68.0149C24.7116 68.2848 23.9989 68.5592 23.2856 68.8317C23.3135 68.8914 23.3441 68.9529 23.3713 69.0144C24.7049 68.5044 26.0453 67.9927 27.3809 67.4831C27.35 67.4198 27.3224 67.3615 27.2935 67.2979Z" fill="#324633"/>
<path d="M39.1053 79.697C39.1953 79.7604 39.2825 79.8305 39.3696 79.8902C40.627 78.3823 41.8806 76.8737 43.1384 75.3692C43.0458 75.3075 42.96 75.2403 42.8713 75.1758C41.6135 76.6819 40.3618 78.1888 39.1053 79.697Z" fill="#324633"/>
<path d="M30.6699 89.8281C30.7592 89.8932 30.8475 89.9553 30.9366 90.018C31.2632 89.6251 31.5874 89.2335 31.9164 88.84C31.8278 88.7765 31.7406 88.7166 31.6515 88.6514C31.3253 89.0434 30.9952 89.4371 30.6699 89.8281Z" fill="#324633"/>
<path d="M28.0612 92.9598C27.9993 93.0362 28.3785 93.0903 28.4528 93.0009C29.1185 92.2046 29.781 91.4025 30.4469 90.6064C30.3582 90.5464 30.2711 90.4813 30.1787 90.416C29.4744 91.2662 28.7666 92.1132 28.0612 92.9598Z" fill="#324633"/>
<path d="M33.5293 86.3966C33.6188 86.4601 33.7038 86.5219 33.7975 86.5884C34.3675 85.9017 34.9392 85.2122 35.5127 84.5254C35.4199 84.4633 35.331 84.4002 35.2437 84.3369C34.6728 85.025 34.1023 85.7103 33.5293 86.3966Z" fill="#324633"/>
<path d="M37.0961 82.1129C36.6434 82.6574 36.189 83.204 35.7338 83.7474C35.8211 83.8122 35.9098 83.8767 36.0006 83.9374C36.8807 82.882 37.7571 81.8276 38.6351 80.7746C38.5477 80.7109 38.4584 80.6495 38.368 80.584C37.9414 81.094 37.5216 81.6008 37.0961 82.1129Z" fill="#324633"/>
<path d="M53.8298 96.4903C53.9617 96.5019 54.0947 96.5184 54.2256 96.5354C54.2923 96.0867 54.3562 95.6385 54.4192 95.1852C54.2849 95.1702 54.1521 95.1588 54.0224 95.1387C53.9587 95.588 53.8948 96.0388 53.8298 96.4903Z" fill="#324633"/>
<path d="M53.5198 98.6929C53.6499 98.7095 53.7825 98.7227 53.9153 98.7398C53.9846 98.2496 54.0535 97.7595 54.1259 97.266C53.9894 97.2531 53.8557 97.2393 53.7277 97.2197C53.6576 97.7096 53.5845 98.2029 53.5198 98.6929Z" fill="#324633"/>
<path d="M55.3125 86.0302C55.4418 86.048 55.577 86.0654 55.7056 86.0809C55.9742 84.1965 56.2411 82.3163 56.5077 80.4367C56.3749 80.4163 56.2426 80.3984 56.1098 80.3828C55.8453 82.2664 55.577 84.147 55.3125 86.0302Z" fill="#324633"/>
<path d="M52.9844 102.471C52.9679 102.565 53.3725 102.587 53.3871 102.473C53.5268 101.473 53.6683 100.477 53.8121 99.4733C53.6774 99.4595 53.5448 99.4468 53.4123 99.4248C53.2688 100.443 53.1278 101.456 52.9844 102.471Z" fill="#324633"/>
<path d="M54.1255 94.4032C54.2574 94.4219 54.39 94.4351 54.5221 94.4503C54.6444 93.5951 54.7637 92.7352 54.8854 91.88C54.7513 91.865 54.6205 91.8468 54.4897 91.8301C54.3663 92.687 54.2448 93.545 54.1255 94.4032Z" fill="#324633"/>
<path d="M54.8988 88.9246C54.7987 89.648 54.6967 90.371 54.5916 91.0959C54.7243 91.1126 54.856 91.1292 54.991 91.1446C55.1774 89.8261 55.3626 88.5096 55.5495 87.1913C55.4175 87.1749 55.2846 87.1596 55.1529 87.1416C55.0685 87.7365 54.9842 88.3295 54.8988 88.9246Z" fill="#324633"/>
<path d="M24.942 59.4525C24.9331 59.3946 24.9209 59.3395 24.9116 59.2814C24.902 59.2178 24.8955 59.1495 24.8857 59.083L21.9236 59.4791L21.9829 59.8442L24.942 59.4525Z" fill="#324633"/>
<path d="M26.0874 58.9239C26.0941 58.9928 26.0998 59.0598 26.1111 59.1261C26.1193 59.183 26.1343 59.2379 26.1433 59.2926L32.2777 58.4728C32.2699 58.4282 32.259 58.3829 32.2542 58.3382C32.2414 58.2598 32.2353 58.1829 32.2232 58.1064L26.0874 58.9239Z" fill="#324633"/>
<path d="M37.9618 70.6754C37.8782 70.579 37.7915 70.4842 37.7097 70.3838L32.8435 73.9087C32.9274 74.0055 33.0074 74.1039 33.0902 74.1987L37.9618 70.6754Z" fill="#324633"/>
<path d="M29.7107 76.6511L32.1363 74.8954C32.0505 74.794 31.9725 74.6994 31.8873 74.6006L29.4586 76.3604L29.7107 76.6511Z" fill="#324633"/>
<path d="M45.1718 87.5204L45.549 87.6531L46.6942 85.0187C46.571 84.9704 46.4437 84.9237 46.3202 84.874L45.1718 87.5204Z" fill="#324633"/>
<path d="M49.067 78.5518L46.772 83.8381C46.8954 83.8884 47.0208 83.9333 47.144 83.9802L49.439 78.6939C49.3154 78.6438 49.1922 78.6037 49.067 78.5518Z" fill="#324633"/>
<path d="M64.4248 87.2391L64.8553 89.9637L65.2545 89.91L64.8247 87.1904C64.6919 87.2076 64.5576 87.2224 64.4248 87.2391Z" fill="#324633"/>
<path d="M63.7608 80.4473C63.6269 80.4626 63.4963 80.4754 63.3624 80.4888L64.2525 86.1272C64.3853 86.1155 64.5174 86.1001 64.6539 86.0871L63.7608 80.4473Z" fill="#324633"/>
<path d="M33.0393 86.9846C33.128 87.048 33.2136 87.1095 33.3059 87.1752C33.4678 86.9768 33.6297 86.7814 33.7975 86.5883C33.7038 86.5218 33.6189 86.46 33.5293 86.3965C33.3664 86.5917 33.2012 86.7865 33.0393 86.9846Z" fill="#324633"/>
<path d="M12.2763 49.1339C12.0081 49.1055 11.7413 49.0724 11.4733 49.04C11.4679 49.0919 11.4601 49.1424 11.4551 49.1933C11.7215 49.2253 11.9899 49.2572 12.255 49.2874C12.2624 49.2351 12.2711 49.185 12.2763 49.1339Z" fill="#324633"/>
</g>
<path d="M15.5141 71.7181C14.9437 71.7917 14.4747 71.6975 14.1072 71.4358C13.9995 71.3426 13.8728 71.1623 13.7289 70.8945C13.585 70.6268 13.5492 70.2293 13.6233 69.7003C13.6957 69.1715 13.9686 68.4928 14.4402 67.6622C14.91 66.832 15.7247 65.8243 16.8827 64.6362C17.6781 63.8173 18.6351 62.933 19.7562 61.9842C20.8771 61.0339 22.0519 60.1228 23.2823 59.2463C24.2189 59.8777 24.8496 60.4863 25.172 61.0692C25.4963 61.6537 25.5943 62.2587 25.4676 62.8825C25.3392 63.5081 25.0212 64.1669 24.5151 64.8588C24.0073 65.5506 23.4105 66.316 22.7232 67.1554C22.2905 67.6772 21.6838 68.2559 20.9062 68.8945C20.1287 69.5314 19.3149 70.0922 18.4663 70.5777C17.6179 71.0633 16.7956 71.4111 16.0018 71.6207C15.832 71.6656 15.6693 71.6979 15.5141 71.7181ZM25.3991 56.3971L25.3452 56.3506C25.4172 56.3131 25.4632 56.2929 25.4834 56.2903C25.5137 56.2863 25.4858 56.3216 25.3991 56.3971ZM28.7757 43.5314C28.7053 43.5406 28.6349 43.5508 28.5647 43.5618C27.9866 43.6554 27.4992 43.7995 27.102 43.9922C25.4765 44.8473 24.0753 45.8514 22.9001 47.0038C21.7246 48.158 20.7563 49.4288 19.9966 50.814C19.8149 51.1256 19.5893 51.5739 19.3168 52.163C19.0441 52.7539 18.8809 53.3926 18.8257 54.0795C18.7703 54.7664 18.9133 55.4641 19.2547 56.1705C19.5961 56.8788 20.2893 57.5054 21.3359 58.0484L22.3092 58.6215C20.6081 59.8797 19.1456 61.0692 17.9165 62.194C16.6856 63.3193 15.4211 64.7352 14.1177 66.4425C13.7198 66.9943 13.3932 67.5644 13.1396 68.1527C12.8862 68.7394 12.7214 69.3057 12.6489 69.8516C12.5748 70.3978 12.5389 70.9495 12.5376 71.5035C12.5365 72.0592 12.6713 72.5423 12.9401 72.9545C13.2108 73.3663 13.6505 73.66 14.2644 73.8308C14.6549 73.9394 15.1547 73.9546 15.764 73.8758C16.1128 73.8307 16.4979 73.755 16.9186 73.6486C18.9767 73.0965 20.8912 72.1694 22.6619 70.8677C24.4328 69.5658 26.0056 67.986 27.3825 66.1259C28.6129 64.428 29.1295 62.8051 28.9359 61.2546C28.7388 59.7064 27.9395 58.3069 26.5341 57.0562C26.5707 57.0515 26.5883 57.0405 26.5883 57.0217C26.5883 57.0043 26.6248 56.991 26.698 56.9816C26.841 56.8906 27.1213 56.7389 27.5379 56.5247C27.9523 56.3089 28.4035 56.1695 28.8909 56.1067C29.3783 56.0438 29.8568 56.1164 30.3262 56.325C30.7939 56.532 31.1374 57.0175 31.3517 57.7767C31.3615 57.8266 31.3819 57.8497 31.4128 57.8457C31.4899 57.8358 31.6329 57.6571 31.8398 57.3098C32.1297 56.8257 32.2927 56.2765 32.3305 55.6627C32.3663 55.0507 32.1797 54.5209 31.7646 54.0723C31.4241 53.704 30.7702 53.5823 29.8025 53.7072C29.5956 53.734 29.3744 53.7719 29.139 53.8212C28.742 53.9087 28.1551 54.1811 27.378 54.6387C26.6009 55.0978 25.7977 55.612 24.9662 56.1853L24.2083 55.7463C23.3792 55.2806 22.8668 54.6927 22.6699 53.9849C22.473 53.2771 22.6625 52.4744 23.2421 51.5765C24.0031 50.4051 24.7989 49.4068 25.6306 48.5834C26.4624 47.7616 27.2487 47.1046 27.991 46.6154C28.7299 46.1265 29.3813 45.8181 29.942 45.6923C30.0544 45.6672 30.1589 45.6482 30.2558 45.6356C30.6415 45.5859 30.9062 45.637 31.0505 45.7907C31.1598 45.9197 31.149 46.2077 31.0227 46.6535C30.8947 47.0996 30.7041 47.5885 30.4505 48.1233C30.1971 48.6563 29.8985 49.2056 29.5545 49.7675C29.2088 50.3317 28.8928 50.7744 28.6032 51.0982C28.0451 51.7222 27.567 52.0606 27.1689 52.1121C27.1028 52.1207 27.0392 52.1213 26.9775 52.1139C26.5441 52.063 26.2925 51.7727 26.2221 51.2451C25.9307 51.6036 25.8498 52.0264 25.9759 52.5105C26.1002 52.9966 26.4144 53.2787 26.921 53.3547C27.248 53.398 27.5712 53.3992 27.8904 53.3579C28.24 53.3128 28.5849 53.2168 28.9248 53.0702C29.5745 52.7898 30.153 52.3838 30.6604 51.8522C31.1296 51.3619 31.5553 50.8066 31.9361 50.1846C32.315 49.5645 32.6138 48.9254 32.8327 48.271C33.0498 47.6166 33.178 46.9908 33.2158 46.396C33.2519 45.8013 33.1641 45.3019 32.9474 44.9018C32.7325 44.5 32.3815 44.1776 31.8948 43.9369C31.408 43.6961 30.8741 43.5494 30.298 43.4995C29.7908 43.455 29.2833 43.466 28.7757 43.5314Z" fill="#324633"/>
<path d="M33.8604 54.5752C33.7922 54.584 33.725 54.5944 33.6587 54.6061C33.3158 54.6694 33.0633 54.7469 32.8995 54.8387C32.7374 54.9321 32.746 55.0018 32.9268 55.0491C33.1789 55.1254 33.1783 55.5102 32.9245 56.2037C32.6706 56.899 32.3262 57.7493 31.8907 58.7528C31.4554 59.7581 30.9919 60.8375 30.5023 61.9913C30.0127 63.1467 29.6591 64.2034 29.4414 65.1616C29.4032 65.9551 29.5201 66.6284 29.7889 67.1838C30.0592 67.7391 30.4097 68.1511 30.8428 68.416C31.2757 68.6827 31.7523 68.8092 32.276 68.7951C32.3681 68.7925 32.459 68.7855 32.5485 68.7741C32.9671 68.72 33.3552 68.5669 33.7126 68.3146C34.3261 67.9128 34.9048 67.3738 35.4474 66.6947C35.4822 66.7264 35.51 66.7402 35.5291 66.7376C35.5465 66.7354 35.5726 66.751 35.6091 66.7809C35.6087 66.9965 35.6448 67.2059 35.7175 67.4105C35.8247 67.7193 36.014 67.9277 36.2836 68.0363C36.5551 68.1445 36.8699 68.1936 37.232 68.1814C37.3213 68.1792 37.4104 68.1725 37.5001 68.1609C38.0975 68.0838 38.7043 67.7954 39.3169 67.2961C39.8356 66.8741 40.3289 66.407 40.7985 65.8944C40.8091 65.8321 40.8215 65.7686 40.8356 65.7042C40.9465 65.2095 41.1173 64.721 41.3492 64.239C41.0873 64.5747 40.8174 64.9235 40.5388 65.2854C40.0903 65.8713 39.7778 66.1755 39.6018 66.1982C39.5505 66.2048 39.5109 66.1876 39.4827 66.1465C39.356 65.9679 39.4018 65.6117 39.6204 65.0832C39.8373 64.5893 40.1902 63.8553 40.6796 62.8796C41.1688 61.9036 41.6495 60.8838 42.1215 59.8222C42.592 58.759 42.7465 57.9971 42.5857 57.5348C42.4246 57.0724 42.1278 56.788 41.6947 56.6836C41.435 56.6199 41.1527 56.6081 40.8474 56.6474C40.6435 56.6738 40.4293 56.7229 40.2046 56.7948C39.6439 56.974 39.1841 57.194 38.8234 57.4563C39.0754 57.5308 39.1917 57.7573 39.1734 58.1356C39.1535 58.5145 39.0552 58.9652 38.8731 59.4892C38.6912 60.0148 38.4654 60.5805 38.1927 61.1868C37.9217 61.7946 37.6768 62.3458 37.4584 62.8396C37.0236 63.612 36.5888 64.3288 36.1559 64.9939C35.7212 65.6591 35.3216 66.1385 34.9609 66.4354C34.7079 66.7562 34.3993 67.0272 34.0386 67.2532C33.71 67.459 33.4178 67.5772 33.1646 67.6099C33.1398 67.6131 33.1153 67.6155 33.0914 67.6171C32.8199 67.6349 32.6215 67.5259 32.4968 67.2901C32.3701 67.058 32.3973 66.625 32.5794 65.9924C32.5794 65.92 32.6426 65.6443 32.7708 65.1618C32.8986 64.6813 32.9968 64.346 33.0703 64.1569C33.5775 62.9476 34.1123 61.7673 34.6751 60.6215C35.236 59.4759 35.7708 58.2973 36.2797 57.086C36.5336 56.4458 36.5972 55.946 36.4725 55.5859C36.3462 55.226 36.1291 54.9676 35.8232 54.8103C35.5172 54.6532 35.1658 54.5656 34.7692 54.5445C34.4476 54.5285 34.1453 54.5385 33.8604 54.5752Z" fill="#324633"/>
<path d="M60.3579 51.0612C60.0371 51.1025 59.6673 51.2996 59.2452 51.6511C58.7398 52.0751 58.1972 52.6456 57.618 53.3638C57.0389 54.0841 56.4506 54.8845 55.8537 55.7657C55.2567 56.6484 54.6945 57.5269 54.1706 58.3984C53.6451 59.272 53.1927 60.0828 52.8118 60.829C52.4308 61.5752 52.1494 62.1585 51.9695 62.5751C51.8226 62.9166 51.6148 63.3007 51.3443 63.7289C51.0718 64.1593 50.8364 64.4657 50.6376 64.6517C50.548 64.7361 50.4772 64.7817 50.4246 64.7884C50.3603 64.7968 50.3233 64.7471 50.314 64.6401C50.2953 64.4459 50.4511 63.8977 50.7766 62.9965C50.9218 62.5843 51.1387 62.1008 51.4288 61.544C51.7187 60.9889 52.0366 60.4286 52.3806 59.8646C52.7246 59.3027 53.0686 58.7476 53.4124 58.201C53.7564 57.6562 54.0374 57.2075 54.2541 56.8586C54.5805 56.3507 54.806 55.8212 54.9342 55.268C55.0607 54.7151 55.0618 54.2042 54.9375 53.7371C54.8112 53.2704 54.5598 52.8836 54.1828 52.5731C53.804 52.2649 53.2892 52.0985 52.6401 52.0753C52.6227 52.0741 52.6042 52.0747 52.5849 52.0773C52.4026 52.1008 52.1316 52.2895 51.7724 52.6428C51.3747 53.0341 50.9038 53.5609 50.3614 54.221C49.8187 54.8811 49.2498 55.6515 48.6511 56.5348C48.0542 57.4175 47.5022 58.3395 46.9939 59.2989C47.2475 58.6933 47.4659 58.1649 47.6478 57.7115C47.8282 57.2586 47.9557 56.9386 48.0292 56.7496C48.2461 56.2575 48.2817 55.8231 48.1398 55.4465C47.9962 55.0716 47.7426 54.7731 47.3829 54.5522C47.023 54.3294 46.5795 54.1986 46.0575 54.1589C45.8326 54.142 45.6031 54.1487 45.3682 54.1791C45.0564 54.2192 44.7354 54.3015 44.4055 54.4258C44.5496 54.5867 44.5855 54.9304 44.5111 55.4594C44.4388 55.988 44.2932 56.6057 44.0741 57.3137C43.857 58.0216 43.6119 58.752 43.3405 59.5013C43.0676 60.2527 42.8224 60.9192 42.6056 61.5027C42.3867 62.085 42.2155 62.5194 42.0879 62.8032C42.0566 62.8739 42.0327 62.9288 42.0156 62.9679C41.901 63.1765 41.7165 63.5245 41.4623 64.0125C41.4232 64.0874 41.3854 64.1626 41.3493 64.2379C41.1174 64.72 40.9466 65.2084 40.8358 65.7031C40.8216 65.7676 40.8093 65.8311 40.7986 65.8933C40.7149 66.384 40.7441 66.809 40.8886 67.1715C41.0266 67.5216 41.4095 67.6566 42.0382 67.5753C42.1438 67.5618 42.2563 67.542 42.3759 67.5162C42.8824 67.4162 43.4248 66.8908 44.0026 65.9379C44.5824 64.9865 45.18 63.774 45.7974 62.2984C46.5936 60.9067 47.4092 59.5936 48.2417 58.3595C49.0745 57.1237 49.7898 56.1202 50.3868 55.3443C50.9835 54.5703 51.4092 54.0769 51.662 53.8649C51.7193 53.8166 51.7611 53.7908 51.7867 53.7876C51.8741 53.7762 51.778 54.0242 51.4988 54.5296C51.0987 55.2973 50.7284 55.9904 50.3844 56.6059C50.0384 57.2233 49.651 57.8826 49.2161 58.5821C48.5284 59.7095 48.0283 60.7128 47.7204 61.5929C47.4125 62.4747 47.249 63.2378 47.2284 63.884C47.2097 64.5317 47.299 65.0482 47.4968 65.4334C47.6943 65.8203 47.9375 66.0666 48.2263 66.1708C48.7115 66.3686 49.1614 66.4409 49.5758 66.3874C50.2999 66.294 50.9155 65.8163 51.4221 64.9541C51.8202 64.2575 52.1294 63.681 52.3463 63.2232C52.5647 62.7655 52.7448 62.385 52.8898 62.0798C53.6154 60.4126 54.4399 58.8827 55.3632 57.4936C56.2868 56.1044 57.1191 54.9859 57.8603 54.138C58.6018 53.2918 59.144 52.7833 59.4871 52.6131C59.5382 52.5879 59.5812 52.5729 59.616 52.5684C59.8139 52.5428 59.7442 52.8574 59.4054 53.5088C59.0053 54.2765 58.6348 54.9696 58.2908 55.5852C57.9468 56.2024 57.5572 56.862 57.1226 57.5614C56.4345 58.6889 55.9347 59.7007 55.6266 60.5998C55.3184 61.4989 55.155 62.2792 55.1346 62.9444C55.1159 63.6093 55.2052 64.1517 55.4028 64.5731C55.6003 64.9962 55.8435 65.2597 56.1321 65.3657C56.6303 65.5757 57.2036 65.6396 57.8521 65.556C58.0479 65.5306 58.2508 65.4919 58.4605 65.4396C59.3433 65.2208 60.0363 64.8034 60.5415 64.1872C60.5019 63.9111 60.5146 63.6059 60.5791 63.2707C60.4722 63.4308 60.3535 63.6039 60.2234 63.7901C59.8778 64.2834 59.4906 64.5922 59.0573 64.719C58.5509 64.6427 58.2904 64.3986 58.2739 63.9884C58.2556 63.5802 58.3925 62.9791 58.6831 62.1912C58.8282 61.779 59.0451 61.2851 59.3367 60.7108C59.6251 60.1371 59.943 59.5508 60.287 58.9508C60.631 58.3525 60.975 57.7714 61.319 57.2077C61.663 56.644 61.944 56.1867 62.1605 55.8377C62.4871 55.3299 62.7124 54.8089 62.8406 54.2729C62.9686 53.7387 62.9697 53.2367 62.8437 52.7698C62.7174 52.3029 62.466 51.9162 62.089 51.6058C61.7102 51.2976 61.1954 51.1137 60.5465 51.0544C60.4857 51.0508 60.4226 51.0528 60.3579 51.0612Z" fill="#324633"/>
<path d="M80.1242 48.5093C79.8035 48.5507 79.4334 48.7475 79.0114 49.0992C78.5059 49.5232 77.9635 50.0937 77.3842 50.812C76.805 51.532 76.2168 52.3327 75.62 53.2138C75.0231 54.0967 74.4609 54.975 73.937 55.8465C73.4113 56.7203 72.9591 57.5309 72.5781 58.2773C72.1972 59.0235 71.916 59.6068 71.7358 60.0234C71.5889 60.3649 71.3809 60.749 71.1104 61.1774C70.8381 61.6078 70.6025 61.9142 70.4037 62.1002C70.3144 62.1847 70.2433 62.2302 70.1907 62.237C70.1264 62.2453 70.0895 62.1956 70.0801 62.0884C70.0614 61.8942 70.2175 61.3461 70.5428 60.4448C70.6879 60.0328 70.9048 59.5491 71.1949 58.9923C71.485 58.4372 71.8027 57.8769 72.1467 57.3132C72.4907 56.7512 72.8348 56.1961 73.1788 55.6495C73.5225 55.1048 73.8037 54.656 74.0202 54.3071C74.3468 53.7993 74.5722 53.2697 74.7004 52.7165C74.8286 52.1634 74.8297 51.6525 74.7034 51.1856C74.5772 50.7189 74.3257 50.3321 73.9487 50.0217C73.5699 49.7134 73.0551 49.547 72.406 49.5236C72.3884 49.5224 72.3699 49.5232 72.3506 49.5256C72.1683 49.5492 71.8973 49.7376 71.5381 50.0911C71.1404 50.4824 70.6695 51.0092 70.1268 51.6691C69.5842 52.3295 69.0155 53.0998 68.4166 53.9829C67.8197 54.8658 67.2679 55.7877 66.7596 56.747C67.0132 56.1416 67.2318 55.613 67.4137 55.1599C67.5939 54.7069 67.7216 54.3867 67.7949 54.1979C68.0118 53.7058 68.0474 53.2715 67.9055 52.8948C67.7619 52.5199 67.5083 52.2213 67.1486 52.0005C66.7887 51.7777 66.3454 51.647 65.8232 51.6072C65.5983 51.5905 65.3686 51.5971 65.1341 51.6274C64.8221 51.6677 64.5011 51.7498 64.1712 51.8741C64.3153 52.035 64.3512 52.379 64.2771 52.9078C64.2047 53.4365 64.0591 54.054 63.8418 54.762C63.6227 55.4701 63.3776 56.2005 63.1064 56.9498C62.8335 57.7012 62.5883 58.3677 62.3715 58.9512C62.1529 59.5333 61.9812 59.9679 61.8536 60.2518C61.8223 60.3224 61.7984 60.3773 61.7815 60.4164C61.6669 60.625 61.4824 60.973 61.2282 61.461C60.94 62.016 60.7299 62.5797 60.6034 63.1516C60.5943 63.1919 60.5863 63.2319 60.5787 63.2714C60.5141 63.6066 60.5015 63.9116 60.5411 64.1878C60.5628 64.3408 60.6006 64.4849 60.6545 64.6202C60.7925 64.9703 61.1756 65.1053 61.8041 65.024C61.9097 65.0105 62.0222 64.9907 62.1418 64.9648C62.6483 64.865 63.1907 64.3394 63.7686 63.3864C64.3481 62.435 64.9459 61.2225 65.5633 59.7469C66.3595 58.3552 67.1751 57.0423 68.0076 55.808C68.8404 54.572 69.556 53.5687 70.1525 52.7928C70.7492 52.0187 71.1749 51.5254 71.4277 51.3134C71.4853 51.2651 71.5268 51.2393 71.5524 51.2361C71.6398 51.2248 71.5439 51.4727 71.2645 51.9779C70.8644 52.7457 70.4941 53.4387 70.1499 54.0544C69.8059 54.6716 69.4165 55.3311 68.9816 56.0306C68.2936 57.158 67.794 58.1613 67.4859 59.0413C67.1779 59.9232 67.0145 60.6861 66.9939 61.3325C66.9752 61.9803 67.0647 62.4967 67.2623 62.8817C67.4598 63.2686 67.703 63.5149 67.9918 63.6193C68.4772 63.8172 68.9271 63.8894 69.3413 63.8359C70.0653 63.7425 70.6812 63.2648 71.1875 62.4026C71.5857 61.7058 71.8949 61.1293 72.1118 60.6717C72.3302 60.214 72.5101 59.8335 72.6553 59.5283C73.3809 57.8611 74.2053 56.3312 75.1289 54.9421C76.0523 53.5529 76.8846 52.4343 77.626 51.5865C78.3673 50.7401 78.9097 50.2319 79.2528 50.0616C79.3039 50.0362 79.3469 50.0213 79.3815 50.0169C79.5796 49.9913 79.5097 50.3059 79.1709 50.9575C78.7708 51.7252 78.4005 52.4183 78.0563 53.0339C77.7121 53.6511 77.3229 54.3105 76.888 55.0101C76.2 56.1376 75.702 57.1493 75.394 58.0483C75.0841 58.9474 74.9207 59.728 74.902 60.3929C74.8814 61.0582 74.9709 61.6004 75.1685 62.022C75.366 62.445 75.6092 62.7087 75.8977 62.8147C76.3958 63.0247 76.9691 63.0885 77.6178 63.0047C77.8138 62.9795 78.0165 62.9406 78.2262 62.8883C79.1281 62.6649 79.8322 62.2342 80.3398 61.5956C80.6295 61.2373 80.9559 60.7207 81.3175 60.0477C81.457 59.788 81.5939 59.5263 81.7282 59.262C81.7143 59.1437 81.7047 59.0221 81.6993 58.8977C81.6876 58.636 81.6923 58.3663 81.7132 58.0887C81.4048 58.77 81.0921 59.4197 80.7764 60.0366C80.5947 60.3482 80.3328 60.7478 79.9891 61.2391C79.6453 61.7319 79.2565 62.0411 78.823 62.1677C78.3166 62.0916 78.0563 61.8473 78.0396 61.4371C78.0213 61.0287 78.1582 60.4278 78.4488 59.6399C78.5939 59.2277 78.8108 58.7338 79.1026 58.1595C79.391 57.5858 79.7089 56.9996 80.0529 56.3995C80.3969 55.8012 80.7409 55.2201 81.0849 54.6564C81.429 54.0927 81.7102 53.6354 81.9264 53.2864C82.253 52.7784 82.4786 52.2576 82.6066 51.7216C82.7348 51.1874 82.7359 50.6852 82.6096 50.2185C82.4836 49.7516 82.2319 49.3649 81.8549 49.0545C81.4761 48.7463 80.9613 48.5624 80.3122 48.503C80.2518 48.499 80.189 48.501 80.1242 48.5093Z" fill="#324633"/>
<path d="M93.9533 53.6939C93.9214 53.7523 93.8897 53.8108 93.8577 53.8697C93.8897 53.8112 93.9216 53.7525 93.9533 53.6939ZM87.0492 55.805C86.6321 55.8589 86.2047 55.7304 85.7664 55.4204C85.9465 55.0038 86.2103 54.5227 86.5544 53.9763C86.8984 53.4316 87.2684 52.892 87.6678 52.3574C88.0657 51.8228 88.455 51.3154 88.8352 50.8385C89.214 50.36 89.5315 49.9789 89.7842 49.6945C90.226 49.2018 90.5355 48.9441 90.7137 48.921C90.7691 48.9138 90.8119 48.9295 90.8419 48.9677C90.9668 49.131 91.0114 49.448 90.9758 49.9167C90.9751 50.2049 90.8278 50.7503 90.539 51.5571C90.2467 52.3642 89.8675 53.1293 89.3963 53.851C88.9265 54.5742 88.3739 55.1373 87.743 55.5413C87.5149 55.6869 87.2836 55.7749 87.0492 55.805ZM90.4677 47.2172C90.4316 47.222 90.3951 47.2268 90.3584 47.2324C89.3296 47.3841 88.1642 47.9538 86.8623 48.9451C86.1389 49.5043 85.4519 50.1917 84.8011 51.009C84.1502 51.828 83.5881 52.6874 83.1182 53.5883C82.6467 54.4911 82.2846 55.4058 82.0284 56.3326C81.8604 56.9504 81.755 57.5357 81.7135 58.0887C81.6927 58.3666 81.6879 58.6362 81.6996 58.8977C81.7051 59.0221 81.7148 59.1437 81.7285 59.262C81.8013 59.8892 81.9887 60.431 82.2907 60.8883C82.6517 61.4319 83.2269 61.7786 84.0203 61.9264C84.4395 62.0108 84.8654 62.025 85.2976 61.9691C85.7586 61.9096 86.2264 61.7707 86.701 61.5527C87.6224 61.1301 88.5254 60.5216 89.4126 59.7274C90.2984 58.9333 91.1303 58.0028 91.9087 56.9361C92.5308 56.0835 93.1004 55.2036 93.6191 54.2961C93.4898 54.4967 93.3755 54.6031 93.2771 54.6159C93.2643 54.6175 93.2519 54.6177 93.2397 54.6163C93.0954 54.6003 93.1691 54.2871 93.4572 53.6771C93.5461 53.4561 93.6476 53.2226 93.7621 52.9768C93.7341 53.016 93.7054 53.0605 93.6758 53.1104C92.9511 54.3859 92.101 55.6136 91.1242 56.7957C90.1471 57.9779 89.216 58.9021 88.3306 59.5721C87.6255 60.1046 87.0079 60.4045 86.4766 60.4731C86.3392 60.4909 86.2077 60.4933 86.0819 60.4801C85.4678 60.4162 85.1436 59.7783 85.1112 58.5642C85.0393 58.0731 85.0662 57.5968 85.1942 57.1317C85.3222 56.6684 85.4937 56.1889 85.7123 55.6966C86.2021 56.4267 86.8395 56.7408 87.6216 56.6398C87.7565 56.6225 87.8958 56.5927 88.0392 56.5506C89.0143 56.2626 89.9711 55.5938 90.9112 54.5422C91.4901 53.8947 91.9702 53.2238 92.3509 52.5309C92.7316 51.838 93.0028 51.1681 93.1678 50.5205C93.3307 49.8731 93.3773 49.2943 93.3051 48.7842C93.233 48.276 93.018 47.8827 92.6584 47.6065C92.1707 47.222 91.4417 47.0915 90.4677 47.2172Z" fill="#324633"/>
<path d="M97.9339 40.37C97.7474 40.3942 97.5453 40.4407 97.328 40.5096C96.7133 40.696 96.208 41.0475 95.8101 41.563C95.4122 42.0802 95.1397 42.6261 94.9941 43.1988C94.8485 43.7733 94.8579 44.3173 95.0187 44.8331C95.1795 45.3489 95.532 45.6969 96.0728 45.8771C96.793 46.0724 97.0271 46.4528 96.7737 47.0221C96.557 47.4797 96.3019 48.0045 96.0137 48.5955C95.7217 49.1888 95.4142 49.7927 95.0893 50.4057C94.7627 51.0207 94.4552 51.6074 94.1651 52.1625C94.0164 52.4478 93.8824 52.7193 93.7622 52.9772C93.6477 53.2229 93.546 53.4563 93.4573 53.6774C93.1689 54.2875 93.0953 54.6007 93.2398 54.6167C93.2519 54.6183 93.2645 54.6181 93.2771 54.6163C93.3756 54.6037 93.4899 54.4971 93.6192 54.2965C93.6711 54.216 93.7255 54.1206 93.782 54.0098C93.8074 53.9631 93.8326 53.9164 93.8578 53.8699C93.8897 53.8112 93.9217 53.7525 93.9534 53.694C94.5786 52.5468 95.173 51.4856 95.738 50.5099C96.3527 49.4471 97.0236 48.17 97.7487 46.6804C98.109 46.7063 98.3718 46.7259 98.5335 46.7413C98.6971 46.7564 98.7684 46.8265 98.7505 46.9549C98.7312 47.0834 98.6401 47.309 98.4778 47.6336C98.3153 47.9582 98.0882 48.4448 97.7981 49.0896C97.3995 49.8935 96.9558 50.765 96.4666 51.7046C95.9774 52.6444 95.4972 53.5034 95.0276 54.2785C94.3009 55.5543 93.7959 56.6651 93.5049 57.6153C93.2141 58.5657 93.0681 59.3626 93.0668 60.0064C93.0655 60.6517 93.1724 61.1556 93.3875 61.5231C93.6044 61.8884 93.8563 62.1233 94.1449 62.2293C94.5076 62.3523 94.9185 62.3842 95.3777 62.325C95.693 62.2842 96.0309 62.2004 96.3919 62.0738C97.2765 61.7628 97.991 61.2324 98.5339 60.4825C98.8236 60.0878 99.1589 59.5339 99.5379 58.8224C99.9186 58.1124 100.291 57.3846 100.652 56.639C101.014 55.8952 101.332 55.2191 101.603 54.6115C101.876 54.0032 102.067 53.6026 102.175 53.4092C102.284 53.0742 102.329 52.844 102.312 52.7203C102.293 52.5985 102.258 52.5322 102.204 52.5203C102.194 52.5183 102.183 52.5179 102.171 52.5195C102.125 52.5254 102.072 52.5606 102.015 52.6259C101.941 52.7077 101.887 52.7684 101.852 52.8073C101.452 53.6459 101.008 54.5987 100.519 55.6643C100.029 56.7282 99.5311 57.7778 99.0244 58.8095C98.8427 59.1538 98.5704 59.6013 98.209 60.1485C97.8476 60.6957 97.4502 61.0522 97.0166 61.2153C96.7626 61.2119 96.6009 61.1085 96.5301 60.9019C96.4575 60.6973 96.4229 60.4517 96.4236 60.1651C96.4242 59.8784 96.4597 59.5962 96.5333 59.3175C96.6053 59.0408 96.677 58.8262 96.7504 58.6735C96.9688 58.2521 97.2485 57.6878 97.5927 56.9807C97.9369 56.2737 98.2898 55.5483 98.6534 54.8045C99.0152 54.0589 99.3681 53.3353 99.7141 52.628C100.057 51.9212 100.338 51.3571 100.556 50.9355C100.847 50.3614 101.037 49.7811 101.129 49.1966C101.219 48.6139 101.194 48.1063 101.05 47.6781C100.907 47.2497 100.636 46.9086 100.24 46.656C99.8434 46.4035 99.3199 46.283 98.6706 46.2943C98.2738 46.3093 98.0389 46.2498 97.9678 46.1157C97.895 45.9837 97.9319 45.7803 98.0769 45.5116C98.2201 45.2429 98.4105 44.9405 98.646 44.6063C98.8816 44.2724 99.0896 43.9314 99.271 43.5853C99.4894 43.1637 99.6241 42.7269 99.6809 42.2712C99.7358 41.8171 99.6826 41.4308 99.5196 41.1118C99.3584 40.7926 99.0961 40.5679 98.7362 40.4347C98.5113 40.3517 98.2438 40.3301 97.9339 40.37Z" fill="#324633"/>
<path d="M33.8772 101.644C33.2289 101.727 32.6959 101.621 32.2775 101.323C32.1541 101.217 32.0102 101.013 31.8473 100.708C31.6843 100.404 31.6434 99.9523 31.7282 99.3512C31.8112 98.7522 32.1191 97.9808 32.6552 97.0368C33.1898 96.0931 34.1142 94.9488 35.4292 93.5988C36.3326 92.6696 37.4206 91.6647 38.6949 90.5858C39.9675 89.507 41.3027 88.472 42.6987 87.4773C43.7624 88.1941 44.4795 88.8848 44.8472 89.5481C45.2149 90.2117 45.3266 90.8994 45.1808 91.6084C45.0367 92.319 44.6766 93.066 44.1008 93.8511C43.5251 94.638 42.8462 95.5072 42.0665 96.4621C41.5728 97.0538 40.8841 97.7122 40.0021 98.4352C39.1183 99.16 38.1947 99.797 37.2311 100.349C36.2661 100.9 35.3305 101.295 34.4304 101.534C34.237 101.584 34.053 101.621 33.8772 101.644ZM45.1032 84.2403L45.0424 84.1878C45.1252 84.1444 45.1777 84.1213 45.2001 84.1183C45.2338 84.1139 45.2014 84.1544 45.1032 84.2403ZM48.9513 69.6237C48.8677 69.6345 48.784 69.6467 48.7003 69.6601C48.0441 69.7655 47.4904 69.9284 47.0392 70.1489C45.1925 71.1189 43.5994 72.2597 42.2656 73.569C40.93 74.8803 39.8306 76.3232 38.9659 77.898C38.7599 78.2507 38.5031 78.7617 38.1953 79.4312C37.8859 80.1009 37.7001 80.8272 37.6375 81.6065C37.5732 82.3878 37.7353 83.1795 38.1234 83.9818C38.5115 84.7858 39.2984 85.4987 40.4875 86.1163L41.593 86.7654C39.662 88.1949 37.9989 89.5467 36.6025 90.8243C35.2058 92.1037 33.7687 93.7128 32.2888 95.6499C31.8351 96.2795 31.4648 96.9263 31.1782 97.5928C30.8881 98.2601 30.7023 98.9035 30.6192 99.5251C30.536 100.145 30.4947 100.771 30.4934 101.401C30.4921 102.031 30.6442 102.579 30.9513 103.049C31.2583 103.516 31.7588 103.848 32.4564 104.043C32.899 104.167 33.4664 104.184 34.1588 104.095C34.5547 104.043 34.9917 103.958 35.4692 103.837C37.8077 103.209 39.9834 102.157 41.9946 100.677C44.006 99.1993 45.7932 97.4035 47.3569 95.29C48.7549 93.3617 49.3416 91.5192 49.1206 89.7583C48.8981 87.9979 47.9893 86.4085 46.3929 84.9876C46.4347 84.9822 46.4555 84.9711 46.4555 84.9485C46.4555 84.9295 46.4955 84.914 46.5792 84.9032C46.7413 84.8012 47.0601 84.6271 47.5321 84.3834C48.0041 84.1394 48.518 83.9818 49.0715 83.9103C49.625 83.8388 50.1678 83.9207 50.7 84.1572C51.232 84.394 51.6208 84.9441 51.8661 85.8063C51.8774 85.863 51.9005 85.8889 51.9355 85.8845C52.023 85.8731 52.1847 85.6701 52.4205 85.2759C52.7488 84.7263 52.9346 84.1035 52.9777 83.406C53.0192 82.7106 52.8045 82.1085 52.3355 81.5977C51.9481 81.1805 51.2053 81.0418 50.1087 81.1833C49.8732 81.2136 49.6215 81.2571 49.3534 81.3132C48.9007 81.4115 48.2353 81.7215 47.3519 82.2411C46.4686 82.7623 45.5554 83.348 44.6127 83.9975L43.7522 83.4995C42.8101 82.9707 42.2267 82.304 42.0039 81.4993C41.7792 80.6948 41.9968 79.7834 42.655 78.7633C43.5192 77.4318 44.4211 76.2992 45.3681 75.3644C46.3115 74.4298 47.2057 73.6846 48.0475 73.1273C48.8892 72.5717 49.6278 72.2228 50.2632 72.0787C50.3897 72.0503 50.5075 72.0291 50.617 72.015C51.0577 71.9581 51.3607 72.0164 51.5247 72.1902C51.6464 72.3384 51.6351 72.6643 51.4915 73.1712C51.3461 73.6784 51.129 74.2343 50.8424 74.8406C50.554 75.4472 50.2133 76.071 49.8238 76.7096C49.4329 77.3502 49.0733 77.8538 48.7436 78.2207C48.1099 78.9294 47.5677 79.3135 47.1155 79.3717C47.0401 79.3815 46.9671 79.3821 46.8965 79.3737C46.404 79.3148 46.1176 78.9861 46.037 78.3872C45.7091 78.7954 45.6158 79.2751 45.7575 79.8261C45.9007 80.377 46.2586 80.6966 46.8328 80.7846C47.2029 80.8338 47.5686 80.8349 47.93 80.7882C48.3279 80.7369 48.7208 80.6273 49.108 80.4597C49.8464 80.1419 50.5036 79.6808 51.079 79.0769C51.6127 78.5214 52.096 77.8896 52.5289 77.1833C52.9603 76.4771 53.301 75.7532 53.5479 75.0089C53.7948 74.2661 53.9408 73.5554 53.9821 72.8805C54.0251 72.2038 53.9236 71.6371 53.6792 71.1804C53.4329 70.7256 53.035 70.3593 52.4805 70.0859C51.9276 69.812 51.3239 69.6469 50.6681 69.5882C50.0964 69.5377 49.5242 69.5499 48.9513 69.6237Z" fill="#324633"/>
<path d="M59.1304 81.5755C57.3669 81.8031 55.7658 82.7623 54.3283 84.4524C53.547 85.2848 52.8386 86.2304 52.2012 87.2876C51.5638 88.3446 51.0188 89.4022 50.564 90.4564C50.1111 91.5122 49.7715 92.5204 49.5433 93.4852C49.3169 94.4496 49.2419 95.2926 49.3223 96.014C49.404 96.9386 49.6376 97.5796 50.0266 97.9349C50.4156 98.2918 50.8556 98.4783 51.3481 98.4958C51.5656 98.5038 51.7816 98.4938 51.9956 98.4661C52.2642 98.4314 52.5302 98.3687 52.793 98.2783C53.265 98.1172 53.6446 97.9561 53.9321 97.7966C54.3835 97.5345 54.8767 97.1155 55.4105 96.5376C55.9442 95.9613 56.4379 95.38 56.8897 94.7919C56.6007 95.7645 56.6307 96.4819 56.9775 96.946C57.3248 97.4101 57.8063 97.6413 58.4222 97.6429C58.526 97.6403 58.629 97.6325 58.7316 97.6193C59.3966 97.5335 60.032 97.2231 60.6379 96.6857C61.3354 96.0695 61.9719 95.3159 62.5483 94.4272C62.8783 93.898 63.238 93.3029 63.6292 92.6416C63.7489 92.4396 63.8658 92.2398 63.9797 92.0422C64.1939 91.3094 64.5301 90.343 64.9884 89.1429C65.0714 88.9261 65.1555 88.7063 65.2407 88.4835C64.36 90.1013 63.6187 91.3916 63.0155 92.3552C62.3766 93.3728 61.8737 94.1296 61.5036 94.6242C61.2559 94.9408 61.0918 95.1243 61.0101 95.1746C60.9867 95.1896 60.9664 95.1979 60.9497 95.2001C60.9078 95.2055 60.8867 95.1716 60.8869 95.0989C60.8871 94.9989 60.9186 94.8412 60.9801 94.6296C61.0432 94.4196 61.1359 94.1835 61.2583 93.9244C61.3824 93.6633 61.5677 93.284 61.8142 92.7845C62.0623 92.2849 62.3192 91.7651 62.5865 91.2217C62.8538 90.68 63.1315 90.1246 63.4199 89.5595C63.7083 88.9944 63.9545 88.5139 64.1607 88.1214C64.7792 86.9443 64.9845 86.0861 64.782 85.5412C64.5777 84.9998 64.1781 84.6752 63.5848 84.569C63.1719 84.4953 62.7293 84.4888 62.2573 84.5496C62.0493 84.5764 61.8359 84.6165 61.6164 84.6696C60.8973 84.8453 60.333 85.0802 59.9236 85.3767C60.208 85.8679 60.2378 86.5957 60.0114 87.5601C59.7832 88.5249 59.3929 89.5413 58.8355 90.6089C58.28 91.6763 57.6322 92.7157 56.8923 93.7257C56.1524 94.7358 55.4339 95.5291 54.7348 96.1076C54.3048 96.4755 53.9699 96.6749 53.7304 96.7059C53.2841 96.7633 53.1685 96.2366 53.3847 95.1243C53.5503 94.209 53.8393 93.2261 54.2522 92.1755C54.6634 91.1269 55.1475 90.1001 55.703 89.093C56.2584 88.0861 56.8449 87.1563 57.461 86.3037C58.0788 85.4527 58.6736 84.7461 59.249 84.1835C59.7426 83.6729 60.2235 83.295 60.6974 83.0509C60.8337 82.9804 60.9693 82.9363 61.104 82.919C61.4341 82.8764 61.7596 82.9932 62.0804 83.2693C62.2029 82.8479 62.1827 82.5141 62.0197 82.2712C61.8565 82.0283 61.6221 81.8446 61.3144 81.722C61.0066 81.5997 60.6585 81.5324 60.2689 81.5206C59.8788 81.5098 59.5011 81.5276 59.1304 81.5755Z" fill="#324633"/>
<path d="M71.9184 69.3947C71.8376 69.4051 71.7552 69.4194 71.6709 69.4378C70.9937 69.5855 70.3877 69.8173 69.8544 70.1295C69.3211 70.4417 68.9308 70.7475 68.6848 71.0432C68.439 71.3388 68.5205 71.4614 68.9295 71.4085C69.5858 71.3238 69.9435 71.6725 70.0046 72.4585C70.0639 73.2428 69.9383 74.2858 69.6293 75.5851C69.3187 76.8866 68.8945 78.344 68.3589 79.9575C67.823 81.5709 67.256 83.1694 66.6575 84.7494C66.1569 86.0765 65.6846 87.3209 65.2407 88.4829C65.1555 88.7057 65.0714 88.9254 64.9884 89.1422C64.5301 90.3423 64.1939 91.3087 63.9796 92.0415C63.9535 92.1309 63.929 92.2172 63.9066 92.2996C63.6176 93.2737 63.5028 94.1014 63.5622 94.7839C63.6234 95.468 63.899 95.981 64.3892 96.3231C64.8773 96.6537 65.4769 96.7725 66.1908 96.6805C66.4378 96.6485 66.6986 96.5914 66.9731 96.509C68.0388 96.1886 68.8804 95.6622 69.498 94.9322C69.8259 94.5242 70.196 93.9586 70.6082 93.2342C70.6511 93.1586 70.6936 93.0827 70.736 93.0069C70.6669 92.7068 70.6243 92.387 70.6089 92.0475C70.3861 92.4839 70.1604 92.919 69.9309 93.3528C69.7666 93.6983 69.4891 94.1104 69.0982 94.587C68.7074 95.0653 68.2665 95.3759 67.7736 95.5207C67.1993 95.4724 66.9231 95.1939 66.945 94.6821C66.967 94.172 67.0795 93.5778 67.2862 92.9007C67.4509 92.31 67.7921 91.3927 68.3082 90.1477C68.8224 88.9029 69.3978 87.5069 70.0378 85.9593C70.6763 84.4136 71.3058 82.8089 71.9236 81.1435C72.5412 79.4781 73.0578 77.9482 73.4696 76.5526C74.048 74.4868 74.2967 72.9311 74.2186 71.8835C74.1371 70.8381 73.8618 70.1299 73.3911 69.7646C72.9791 69.4442 72.4888 69.321 71.9184 69.3947Z" fill="#324633"/>
<path d="M76.6861 88.5309C76.2126 88.592 75.7273 88.4468 75.2305 88.0949C75.4368 87.6214 75.7336 87.0758 76.1248 86.456C76.5159 85.8362 76.9364 85.2228 77.3902 84.6155C77.8422 84.0085 78.2835 83.4322 78.7164 82.8896C79.1474 82.3457 79.5068 81.9127 79.7945 81.5909C80.2963 81.0312 80.6474 80.7379 80.8498 80.7118C80.9126 80.7038 80.961 80.7214 80.9951 80.7649C81.1392 80.9515 81.1892 81.3108 81.1479 81.8442C81.1473 82.1686 80.9806 82.7908 80.6516 83.7063C80.321 84.6237 79.8892 85.4923 79.3551 86.3135C78.819 87.1349 78.1929 87.7733 77.4751 88.2316C77.2159 88.3965 76.9529 88.4963 76.6861 88.5309ZM80.577 78.7763C80.5338 78.7819 80.4901 78.7881 80.446 78.7944C79.2777 78.9659 77.9541 79.6131 76.4757 80.7391C75.653 81.3733 74.8737 82.1554 74.1338 83.0845C73.3941 84.0133 72.7552 84.9914 72.2206 86.0145C71.686 87.0393 71.2748 88.0777 70.9856 89.1313C70.6961 90.1849 70.5708 91.1571 70.609 92.0458C70.609 92.0466 70.609 92.0474 70.609 92.048C70.6244 92.3875 70.667 92.7073 70.7361 93.0073C70.848 93.4918 71.0297 93.925 71.2814 94.3057C71.6908 94.9241 72.346 95.3173 73.2472 95.4858C73.7241 95.5814 74.2085 95.5976 74.6999 95.5341C75.2225 95.4666 75.7532 95.3093 76.2919 95.0618C77.3387 94.5815 78.3653 93.8901 79.3712 92.9872C80.3771 92.0859 81.3226 91.0287 82.2073 89.8172C83.0905 88.6057 83.883 87.3439 84.5836 86.0336C84.8298 85.5549 84.8811 85.2551 84.7385 85.1304C84.6949 85.093 84.6481 85.0775 84.5988 85.0838C84.4856 85.0984 84.358 85.228 84.2157 85.4721C83.3914 86.9191 82.4261 88.3155 81.3165 89.6579C80.2052 91.0006 79.1484 92.0514 78.1429 92.8111C77.3435 93.4154 76.642 93.7561 76.0387 93.834C75.8818 93.8543 75.7314 93.8567 75.5878 93.8415C74.89 93.7711 74.5228 93.0457 74.4854 91.6665C74.403 91.1096 74.4354 90.567 74.581 90.0392C74.7249 89.5134 74.9207 88.9686 75.169 88.4085C75.7251 89.2385 76.4477 89.5952 77.335 89.4809C77.4886 89.4611 77.6473 89.427 77.8107 89.3791C78.9181 89.0531 80.0055 88.2933 81.0749 87.0976C81.7325 86.3622 82.2771 85.6001 82.7102 84.8126C83.1415 84.0253 83.4512 83.2641 83.6372 82.5291C83.8232 81.7943 83.8749 81.137 83.7943 80.5573C83.7137 79.9792 83.4675 79.5314 83.0592 79.2184C82.5072 78.7811 81.681 78.6336 80.577 78.7763Z" fill="#324633"/>
</svg>
