<svg width="120" height="110" viewBox="0 0 120 110" fill="none" xmlns="http://www.w3.org/2000/svg">
<path d="M17.1794 47.7734C18.3116 46.2257 18.5167 44.4972 17.7943 42.589C17.4088 41.5703 16.8078 40.808 15.9925 40.3018C15.1767 39.7959 14.3017 39.475 13.3672 39.3381C12.4324 39.2021 11.2242 39.1048 9.74277 39.0458C8.5192 39.0087 7.55507 38.9464 6.84999 38.8594C6.14492 38.7721 5.51 38.5784 4.94563 38.2791C4.38088 37.979 3.98266 37.5223 3.74982 36.9075C3.40056 35.9857 3.51621 35.1376 4.09677 34.3632C4.67694 33.5889 5.69774 32.9513 7.15955 32.4502C8.19576 32.0951 9.12982 31.9759 9.96173 32.0926C10.7932 32.2096 11.3372 32.6076 11.5947 33.2866C11.6437 33.4161 11.7346 33.7319 11.8672 34.2345C11.9143 34.5107 11.9964 34.8027 12.1124 35.1097C12.247 35.4652 12.5118 35.722 12.9073 35.8786C13.3024 36.0352 13.7211 36.0382 14.1629 35.8863C14.7912 35.671 15.1694 35.2491 15.2966 34.6211C15.4235 33.9927 15.2943 33.1692 14.9084 32.1505C14.5168 31.1157 13.8761 30.349 12.9863 29.8494C12.0962 29.3509 11.0677 29.1055 9.89966 29.1124C8.73122 29.1205 7.52693 29.3369 6.28639 29.7621C4.62066 30.3329 3.26718 31.0805 2.22479 32.0034C1.18241 32.9275 0.505473 33.9542 0.194376 35.084C-0.117106 36.2139 -0.0523422 37.3606 0.388667 38.5253C0.811172 39.6408 1.45765 40.4742 2.32888 41.0252C3.19972 41.5762 4.12992 41.9291 5.11949 42.0828C6.10868 42.2365 7.3496 42.3318 8.84186 42.3681C10.0084 42.4067 10.9224 42.4635 11.5843 42.538C12.2462 42.6125 12.8391 42.7841 13.363 43.0519C13.8865 43.3201 14.2531 43.7287 14.4613 44.2786C14.7982 45.1681 14.6517 45.999 14.0226 46.7716C13.3938 47.5448 12.3568 48.1783 10.9124 48.6736C9.51879 49.1512 8.36808 49.3452 7.46023 49.2542C6.552 49.164 5.96065 48.7543 5.68502 48.0265C5.61756 47.8489 5.56628 47.6747 5.53043 47.5041C5.49497 47.3335 5.4649 47.2161 5.44023 47.1512C5.39936 46.8911 5.31764 46.5995 5.19544 46.276C5.0609 45.9205 4.80608 45.6788 4.43138 45.5511C4.05668 45.4238 3.63995 45.4389 3.18121 45.5962C2.55246 45.8116 2.16504 46.2096 2.01971 46.7892C1.87437 47.3687 1.97036 48.1031 2.3069 48.9927C2.94336 50.6746 4.096 51.6911 5.76482 52.041C7.43325 52.3921 9.39775 52.1801 11.6579 51.405C14.2064 50.533 16.0468 49.3221 17.1794 47.7734Z" fill="#173319"/>
<path d="M17.2627 37.9507C17.4396 38.0574 17.6085 38.0831 17.77 38.0277C17.9658 37.9606 18.105 37.7955 18.1875 37.5314C18.4492 36.7108 18.7519 36.0652 19.0946 35.5945C19.4369 35.1243 19.7811 34.8293 20.1269 34.7108C20.3112 34.6478 20.4827 34.6632 20.6423 34.7571C20.8015 34.851 20.9311 35.0296 21.0309 35.2926C21.2052 35.7534 21.3239 36.1954 21.3867 36.6202C21.4496 37.0446 21.4862 37.3043 21.4966 37.4001L22.2055 42.4707C22.3169 43.2128 22.4642 43.8251 22.6469 44.3074C22.9707 45.1629 23.4765 45.7604 24.1654 46.1001C24.8535 46.4402 25.6819 46.4442 26.6499 46.1126C27.8018 45.7179 28.6591 44.9472 29.2208 43.8005C29.7825 42.6541 30.0462 41.1766 30.0122 39.367C30.2844 40.6366 30.4995 41.4792 30.6572 41.8959C30.9394 42.6417 31.422 43.1604 32.1055 43.4524C32.789 43.7447 33.6085 43.7271 34.565 43.3992C35.2103 43.178 35.7666 42.8078 36.2334 42.288C36.7006 41.7686 37.1031 41.061 37.4408 40.1648C37.5641 39.8376 37.5452 39.4602 37.3833 39.0328C37.2962 38.8028 37.1844 38.6366 37.0483 38.5347C36.9123 38.4323 36.7688 38.4074 36.6193 38.4587C36.4466 38.5178 36.3197 38.6484 36.2399 38.849C35.9562 39.5779 35.6783 40.1256 35.4069 40.491C35.1351 40.8567 34.8094 41.1047 34.4293 41.2349C34.0719 41.3574 33.7423 41.3372 33.4401 41.1744C33.1375 41.0119 32.9015 40.7055 32.7311 40.2562C32.6151 39.9495 32.4825 39.4624 32.3337 38.7944C31.9868 37.3278 31.6514 35.702 31.3276 33.9181C31.1491 33.0007 31.0064 32.2879 30.8989 31.7799C30.7909 31.2718 30.6811 30.8698 30.5689 30.5738C30.3738 30.0587 30.1348 29.7194 29.8519 29.5562C29.5685 29.3929 29.2254 29.3808 28.8222 29.5191C28.3727 29.6732 28.1121 29.8863 28.0393 30.1589C27.9668 30.4318 27.9957 30.8614 28.1271 31.4479C28.7143 33.9966 29.0015 36.1554 28.988 37.9254C28.9745 39.6949 28.7466 41.0522 28.3033 41.9968C27.8604 42.9414 27.2933 43.5323 26.6017 43.7693C26.2216 43.8995 25.8882 43.8962 25.6021 43.7587C25.3161 43.6218 25.1064 43.3775 24.9734 43.0268C24.8905 42.8075 24.8238 42.5793 24.7729 42.3431C24.7224 42.1065 24.6781 41.8523 24.6403 41.5804C24.6025 41.3086 24.5763 41.1193 24.5621 41.0126L24.1311 37.7603C24.0197 36.8821 23.9152 36.1932 23.8177 35.6939C23.7198 35.1951 23.5652 34.6657 23.3531 34.1063C23.0544 33.3169 22.6292 32.7876 22.0783 32.518C21.527 32.2487 20.8998 32.2348 20.1975 32.4754C18.6189 33.0165 17.5329 34.256 16.9385 36.1936C16.7777 36.7317 16.7619 37.1712 16.8903 37.5108C16.962 37.6979 17.0857 37.8439 17.2627 37.9507Z" fill="#173319"/>
<path d="M48.7281 25.0557C49.0161 24.957 49.2744 24.9768 49.5026 25.1151C49.7308 25.2538 49.9174 25.515 50.0627 25.8987C50.1456 26.118 50.2127 26.3462 50.2632 26.5824C50.3137 26.819 50.3576 27.0732 50.3958 27.3451C50.4336 27.6172 50.4594 27.8062 50.4741 27.9129L50.9224 31.1593C51.1105 32.4821 51.3272 33.4671 51.5723 34.1141C51.9251 35.0459 52.4829 35.6941 53.2454 36.058C54.0083 36.4222 54.8791 36.4365 55.8587 36.1005C56.5036 35.8793 57.0603 35.5092 57.5275 34.9898C57.9947 34.4703 58.3972 33.7627 58.7349 32.8666C58.8582 32.5393 58.839 32.1619 58.6771 31.7345C58.5899 31.5045 58.4781 31.3384 58.3421 31.2364C58.206 31.1344 58.0626 31.1091 57.913 31.1604C57.7403 31.2195 57.6139 31.3497 57.5337 31.5507C57.2499 32.2796 56.9724 32.8273 56.7006 33.1923C56.4292 33.558 56.1031 33.806 55.723 33.9366C55.3198 34.0749 54.9624 34.0672 54.6505 33.9139C54.3387 33.7609 54.0958 33.4538 53.9212 32.9935C53.7716 32.5988 53.6506 32.1076 53.5584 31.5199L52.8321 26.4551C52.7204 25.713 52.5731 25.1012 52.3904 24.6184C52.0542 23.7303 51.5766 23.1133 50.9579 22.7681C50.3391 22.4226 49.626 22.3885 48.8199 22.6651C47.8172 23.0088 47.0547 23.6416 46.532 24.5641C46.0088 25.4867 45.7459 26.8033 45.7425 28.5138C45.643 27.9412 45.5243 27.4738 45.3874 27.1118C45.0389 26.1907 44.5528 25.552 43.9299 25.1958C43.3069 24.8396 42.6207 24.7901 41.8721 25.0469C40.8929 25.3829 40.1277 26.0443 39.5776 27.0318C39.0271 28.0197 38.7623 29.5196 38.7819 31.5317C38.7677 31.4253 38.7357 31.2378 38.6863 30.9701C38.6366 30.7019 38.5653 30.3582 38.4712 29.9382C38.3771 29.5185 38.2742 29.1601 38.1624 28.8641C37.8845 28.1297 37.5025 27.629 37.0175 27.3612C36.5322 27.0941 35.9728 27.0692 35.339 27.2864C34.659 27.5193 34.0553 27.9525 33.5268 28.5857C32.9983 29.2192 32.597 29.998 32.3217 30.9216C32.2362 31.2111 32.1899 31.4594 32.1837 31.6656C32.1772 31.8721 32.2073 32.0636 32.2739 32.2385C32.3445 32.4249 32.4682 32.5713 32.6452 32.6776C32.8221 32.7844 32.991 32.8101 33.1525 32.7547C33.3483 32.6875 33.4875 32.5225 33.57 32.2584C33.836 31.4488 34.1243 30.8266 34.435 30.3916C34.7454 29.9569 35.0503 29.688 35.3502 29.5853C35.7303 29.4551 36.014 29.6366 36.2006 30.1297C36.3999 30.6561 36.5969 31.3317 36.7924 32.1567C37.0969 33.4766 37.4254 35.0488 37.7773 36.8731C37.9573 37.8642 38.1104 38.6386 38.2368 39.1958C38.3633 39.7534 38.4909 40.202 38.6196 40.5417C38.8104 41.0461 39.0325 41.3572 39.2854 41.4749C39.5383 41.5927 39.8775 41.5784 40.3042 41.4324C40.7537 41.2783 41.0147 41.0648 41.0872 40.7926C41.1597 40.5201 41.1304 40.0901 40.9993 39.5032C40.379 36.7307 40.0606 34.4711 40.0437 32.7242C40.0267 30.977 40.2025 29.6972 40.5714 28.8828C40.9399 28.0692 41.4068 27.5655 41.9715 27.3718C42.3057 27.2574 42.5933 27.2699 42.8354 27.41C43.0771 27.5501 43.2768 27.8285 43.4345 28.2449C43.7252 29.0127 44.1072 30.8138 44.5821 33.6483C44.7598 34.7022 44.9233 35.6156 45.0725 36.3881C45.2217 37.161 45.3816 37.7718 45.5516 38.2211C45.7344 38.7039 45.9479 39.0021 46.1931 39.1158C46.4379 39.2303 46.7563 39.22 47.148 39.0858C47.5975 38.9317 47.8804 38.7079 47.9969 38.4137C48.1133 38.1203 48.0874 37.6302 47.919 36.9446C47.3234 34.3742 47.003 32.2297 46.9575 30.5112C46.9121 28.7926 47.0605 27.4999 47.4028 26.633C47.7443 25.7673 48.1865 25.2413 48.7281 25.0557Z" fill="#173319"/>
<path d="M77.2854 15.0528C76.9913 15.8411 76.994 16.6301 77.2927 17.4192C77.5129 18.0006 77.8934 18.4646 78.435 18.8113C78.9762 19.1583 79.6223 19.3083 80.3725 19.2617C79.2403 19.984 78.4801 20.787 78.0915 21.6692C77.7033 22.5518 77.6875 23.4645 78.0445 24.4072C78.1447 24.6725 78.2769 24.9146 78.44 25.1347C78.2889 25.4406 78.1397 25.6948 77.992 25.8933C77.7203 26.259 77.3945 26.507 77.0144 26.6372C76.6108 26.7755 76.2534 26.7678 75.9416 26.6144C75.6297 26.4615 75.3868 26.1544 75.2122 25.6941C75.0626 25.2994 74.942 24.8086 74.8495 24.2205L74.1236 19.1561C74.0118 18.4136 73.8649 17.8018 73.6822 17.3194C73.346 16.4313 72.8684 15.8147 72.2497 15.4695C71.6309 15.1239 70.9182 15.0902 70.1117 15.3664C69.1094 15.7101 68.3465 16.3429 67.8238 17.2655C67.3006 18.188 67.0377 19.5046 67.0343 21.2151C66.9348 20.6425 66.8165 20.1751 66.6792 19.8135C66.3303 18.8924 65.8446 18.2537 65.2217 17.8975C64.5987 17.5417 63.9125 17.4918 63.1639 17.7486C62.1843 18.0842 61.4195 18.7456 60.8694 19.7335C60.3189 20.7214 60.0537 22.2213 60.0737 24.2334C60.0595 24.1266 60.0275 23.9395 59.9781 23.6718C59.9284 23.404 59.8571 23.0603 59.7634 22.6399C59.6693 22.2202 59.5664 21.8622 59.4542 21.5662C59.1763 20.8318 58.7943 20.3307 58.3093 20.0633C57.824 19.7962 57.2646 19.7713 56.6308 19.9884C55.9508 20.2214 55.3471 20.6542 54.8186 21.2874C54.2901 21.9209 53.8888 22.6997 53.6136 23.6233C53.528 23.9128 53.4817 24.1611 53.4756 24.3676C53.469 24.5742 53.4991 24.7656 53.5654 24.941C53.6359 25.1273 53.7597 25.2737 53.937 25.3801C54.1139 25.4868 54.2828 25.5125 54.4443 25.4571C54.6401 25.39 54.7793 25.2249 54.8618 24.9612C55.1282 24.1516 55.4161 23.5294 55.7269 23.0944C56.0376 22.6597 56.3421 22.3908 56.642 22.2881C57.0221 22.1575 57.3059 22.3391 57.4924 22.8325C57.6917 23.3589 57.8887 24.0342 58.0838 24.8595C58.3883 26.1794 58.7168 27.7516 59.0687 29.5759C59.2488 30.567 59.4018 31.3414 59.5282 31.8986C59.6543 32.4562 59.7823 32.9048 59.9107 33.2445C60.1015 33.7489 60.3235 34.06 60.5764 34.1777C60.8289 34.2955 61.1685 34.2812 61.5949 34.1352C62.0444 33.9811 62.3054 33.768 62.3778 33.4954C62.4503 33.2229 62.421 32.7929 62.2899 32.206C61.6701 29.4335 61.3513 27.1739 61.3343 25.4267C61.3173 23.6795 61.4931 22.3996 61.8621 21.5852C62.2306 20.7716 62.6974 20.268 63.2622 20.0743C63.5964 19.9598 63.884 19.9723 64.1261 20.1124C64.3678 20.2526 64.5679 20.531 64.7255 20.9473C65.0162 21.7151 65.3982 23.5162 65.8732 26.3511C66.0509 27.405 66.2143 28.3184 66.3639 29.0909C66.5131 29.8638 66.6727 30.4746 66.8431 30.9239C67.0258 31.4067 67.2394 31.7049 67.4845 31.8186C67.7293 31.9331 68.0477 31.9228 68.4398 31.7886C68.8893 31.6345 69.1722 31.4104 69.2887 31.1165C69.4051 30.8231 69.3792 30.333 69.2108 29.6474C68.6152 27.077 68.2948 24.9325 68.2494 23.214C68.2039 21.4954 68.3523 20.2027 68.6946 19.3358C69.0369 18.4694 69.4787 17.943 70.0203 17.7574C70.3083 17.6587 70.5666 17.6785 70.7944 17.8168C71.0226 17.9555 71.2096 18.2167 71.3545 18.6004C71.4378 18.8201 71.5045 19.0479 71.5546 19.2841C71.6051 19.5207 71.6494 19.7749 71.6872 20.0468C71.725 20.3189 71.7508 20.5079 71.7655 20.6146L72.2134 23.861C72.4019 25.1842 72.6186 26.1691 72.8634 26.8158C73.2161 27.7476 73.7739 28.3958 74.5368 28.7597C75.2993 29.1236 76.1702 29.1379 77.1497 28.8022C77.795 28.581 78.3513 28.2109 78.8185 27.6911C79.1751 27.2945 79.4935 26.788 79.7746 26.1721C80.4122 26.4512 81.2001 26.5818 82.14 26.5616C83.2375 26.5385 84.5123 26.2781 85.9641 25.7806C87.0127 25.4212 88.0443 24.9656 89.0589 24.4131C90.0731 23.861 90.8623 23.3148 91.4262 22.7749C91.7589 22.4502 91.9652 22.1443 92.045 21.8567C92.1248 21.5691 92.1024 21.261 91.9779 20.9319C91.8993 20.7239 91.7886 20.5695 91.6467 20.4697C91.5045 20.3696 91.3414 20.3512 91.1572 20.4147C91.0419 20.4543 90.9104 20.5365 90.7624 20.6616C90.1183 21.2294 89.3033 21.8028 88.3187 22.3816C87.3338 22.9608 86.3631 23.4142 85.4071 23.7422C83.9553 24.24 82.8296 24.4304 82.0309 24.3141C81.2318 24.1982 80.7036 23.8001 80.4465 23.12C80.2931 22.7147 80.2896 22.2851 80.4373 21.8317C80.5845 21.3787 80.9284 20.9297 81.4696 20.484C82.0105 20.0383 82.7549 19.641 83.7028 19.2911C84.3901 19.0435 84.5964 18.5578 84.3227 17.8341C84.2356 17.6037 84.1214 17.457 83.9804 17.3939C83.8396 17.3308 83.64 17.3374 83.3825 17.4129C82.3678 17.7236 81.5749 17.7882 81.0047 17.6055C80.4346 17.4232 80.0517 17.0744 79.8567 16.5593C79.6034 15.8906 79.6959 15.2582 80.1342 14.6617C80.5726 14.0653 81.2811 13.5998 82.2607 13.2641C82.9865 13.0154 83.5517 12.9607 83.9561 13.1005C84.3605 13.2406 84.6376 13.508 84.7868 13.9028C84.8365 14.0344 84.9013 14.2912 84.9807 14.6724C85.0062 14.9115 85.054 15.1239 85.1245 15.3103C85.2282 15.5843 85.3982 15.7585 85.6345 15.8323C85.8705 15.9064 86.1499 15.8877 86.4726 15.7769C86.9333 15.6188 87.212 15.2978 87.3084 14.8121C87.4043 14.3272 87.3303 13.7612 87.0852 13.1141C86.7324 12.1823 86.0879 11.5455 85.1515 11.2036C84.2147 10.8621 83.0324 10.9362 81.6038 11.4259C80.5436 11.7895 79.6323 12.2872 78.8694 12.9204C78.1077 13.5543 77.5792 14.2648 77.2854 15.0528Z" fill="#173319"/>
<path d="M92.1868 20.5841C93.0526 21.5166 94.0187 22.1446 95.0854 22.4677C96.1517 22.7913 97.228 22.7667 98.3147 22.394C99.3039 22.0547 99.9473 21.551 100.244 20.8823C100.541 20.2143 100.591 19.3816 100.398 18.3842C100.366 18.2037 100.268 17.7052 100.106 16.8887C99.7653 15.0696 99.5664 13.987 99.509 13.6408C99.9642 13.5366 100.383 13.5417 100.765 13.6543C101.147 13.768 101.587 14.0226 102.085 14.4184C102.583 14.8142 103.298 15.4452 104.231 16.3113C105.392 17.3956 106.445 18.0808 107.387 18.3677C108.33 18.6553 109.328 18.6182 110.383 18.2566C111.469 17.8839 112.318 17.3186 112.929 16.5596C113.54 15.801 114.065 14.8407 114.504 13.6785C114.678 13.2178 114.651 12.6866 114.423 12.0847C114.3 11.7608 114.143 11.5267 113.951 11.3833C113.76 11.2395 113.558 11.2043 113.347 11.2766C113.104 11.3598 112.926 11.5432 112.813 11.8261C112.403 12.8734 112.026 13.6437 111.681 14.1363C111.336 14.6297 110.904 14.9654 110.385 15.1429C109.802 15.3432 109.205 15.3036 108.595 15.0244C107.985 14.7453 107.278 14.22 106.473 13.45C105.724 12.7303 105.054 12.2193 104.463 11.9159C103.872 11.6133 103.149 11.4944 102.294 11.5605C103.41 10.8298 104.278 10.0004 104.898 9.07228C105.518 8.14494 105.887 7.19486 106.004 6.22166C106.121 5.24884 106.017 4.32993 105.689 3.46532C105.315 2.47782 104.724 1.67776 103.915 1.06553C103.106 0.453659 102.089 0.104439 100.866 0.0178672C99.6419 -0.0679706 98.2515 0.155428 96.694 0.689163C94.4558 1.45657 92.6695 2.63152 91.3349 4.21328C90.0003 5.79541 89.2154 7.69081 88.9795 9.89911C88.7435 12.1074 89.1163 14.5079 90.0978 17.101C90.6248 18.491 91.3206 19.6516 92.1868 20.5841ZM91.649 10.3056C91.7558 8.60384 92.2643 7.17432 93.1729 6.01661C94.0819 4.85963 95.3305 4.00859 96.9203 3.46385C98.2665 3.00238 99.3933 2.92938 100.302 3.24632C101.209 3.56289 101.847 4.20741 102.216 5.1795C102.519 5.98249 102.576 6.77374 102.386 7.55362C102.195 8.33423 101.807 9.02533 101.219 9.62729C100.632 10.23 99.9087 10.7043 99.0506 11.051L98.3255 6.95752C98.3066 6.85958 98.2653 6.72569 98.201 6.55548C97.903 5.76826 97.292 5.53349 96.3671 5.85043C95.2157 6.24514 94.7242 6.98026 94.8934 8.0558C95.0807 9.22965 95.3313 10.6174 95.6447 12.2186L95.0364 12.4273C94.7118 12.5384 94.4651 12.7453 94.2955 13.0476C94.1259 13.3499 94.1112 13.6862 94.2515 14.0564C94.3683 14.3656 94.5746 14.6088 94.871 14.7856C95.1671 14.9632 95.5911 14.9573 96.1428 14.7684L96.8004 18.4664C96.8883 18.9422 96.9018 19.3039 96.8398 19.5515C96.7777 19.7994 96.6412 19.9594 96.4307 20.0316C96.1551 20.1263 95.7958 20.0489 95.3533 19.7994C94.9107 19.55 94.4493 19.1065 93.9697 18.4686C93.4898 17.8314 93.0634 17.0185 92.6895 16.0303C91.8888 13.9159 91.5419 12.008 91.649 10.3056Z" fill="#173319"/>
<path d="M35.9431 55.5104C31.9046 51.5439 28.1067 56.2489 28.1067 56.2489C33.9254 53.2765 36.0452 57.0159 36.0452 57.0159L36.0641 56.9983C37.6019 52.494 42.2841 53.1866 42.2841 53.1866C38.0845 50.7949 35.9431 55.5104 35.9431 55.5104Z" fill="#173319"/>
<path d="M62.6238 74.7303L62.6354 74.712C62.9276 70.7077 66.9271 70.3621 66.9271 70.3621C62.9576 69.2169 62.2144 73.5124 62.2144 73.5124C58.0379 71.04 55.9304 75.651 55.9304 75.651C60.0737 72.0697 62.6238 74.7303 62.6238 74.7303Z" fill="#173319"/>
<path d="M48.7424 80.8213L48.7597 80.8121C50.8206 77.8646 54.0441 79.2612 54.0441 79.2612C51.5276 76.7344 48.9872 79.7179 48.9872 79.7179C46.9205 76.0881 43.1901 78.7465 43.1901 78.7465C48.0088 77.723 48.7424 80.8213 48.7424 80.8213Z" fill="#173319"/>
<path d="M99.3501 90.1436L104.577 83.58C107.069 80.9282 109.158 78.2114 110.874 75.6726L120 64.2118L112.751 62.213L112.675 62.1587C112.648 62.1392 109.967 60.1899 110.045 57.9038C110.09 56.5543 111.131 55.233 113.139 53.9773L115.172 52.6974L113.008 51.6212C112.987 51.6105 110.878 50.5412 110.454 48.578C110.143 47.1356 110.788 45.4673 112.371 43.6196L113.398 42.4171L112.016 41.5961C111.045 41.0184 108.461 39.0555 108.183 36.9389C108.045 35.8931 108.479 34.8872 109.509 33.8638L111.372 32.0076L108.712 31.5718C108.677 31.5663 105.283 30.9882 104.005 28.8987C103.376 27.8709 103.355 26.6193 103.94 25.0727L101.239 24.1465C100.357 26.4744 100.456 28.5411 101.532 30.2887C102.646 32.0967 104.584 33.1224 106.092 33.6778C105.422 34.8267 105.168 36.0354 105.335 37.2899C105.682 39.886 107.828 41.9465 109.245 43.0458C107.753 45.165 107.216 47.2178 107.648 49.1627C108.017 50.8208 109.03 52.0438 109.951 52.8526C108.161 54.35 107.229 56.0202 107.173 57.8345C107.139 58.9596 107.459 59.9896 107.926 60.8832L106.578 60.5116C107.151 57.7476 107.444 54.9102 107.444 52.0295C107.444 43.1485 104.643 34.611 99.3436 27.3394L96.9839 28.8962C101.948 35.7082 104.572 43.7076 104.572 52.0291C104.572 54.6486 104.311 57.2296 103.805 59.7468L95.9616 57.584L79.9966 76.458L75.8618 58.377C77.2222 58.059 78.5587 57.7252 79.8594 57.3796L79.6138 53.2503L83.5972 56.3342C87.7918 55.1024 91.5087 53.8163 94.4532 52.7195L91.0627 50.5511L96.9982 51.7459C99.8405 50.6293 101.499 49.8762 101.499 49.8762C98.7811 48.5086 96.1378 47.4151 93.5727 46.56C93.028 46.7853 92.3788 47.0483 91.6352 47.3407L89.6865 46.9485C89.7046 46.9415 89.7235 46.9349 89.7416 46.928L86.8141 45.0557L91.9389 46.0872C94.393 45.1232 95.8244 44.4728 95.8244 44.4728C65.557 29.2395 45.8743 53.2965 45.8743 53.2965C47.5932 53.6607 49.3692 53.9043 51.1803 54.0455C52.3726 53.1747 54.1845 51.8816 54.1845 51.8816L53.0939 53.6982C52.4601 54.1523 51.5654 54.7961 50.8761 55.2994C50.1942 55.2462 49.5172 55.1787 48.8465 55.0954C45.458 57.8811 43.6453 60.0964 43.6453 60.0964C45.6364 60.5182 47.6931 60.8003 49.791 60.9639C51.1722 59.9551 53.2708 58.4574 53.2708 58.4574L51.6965 61.0795C55.7939 61.2599 60.0178 61.0182 64.1924 60.4988L66.7463 54.6974L67.8893 59.9676C70.2069 59.5909 72.4898 59.1389 74.7122 58.6404L78.5745 78.1403L72.1972 85.6793C69.8669 86.7439 67.6711 87.5542 65.7617 88.1646L54.5033 88.2812L62.825 92.6615C62.5043 92.6681 62.1828 92.6725 61.8609 92.6725C50.4521 92.6725 39.7264 88.4448 31.6591 80.7686C23.5918 73.092 19.1493 62.8857 19.1493 52.0295H16.2781C16.2781 53.6094 16.3695 55.1757 16.5437 56.7248C15.0541 54.0059 12.0442 52.7616 11.8969 52.7022L10.7713 55.2157C10.8006 55.2278 13.6984 56.4475 14.3556 58.8642C14.7986 60.4914 14.1486 62.3993 12.4239 64.535L10.8827 66.4436L13.395 66.7242C13.4193 66.7268 15.8706 67.0485 17.1247 68.8903C18.1038 70.3287 18.162 72.3862 17.2981 75.0054L16.7862 76.5567L18.4805 76.7691C18.5148 76.7735 21.9395 77.2551 23.0694 79.2833C23.7036 80.4216 23.5197 81.9579 22.5224 83.8492L20.9796 86.7758L24.251 85.7604C24.2826 85.7505 27.471 84.8151 29.3523 86.1569C30.4567 86.9449 30.9798 88.465 30.9077 90.6763L30.8314 93.0166L33.0102 91.9282C33.0307 91.918 35.1216 90.922 37.0248 91.6986C38.4211 92.2683 39.4677 93.6897 40.1358 95.9226L40.5803 97.4086L42.0756 96.8074C42.113 96.7924 45.8712 95.3401 48.2035 96.5151C49.1564 96.9952 49.7566 97.8815 50.0381 99.2234L50.5646 101.736L52.4636 99.9196C52.4871 99.8968 54.9026 97.6592 57.3822 97.8507C58.6111 97.9475 59.6844 98.632 60.6635 99.9434L62.3127 98.8286L83.5378 110.001L92.8028 98.3661L116.822 94.9615L99.3501 90.1436ZM80.3702 50.049C83.3389 49.177 86.0296 48.2742 88.3037 47.4551L89.439 48.1814C86.8966 49.1286 83.6874 50.239 80.066 51.3024L77.0237 48.947L76.9307 47.3865L80.3702 50.049ZM66.5038 54.4384L65.5169 49.8883L63.3119 54.8973C59.7079 55.3456 56.0611 55.5543 52.523 55.3988L53.2674 54.1593C56.6674 54.2799 60.1608 54.0742 63.6157 53.6442L65.8207 48.6352L66.8076 53.1853C70.2574 52.6248 73.6224 51.8743 76.77 51.0489L76.8386 52.2052C73.5862 53.069 70.0897 53.8559 66.5038 54.4384ZM82.9784 97.2538L84.68 96.9299L84.6345 96.7311C89.1186 95.2161 93.0773 93.0801 96.5495 90.6161L97.2453 90.8079L92.1116 97.2549L77.96 99.2608L76.7446 98.621C78.9218 98.3015 80.9985 97.8378 82.9784 97.2538ZM97.7831 89.7115C98.0776 89.4885 98.3687 89.2636 98.6559 89.0362L98.0579 89.7874L97.7831 89.7115ZM115.277 68.1629C116.062 66.5995 116.601 65.3644 116.915 64.6054L117.895 64.8758L115.277 68.1629ZM96.3957 58.9794C93.4844 69.0921 87.392 75.9745 80.9507 80.6233L80.3416 77.9591L96.3957 58.9794ZM78.8818 79.6842L79.2939 81.7656C77.8425 82.7227 76.386 83.5726 74.9558 84.3254L78.8818 79.6842ZM61.2275 89.4063C60.6535 89.5362 60.1732 89.6337 59.8035 89.7038L59.2769 89.4265L61.2275 89.4063ZM15.8595 64.5794C16.6069 63.374 17.0742 62.1979 17.265 61.0564C17.6836 62.9485 18.2314 64.8057 18.9091 66.616C17.9681 65.5922 16.8294 64.9623 15.8595 64.5794ZM21.4723 74.7449C21.1095 74.6066 20.7599 74.4936 20.4407 74.403C20.7483 73.0905 20.8424 71.8785 20.7291 70.7689C21.6543 72.6037 22.7159 74.3796 23.9133 76.0827C23.229 75.5538 22.4102 75.1029 21.4723 74.7449ZM26.0408 82.7212C26.4329 81.2748 26.4051 79.9509 25.9579 78.7609C27.0898 80.1321 28.3141 81.448 29.6298 82.6999C30.0365 83.0869 30.4513 83.4629 30.8703 83.8331C29.3345 82.8313 27.5088 82.6453 26.0408 82.7212ZM52.1575 96.6838C51.5646 95.5419 50.6919 94.6765 49.5473 94.0995C47.1445 92.889 44.1669 93.3611 42.4214 93.8214C41.4704 91.5108 40.0398 89.9551 38.1566 89.1866C36.5372 88.5259 34.9196 88.6051 33.7045 88.8502C33.5075 87.1962 32.9528 85.8561 32.0473 84.8411C39.0124 90.5893 47.525 94.1384 56.6416 95.1215C54.8687 95.2304 53.2832 95.9777 52.1575 96.6838ZM58.6894 95.2994C59.7406 95.3676 60.7985 95.4043 61.862 95.4043C62.5818 95.4043 63.2988 95.3874 64.0131 95.3559L62.2406 97.4512C61.1936 96.3404 60.0051 95.62 58.6894 95.2994ZM83.1943 108.453L63.3724 98.0198L65.7159 95.2495C66.2899 95.204 66.8623 95.1508 67.4317 95.0852L77.7245 100.503L91.0269 98.6173L83.1943 108.453ZM98.5375 91.1641L110.946 94.5852L93.888 97.0029L98.5375 91.1641Z" fill="#173319"/>
<path d="M19.5752 26.871L20.0208 29.5702C22.2567 29.236 23.9086 28.3303 24.9386 26.8773L27.1279 28.371C31.0044 23.227 36.1589 18.9564 42.0347 16.0206C48.1032 12.9884 54.9592 11.3858 61.862 11.3858C66.6487 11.3858 71.3479 12.1334 75.8282 13.6076L76.7668 11.0255C71.984 9.45148 66.969 8.65326 61.862 8.65326C54.4963 8.65326 47.1788 10.3641 40.6997 13.6014C34.7881 16.5555 29.5619 20.7762 25.5173 25.8491C26.1344 24.436 26.146 22.9152 25.9972 21.7384C27.4752 21.7079 28.5554 21.2146 29.2728 20.719C31.277 19.3342 32.0854 16.8643 32.4065 15.2855C34.8081 15.4675 36.7503 14.9653 38.1913 13.787C39.3882 12.808 39.9815 11.5512 40.2749 10.5065C42.286 11.1723 44.077 11.1319 45.6159 10.3832C47.1911 9.61691 48.1448 8.24938 48.7103 7.03408C50.0576 8.09678 51.4979 8.61254 53.0117 8.56339C55.3224 8.49222 57.1608 7.08507 58.2298 6.01796C60.4275 7.66942 62.6214 8.3807 64.7663 8.1375C66.4467 7.94601 67.7551 7.19108 68.6598 6.46073C70.0781 8.46141 71.8001 9.6657 73.7966 10.0479C77.5066 10.7577 80.6249 8.25378 80.7556 8.14667L78.8848 6.07372C78.8632 6.09133 76.6774 7.81102 74.3629 7.36936C72.7746 7.06526 71.378 5.78723 70.2122 3.57122L69.0927 1.42674L67.7281 3.43293C67.7157 3.45054 66.466 5.20507 64.3997 5.42737C62.7717 5.60125 60.9726 4.81257 59.0494 3.08004L57.8135 1.96635L56.8682 3.31334C56.8509 3.33755 55.0884 5.76559 52.9188 5.83235C51.6925 5.865 50.4385 5.10786 49.1984 3.56645L47.1282 0.999023L46.6367 4.20437C46.5161 4.99231 45.8607 7.20135 44.3002 7.95408C43.1942 8.48745 41.6785 8.27616 39.7953 7.32534L37.6099 6.22229L37.6878 8.57512C37.6886 8.59493 37.714 10.5747 36.3197 11.7148C35.2834 12.5622 33.6412 12.7955 31.4389 12.4088L29.8379 12.1308L29.745 13.6773C29.6864 14.648 29.1837 17.4091 27.5801 18.5114C26.801 19.047 25.8091 19.1508 24.547 18.8287L21.9433 18.1677L22.8188 20.5957C22.8288 20.6236 23.8049 23.3895 22.6488 25.2152C22.0859 26.1044 21.0806 26.6458 19.5752 26.871Z" fill="#173319"/>
</svg>
