<svg width="63" height="28" viewBox="0 0 63 28" fill="none" xmlns="http://www.w3.org/2000/svg">
<rect width="63" height="28" rx="2" fill="#EEEEEE"/>
<path d="M27.2113 6L24.8525 21.9679H28.6228L30.9802 6H27.2113ZM38.5839 12.5044C37.2663 11.7967 36.4586 11.319 36.4586 10.5951C36.4747 9.93687 37.1417 9.26256 38.6309 9.26256C39.8558 9.22909 40.7562 9.54224 41.4392 9.85381L41.7813 10.0199L42.2939 6.67904C41.5492 6.36589 40.3684 6.02085 38.9099 6.02085C35.1867 6.02085 32.5649 8.12667 32.5487 11.1385C32.5179 13.361 34.4257 14.5943 35.8534 15.3342C37.3119 16.0931 37.8084 16.5852 37.8084 17.2595C37.7923 18.2948 36.6291 18.7725 35.5436 18.7725C34.0397 18.7725 33.2319 18.5265 32.0055 17.9496L31.509 17.7035L30.9818 21.1755C31.8674 21.6038 33.4962 21.9807 35.1868 22C39.1437 22 41.7184 19.9261 41.7507 16.7163C41.7636 14.9555 40.7576 13.6069 38.5839 12.5044ZM51.9598 6.04942H49.0428C48.1439 6.04942 47.4609 6.33067 47.0717 7.33408L41.4712 21.9679H45.4281L46.5178 18.7996H50.9447L51.5102 21.9807H55L51.9598 6.04942ZM47.6152 15.6023C47.6915 15.6103 49.1339 10.4303 49.1339 10.4303L50.2825 15.6023C50.2825 15.6023 48.3599 15.6023 47.6152 15.6023ZM21.7021 6L18.0081 16.8487L17.6057 14.7093C16.9227 12.2407 14.7814 9.55818 12.3916 8.22568L15.7742 21.952H19.7634L25.6913 6.00175H21.7021V6Z" fill="#2394BC"/>
<path d="M16.3631 8.05916C16.0752 6.84161 15.1572 6.02045 13.9104 6.00293H8.06025L8 6.29838C12.5635 7.52223 16.3939 11.2881 17.6365 14.8303L16.3631 8.05916Z" fill="#EFC75E"/>
</svg>
