<svg width="63" height="28" viewBox="0 0 63 28" fill="none" xmlns="http://www.w3.org/2000/svg">
<rect width="63" height="28" rx="2" fill="#EEEEEE"/>
<path d="M29.2559 15.8448C29.2559 15.1081 29.3617 14.4632 29.574 13.9106C29.786 13.3579 30.0645 12.8976 30.4099 12.529C30.7551 12.1607 31.152 11.8816 31.601 11.6921C32.0496 11.5027 32.5109 11.4079 32.9844 11.4079C34.0889 11.4079 34.9618 11.7687 35.6031 12.4895C36.2443 13.2107 36.5648 14.2712 36.5648 15.6711C36.5648 15.808 36.5598 15.9581 36.55 16.1211L36.5236 16.5554H31.5207C31.5205 16.5554 31.5204 16.5554 31.5203 16.5555C31.5201 16.5555 31.52 16.5556 31.5199 16.5557C31.5198 16.5558 31.5198 16.556 31.5197 16.5561C31.5197 16.5562 31.5197 16.5564 31.5197 16.5565C31.5692 17.0402 31.7811 17.424 32.1558 17.7079C32.5305 17.9922 33.0336 18.1343 33.6649 18.1343C34.0693 18.1343 34.4662 18.0948 34.856 18.0159C35.2448 17.937 35.5625 17.8401 35.809 17.7243C35.8097 17.724 35.8104 17.7244 35.8104 17.7244L36.1061 19.6335C36.1061 19.6335 36.106 19.6344 36.1056 19.6346C35.9873 19.6976 35.8296 19.7607 35.6327 19.8237C35.4353 19.8869 35.2159 19.9422 34.9742 19.9896C34.7325 20.0369 34.4735 20.0764 34.1975 20.108C33.9225 20.1395 33.6459 20.1553 33.369 20.1553C32.6686 20.1553 32.0596 20.0448 31.5418 19.8237C31.0239 19.6027 30.5949 19.3002 30.2545 18.9158C29.9142 18.5317 29.6627 18.0766 29.4999 17.55C29.3372 17.0238 29.2559 16.4554 29.2559 15.8448ZM34.4957 14.9448C34.4967 14.9448 34.4977 14.9445 34.4986 14.9441C34.4995 14.9437 34.5002 14.9431 34.5008 14.9423C34.5014 14.9415 34.5018 14.9406 34.502 14.9397C34.5022 14.9387 34.5022 14.9377 34.5019 14.9368L34.3381 14.3606C34.2838 14.1711 34.1998 14.0029 34.0866 13.8553C33.9731 13.708 33.83 13.5869 33.6575 13.4922C33.4848 13.3974 33.2703 13.3501 33.0138 13.3501C32.7672 13.3501 32.5552 13.395 32.3776 13.4843C32.2001 13.5739 32.0522 13.6922 31.9338 13.8395C31.8154 13.987 31.724 14.1581 31.6601 14.3527L31.4654 14.9448H34.4957V14.9448ZM40.7688 20.0922C40.1275 20.0816 39.3243 20.0078 38.9248 19.8712C38.5254 19.7345 38.2095 19.5423 37.9778 19.2948C37.746 19.0476 37.588 18.7477 37.5044 18.3949C37.4204 18.0423 37.3787 17.6449 37.3787 17.2027V8.06059L39.5832 7.68164V16.7291C39.5832 16.9397 39.5979 17.1292 39.6275 17.2975C39.6571 17.4659 39.7138 17.608 39.7977 17.7238C39.8814 17.8397 40.0023 17.9344 40.1602 18.008L40.746 18.2801C40.7623 18.2877 40.7716 18.305 40.7688 18.3225V20.0922Z" fill="#09100D"/>
<path d="M44.4651 9.43502C44.4651 9.83424 44.3342 10.1481 44.0731 10.3766C43.8116 10.6054 43.5035 10.7197 43.1483 10.7197C42.7932 10.7197 42.4848 10.6054 42.2236 10.3766C41.9622 10.1481 41.8315 9.83421 41.8315 9.43502C41.8315 9.03605 41.9622 8.72218 42.2236 8.49343C42.4848 8.26492 42.7932 8.15039 43.1483 8.15039C43.5035 8.15039 43.8116 8.26489 44.0731 8.49343C44.3342 8.72218 44.4651 9.03605 44.4651 9.43502Z" fill="#09100D"/>
<path d="M49.2444 13.9552L50.7915 11.627H53.07L50.3689 15.6656C50.988 16.4246 51.5377 17.1785 52.0183 17.928C52.4988 18.6776 52.8839 19.3456 53.1735 19.9323H50.8093C50.7093 19.735 50.6101 19.5373 50.5115 19.3394C50.3932 19.1026 50.2603 18.8549 50.1125 18.5968C49.9645 18.3387 49.8103 18.1202 49.6494 17.9411C49.4825 17.7553 49.3182 17.5871 49.1566 17.4364L48.7192 17.9043C48.5652 18.0694 48.4188 18.2754 48.2801 18.5223C48.1431 18.7662 48.0069 19.0105 47.8716 19.2553C47.738 19.497 47.6192 19.7225 47.5154 19.9322H45.2727C45.3966 19.6732 45.5603 19.3633 45.7637 19.0026C45.9671 18.642 46.1899 18.2699 46.4327 17.8865C46.6765 17.5017 46.9393 17.1287 47.2201 16.7689C47.5023 16.4072 47.7796 16.0678 48.0515 15.7504C47.5676 15.0168 47.1025 14.3117 46.656 13.6347C46.2094 12.9577 45.7681 12.2886 45.3318 11.627H47.714L49.2444 13.9552Z" fill="#09100D"/>
<path d="M56.654 18.8255C56.654 19.2463 56.5181 19.5667 56.2461 19.7863C55.9742 20.0059 55.6666 20.1159 55.3231 20.1159C54.9796 20.1159 54.672 20.0059 54.4001 19.7863C54.1282 19.5667 53.9922 19.2463 53.9922 18.8255C53.9922 18.4047 54.1282 18.0845 54.4001 17.8647C54.672 17.6451 54.9796 17.5352 55.3231 17.5352C55.6666 17.5352 55.9742 17.6451 56.2461 17.8647C56.518 18.0845 56.654 18.4047 56.654 18.8255Z" fill="#09100D"/>
<path d="M18.0414 10.4202C18.0414 11.2693 17.3391 11.9576 16.4728 11.9576C15.6065 11.9576 14.9043 11.2693 14.9043 10.4202C14.9043 9.57112 15.6065 8.88286 16.4728 8.88286C17.3391 8.88286 18.0414 9.57112 18.0414 10.4202ZM14.1118 10.4202C14.1118 11.2693 13.4096 11.9576 12.5433 11.9576C11.677 11.9576 10.9747 11.2693 10.9747 10.4202C10.9747 9.57112 11.677 8.88286 12.5433 8.88286C13.4096 8.88286 14.1118 9.57112 14.1118 10.4202ZM7.04759 10.505C6.99983 9.65723 7.66226 8.93206 8.52721 8.88519C9.39225 8.83841 10.1322 9.48771 10.1799 10.3355C10.2276 11.1832 9.56524 11.9084 8.70026 11.9552C7.8353 12.0021 7.09533 11.3527 7.04759 10.505Z" fill="#09100D"/>
<path d="M14.1117 14.4192C14.1117 15.2683 13.4095 15.9565 12.5432 15.9565C11.6768 15.9565 10.9746 15.2683 10.9746 14.4192C10.9746 13.5701 11.6768 12.8818 12.5432 12.8818C13.4095 12.8818 14.1117 13.5701 14.1117 14.4192Z" fill="#09100D"/>
<path d="M10.1823 18.4231C10.1823 19.2722 9.48005 19.9605 8.61374 19.9605C7.74743 19.9605 7.04517 19.2722 7.04517 18.4231C7.04517 17.574 7.7474 16.8857 8.61371 16.8857C9.48002 16.8857 10.1823 17.574 10.1823 18.4231Z" fill="#09100D"/>
<path d="M10.1823 14.4192C10.1823 15.2683 9.48005 15.9565 8.61374 15.9565C7.74743 15.9565 7.04517 15.2683 7.04517 14.4192C7.04517 13.5701 7.7474 12.8818 8.61371 12.8818C9.48002 12.8818 10.1823 13.5701 10.1823 14.4192Z" fill="#09100D"/>
<path d="M42.0536 11.6267H44.2718V19.9069H42.0536V11.6267ZM28.2098 13.142C28.1921 13.1412 28.1746 13.1394 28.1567 13.1394H24.6684V10.7774H28.814C28.8154 10.7774 28.8168 10.7772 28.8182 10.7772V8.64364C28.8176 8.64364 28.8171 8.64355 28.8165 8.64355H22.0757V19.932H24.6684V15.2733H28.1108C28.1442 15.2733 28.1771 15.2712 28.2098 15.2683V13.142Z" fill="#09100D"/>
</svg>
