<svg width="42" height="28" viewBox="0 0 42 28" fill="none" xmlns="http://www.w3.org/2000/svg">
<rect width="42" height="28" rx="2" fill="#EEEEEE"/>
<path d="M20.9995 19.9307C22.6904 18.4734 23.7575 16.3575 23.7575 14.0074C23.7575 11.6567 22.6901 9.54191 20.9995 8.06846C19.522 6.7838 17.5536 6 15.3869 6C10.7594 6 7 9.58875 7 14.007C7 18.4265 10.7594 21.9989 15.3869 21.9989C17.5536 21.9992 19.522 21.216 20.9995 19.9307Z" fill="#009DDD"/>
<path d="M20.9995 19.9306C22.6904 18.4733 23.7575 16.3574 23.7575 14.0073C23.7575 11.6566 22.6901 9.5418 20.9995 8.06836V19.9306Z" fill="#009DDD"/>
<path d="M26.6296 6C24.4627 6 22.493 6.7838 20.9996 8.06846C20.7045 8.33464 20.4258 8.61687 20.1624 8.91524H21.8526C22.0828 9.18079 22.2962 9.47916 22.493 9.76085H19.522C19.342 10.0431 19.1778 10.3256 19.0295 10.6071H22.9688C23.1008 10.8888 23.2313 11.1719 23.3298 11.4535H18.6864C18.5875 11.7355 18.5052 12.0183 18.4398 12.3153H23.5763C23.6909 12.8482 23.7575 13.4282 23.7575 14.0074C23.7575 14.8849 23.6089 15.7472 23.3299 16.5462H18.6864C18.7841 16.8279 18.8992 17.1104 19.03 17.3924H22.9692C22.8219 17.6747 22.6736 17.9722 22.4931 18.2387H19.522C19.72 18.5365 19.9328 18.8184 20.1624 19.0849H21.8526C21.5905 19.3827 21.3111 19.665 20.9996 19.9311C22.4931 21.2164 24.4627 21.9996 26.6296 21.9996C31.2578 21.9996 35 18.4272 35 14.0077C34.9996 9.58883 31.2578 6 26.6296 6Z" fill="#ED1C2E"/>
<path d="M32.1104 15.7311C32.1104 15.5897 32.2424 15.4805 32.3897 15.4805C32.5377 15.4805 32.6522 15.5898 32.6522 15.7311C32.6522 15.8726 32.5376 15.9978 32.3897 15.9978C32.2424 15.9978 32.1104 15.8726 32.1104 15.7311ZM32.3897 15.935C32.5042 15.935 32.5864 15.841 32.5864 15.7311C32.5864 15.6215 32.5042 15.5429 32.3897 15.5429C32.2746 15.5429 32.177 15.6215 32.177 15.7311C32.177 15.841 32.2746 15.935 32.3897 15.935ZM32.3568 15.841H32.2914V15.6214H32.3896C32.4219 15.6214 32.4388 15.6214 32.4556 15.6372C32.4718 15.6527 32.4878 15.668 32.4878 15.6841C32.4878 15.7158 32.4716 15.7471 32.4387 15.7471L32.4878 15.8409H32.4219L32.3896 15.7623H32.3568V15.841ZM32.3568 15.7158H32.3896C32.3896 15.7158 32.4059 15.7158 32.4219 15.7158C32.4219 15.7158 32.4219 15.6996 32.4219 15.6841V15.668C32.4056 15.668 32.3896 15.668 32.3734 15.668H32.3565V15.7158H32.3568Z" fill="white"/>
<path d="M14.3366 15.9978H13.2867L13.9101 12.8794L12.4826 15.9978H11.5298L11.3661 12.895L10.7427 15.9978H9.79041L10.595 11.9395H12.2355L12.3175 14.4461L13.4678 11.9395H15.1565L14.3366 15.9978Z" fill="white"/>
<path d="M25.9893 15.9509C25.6937 16.0286 25.4803 16.0599 25.2338 16.0599C24.7091 16.0599 24.4128 15.8093 24.4128 15.3397C24.4128 15.2453 24.4297 15.151 24.4457 15.0414L24.511 14.7122L24.5614 14.4619L25.0369 11.9395H26.0706L25.9236 12.691H26.4645L26.3171 13.4908H25.7757L25.5132 14.8693C25.4963 14.9321 25.4804 14.9792 25.4804 15.0103C25.4804 15.183 25.5955 15.2606 25.842 15.2606C25.9566 15.2606 26.0542 15.2451 26.1208 15.2295L25.9893 15.9509Z" fill="white"/>
<path d="M29.0255 12.7232C28.9432 12.6913 28.9273 12.6913 28.911 12.6913C28.8613 12.6751 28.8287 12.6751 28.8287 12.6602C28.7952 12.6602 28.7628 12.6602 28.7142 12.6602C28.3688 12.6602 28.1229 12.8012 27.8107 13.1924L27.9089 12.6913H26.9567L26.3169 15.9978H27.3674C27.7447 13.9756 27.8926 13.6157 28.401 13.6157C28.4338 13.6157 28.4839 13.6315 28.5325 13.6315L28.6476 13.6626L29.0255 12.7232Z" fill="white"/>
<path d="M21.8528 13.7414C21.8528 14.1491 22.0993 14.4466 22.6574 14.6509C23.0844 14.8227 23.1501 14.8701 23.1501 15.027C23.1501 15.2304 22.9527 15.3248 22.5426 15.3248C22.2307 15.3248 21.9347 15.2776 21.5903 15.1841L21.459 15.952H21.5087L21.6886 15.9986C21.754 15.9986 21.8522 16.0144 21.9674 16.0144C22.2139 16.0452 22.411 16.0452 22.5587 16.0452C23.6583 16.0452 24.1835 15.7005 24.1835 14.9487C24.1835 14.4941 23.9701 14.228 23.4287 14.0242C22.9851 13.8674 22.9362 13.8205 22.9362 13.6637C22.9362 13.4919 23.1167 13.3975 23.4615 13.3975C23.6582 13.3975 23.9532 13.4137 24.2158 13.4442L24.3638 12.6923C24.085 12.646 23.6749 12.6299 23.4447 12.6299C22.2635 12.6293 21.8528 13.1305 21.8528 13.7414Z" fill="white"/>
<path d="M17.7172 15.9969H16.8635L16.8804 15.6516C16.618 15.9183 16.2569 16.0435 15.7808 16.0435C15.2233 16.0435 14.8291 15.6832 14.8291 15.1504C14.8291 14.3508 15.5011 13.8809 16.6673 13.8809C16.7812 13.8809 16.9295 13.8809 17.0937 13.8971C17.1265 13.7875 17.1265 13.7399 17.1265 13.6933C17.1265 13.4741 16.9454 13.3955 16.4533 13.3955C16.1577 13.3955 15.8304 13.4268 15.6002 13.4741L15.4529 13.5212L15.354 13.5365L15.5014 12.8003C16.0273 12.6742 16.3551 12.6279 16.7496 12.6279C17.6515 12.6279 18.1114 12.9565 18.1114 13.5831C18.1114 13.7558 18.0951 13.8812 18.0297 14.2417L17.8164 15.4171L17.7835 15.6206L17.7501 15.7935L17.7338 15.9026L17.7172 15.9969ZM16.9624 14.5234C16.8466 14.5079 16.7981 14.5079 16.7327 14.5079C16.1415 14.5079 15.8464 14.6803 15.8464 15.0097C15.8464 15.2132 15.9772 15.3544 16.2068 15.3544C16.6345 15.3544 16.9458 15.0097 16.9624 14.5234Z" fill="white"/>
<path d="M21.1469 15.9182C20.7865 16.0122 20.4417 16.0588 20.0801 16.0588C18.9163 16.0588 18.3079 15.5415 18.3079 14.5701C18.3079 13.4417 19.0796 12.6113 20.1301 12.6113C20.9832 12.6113 21.526 13.0815 21.526 13.8022C21.526 14.0525 21.4925 14.2888 21.4109 14.6174H19.3255C19.3255 14.6798 19.3255 14.6953 19.3255 14.7273C19.3255 15.1033 19.6211 15.3068 20.2284 15.3068C20.606 15.3068 20.9505 15.2443 21.3111 15.1036L21.1469 15.9182ZM20.5894 13.9599C20.5894 13.8969 20.5894 13.8339 20.5894 13.7873C20.5894 13.5211 20.4082 13.3637 20.097 13.3637C19.7685 13.3637 19.5388 13.583 19.4397 13.9599H20.5894Z" fill="white"/>
<path d="M32.2747 14.4937C32.1105 15.5899 31.3064 16.0758 30.2391 16.0758C29.0746 16.0758 28.5991 15.4026 28.5991 14.5564C28.5991 13.3966 29.4025 12.5967 30.6498 12.5967C31.7332 12.5967 32.3075 13.255 32.3075 14.0856C32.3079 14.2906 32.3079 14.3058 32.2747 14.4937ZM31.1919 14.0701C31.1919 13.7255 31.0439 13.413 30.6182 13.413C30.0917 13.413 29.7639 14.0077 29.7639 14.5408C29.7639 14.9799 29.9941 15.2774 30.3552 15.2774C30.5848 15.2774 31.0772 14.9799 31.1592 14.4784C31.1919 14.3524 31.1919 14.212 31.1919 14.0701Z" fill="white"/>
</svg>
