<svg width="63" height="28" viewBox="0 0 63 28" fill="none" xmlns="http://www.w3.org/2000/svg">
<rect x="0.00012207" width="63" height="28" rx="2" fill="#EEEEEE"/>
<path fill-rule="evenodd" clip-rule="evenodd" d="M9.33508 7.87109H13.7667C16.001 7.87109 17.6492 8.99922 17.6492 11.365C17.6492 13.3305 16.4041 14.5316 14.4627 14.5316H12.7049V17.4068H9.33508V7.87109ZM12.7049 12.1296H13.0346C13.6571 12.1296 14.3164 12.0204 14.3164 11.2561C14.3164 10.5282 13.5837 10.4555 13.0346 10.4555H12.7049V12.1296ZM23.0701 16.4974H22.9969C22.3744 17.1522 21.8614 17.5528 20.9092 17.5528C19.1144 17.5528 18.0887 15.6968 18.0887 14.0589C18.0887 12.3845 19.1144 10.5282 21.0188 10.5282C21.8247 10.5282 22.4839 10.8193 22.9966 11.4745H23.0698L22.9599 10.6739H26.1828V17.4074H22.9602L23.0701 16.4974ZM22.191 15.0052C22.8136 15.0052 23.0701 14.496 23.0701 13.9859C23.0701 13.4765 22.704 13.0762 22.191 13.0762C21.678 13.0762 21.3484 13.513 21.3484 14.0221C21.3487 14.5319 21.6049 15.0052 22.191 15.0052ZM29.9558 10.6739L30.6882 13.3308L30.8712 14.35H30.9814L31.128 13.3308L31.8969 10.6739H35.3399L31.0178 20.1735H27.5751L29.2962 16.7155L26.4029 10.6739H29.9558ZM38.5995 14.6046C38.5995 15.1144 38.6724 15.733 39.3687 15.733C39.7348 15.733 39.9548 15.4781 40.0277 15.1867H43.2139C42.7744 16.7885 40.9802 17.5525 39.4415 17.5525C37.3174 17.5525 35.376 16.4609 35.376 14.131C35.376 11.9109 37.0976 10.5279 39.2218 10.5279C41.6391 10.5279 43.5438 12.0931 43.3602 14.6043H38.5995V14.6046ZM40.1379 13.1851C40.1379 12.7483 39.8082 12.3115 39.3317 12.3115C38.8557 12.3115 38.5995 12.7483 38.5995 13.1851H40.1379ZM47.3896 11.7656H47.4631C48.0856 11.0377 48.5616 10.5282 49.6236 10.5282C51.3083 10.5282 51.9678 11.8021 51.9678 13.2581V17.4074H48.6714V14.1316C48.6714 13.731 48.6714 13.1854 48.1217 13.1854C47.5726 13.1854 47.5727 13.731 47.5727 14.1316V17.4074H44.3127V10.6739H47.4989L47.3896 11.7656Z" fill="#09100D"/>
<path fill-rule="evenodd" clip-rule="evenodd" d="M53.7993 10.3102C54.0922 10.3102 54.349 10.4194 54.5684 10.6743C54.7885 10.8927 54.8981 11.1475 54.8981 11.4386C54.8981 11.7297 54.7885 11.9846 54.5684 12.203C54.349 12.4214 54.0925 12.5306 53.7993 12.5306C53.4696 12.5306 53.2131 12.4214 52.9937 12.203C52.7736 12.0211 52.6634 11.7297 52.6634 11.4386C52.6634 11.1475 52.7736 10.8923 52.9937 10.6743C53.2131 10.4194 53.4696 10.3102 53.7993 10.3102ZM55.1178 11.4386C55.1178 11.0745 55.0076 10.747 54.7147 10.4921C54.4582 10.2372 54.165 10.0918 53.7993 10.0918C53.4335 10.0918 53.1032 10.201 52.8471 10.4559C52.5906 10.7108 52.444 11.0383 52.444 11.4386C52.444 11.8024 52.5542 12.13 52.81 12.3849C53.1029 12.6397 53.3962 12.7486 53.7993 12.7486C54.1653 12.7486 54.4582 12.6394 54.7147 12.3849C55.0076 12.13 55.1178 11.8024 55.1178 11.4386ZM54.0187 11.1472C54.0187 11.2199 53.9823 11.2926 53.9459 11.3291C53.9094 11.3656 53.8357 11.4018 53.7258 11.4018H53.5792V10.965H53.6894C53.7628 10.965 53.836 10.965 53.9094 11.0015C53.982 11.0015 54.0187 11.0745 54.0187 11.1472ZM53.5792 12.1662V11.6567H53.7628C53.7993 11.6567 53.8357 11.6567 53.8724 11.6932C53.9459 11.6932 53.9826 11.7297 53.9826 11.8024C54.019 11.8024 54.019 11.8751 54.019 11.9843C54.019 12.057 54.019 12.13 54.0561 12.1662H54.4221L54.3857 12.13V12.0935V11.9113C54.3857 11.7656 54.3493 11.6564 54.2391 11.5837C54.189 11.5382 54.1239 11.5123 54.0561 11.511C54.1289 11.4745 54.2391 11.4383 54.3119 11.4015C54.3854 11.3288 54.4221 11.2558 54.4221 11.1469C54.4221 10.9647 54.3493 10.8558 54.2027 10.7828C54.1116 10.7375 54.0116 10.7126 53.9098 10.7101H53.1773V12.1659H53.5792V12.1662Z" fill="#09100D"/>
</svg>
