<svg width="50" height="50" viewBox="0 0 50 50" fill="none" xmlns="http://www.w3.org/2000/svg">
<g clip-path="url(#clip0_1_30)">
<path d="M17.4315 17.9292V18.8446C17.4315 19.2491 17.7594 19.5771 18.164 19.5771C18.5686 19.5771 18.8964 19.2491 18.8964 18.8446V17.9292C18.8964 17.5247 18.5686 17.1968 18.164 17.1968C17.7594 17.1968 17.4315 17.5247 17.4315 17.9292Z" fill="#90B956"/>
<path d="M23.4611 20.9964C23.5766 21.063 23.7024 21.0946 23.8267 21.0946C24.0798 21.0946 24.326 20.9632 24.4616 20.7283L24.9193 19.9355C25.1216 19.5853 25.0016 19.1373 24.6513 18.9351C24.3008 18.7327 23.8529 18.8528 23.6508 19.2031L23.1931 19.9959C22.9907 20.3462 23.1108 20.7941 23.4611 20.9964Z" fill="#90B956"/>
<path d="M27.9737 25.2404C28.0979 25.2404 28.2239 25.2088 28.3393 25.1422L29.132 24.6846C29.4823 24.4823 29.6023 24.0344 29.4001 23.6841C29.1979 23.3338 28.75 23.2138 28.3996 23.4159L27.6068 23.8735C27.2565 24.0758 27.1365 24.5237 27.3388 24.874C27.4744 25.1091 27.7207 25.2404 27.9737 25.2404Z" fill="#90B956"/>
<path d="M7.92832 23.4159C7.57783 23.2137 7.12998 23.3336 6.92783 23.6841C6.72559 24.0344 6.84258 24.4877 7.1959 24.6846C7.91416 25.0849 8.03525 25.2404 8.3542 25.2404C8.60732 25.2404 8.85352 25.109 8.98916 24.874C9.19141 24.5237 9.07139 24.0758 8.72109 23.8735L7.92832 23.4159Z" fill="#90B956"/>
<path d="M11.8664 20.7283C12.0021 20.9633 12.2482 21.0946 12.5014 21.0946C12.6256 21.0946 12.7516 21.063 12.8669 20.9964C13.2172 20.7941 13.3372 20.3462 13.135 19.9959L12.6772 19.2031C12.4751 18.8528 12.027 18.7328 11.6768 18.9351C11.3265 19.1373 11.2064 19.5853 11.4087 19.9355L11.8664 20.7283Z" fill="#90B956"/>
<path d="M6.69961 43.9984H0.732422C0.327832 43.9984 0 44.3264 0 44.7309C0 45.1354 0.327832 45.4633 0.732422 45.4633H6.69961C7.1042 45.4633 7.43203 45.1354 7.43203 44.7309C7.43203 44.3264 7.1042 43.9984 6.69961 43.9984Z" fill="#90B956"/>
<path d="M49.2675 43.9984H10.1176C9.71299 43.9984 9.38516 44.3264 9.38516 44.7309C9.38516 45.1354 9.71299 45.4633 10.1176 45.4633H49.2674C49.672 45.4633 49.9998 45.1354 49.9998 44.7309C49.9998 44.3264 49.672 43.9984 49.2675 43.9984Z" fill="#90B956"/>
<path d="M5.11328 14.3281C5.42344 14.5874 5.88535 14.5464 6.14492 14.236C6.27471 14.0809 6.46455 13.9919 6.66602 13.9919C6.88535 13.9919 7.09219 14.099 7.21953 14.2787C7.38877 14.5173 7.66504 14.6598 7.9582 14.6597C8.25146 14.6596 8.52764 14.5171 8.69639 14.2788C8.82393 14.0992 9.03125 13.9919 9.25098 13.9919C9.45234 13.9919 9.64238 14.081 9.77217 14.236C10.0316 14.5464 10.4937 14.5876 10.8038 14.3281C11.1142 14.0687 11.1555 13.6067 10.8959 13.2965C10.487 12.8075 9.8875 12.5271 9.25088 12.5271C8.77939 12.5271 8.32627 12.6832 7.9582 12.9611C7.59033 12.6832 7.1374 12.5271 6.66602 12.5271C6.02949 12.5271 5.42998 12.8075 5.02109 13.2965C4.76172 13.6067 4.80293 14.0687 5.11328 14.3281V14.3281Z" fill="#90B956"/>
<path d="M17.1278 6.33789C17.438 6.59727 17.9 6.55615 18.1595 6.2458C18.2893 6.09062 18.4791 6.00166 18.6806 6.00166C18.8999 6.00166 19.1067 6.10879 19.234 6.28828C19.4032 6.52685 19.6794 6.66943 19.9725 6.66943C20.2656 6.66943 20.5417 6.52705 20.711 6.28838C20.8385 6.10879 21.0457 6.00156 21.2655 6.00156C21.4669 6.00156 21.6568 6.09062 21.7866 6.2457C22.0461 6.55605 22.508 6.59727 22.8183 6.33779C23.1286 6.07832 23.1699 5.61641 22.9104 5.30615C22.5015 4.81719 21.902 4.53672 21.2654 4.53672C20.7938 4.53672 20.3405 4.69297 19.9726 4.9708C19.6047 4.69297 19.1518 4.53672 18.6805 4.53672C18.0439 4.53672 17.4444 4.81719 17.0355 5.30615C16.7763 5.6165 16.8175 6.07842 17.1278 6.33789V6.33789Z" fill="#90B956"/>
<path d="M49.2675 39.3142H31.5188C32.3731 38.1102 33.7591 37.375 35.2891 37.375C35.3455 37.375 35.4021 37.3767 35.4584 37.3785C36.0713 37.3981 36.6786 37.309 37.2446 37.1182C37.8801 37.8155 38.7952 38.2539 39.8108 38.2539C41.7012 38.2539 43.2426 36.7352 43.2812 34.8538C45.2557 34.6766 47.1838 35.0292 48.946 35.8904C49.0495 35.941 49.1591 35.965 49.267 35.9649C49.538 35.9649 49.7985 35.8139 49.9256 35.554C50.1031 35.1905 49.9525 34.752 49.5892 34.5744C48.5969 34.0895 47.5603 33.7477 46.4904 33.5491C46.7637 32.5515 46.9414 31.5254 47.0229 30.4825H49.2677C49.6723 30.4825 50.0001 30.1546 50.0001 29.7501C50.0001 29.3456 49.6723 29.0177 49.2677 29.0177H47.0736C47.0624 27.5242 46.8594 26.0082 46.4627 24.5025C45.696 21.5926 44.2251 18.7796 42.1858 16.3011L47.9152 14.8746C48.2492 14.7915 48.5271 14.5519 48.6586 14.2336C48.7897 13.9162 48.7622 13.5516 48.5849 13.258C47.4358 11.3561 45.3736 10.2935 43.2222 10.4085L44.3519 6.7459C44.4442 6.44853 44.3936 6.13271 44.2125 5.8793C44.0319 5.62646 43.7506 5.47637 43.4396 5.46728C41.1172 5.40273 38.9937 6.71494 37.9811 8.74599C37.7402 8.53955 37.4843 8.3501 37.2135 8.1833C36.8691 7.97109 36.418 8.07812 36.2057 8.42266C35.9935 8.76699 36.1007 9.21816 36.445 9.43037C36.7489 9.61758 37.0305 9.83955 37.2811 10.0895C37.344 10.1524 37.4047 10.2182 37.4641 10.2849C37.3308 10.9908 37.3273 11.7115 37.451 12.4117C36.953 11.9937 36.3867 11.6598 35.7751 11.4235C34.8371 10.3322 33.7135 9.44531 32.4726 8.81357C32.8281 8.73223 33.1949 8.68584 33.5642 8.67676C33.9687 8.6667 34.2883 8.33086 34.2782 7.92637C34.2683 7.52812 33.9425 7.21211 33.5464 7.21211C33.5402 7.21211 33.534 7.21221 33.5279 7.2123C32.5458 7.23672 31.5731 7.47012 30.7145 7.88769C30.3614 8.05986 30.147 8.425 30.1681 8.81807C30.1893 9.2124 30.4426 9.55361 30.8126 9.68691C31.6855 10.0028 32.5098 10.4611 33.2578 11.0401C31.2692 11.1749 29.4234 12.3121 28.4426 14.1259C28.2959 14.3976 28.2848 14.7151 28.4118 14.9972C28.5395 15.2805 28.786 15.4834 29.0922 15.555L32.8307 16.4083C31.6555 18.2141 31.5447 20.5312 32.6173 22.477C32.7826 22.7772 33.0846 22.9834 33.425 23.0286C33.4724 23.0349 33.5199 23.038 33.5672 23.038C33.8605 23.038 34.1462 22.9188 34.3521 22.7055L38.64 18.2617C40.6953 21.5599 41.5627 25.2716 41.1807 29.0176H26.7874C26.2224 24.7324 22.5622 21.4687 18.164 21.4687C13.7657 21.4687 10.1056 24.7324 9.54053 29.0176H0.732422C0.327832 29.0176 0 29.3455 0 29.75C0 30.1545 0.327832 30.4824 0.732422 30.4824H40.9675C40.9069 30.8025 40.8373 31.1225 40.7584 31.4421C40.4569 31.3564 40.1394 31.3096 39.8108 31.3096C37.8964 31.3096 36.3387 32.8672 36.3387 34.7817C36.3387 35.1399 36.3933 35.4856 36.4944 35.8109C36.1764 35.8891 35.8436 35.9254 35.5063 35.9144C35.4339 35.912 35.3614 35.9102 35.2891 35.9102C32.9358 35.9102 30.8408 37.2307 29.8197 39.3142H27.9023C27.4978 39.3142 27.1699 39.6421 27.1699 40.0466C27.1699 40.4511 27.4978 40.779 27.9023 40.779H49.2675C49.6721 40.779 49.9999 40.4511 49.9999 40.0466C49.9999 39.6421 49.672 39.3142 49.2675 39.3142V39.3142ZM18.164 22.9336C21.7556 22.9336 24.7562 25.5498 25.3084 29.0176H11.0196C11.5719 25.5498 14.5724 22.9336 18.164 22.9336V22.9336ZM42.7524 6.96055L41.5905 10.7277C40.5648 11.0812 39.6643 11.7061 38.9773 12.5312C38.7837 11.8055 38.7602 11.0334 38.9592 10.2986C38.9629 10.2851 38.9674 10.2717 38.9705 10.2579C38.9869 10.1951 39.0038 10.1325 39.023 10.0702C39.5455 8.375 41.0294 7.16572 42.7524 6.96055ZM34.6375 12.6018C35.4605 12.7899 36.2043 13.2079 36.7909 13.7934C35.7326 13.9758 34.7414 14.4433 33.9225 15.155L30.0791 14.2778C31.1188 12.8882 32.9081 12.2074 34.6375 12.6018ZM33.674 21.2981C33.0108 19.6774 33.3545 17.8171 34.5968 16.5297C35.5084 15.5852 36.7834 15.0937 38.0958 15.1799C38.1109 15.1809 38.1259 15.1805 38.141 15.1812C38.1627 15.1824 38.1844 15.1836 38.2062 15.1832C38.7353 15.1802 39.218 14.8968 39.4811 14.4374C39.487 14.4271 39.4927 14.4165 39.498 14.4059C39.5073 14.3887 39.5172 14.372 39.5259 14.3543C40.1067 13.1746 41.1705 12.3161 42.4442 11.9989C44.1808 11.5665 45.9635 12.1992 47.0354 13.5839L39.4514 15.4722C39.3181 15.5054 39.1968 15.5754 39.1014 15.6743L33.674 21.2981ZM42.5471 29.9143C42.5564 29.8735 42.562 29.8316 42.5643 29.7887C43.1644 25.3919 42.1776 21.0146 39.6866 17.1772L40.0093 16.843L40.5989 16.6962C42.7421 19.1395 44.2773 21.9583 45.046 24.8758C45.8071 27.7645 45.796 30.6875 45.0195 33.3681C44.351 33.327 43.7144 33.3365 42.9995 33.4096C42.7914 32.9279 42.4771 32.5028 42.0865 32.163C42.287 31.4146 42.4396 30.6643 42.5471 29.9143V29.9143ZM39.8107 32.7744C40.9176 32.7744 41.8181 33.6749 41.8181 34.7817C41.8181 35.8886 40.9176 36.7891 39.8107 36.7891C38.7039 36.7891 37.8034 35.8886 37.8034 34.7817C37.8034 33.6749 38.7039 32.7744 39.8107 32.7744Z" fill="#90B956"/>
<path d="M24.0105 33.1777C24.0105 32.7732 23.6826 32.4453 23.278 32.4453H13.0499C12.6453 32.4453 12.3175 32.7732 12.3175 33.1777C12.3175 33.5822 12.6453 33.9102 13.0499 33.9102H23.278C23.6826 33.9102 24.0105 33.5822 24.0105 33.1777V33.1777Z" fill="#90B956"/>
<path d="M22.1375 35.9792C22.1375 35.5747 21.8097 35.2468 21.4051 35.2468H14.923C14.5184 35.2468 14.1905 35.5747 14.1905 35.9792C14.1905 36.3837 14.5184 36.7116 14.923 36.7116H21.4051C21.8096 36.7116 22.1375 36.3837 22.1375 35.9792Z" fill="#90B956"/>
<path d="M16.796 38.0482C16.3914 38.0482 16.0636 38.3762 16.0636 38.7807C16.0636 39.1852 16.3914 39.5131 16.796 39.5131H19.5321C19.9367 39.5131 20.2646 39.1852 20.2646 38.7807C20.2646 38.3762 19.9367 38.0482 19.5321 38.0482H16.796Z" fill="#90B956"/>
</g>
<defs>
<clipPath id="clip0_1_30">
<rect width="50" height="50" fill="white"/>
</clipPath>
</defs>
</svg>
