<svg width="60" height="60" viewBox="0 0 60 60" fill="none" xmlns="http://www.w3.org/2000/svg">
<path d="M9.96094 14.8828C9.83203 15.0117 9.72656 15.2578 9.72656 15.4219C9.72656 15.6914 10.7344 19.7695 11.1914 21.3398L11.3438 21.8672L9.64453 22.2422C8.64844 22.4531 7.85156 22.6875 7.72266 22.8047C7.51172 22.9922 7.5 23.2734 7.5 28.8164V34.6289L6.87891 34.8516C6.02344 35.1563 2.46094 36.5156 2.08594 36.6797C1.92188 36.7617 1.72266 36.9492 1.65234 37.1133C1.57031 37.3008 1.52344 38.625 1.52344 41.0625C1.52344 44.6016 1.53516 44.7422 1.76953 45.0469L2.00391 45.3516H6.22266C10.2773 45.3516 10.4414 45.3398 10.6641 45.1172C10.957 44.8242 10.9688 44.2852 10.6758 43.9336L10.4531 43.6523L6.86719 43.6172L3.28125 43.582L3.30469 40.8164L3.33984 38.0508L5.80078 37.125C21.0586 31.3945 40.2539 26.4258 55.9922 24.1641L56.7305 24.0586L56.6602 24.7148C56.332 27.668 55.8516 29.4844 54.8789 31.4648C54.0938 33.0352 53.4727 33.832 51.2109 36.1523C48.3633 39.082 46.8984 40.9805 46.0078 42.8672L45.668 43.582L38.5195 43.6172L31.3828 43.6523L31.1602 43.9336C30.8672 44.2852 30.8789 44.7773 31.1719 45.0938L31.418 45.3516H39.0703C47.7773 45.3516 46.8984 45.4688 47.332 44.2383C47.918 42.5625 49.6992 40.2188 52.793 37.043C53.8945 35.9063 55.043 34.6406 55.3359 34.2188C56.4961 32.5781 57.5273 30.082 58.0078 27.7383C58.3477 26.0625 58.5469 23.4375 58.3828 22.875C58.1484 22.1133 57.9844 22.1016 55.2773 22.5C52.3008 22.9453 49.1367 23.4844 47.1797 23.8594C46.0195 24.0938 45.5977 24.1289 45.3867 24.0352C45.2344 23.9648 43.2305 22.8164 40.9219 21.4805L36.7383 19.043L35.8594 19.0781C35.3789 19.0898 33.4336 19.2422 31.5352 19.3945C29.6367 19.5586 28.0781 19.6758 28.0547 19.6523C28.043 19.6406 27.7266 18.6328 27.3516 17.4141C26.9766 16.1953 26.5664 15.082 26.4492 14.9297L26.2383 14.6484H22.9219C19.8164 14.6484 19.5938 14.6602 19.4062 14.8711C19.2891 14.9883 19.1953 15.2461 19.1953 15.4219C19.1836 15.6094 19.4883 16.8047 19.8516 18.0938C20.2148 19.3711 20.5078 20.4375 20.4844 20.4492C20.4609 20.4727 20.0859 20.543 19.6523 20.6016L18.8672 20.707L18.75 20.2852C18.1523 18.0938 17.0977 14.9297 16.9219 14.8008C16.7578 14.6836 15.9375 14.6484 13.4531 14.6484C10.3477 14.6484 10.1836 14.6602 9.96094 14.8828ZM16.4297 18.6797C16.8047 19.9102 17.0977 20.918 17.0742 20.918C17.0625 20.9297 16.2656 21.0586 15.293 21.1992C14.332 21.3516 13.4297 21.4922 13.2891 21.5156C13.0664 21.5742 13.0078 21.4102 12.4219 19.1367C12.082 17.8008 11.7773 16.6289 11.7422 16.5469C11.707 16.4297 12.1172 16.4063 13.7227 16.4297L15.75 16.4648L16.4297 18.6797ZM25.7344 18.1172C26.0273 19.0547 26.25 19.8398 26.2383 19.8516C26.2148 19.8633 25.5352 19.9453 24.7266 20.0273C23.918 20.0977 23.0508 20.1914 22.7812 20.2266L22.3008 20.2969L21.7969 18.5039C21.5273 17.5195 21.2812 16.6406 21.2461 16.5586C21.1992 16.4414 21.5859 16.4063 23.1914 16.4063H25.1836L25.7344 18.1172ZM36.8672 21.1758C37.7812 21.7031 37.8047 21.6914 35.625 22.0313C27 23.4023 16.0664 25.7695 10.7578 27.4336C9.94922 27.6797 9.24609 27.8906 9.21094 27.8906C9.17578 27.8906 9.14062 27.0469 9.14062 26.0273C9.14062 24.3516 9.16406 24.1523 9.35156 24.0938C9.91406 23.9297 12.7266 23.3906 14.5898 23.0859C19.4883 22.2891 25.7461 21.6094 34.6875 20.8711C35.3672 20.8242 35.9648 20.7656 36.0117 20.7539C36.0586 20.7539 36.4453 20.9414 36.8672 21.1758ZM41.5312 23.8711L42.9023 24.668L42.2812 24.8086C41.9414 24.8906 40.5586 25.1953 39.1992 25.4883C31.043 27.2695 21.7734 29.8242 13.0664 32.707C10.9453 33.4102 9.1875 33.9844 9.17578 33.9844C9.15234 33.9844 9.14062 33.0352 9.14062 31.875V29.7773L10.6289 29.3086C15.6445 27.7266 24.375 25.7461 32.6367 24.3164C37.6406 23.4492 39.6797 23.1094 39.9141 23.0977C40.0547 23.0859 40.7812 23.4375 41.5312 23.8711Z" fill="#90B956"/>
<path d="M41.2383 31.1602C40.9219 31.418 40.8633 32.1211 41.1445 32.4023C41.6836 32.9531 42.6562 32.5664 42.6562 31.8047C42.6562 31.043 41.8477 30.668 41.2383 31.1602Z" fill="#90B956"/>
<path d="M36.5156 32.2383C35.8828 32.7422 36.2461 33.75 37.0664 33.75C37.9688 33.75 38.25 32.4961 37.418 32.1211C37.0195 31.9336 36.8672 31.957 36.5156 32.2383Z" fill="#90B956"/>
<path d="M31.6523 33.4688C31.2539 33.9844 31.4062 34.582 31.9922 34.7813C32.6367 35.0156 33.1641 34.6289 33.1641 33.9375C33.1641 33.1992 32.1211 32.8828 31.6523 33.4688Z" fill="#90B956"/>
<path d="M15.4688 43.6758C15.0703 43.8281 14.8828 44.1094 14.8828 44.543C14.8828 45.2578 15.1289 45.3516 16.9453 45.3516C18.6797 45.3516 18.8672 45.2695 18.8672 44.5078C18.8672 43.793 18.5859 43.6523 17.0039 43.6289C16.2539 43.6172 15.5625 43.6289 15.4688 43.6758Z" fill="#90B956"/>
<path d="M23.4727 43.6758C23.1562 43.7344 22.8516 44.1328 22.8516 44.4844C22.8516 44.625 22.957 44.8711 23.0977 45.0469C23.332 45.3516 23.3438 45.3516 24.9492 45.3516C26.7773 45.3516 26.9531 45.2813 26.9531 44.5078C26.9531 43.7813 26.6719 43.6523 25.0898 43.6289C24.3398 43.6289 23.6133 43.6406 23.4727 43.6758Z" fill="#90B956"/>
</svg>
