<svg width="16" height="16" viewBox="0 0 16 16" fill="none" xmlns="http://www.w3.org/2000/svg">
<path d="M14.128 6.66313C13.7991 6.65957 13.472 6.64357 13.1449 6.66846C12.9191 6.68446 12.7911 6.58846 12.6791 6.41424C12.2951 5.82046 11.8933 5.23735 11.52 4.63646C11.2942 4.27202 10.976 4.10491 10.5671 4.06757C10.4853 4.06046 10.4053 4.04091 10.3235 4.03557C9.99644 4.01068 9.67644 3.90046 9.34755 3.94135C8.4391 4.05335 7.53421 4.17424 6.62755 4.30224C6.29866 4.34846 6.06577 4.53513 5.96088 4.85691C5.7671 5.44891 5.57333 6.04446 5.39021 6.64002C5.34933 6.77157 5.29777 6.90491 5.32799 7.05246C5.39733 7.38135 5.72799 7.70668 6.01777 7.72268C6.44799 7.74757 6.75377 7.54491 6.88355 7.14491L7.27466 5.95913C7.29955 5.88268 7.31555 5.80624 7.42577 5.79735C7.63199 5.7778 7.83999 5.7458 8.04266 5.71024C8.21688 5.67824 8.23999 5.7298 8.19733 5.89691C7.95733 6.81424 7.72977 7.73513 7.4951 8.65424C7.29244 9.44891 7.4791 9.94313 8.15288 10.4036C8.94221 10.9405 9.72799 11.4791 10.5173 12.0125C10.6435 12.0978 10.7093 12.192 10.7342 12.3485C10.8764 13.2516 11.0275 14.1529 11.1822 15.0542C11.2622 15.5218 11.6782 15.84 12.1084 15.7707C12.5884 15.696 12.8907 15.2676 12.8107 14.7751C12.6329 13.7049 12.4515 12.6347 12.272 11.5645C12.2275 11.3085 12.0907 11.1129 11.8827 10.9636C11.3493 10.5831 10.8213 10.1938 10.2809 9.82402C10.128 9.71913 10.1084 9.6178 10.144 9.45602C10.3378 8.57957 10.5244 7.70135 10.7147 6.82313C10.7378 6.71646 10.7662 6.61335 10.8071 6.44268C11.1004 6.89246 11.3742 7.28357 11.6178 7.69424C11.8275 8.0498 12.0978 8.26846 12.5298 8.26135C13.0595 8.25246 13.5875 8.26135 14.1173 8.2578C14.6062 8.25424 14.9635 7.91646 14.9653 7.46491C14.9689 7.0098 14.6115 6.66846 14.128 6.66313ZM5.5271 8.21868C5.30666 8.23824 5.2071 8.3858 5.15377 8.57602C5.03466 9.01335 4.90844 9.44713 4.80177 9.88802C4.76088 10.0605 4.69333 10.0694 4.53688 10.032C4.09599 9.92891 3.6711 9.76357 3.33688 9.74224C2.59377 9.74402 2.0551 10.1351 1.88621 10.7414C1.59999 11.7707 1.32621 12.8036 1.05599 13.8382C0.949326 14.2436 1.1751 14.6222 1.58221 14.7378C1.85244 14.8142 2.12799 14.8765 2.39999 14.9529C2.52444 14.9867 2.56533 14.9565 2.57955 14.8214C2.6791 13.8969 3.59821 13.3334 4.46755 13.6658C4.60621 13.7191 4.65244 13.7138 4.69155 13.5574C4.83555 12.9654 4.99733 12.3805 5.15377 11.792C5.42221 10.7734 5.69066 9.75291 5.95555 8.73424C6.03377 8.42846 5.83288 8.19202 5.5271 8.21868ZM10.6844 3.4258C11.5591 3.43113 12.2862 2.69691 12.2844 1.81513C12.2809 0.945796 11.5573 0.22224 10.688 0.220462C9.81332 0.218684 9.07732 0.938685 9.07732 1.79735C9.0791 2.70402 9.78488 3.42224 10.6844 3.4258ZM8.32888 11.2587C7.8951 10.9529 7.39733 10.7182 7.08799 10.1902C6.6791 11.7458 6.28444 13.2462 5.88799 14.7485C5.85599 14.8747 5.84533 14.9956 5.8791 15.1218C5.98044 15.5147 6.29866 15.7742 6.68266 15.7742C7.06844 15.7742 7.37955 15.52 7.49155 15.0987L8.43555 11.5449C8.4711 11.4169 8.44799 11.3422 8.32888 11.2587ZM3.98044 14.1796C3.54666 14.1742 3.17866 14.5351 3.17333 14.9671C3.16799 15.4027 3.52533 15.7689 3.96088 15.7742C4.39288 15.7814 4.76266 15.4205 4.76799 14.9867C4.7751 14.5529 4.41421 14.1831 3.98044 14.1796Z" fill="#09100D"/>
</svg>
