<svg width="48" height="48" viewBox="0 0 48 48" fill="none" xmlns="http://www.w3.org/2000/svg">
<path d="M24 2.125C24.7561 2.12501 25.5117 2.16362 26.2638 2.24068L26.4236 0.686384C24.269 0.465304 22.0942 0.540389 19.9599 0.909544L20.2275 2.44897C21.4734 2.23321 22.7355 2.12482 24 2.125V2.125Z" fill="#90B956"/>
<path d="M11.1772 6.27529L10.2602 5.01016C7.25555 7.18139 4.8095 10.0352 3.12349 13.3367C1.43748 16.6382 0.559722 20.2929 0.562471 24C0.552245 27.6059 1.38254 31.1645 2.98747 34.3935L4.38747 33.6998C2.88991 30.6863 2.11526 27.3651 2.12497 24C2.12219 20.5398 2.94143 17.1284 4.51523 14.0468C6.08904 10.9653 8.37238 8.30162 11.1772 6.27529V6.27529Z" fill="#90B956"/>
<path d="M24.7548 45.8622L24.8076 47.4238C27.0057 47.3505 29.1824 46.9678 31.2735 46.2867L30.7889 44.8013C28.8374 45.4368 26.806 45.7939 24.7548 45.8622V45.8622Z" fill="#90B956"/>
<path d="M9.93747 23.2188H11.5V41.1875H9.93747V23.2188Z" fill="#90B956"/>
<path d="M14.625 23.2188H16.1875V41.1875H14.625V23.2188Z" fill="#90B956"/>
<path d="M19.3125 23.2188H20.875V41.1875H19.3125V23.2188Z" fill="#90B956"/>
<path d="M46.9949 24.754L32.9141 17.9808C32.3538 17.7121 31.7098 17.6766 31.1234 17.8821C30.537 18.0877 30.056 18.5174 29.7861 19.077L25.5625 27.8577V20.0938C25.5613 19.0581 25.1494 18.0652 24.4171 17.3329C23.6847 16.6006 22.6919 16.1887 21.6562 16.1875H18.5312V3.6875C18.5312 2.8587 18.202 2.06384 17.6159 1.47779C17.0299 0.89174 16.235 0.5625 15.4062 0.5625C14.5774 0.5625 13.7826 0.89174 13.1965 1.47779C12.6105 2.06384 12.2812 2.8587 12.2812 3.6875V16.1875H9.15622C8.12058 16.1887 7.12769 16.6006 6.39538 17.3329C5.66308 18.0652 5.25115 19.0581 5.24997 20.0938V40.4063C5.25092 41.2086 5.49848 41.9912 5.95911 42.6481C6.41974 43.305 7.07116 43.8044 7.82513 44.0787C7.65789 44.4263 7.57904 44.8099 7.59558 45.1953C7.61212 45.5807 7.72354 45.9561 7.91995 46.2881C8.11637 46.6202 8.3917 46.8986 8.72152 47.0987C9.05135 47.2988 9.42547 47.4144 9.81068 47.4353C10.1959 47.4561 10.5803 47.3815 10.9298 47.2182C11.2793 47.0548 11.5831 46.8077 11.8141 46.4988C12.0452 46.1899 12.1965 45.8288 12.2545 45.4474C12.3126 45.066 12.2756 44.6762 12.1468 44.3125H18.6656C18.537 44.6761 18.5001 45.0658 18.5582 45.4471C18.6163 45.8284 18.7676 46.1895 18.9987 46.4983C19.2297 46.8071 19.5334 47.0541 19.8829 47.2173C20.2323 47.3806 20.6166 47.4552 21.0017 47.4343C21.3868 47.4135 21.7609 47.2979 22.0906 47.0979C22.4204 46.8978 22.6957 46.6195 22.8921 46.2876C23.0885 45.9557 23.1999 45.5804 23.2165 45.1951C23.2332 44.8097 23.1544 44.4263 22.9873 44.0787C23.6014 43.8545 24.1498 43.4804 24.5824 42.9902C25.0151 42.5001 25.3183 41.9096 25.4645 41.2724L36.4967 46.579C36.5892 46.6236 36.6895 46.6495 36.7919 46.6552C36.8944 46.661 36.997 46.6465 37.0938 46.6125C37.1907 46.5786 37.2799 46.5259 37.3563 46.4575C37.4328 46.389 37.495 46.3062 37.5394 46.2137L47.3603 25.7966C47.4501 25.6099 47.462 25.3952 47.3935 25.1996C47.325 25.0041 47.1816 24.8438 46.9949 24.754V24.754ZM31.8995 19.3118C32.0163 19.3118 32.1316 19.3382 32.2369 19.3889L45.6135 25.8233L44.9362 27.2314L31.5595 20.7971C31.3731 20.7071 31.2299 20.547 31.1614 20.3517C31.0928 20.1564 31.1045 19.9419 31.1938 19.7551L31.1942 19.7543L31.1941 19.7543C31.2581 19.6216 31.3583 19.5097 31.4831 19.4314C31.6078 19.3532 31.7522 19.3117 31.8995 19.3118V19.3118ZM13.8437 3.6875C13.8437 3.2731 14.0083 2.87567 14.3014 2.58265C14.5944 2.28962 14.9918 2.125 15.4062 2.125C15.8206 2.125 16.218 2.28962 16.5111 2.58265C16.8041 2.87567 16.9687 3.2731 16.9687 3.6875V16.1875H13.8437V3.6875ZM10.7187 45.0938C10.7187 45.2483 10.6729 45.3993 10.5871 45.5278C10.5012 45.6563 10.3792 45.7564 10.2364 45.8155C10.0937 45.8747 9.9366 45.8901 9.78506 45.86C9.63351 45.8298 9.4943 45.7554 9.38504 45.6462C9.27578 45.5369 9.20138 45.3977 9.17123 45.2462C9.14109 45.0946 9.15656 44.9375 9.21569 44.7948C9.27482 44.652 9.37496 44.53 9.50343 44.4442C9.63191 44.3583 9.78295 44.3125 9.93747 44.3125C10.1446 44.3127 10.3432 44.3951 10.4896 44.5416C10.6361 44.688 10.7185 44.8866 10.7187 45.0938V45.0938ZM20.875 45.875C20.7205 45.875 20.5694 45.8292 20.4409 45.7433C20.3125 45.6575 20.2123 45.5355 20.1532 45.3927C20.0941 45.25 20.0786 45.0929 20.1087 44.9413C20.1389 44.7898 20.2133 44.6506 20.3225 44.5413C20.4318 44.4321 20.571 44.3577 20.7226 44.3275C20.8741 44.2974 21.0312 44.3128 21.1739 44.372C21.3167 44.4311 21.4387 44.5312 21.5246 44.6597C21.6104 44.7882 21.6562 44.9392 21.6562 45.0938C21.656 45.3009 21.5736 45.4995 21.4271 45.6459C21.2807 45.7924 21.0821 45.8748 20.875 45.875V45.875ZM21.6562 42.75H9.15622C8.53484 42.7493 7.93911 42.5021 7.49972 42.0627C7.06034 41.6234 6.81318 41.0276 6.81247 40.4063V20.0938C6.81318 19.4724 7.06034 18.8766 7.49972 18.4373C7.93911 17.9979 8.53484 17.7507 9.15622 17.75H12.2812V21.6563H13.8437V17.75H16.9687V21.6563H18.5312V17.75H21.6562C22.2776 17.7507 22.8733 17.9979 23.3127 18.4373C23.7521 18.8766 23.9993 19.4724 24 20.0938V31.106L21.3198 36.678C21.1864 36.9553 21.1089 37.2563 21.0918 37.5636C21.0747 37.8709 21.1183 38.1785 21.22 38.469C21.3218 38.7595 21.4798 39.027 21.685 39.2565C21.8902 39.4859 22.1386 39.6726 22.416 39.806L23.994 40.565C23.9531 41.1575 23.6892 41.7124 23.2553 42.1178C22.8215 42.5233 22.25 42.7492 21.6562 42.75V42.75ZM36.47 44.8324L23.0933 38.398C22.9065 38.3082 22.7632 38.1478 22.6946 37.9523C22.6261 37.7567 22.6381 37.542 22.7279 37.3553L30.2365 21.7453C30.4239 21.9343 30.6423 22.0898 30.8823 22.2051L44.2589 28.6394L36.47 44.8324Z" fill="#90B956"/>
<path d="M36.5413 26.661C35.5666 26.1923 34.4748 26.023 33.4039 26.1747C32.3331 26.3265 31.3313 26.7923 30.5252 27.5134C29.7191 28.2345 29.1449 29.1784 28.8752 30.2258C28.6056 31.2732 28.6525 32.377 29.0102 33.3977C29.3679 34.4184 30.0202 35.3101 30.8847 35.9601C31.7491 36.61 32.7869 36.9891 33.8668 37.0492C34.9466 37.1094 36.0201 36.848 36.9514 36.2981C37.8828 35.7482 38.6301 34.9345 39.099 33.9599C39.726 32.6526 39.8089 31.1499 39.3294 29.7816C38.8499 28.4133 37.8472 27.291 36.5413 26.661V26.661ZM37.9587 32.5445L36.558 31.8708C36.871 31.0073 37.0247 30.0942 37.0117 29.1758L37.0075 28.905C37.4585 29.3833 37.782 29.9672 37.9482 30.6032C38.1144 31.2392 38.118 31.9068 37.9587 32.5445V32.5445ZM33.1019 34.0799L32.8961 34.2392L32.8921 33.979C32.8828 33.3033 32.9872 32.6308 33.201 31.9898L34.4631 32.5969C34.0957 33.164 33.6355 33.6653 33.1019 34.0799V34.0799ZM33.8783 30.5818C34.2457 30.0146 34.7059 29.5133 35.2395 29.0987L35.4454 28.9394L35.4494 29.1996C35.4586 29.8753 35.3542 30.5478 35.1404 31.1889L33.8783 30.5818ZM34.1769 27.6833C34.2832 27.6833 34.3898 27.6891 34.4964 27.6979L34.283 27.8631C33.5574 28.4263 32.9399 29.1164 32.4607 29.8999L31.0616 29.2269C31.4271 28.7473 31.8984 28.3585 32.4387 28.0907C32.979 27.823 33.5739 27.6836 34.1769 27.6833V27.6833ZM30.3822 30.6339L31.7834 31.3079C31.4704 32.1714 31.3167 33.0845 31.3298 34.0028L31.334 34.2761C30.882 33.7979 30.5578 33.2136 30.3915 32.5769C30.2251 31.9403 30.2219 31.2721 30.3822 30.6339V30.6339ZM33.8444 35.4811L34.0584 35.3154C34.784 34.7523 35.4015 34.0623 35.8807 33.2788L37.2814 33.9525C36.8826 34.4751 36.3588 34.8889 35.7582 35.156C35.1576 35.4231 34.4995 35.5349 33.8444 35.4811V35.4811Z" fill="#90B956"/>
<path d="M26.566 38.3318L27.2426 36.9241L34.2816 40.3069L33.6051 41.7146L26.566 38.3318Z" fill="#90B956"/>
<path d="M34.318 11.3382C33.8603 10.8816 33.2402 10.6252 32.5937 10.6252C31.9472 10.6252 31.3271 10.8816 30.8694 11.3382C30.705 11.5022 30.4822 11.5943 30.25 11.5943C30.0177 11.5943 29.7949 11.5022 29.6305 11.3382L29.4352 11.1428C28.4072 10.1173 27.0145 9.54139 25.5625 9.54139C24.1104 9.54139 22.7177 10.1173 21.6897 11.1428C21.4806 11.3531 21.2319 11.5198 20.9579 11.6333C20.684 11.7467 20.3902 11.8047 20.0937 11.8039V13.3664C20.5955 13.3678 21.0926 13.2696 21.5562 13.0776C22.0198 12.8856 22.4407 12.6036 22.7946 12.2478C23.5292 11.5148 24.5247 11.1031 25.5625 11.1031C26.6003 11.1031 27.5957 11.5148 28.3304 12.2478L28.5257 12.4431C28.9834 12.8997 29.6035 13.1561 30.25 13.1561C30.8965 13.1561 31.5166 12.8997 31.9743 12.4431C32.1387 12.279 32.3614 12.1868 32.5937 12.1868C32.826 12.1868 33.0488 12.279 33.2132 12.4431L34.6531 13.883C37.4535 16.6989 41.2138 18.3535 45.1818 18.5156C45.5178 19.818 45.7327 21.1487 45.8238 22.4906L47.3826 22.3844C47.176 19.2882 46.3508 16.2649 44.9559 13.4931L43.5596 14.1944C44.0024 15.0763 44.3847 15.9872 44.7039 16.9209C41.3229 16.6527 38.1495 15.1831 35.758 12.7781L34.318 11.3382Z" fill="#90B956"/>
<path d="M27.4989 4.35412L40.5116 12.3063C40.96 12.5818 41.4883 12.6978 42.0108 12.6357C42.5334 12.5735 43.0198 12.3368 43.391 11.9638L46.4274 8.92746C46.5739 8.78094 46.6562 8.58221 46.6562 8.375C46.6562 8.16779 46.5739 7.96906 46.4274 7.82254L44.8649 6.26004C44.7372 6.13236 44.5692 6.05287 44.3894 6.03509C44.2097 6.0173 44.0294 6.06232 43.8791 6.16248L41.9687 7.43601L38.4017 5.05802L40.25 2.59373C40.3628 2.44328 40.4176 2.25718 40.4043 2.06959C40.3909 1.882 40.3104 1.70552 40.1774 1.57254L39.3961 0.791288C39.2802 0.675354 39.1307 0.598841 38.9689 0.572585C38.807 0.54633 38.641 0.571664 38.4943 0.644999L34.1904 2.79696L32.7441 1.92911C31.9974 1.47995 31.1218 1.29376 30.2569 1.40023C29.392 1.5067 28.5877 1.89971 27.9723 2.51658L27.3538 3.13504C27.2702 3.21861 27.2067 3.32006 27.168 3.43174C27.1293 3.54342 27.1165 3.66242 27.1304 3.77978C27.1444 3.89715 27.1848 4.00981 27.2486 4.10929C27.3124 4.20878 27.398 4.29249 27.4989 4.35412H27.4989ZM31.9402 3.26903L33.7542 4.35746C33.867 4.42505 33.9949 4.46313 34.1262 4.46816C34.2576 4.4732 34.388 4.44503 34.5056 4.38626L38.4206 2.42874L36.6562 4.78127C36.5925 4.86626 36.5467 4.96336 36.5218 5.06664C36.4969 5.16991 36.4932 5.27719 36.5112 5.3819C36.5291 5.48662 36.5682 5.58658 36.6261 5.67567C36.684 5.76475 36.7595 5.84109 36.8479 5.90002L41.5354 9.02502C41.6637 9.11055 41.8145 9.1562 41.9687 9.1562C42.123 9.1562 42.2737 9.11055 42.4021 9.02502L44.2129 7.81776L44.7701 8.375L42.2861 10.8589C42.1624 10.9833 42.0003 11.0622 41.8261 11.0829C41.6519 11.1036 41.4758 11.0649 41.3264 10.9731L29.1629 3.53987C29.5353 3.20245 30.0066 2.99392 30.5068 2.94514C31.007 2.89636 31.5096 3.00993 31.9402 3.26903V3.26903Z" fill="#90B956"/>
</svg>
