<svg width="50" height="50" viewBox="0 0 50 50" fill="none" xmlns="http://www.w3.org/2000/svg">
<path d="M20.4141 0.205812C19.5448 0.504104 19.037 0.822967 18.4021 1.49155C16.9274 3.04473 16.5953 5.21506 17.4645 7.59111C18.0115 9.09285 19.7011 11.0677 21.547 12.3741C22.7581 13.2381 24.5942 14.205 25.0044 14.205C25.4244 14.205 27.1629 13.2792 28.4814 12.3535C29.8683 11.3763 31.4114 9.75115 32.056 8.59913C33.9996 5.08134 32.8373 1.21383 29.5069 0.174954C28.2861 -0.205625 26.6159 0.0515231 25.5904 0.781824C25.3072 0.977256 25.0435 1.14183 25.0044 1.14183C24.9654 1.14183 24.7017 0.977256 24.4184 0.781824C23.3636 0.0412372 21.6349 -0.215911 20.4141 0.205812ZM23.1878 1.96471C23.4515 2.09842 23.891 2.42757 24.1645 2.70529C24.8482 3.38416 25.1314 3.38416 25.8346 2.69501C26.5671 1.99556 27.1434 1.72813 28.0321 1.6767C28.96 1.62527 29.6827 1.8927 30.3468 2.53043C31.636 3.74417 31.7923 5.52364 30.7863 7.57053C30.0636 9.03114 27.8856 10.9957 25.7565 12.1066L25.0044 12.4975L24.2524 12.1066C22.3577 11.1295 20.3555 9.41171 19.4765 8.01283C18.8905 7.09738 18.6365 6.31565 18.5877 5.30763C18.5486 4.62876 18.5779 4.3819 18.7635 3.8676C19.0467 3.05501 19.8574 2.191 20.6094 1.88242C21.3419 1.57384 22.5042 1.61498 23.1878 1.96471Z" fill="#90B956"/>
<path d="M12.3565 11.9729C11.7705 12.1787 11.5556 12.3227 10.9306 12.9295C10.618 13.2381 10.2957 13.485 10.2176 13.485C9.97343 13.485 8.14705 14.5033 7.51221 14.997C6.10581 16.077 4.70917 17.7536 3.66413 19.5948C1.80846 22.8554 0.216482 28.5436 0.0309144 32.5242C-0.0276858 33.81 -0.0276859 33.8202 0.255549 34.3654C0.63645 35.0957 1.09549 35.4248 2.30656 35.8157L3.31253 36.1449L2.78513 36.7517C2.49213 37.0809 2.12099 37.6466 1.95496 38.0169C1.40802 39.2306 1.36895 39.6009 1.36895 44.7645C1.36895 49.3623 1.36895 49.4651 1.57405 49.7326L1.76939 50H25.6978H49.6165L49.8118 49.7943C50.0072 49.5886 50.0169 49.496 49.9876 44.2605L49.9583 38.9426L49.6946 38.1815C49.1575 36.6283 48.1124 35.3837 46.7549 34.6945C46.0712 34.3345 41.6566 32.8945 40.553 32.6682C40.2698 32.6065 40.0451 32.3699 40.0451 32.1231C40.0451 32.0716 40.3577 31.8248 40.7288 31.5985C42.0864 30.7448 43.3463 29.2019 43.8541 27.7927L44.069 27.1858L44.6843 27.1447C45.202 27.1138 45.3778 27.0521 45.6708 26.795C46.2763 26.2807 46.3935 25.9412 46.3935 24.6761C46.3935 23.5446 46.3154 23.1435 46.0126 22.7937C45.8661 22.6292 45.8173 22.3412 45.7782 21.1994C45.7196 19.6565 45.5145 18.7308 45.0164 17.6713C43.9616 15.4599 42.3012 14.0301 39.9963 13.3718C39.2931 13.1661 38.9806 13.1455 36.9686 13.1455C34.9664 13.1455 34.6344 13.1661 33.9409 13.3615C31.7141 13.9993 29.9366 15.5216 28.9599 17.6508C28.4032 18.8439 28.2372 19.6051 28.159 21.2508C28.1004 22.4749 28.0809 22.6189 27.8465 22.9377C27.6219 23.2566 27.5926 23.4006 27.5633 24.3778C27.5242 25.5298 27.6121 26.0441 27.9442 26.4864C28.2372 26.8875 28.8329 27.1653 29.3701 27.1653L29.8389 27.1755L30.3663 28.307C30.8156 29.2944 31.0012 29.5722 31.6848 30.3025C32.1439 30.7859 32.7494 31.3105 33.1401 31.5368C33.56 31.8042 33.7944 32.0099 33.7944 32.1231C33.7944 32.3596 33.4526 32.7196 33.228 32.7196C32.7885 32.7196 27.6414 34.4065 27.0163 34.7563C26.2448 35.1883 25.2583 36.1654 24.8579 36.8752L24.5844 37.3689L24.0766 36.762L23.5589 36.1654L24.5063 35.8363C25.6588 35.4248 25.7955 35.3426 26.2252 34.9003C26.7526 34.3448 26.8991 33.7277 26.821 32.4214C26.6452 29.6236 25.8346 26.0338 24.6723 22.9069C22.9045 18.1548 20.2578 14.9867 16.8785 13.5775C16.605 13.4644 16.146 13.1455 15.8628 12.8781C15.1009 12.1478 14.5735 11.9112 13.5773 11.8701C13.0695 11.8495 12.5909 11.8907 12.3565 11.9729ZM14.2512 13.6907C14.6614 13.9067 15.1888 14.5136 15.267 14.8427C15.3158 15.0176 15.2865 15.0381 15.0619 14.9867C14.4173 14.8427 12.8937 14.8016 12.2686 14.9147C11.8975 14.9867 11.5752 15.0176 11.5556 14.9867C11.5263 14.9559 11.6045 14.7604 11.7217 14.5444C12.2491 13.5981 13.382 13.2175 14.2512 13.6907ZM38.7755 14.8221C40.7776 15.0999 42.477 16.2827 43.4146 18.0519C43.7955 18.7925 44.1081 19.7902 44.196 20.5823L44.2546 21.148L44.0788 20.7983C43.8151 20.2634 43.483 20.212 42.6919 20.572C41.9203 20.9217 41.7055 20.9834 40.7093 21.0966C39.5861 21.2303 38.5606 21.0657 36.2556 20.3663C33.3061 19.4714 32.3783 19.3274 31.0891 19.564C30.3175 19.708 30.0733 19.9034 29.8682 20.6028L29.7022 21.148L29.751 20.5823C29.8975 19.1114 30.7277 17.3833 31.7239 16.4679C32.681 15.573 33.8628 14.997 35.0836 14.8324C35.9529 14.709 37.916 14.709 38.7755 14.8221ZM9.86599 15.5319C9.86599 15.573 9.57299 15.7993 9.21162 16.0153C8.36192 16.5296 7.05318 17.8462 6.44764 18.7925C6.19371 19.2039 5.84211 19.9034 5.68584 20.3457C5.39284 21.148 5.0803 22.5983 5.0803 23.1743C5.0803 23.3903 4.97287 23.6166 4.74824 23.884C4.30873 24.3881 4.172 24.9538 4.22083 26.0338C4.2892 27.4635 4.82637 28.163 5.94954 28.2658L6.49648 28.3173L6.96528 29.3459C7.37548 30.251 7.55128 30.4979 8.33262 31.3208C8.90885 31.9276 9.43626 32.3802 9.79762 32.5756C10.3153 32.8431 10.3543 32.9048 10.3348 33.1825C10.3055 33.4294 10.2469 33.5014 9.96366 33.5837C9.77809 33.6351 8.66469 33.9642 7.50245 34.3243C6.33044 34.6843 5.29517 34.9826 5.1975 34.9826C4.8459 34.9826 1.93542 33.9334 1.75962 33.7482C1.51545 33.4911 1.50569 32.8842 1.71079 31.2179C2.01356 28.811 2.58003 26.4555 3.4688 23.9663C4.83614 20.1194 6.78948 17.3525 9.22139 15.8096C9.86599 15.3982 9.86599 15.3982 9.86599 15.5319ZM18.1677 16.1902C19.5155 17.157 20.7754 18.6382 21.8302 20.5308C23.5394 23.596 24.9653 28.5539 25.2486 32.4728C25.3462 33.7791 25.3169 33.81 23.2464 34.4991L21.6349 35.0443L19.6034 34.4065C18.49 34.0568 17.3473 33.7071 17.0641 33.6454C16.1753 33.4191 16.0581 33.1002 16.732 32.7505C18.1091 32.0408 19.4471 30.4876 20.082 28.8624C20.2773 28.3481 20.2773 28.3481 20.8145 28.2864C21.6446 28.1938 22.2209 27.7824 22.4553 27.1344C22.5822 26.7744 22.592 24.7995 22.4748 24.4601C22.426 24.316 22.2502 24.0486 22.0939 23.8635C21.8497 23.5652 21.7911 23.3697 21.6935 22.6086C21.3419 19.8314 19.9745 17.5788 17.738 16.1079C17.3278 15.8404 16.9957 15.5833 16.9957 15.5319C16.9957 15.4084 17.2692 15.5627 18.1677 16.1902ZM14.7298 16.6325C15.7749 16.8485 17.0934 17.5479 17.8552 18.2679C19.1444 19.5022 19.8964 21.0143 20.1503 22.8657L20.2089 23.2566H17.904C15.2767 23.2566 14.9447 23.1949 13.5187 22.4852C12.5714 22.0223 11.7119 21.4463 10.8427 20.7057C10.1981 20.1503 9.80739 19.9651 9.27999 19.9651C8.85025 19.9651 8.26425 20.2325 7.99078 20.5514C7.75638 20.8188 7.56105 21.3434 7.31688 22.372C7.12155 23.1846 7.08248 23.2566 6.86761 23.2566C6.64298 23.2566 6.63321 23.236 6.69181 22.7629C6.90668 21.148 7.54151 19.8314 8.68422 18.6176C9.38742 17.8771 9.68042 17.6508 10.452 17.2496C11.8877 16.509 13.2355 16.3136 14.7298 16.6325ZM33.2475 21.2406C33.6479 21.3228 34.7223 21.6211 35.6208 21.9091C38.1113 22.6806 38.6387 22.7834 40.094 22.7732C41.0023 22.7629 41.559 22.7012 42.0668 22.5674L42.77 22.372L42.8384 22.9377C42.9263 23.6989 42.8091 25.6326 42.6235 26.3938C42.1157 28.451 40.3967 30.2613 38.4239 30.8168C37.6816 31.0328 36.2556 31.0328 35.5134 30.8168C34.0777 30.4156 32.5248 29.1401 31.8704 27.8338C31.2649 26.6098 31.1574 26.0132 31.1574 23.884C31.1574 21.9914 31.2356 21.3434 31.47 21.1788C31.6653 21.0554 32.4369 21.0863 33.2475 21.2406ZM10.1102 22.228C11.9268 23.7092 13.4113 24.4601 15.2377 24.8406C15.4721 24.8921 15.4818 24.9229 15.4525 25.5709C15.4037 26.4967 15.4721 26.7332 15.8628 26.9184C16.146 27.0624 16.2241 27.0727 16.4683 26.9492C16.8883 26.7332 17.0152 26.3938 16.9664 25.5915L16.9273 24.9023H17.9821H19.0467V25.7972C19.0467 27.587 18.5095 28.9653 17.3375 30.1996C16.2437 31.3516 14.9056 31.9379 13.382 31.9276C11.8291 31.9071 10.6278 31.3619 9.47532 30.1585C8.28378 28.9139 7.81498 27.7104 7.81498 25.8589C7.81498 24.8201 7.81498 24.8098 8.09822 24.6041C8.42052 24.3572 8.49865 24.1823 8.84049 22.7937C9.12372 21.7034 9.15302 21.6109 9.27022 21.6109C9.30929 21.6109 9.68042 21.8886 10.1102 22.228ZM36.9686 32.6682C37.1835 32.6682 37.6132 32.6374 37.9257 32.6168L38.502 32.5654L38.629 32.9562C38.7755 33.3985 38.8048 33.3882 37.6523 33.5322C36.9491 33.6248 36.6951 33.6042 35.6892 33.4294L35.0934 33.3162L35.2008 32.9151L35.2985 32.5139L35.9431 32.5859C36.2947 32.6374 36.7537 32.6682 36.9686 32.6682ZM13.0402 33.5837C13.3136 33.6145 13.802 33.6042 14.134 33.5631L14.7298 33.4808L14.8372 33.8717C14.9935 34.4065 15.5307 34.9517 16.0386 35.0854C17.2106 35.3837 21.2833 36.6694 21.6739 36.8649C22.2892 37.1632 23.1585 38.0992 23.471 38.8089C23.8617 39.6832 23.9301 40.4547 23.9301 44.569V48.3543H22.9534H21.9865L21.9572 44.4662C21.9279 40.0844 21.9669 40.3415 21.1075 39.4569C20.121 38.4386 18.9881 37.9655 17.5817 37.9655C16.2046 37.9655 14.8665 38.5415 14.0168 39.5084C13.4992 40.0947 13.4601 40.0844 12.7472 39.4158C11.6533 38.3975 10.618 37.9655 9.23116 37.9655C7.50245 37.9655 5.89094 38.8398 5.17797 40.1667C4.9045 40.6604 4.88497 40.7632 4.88497 41.7918C4.88497 42.769 4.9045 42.9233 5.0803 43.1084C5.3733 43.417 5.89094 43.417 6.20348 43.0981C6.35974 42.9336 6.40858 42.7279 6.42811 41.9873C6.46718 41.0821 6.46718 41.0615 6.83831 40.6604C7.04341 40.4341 7.47315 40.1152 7.78568 39.9609C8.28378 39.7038 8.45959 39.6626 9.23116 39.6626C9.99296 39.6626 10.1785 39.7038 10.6473 39.9404C10.9403 40.0947 11.458 40.4855 11.7998 40.8044C12.962 41.905 13.8703 41.9153 15.0033 40.825C15.8725 40.0021 16.5367 39.6832 17.484 39.6318C18.4509 39.5804 19.1444 39.8478 19.8769 40.5575L20.414 41.0718V44.713V48.3543H13.4406H6.46718L6.42811 47.0685C6.39881 45.9473 6.36951 45.7622 6.20348 45.5873C5.89094 45.2685 5.3733 45.2685 5.0803 45.5771C4.9045 45.7622 4.88497 45.9165 4.88497 47.0685V48.3543H3.9083H2.93163V44.2605C2.93163 39.9198 2.96093 39.6318 3.42973 38.6443C3.71296 38.0478 4.6408 37.0912 5.1975 36.834C5.66631 36.618 10.0027 35.25 10.579 35.1471C11.1845 35.034 11.917 34.2111 11.917 33.6454C11.917 33.4602 11.9658 33.4397 12.2393 33.4808C12.4053 33.5117 12.7765 33.5528 13.0402 33.5837ZM35.4157 35.0751L36.2166 35.25L35.4938 35.9494C35.0153 36.402 34.7516 36.5974 34.7223 36.5049C34.693 36.4329 34.566 36.0111 34.439 35.5688C34.2046 34.7768 34.2046 34.7665 34.4 34.8385C34.5172 34.8694 34.9664 34.9826 35.4157 35.0751ZM39.4982 35.5688C39.3712 36.0111 39.2638 36.402 39.2638 36.4432C39.2638 36.6489 38.961 36.4534 38.3457 35.8569C37.7011 35.2088 37.6913 35.1883 37.955 35.178C38.1113 35.178 38.5508 35.0854 38.922 34.9826C39.3029 34.8797 39.6349 34.7974 39.674 34.7871C39.7033 34.7871 39.6349 35.1368 39.4982 35.5688ZM30.9523 35.7746C30.7277 36.2169 30.4835 36.69 30.4054 36.834C30.0831 37.4923 30.0928 37.5232 33.267 42.697C34.9078 45.3816 36.3631 47.6857 36.49 47.8091C36.8026 48.1074 37.1346 48.1074 37.4472 47.8091C37.5839 47.6857 39.0392 45.3919 40.68 42.7073C44.1569 37.0192 43.9616 37.554 43.1216 36.0111C42.8286 35.4763 42.604 35.034 42.6138 35.0134C42.6821 34.9517 45.6122 35.9391 46.081 36.186C47.0772 36.7106 47.8683 37.698 48.2492 38.8809C48.4347 39.4672 48.4445 39.7449 48.4445 43.9313V48.3543H47.126H45.8075V44.713C45.8075 41.0204 45.7782 40.6398 45.4364 40.3724C45.1824 40.1667 44.7234 40.1975 44.4694 40.4547L44.2448 40.6707V44.5176V48.3543H36.9198H29.5947V47.1097C29.5947 46.4308 29.5557 45.7828 29.4971 45.6799C29.3506 45.3919 28.9013 45.2685 28.5497 45.4228C28.1493 45.6079 28.0321 46.0091 28.0321 47.2845V48.3543H26.7624H25.483L25.5123 43.7462L25.5416 39.1381L25.9127 38.3563C26.3424 37.4306 27.0945 36.5872 27.8465 36.186C28.2665 35.97 30.923 35.0443 31.2844 34.9928C31.3332 34.9826 31.1867 35.3426 30.9523 35.7746ZM33.6675 38.6032C34.107 40.1461 34.4586 41.4113 34.439 41.4318C34.4097 41.4627 32.0364 37.6466 31.9583 37.4409C31.9192 37.3586 32.7396 35.8054 32.8178 35.8054C32.8471 35.8054 33.228 37.0603 33.6675 38.6032ZM41.8129 36.9883L42.0278 37.41L40.7776 39.4569C40.0842 40.5884 39.4884 41.5553 39.4591 41.5964C39.3908 41.6787 40.8851 36.4226 41.0609 35.9391C41.1195 35.7849 41.1683 35.8157 41.3734 36.1654C41.5004 36.3917 41.6957 36.762 41.8129 36.9883ZM37.1542 39.7861C37.1835 39.9507 37.2714 40.6192 37.3593 41.2775L37.5155 42.481L37.2421 43.417L36.9784 44.353L36.7049 43.4067L36.4314 42.4707L36.6268 41.0204C36.7342 40.2181 36.8221 39.5495 36.8221 39.5392C36.8221 39.5186 36.8807 39.5084 36.9588 39.5084C37.037 39.5084 37.1249 39.6318 37.1542 39.7861Z" fill="#90B956"/>
<path d="M33.5991 23.5652C33.3451 23.8327 33.2767 24.1721 33.3256 24.8612C33.3842 25.6327 33.6479 25.8898 34.312 25.8384C34.3999 25.8384 34.566 25.7356 34.6734 25.6224C34.8394 25.4475 34.8687 25.283 34.8687 24.6041C34.8687 23.8429 34.8492 23.7709 34.6148 23.5755C34.2827 23.3081 33.853 23.2978 33.5991 23.5652Z" fill="#90B956"/>
<path d="M39.3224 23.5754C39.088 23.7709 39.0685 23.8429 39.0685 24.5526C39.0685 24.9846 39.1075 25.4166 39.1661 25.5195C39.2931 25.7766 39.801 25.9412 40.094 25.8281C40.5139 25.6635 40.6604 25.2932 40.6116 24.4806C40.5823 23.8634 40.5335 23.7194 40.3479 23.5549C40.0549 23.2977 39.6447 23.308 39.3224 23.5754Z" fill="#90B956"/>
<path d="M34.8883 27.8441C34.7223 27.9675 34.6735 28.1012 34.6735 28.4407C34.6735 28.8315 34.7223 28.9344 35.0739 29.2738C35.6599 29.8293 36.0603 29.9836 36.9686 29.9836C37.6328 29.9939 37.8281 29.9527 38.2871 29.7058C38.9708 29.3458 39.4005 28.7801 39.3224 28.3481C39.1857 27.6384 38.5118 27.4738 37.8769 28.0087C37.5449 28.2967 37.4081 28.3481 36.9784 28.3481C36.5487 28.3481 36.4119 28.2967 36.0896 28.0087C35.6599 27.6384 35.2399 27.5767 34.8883 27.8441Z" fill="#90B956"/>
<path d="M10.3641 24.604C10.2371 24.6555 10.0711 24.7789 10.0027 24.8818C9.82694 25.1183 9.82694 26.4349 10.0027 26.6715C10.3348 27.1344 11.1064 27.083 11.3212 26.5892C11.3798 26.4452 11.4287 26.0852 11.4287 25.7766C11.4287 25.0669 11.2822 24.7378 10.911 24.5938C10.7548 24.5423 10.618 24.4909 10.6083 24.5012C10.5985 24.5012 10.4911 24.5526 10.3641 24.604Z" fill="#90B956"/>
<path d="M11.3505 28.9448C11.2138 29.0888 11.1357 29.3151 11.1357 29.5311C11.1357 30.0043 11.7998 30.6728 12.4639 30.8786C13.8704 31.3003 15.5307 30.6523 15.6967 29.6031C15.7358 29.3048 15.7065 29.1917 15.5014 28.9757C15.1596 28.6157 14.7689 28.6259 14.3099 29.0168C13.6848 29.5414 13.1183 29.5208 12.4835 28.9654C12.1123 28.6362 11.6338 28.6259 11.3505 28.9448Z" fill="#90B956"/>
<path d="M28.3446 40.4341C28.0809 40.7015 27.993 41.1849 28.0516 42.1518C28.0906 42.7278 28.1492 42.9644 28.286 43.1084C28.5887 43.417 29.1064 43.417 29.3994 43.1084C29.5752 42.9233 29.5947 42.769 29.5947 41.7918C29.5947 40.7632 29.5752 40.6604 29.3701 40.4546C29.0868 40.1666 28.6278 40.1666 28.3446 40.4341Z" fill="#90B956"/>
</svg>
